<svg xmlns="http://www.w3.org/2000/svg" viewBox="0 0 193.8933 481.0353"><defs><style>.cls-1{fill:#fff;}</style></defs><g id="Слой_2" data-name="Слой 2"><g id="Слой_1-2" data-name="Слой 1"><path d="M184.8025,57.4854c5.1687,4.71,6.8807,10.995,7.7182,17.5524,1.7674,13.84,1.6433,27.7308.6674,41.6244-.4477,6.3733-.9467,12.7431-1.3836,19.1171a347.0855,347.0855,0,0,1-10.9809,64.1193q-6.9689,26.6559-11.9178,53.7646c-1.4789,8.1583-2.1532,16.462-3.2006,24.6988-.2819,2.2174-.6348,4.4266-.8841,6.6474a249.0907,249.0907,0,0,0-1.9768,32.0213c.1415,8.3.7013,16.5959,1.1864,24.8872.3358,5.74.8542,11.4685,1.3029,17.2013,1.1716,14.97,2.4779,29.93,3.4854,44.9111a271.0892,271.0892,0,0,1,.0251,37.358c-.4733,6.685-1.0215,13.3646-1.5,20.0492a10.8845,10.8845,0,0,1-2.9857,6.8854,19.2793,19.2793,0,0,1-9.2305,5.7817c-4.3237,1.1143-8.703,2.0476-13.0963,2.8512-9.4618,1.731-19.0756,1.9826-28.6395,2.6816-7.4948.5478-14.9988,1.1816-22.5062,1.2987-11.3458.1769-22.7051.2547-34.0211-1.0008a100.2717,100.2717,0,0,1-17.3111-3.7c-7.3232-2.1609-11.9715-7.0613-13.9027-14.5014a41.7084,41.7084,0,0,1-1.1937-9.4809c-.4123-15.9811-.0853-31.9581.5281-47.922.3371-8.7716,1.2906-17.5207,2.0087-26.2763.8224-10.0269,1.7427-20.046,2.5232-30.076.5205-6.6887.8571-13.3916,1.3012-20.0865a260.2307,260.2307,0,0,0-.0437-26.8052c-.5251-14.331-3.9-28.1084-6.7144-42.0236-1.9623-9.7007-3.7041-19.4457-5.62-29.156-3.2755-16.6027-6.6078-33.1924-10.446-49.6794a254.6,254.6,0,0,1-4.6233-29.8034C1.8221,136.44.8714,122.41.2161,108.3752a170.1062,170.1062,0,0,1,1.5472-33.464,51.828,51.828,0,0,1,1.8786-7.42,12.9806,12.9806,0,0,0,.2744-6.5973,63.29,63.29,0,0,1-1.2105-9A19.12,19.12,0,0,1,5.765,40.5221c1.7614-2.8307,3.0862-5.9344,4.5715-8.9336.4952-1,.9058-2.0439,1.3231-3.0805a16.6824,16.6824,0,0,1,9.0941-9.3131,58.09,58.09,0,0,0,11.4522-6.9174c11.2707-8.7631,24.14-11.1532,37.96-10.2446,2.2335.1468,4.4637.3435,6.6975.4844a23.0087,23.0087,0,0,0,8.5-1.169A34.9174,34.9174,0,0,1,90.4772.1748a10.7129,10.7129,0,0,1,8.6188,2.017c3.2941,2.5753,7.3946,2.8308,11.1958,3.9367a3.2051,3.2051,0,0,0,1.8805-.1615c2.9824-1.1217,6.0087-.1815,9.0052-.206a7.3509,7.3509,0,0,1,3.642,1.0738,10.1712,10.1712,0,0,0,9.65.55,12.2146,12.2146,0,0,1,3.7723-.6329c2.641-.1633,5.1474.2993,6.9981,2.3978a10.4205,10.4205,0,0,0,4.445,2.7185c3.4428,1.2765,6.8644,2.6376,10.3765,3.6914a18.9025,18.9025,0,0,1,7.1195,3.8059c3.5009,3.0393,6.9614,6.1251,10.4347,9.196a15.79,15.79,0,0,1,4.2991,6.8089C184.3711,42.2889,185.1731,48.2191,184.8025,57.4854ZM130.3087,418.6847a11.9015,11.9015,0,0,0,2.0544-1.1037,93.8282,93.8282,0,0,0,16.4581-17.2237c.6812-.93,2.0251-1.782,1.2124-3.2644-.4824-.88-1.6782-.2549-3.1832,1.8508a118.4278,118.4278,0,0,1-15.4065,17.5731,14.5605,14.5605,0,0,0-1.4339,1.84c-1.0321.69-2.0858,1.3512-3.09,2.08-.892.6473-1.7458,1.3505-2.5859,2.0648a7.254,7.254,0,0,0-2.6954,2.885c1.1493-.2492,1.8968-.1861,2.27-.5291C126.0908,422.8525,128.185,420.7526,130.3087,418.6847ZM81.6561,394.9809a108.1985,108.1985,0,0,1,.1159-11.4365c.2152-2.0164.6472-3.8759-.0362-5.8821a3.1492,3.1492,0,0,1,.4407-2.2343,4.6612,4.6612,0,0,0,.5589-4.139,4.9894,4.9894,0,0,1,.0156-4.8762c.4051-.79-.6688-2.3491-.2534-3.1185,1.09-2.0194.6136-4.0668.6327-6.0853.0681-7.1888-.0005-14.3788.0215-21.5682.0032-1.0469.2175-2.0932.3966-3.7.8813.6392,1.623.8943,1.7122,1.2946a19.0115,19.0115,0,0,1,.4025,3.7679c.1329,7.1887.2179,14.3783.3331,21.5673a16.5884,16.5884,0,0,0,.203,3.3368c.2514,1.1216,1.138,1.4328,2.2593.9662.8681-1.4547.53-3.0908.5248-4.657-.0254-7.19-.1242-14.38-.1719-21.5693-.0066-1.0052-.285-2.1064.4836-3.0406,1.5378.6719,1.253,1.9158,1.3119,2.9381.4417,7.6545.8331,15.3118,1.2514,22.9676a19.3713,19.3713,0,0,0,.3437,3.7979c.2477.9513,1.033,1.6154,2.4987.6741,0-1.8469.01-3.903-.0027-5.9591-.0124-2.077-.0253-4.1545-.077-6.2309-.0555-2.2359-.1448-4.4711-.24-6.7058-.1475-3.462-.1549-3.4617.9308-5.68,1.2.28,1.2737,1.2825,1.3467,2.2108.2505,3.185.5315,6.3708.6538,9.562.19,4.9491.2385,9.9034.3881,14.8542.0619,2.0477.756,3.245,1.5744,2.9012,1.36-.5715.9989-1.8536,1.003-2.9.0224-5.7518-.025-11.5037-.0082-17.2555.003-1.0161.1959-2.0317.392-3.9255a10.6019,10.6019,0,0,1,1.3024,2.31,32.4133,32.4133,0,0,1,.3391,3.81c.1021,2.0745.1542,4.1514.2292,6.2272s.1149,4.1535.2389,6.2262c.123,2.06-.17,4.3413.6293,6.1166,1,2.2209-1.1073,3.9167-.2834,5.9037a8.7716,8.7716,0,0,1,.3591,1.7563c3.6785,1.4552,4.4413,1.0154,4.5419-2.5381.0536-1.8947.0484-3.791.0788-6.49,3.0787,3.2836,1.43,6.7577,2.3044,9.745l2.54,1.6632a9.2946,9.2946,0,0,0-1.9728,1.246,2.1386,2.1386,0,0,0-.5673,1.6522,1.8919,1.8919,0,0,0,1.2469,1.2,23.7065,23.7065,0,0,0,3.463.0567c1.54-1.7818-.1717-3.98,1.6649-5.9045,2.2587,3.024,1.7678,6.3726,2.14,9.61l3.5086,1.7485a10.3663,10.3663,0,0,0-2.5012,1.0533,6.6365,6.6365,0,0,0-1.1056,1.9474,6.4267,6.4267,0,0,0,5.5825-.5523c.3507-2.2665.875-4.6087,1.053-6.9769a395.9423,395.9423,0,0,0,1.0443-44.54c-.2154-5.739-.8939-11.4606-1.365-17.19-.2412-2.9321-.2448-2.9318,1.02-5.8016.5866,3.5223,1.2392,6.7843,1.6551,10.076.82,6.4927,1.8217,12.9852,2.1735,19.5087.43,7.9693.3791,15.971.331,23.9575-.0424,7.0279-.3682,14.0541-.5661,21.0812a12.6025,12.6025,0,0,0,.0072,1.9081c.0288.23.4312.6173.5961.5855.4052-.0781,1.0221-.2838,1.107-.57a10.6125,10.6125,0,0,0,.45-2.7969c.0848-4.7925.1739-9.5863.1433-14.379-.065-10.2239.025-20.4563-.3755-30.6685-.3943-10.052-1.36-20.0807-1.9809-30.1253-.1968-3.184-.1227-6.3868-.1049-9.5806a2.9115,2.9115,0,0,1,1.5407-2.9231c1.4193,13.7868,2.8064,27.2788,3.73,40.8066.9233,13.52,1.5184,27.0634,2.2732,40.8883.3479-.601.7152-.9594.7582-1.3531a79.02,79.02,0,0,0,.881-9.5141q-.2155-16.5318-.8275-33.0573c-.2092-5.5814-.6433-11.1689-1.2949-16.7163-1.5339-13.0591-1.4355-26.1616-.97-39.2455.3061-8.6075,1.3874-17.19,2.1884-25.777a257.0934,257.0934,0,0,1,4.5463-31.27c2.8048-12.7861,5.8248-25.525,8.6884-38.2984,2.4092-10.7471,4.7311-21.5138,7.0815-32.2739a11.4506,11.4506,0,0,0,.5368-3.2879,5.1007,5.1007,0,0,0-1.25-2.4344c-.2994-.3785-1.0023-.4386-1.7734-.74-.4333,2.0483-.7487,3.7512-1.157,5.4316-1.47,6.049-3.0988,12.0626-4.4322,18.1411-2.2918,10.447-4.0918,21.0106-6.667,31.3843a348.7882,348.7882,0,0,0-8.7156,51.9115c-.3982,4.2891-1.0193,8.5585-1.6023,12.8282-.0932.683-.1233,1.66-1.5768,1.5852a10.6128,10.6128,0,0,1-.4292-4.987c.2839-4.4633.62-8.9234.9687-13.3823q1.3814-17.6851,4.4472-35.1591c1.686-9.5915,3.5619-19.15,5.3474-28.7239,2.0193-10.8265,3.6158-21.7348,6.4836-32.3961.7447-2.7681,1.1756-5.6261,1.643-8.46a12.801,12.801,0,0,0,.1465-3.7982,1.9911,1.9911,0,0,0-2.5413-1.8289c-.3325,1.2673-.7517,2.6215-1.0392,4.003-1.2361,5.9386-2.3919,11.894-3.6527,17.8272-3.9143,18.4191-8.8213,36.6429-10.5276,55.4884-.8352,9.2236-2.1719,18.3977-2.4228,27.6784-.1208,4.467-.5593,8.928-.9447,13.3838a47.3382,47.3382,0,0,1-.9413,4.7464,8.0245,8.0245,0,0,1-1.2387-5.5388c.1432-2.0715.3531-4.1428.3863-6.2166a291.9229,291.9229,0,0,1,2.0536-32.0276c1.2834-10.1366,2.4168-20.29,4.5026-30.3145,3.5141-16.89,6.2448-33.9169,8.5891-51.006a9.418,9.418,0,0,0,.1115-2.377,2.0939,2.0939,0,0,0-2.4572-2.0244c-.255,2.133-.4782,4.3016-.7825,6.4589q-.4347,3.0819-1.0112,6.1434c-.4127,2.1963-.9006,4.3786-1.359,6.5664s-.92,4.3749-1.3819,6.5619-.9454,4.3694-1.3855,6.5606c-.4087,2.0348-.7555,4.0821-1.1609,6.1176-.4367,2.1921-.8173,4.4016-1.3942,6.5576-.5386,2.0128-.5016,4.2663-2.26,6.4551a19.9047,19.9047,0,0,1,.2231-6.7207c.2072-1.7431.5488-3.47.7476-5.2142.8682-7.6166,1.8172-15.2264,2.52-22.8584.5859-6.3594.8491-12.748,1.3008-19.12a5.3478,5.3478,0,0,0-2.1811-4.9587c-3.9815-3.2072-7.8048-6.61-11.7041-9.9195a9.7939,9.7939,0,0,0-1.9237-1.4024c-1.5317-.7523-3.0019-.7969-4.271.9994,1.091,1.1162,2.1318,2.3191,3.3132,3.3636,3.353,2.9645,6.7659,5.8613,10.1493,8.7915a18.4968,18.4968,0,0,1,2.4611,2.2567c.5666.71.359,1.4664-1.0572,1.8485-1.5585-1.2489-3.2966-2.6209-5.0111-4.0217-1.7332-1.4161-3.4649-2.8357-5.1575-4.3-1.8133-1.5687-3.5467-3.2306-5.3775-4.7779-1.6521-1.3963-2.8409-3.3825-5.2943-4.4416-.23.86-.66,1.5526-.4677,1.9145a14.3534,14.3534,0,0,0,2.3605,3.504c4.4264,4.3895,8.9543,8.6769,13.4421,13.0048a34.5216,34.5216,0,0,1,2.7063,2.7052c.49.5908.7254,1.4073-.6018,2.0424-1.9238-1.7147-3.9488-3.4993-5.9505-5.31-1.8973-1.7157-3.7409-3.4917-5.6621-5.18-2.0019-1.7591-3.7045-3.8846-6.1944-5.5024a5.4433,5.4433,0,0,0,1.5044,6.66q6.0243,5.4927,12.0131,11.024a24.2434,24.2434,0,0,1,2.77,2.63c.5881.7457.8009,1.7619-.6755,2.5226-.7716-.5534-1.6993-1.1305-2.526-1.8271-3.6674-3.09-7.2938-6.2287-10.9682-9.31a14.618,14.618,0,0,0-2.2819-1.2291c0,1.3119-.0071,2.0927.0013,2.8732a7.5807,7.5807,0,0,0,3.4358,6.4243c2.9706,2.1581,5.74,4.5925,8.5829,6.9249a15.8971,15.8971,0,0,1,2.0934,1.9359,1.4969,1.4969,0,0,1,.0773,1.2886.9935.9935,0,0,1-1.5914.3814c-2.4665-1.7718-4.87-3.6309-7.3276-5.4154-.9982-.7248-2.0763-1.34-3.2485-2.0881-1.0164,2.3-.5861,3.9305,1.089,5.3284,2.0865,1.7411,4.1427,3.5187,6.194,5.3012a18.6555,18.6555,0,0,1,2.4144,2.3113c.3022.378.1678,1.1043.3085,2.3563a36.0361,36.0361,0,0,1-3.6181-2.26c-4.0709-3.3546-8.075-6.79-12.1352-10.1578a11.9065,11.9065,0,0,0-2.0812-1.0831c-.2647,3.7716.5551,6.5179,3.5085,8.6779,3.4769,2.5429,6.6686,5.4758,9.9728,8.2529a18.2873,18.2873,0,0,1,2.4556,2.2487c.5262.6407.5721,1.4726-.7312,2.006-1.4039-1.0509-2.9274-2.1722-4.43-3.3211-1.5238-1.1653-3.0066-2.3849-4.5445-3.5311-1.4893-1.11-2.7828-2.5288-4.65-3.4028a3.3614,3.3614,0,0,0,.9765,4.4914c3.27,2.8173,6.5713,5.5976,9.8613,8.3913a20.8355,20.8355,0,0,1,2.5213,2.1791c.7556.89.6566,1.7647-1.0647,2.1656-2.9578-2.3122-6.0893-4.7755-9.2424-7.2109-.5743-.4435-1.1327-1.1992-2.0138-.5208-.7872,3.026.2735,5.2342,2.7983,6.9692,2.8959,1.99,5.7,4.1144,8.5174,6.2156.43.3209,1.2157.7034.1512,1.6637-1.6551-1.0735-3.3486-2.2254-5.0953-3.29-1.8464-1.1257-3.3268-2.889-5.6167-3.5608-.8174,2.7308-.1684,4.5864,1.9858,6.0433,1.8511,1.252,3.5783,2.6877,5.3515,4.0534,1.1386.877,2.3165,1.7142,3.3758,2.68a2.5315,2.5315,0,0,1,.4643,3.5445c-3.94-1.3746-6.6848-4.79-10.57-6.52-1.0852,2.6538-.4592,4.5065,1.699,5.9505,1.86,1.2441,3.6816,2.5449,5.5045,3.8429a37.323,37.323,0,0,1,3.0526,2.3091c.6574.5786.7641,1.356-.104,2.337-3.5223-1.6256-6.4874-4.35-10.25-6.2674l-1.2126,3.859c3.029,2.13,5.9037,4.1165,8.737,6.1606a19.6147,19.6147,0,0,1,2.8781,2.4484c.5454.5835.7221,1.42-.5187,2.0364-5.46-2.6-10.0112-7.0094-15.7857-9.723a10.2333,10.2333,0,0,0,.16,5.5772c1.3315.9854,2.7246,2.0474,4.15,3.065,3.6423,2.6011,7.3157,5.1592,10.9345,7.7924.68.4944,1.7049,1.0875.5527,2.4522-2.3474-1.6113-4.6736-3.2713-7.0648-4.8321-2.4863-1.6228-4.6757-3.7843-7.695-4.6339-.9374,4.8937-.994,4.9741,2.4859,7.4206,3.6576,2.5714,7.4483,4.9533,11.1562,7.4545a12.436,12.436,0,0,1,1.7118,1.58.467.467,0,0,1-.0175.4465c-.1753.2286-.4449.6-.6234.5723a5.2109,5.2109,0,0,1-1.7935-.5383c-3.4587-1.9958-6.88-4.056-10.3365-6.0558a24.8535,24.8535,0,0,0-2.4644-1.0992c-1.0442,2.5759-.2671,4.28,1.74,5.5706.8064.5186,1.5785,1.0909,2.3909,1.6,2.98,1.8654,5.9951,3.676,8.9375,5.5981.6809.4449,1.9232.7227,1.3415,2.27a2.6492,2.6492,0,0,1-2.0891-.5641c-3.2922-1.9661-6.5786-3.9424-9.8959-5.8656a22.0042,22.0042,0,0,0-2.65-1.0885c-.1821,1.147-.31,1.9214-.4269,2.6974-.1371.9058-.265,1.813-.4268,2.926,4.0938,2.4973,8.0441,4.8951,11.98,7.3162a25.8325,25.8325,0,0,1,3.156,2.1337c.625.5262.8778,1.3278-.3465,2.1949-6.7989-3.4094-13.2541-7.8146-20.0576-11.4288a2.138,2.138,0,0,0-.0768,3.2093,17.4631,17.4631,0,0,0,2.8327,2.5514c5.2549,3.9093,10.4022,7.9811,16.3675,10.8311.7831.3741,1.7841,1.0112.4249,2.2541-2.2071-1.1276-4.5227-2.2056-6.7323-3.4688-2.2173-1.2677-4.3248-2.7261-6.4877-4.09-2.1285-1.3419-4.0567-3.03-6.6224-4.1294a5.94,5.94,0,0,0-.0706,4.7886c3.3958,2.2307,6.803,4.3221,10.0471,6.6412,3.2525,2.3251,7.0168,3.9375,9.8006,6.9651-3.7-.6678-6.5568-2.9893-9.69-4.7422-3.308-1.8506-6.3123-4.2667-10.29-5.6664a11.4631,11.4631,0,0,0-.1078,2.5224,5.5346,5.5346,0,0,0,2.961,3.5735c4.1043,2.4777,8.1916,4.9835,12.2826,7.483,1.09.6658,2.2165,1.285,3.2348,2.0473a1.2836,1.2836,0,0,1,.174,2.1845c-6.2766-2.4352-11.8819-6.4112-18.0868-9.2594-1.0383,3.5585-1.0719,3.69,1.02,5.0709,4.2688,2.8171,8.5993,5.5405,12.8924,8.3212a24.7566,24.7566,0,0,1,3.0969,2.2266c.3007.269.1639,1.0261.313,2.2823-4.2967-2.56-7.952-4.7855-11.6543-6.93-3.8355-2.2218-7.444-4.8426-11.516-6.9187-1.2447,2.7871-.3491,4.5378,1.8235,5.87q8.5831,5.2635,17.1567,10.5424c1.0388.6415,2.0194,1.3773,3.5,2.3946-1.0879.0867-1.6217.2984-1.9667.1282-1.717-.8469-3.3929-1.779-5.0669-2.71-1.8154-1.01-3.6165-2.0462-5.4175-3.082-1.6623-.956-3.28-1.9969-4.9837-2.8719-1.8034-.9261-3.2862-2.7653-5.532-2.4936-2.6937.3258-2.0674-2.9379-4.0392-3.4384a11.55,11.55,0,0,1-2.8643-1.7134c-3.94-2.4415-7.9086-4.8379-11.8107-7.338-2.8218-1.8078-5.54-3.7765-8.3406-5.6181-.5917-.389-1.2447-1.0951-2.0861-.3994-.7653,2.9074.38,4.7952,2.8761,6.3431,2.982,1.8488,5.7469,4.0458,8.6146,6.08,3.9087,2.7722,7.69,5.7538,11.7685,8.25,7.6278,4.669,15.4319,9.05,23.1568,13.5614a11.4717,11.4717,0,0,1,2.35,1.5814c.2716.269.045,1.04.045,1.7439-2.4063-.3432-4.156-1.5042-5.9743-2.4288a265.2365,265.2365,0,0,1-29.7142-17.5212c-3.5605-2.4381-7.1588-4.8214-10.7551-7.2067-.5975-.3963-1.1882-1.1329-1.9213-.5218,0,1.6963.0444,3.2566-.0124,4.8131-.0576,1.5788-.3552,3.1583-.3064,4.73.3422,11.0086.7475,22.0152,1.13,33.0225.0223.6386.0108,1.2785.04,1.9167.19,4.1463.4589,8.2905.5587,12.4388a84.2072,84.2072,0,0,1-.0794,11.4809,175.3565,175.3565,0,0,0-.8562,20.0949q.0074,5.75-.209,11.5c-.2834,7.3434-.8043,14.6812-.9252,22.0263-.0839,5.0951-1.4318,10.1182-.7619,15.2452.0287.2192-.349.4915-.5377.7388-9.9521-.8582-16.8635-7.0449-18.1009-16.65a66.5585,66.5585,0,0,1-.1012-16.7225c.8021-6.4928,1.3466-13.0258,1.7547-19.5568.5379-8.6091.7022-17.242,1.2734-25.8484a127.0232,127.0232,0,0,0-.3477-23.445q-.48-4.0439-.9582-8.0877c-1.374-11.5791-3-23.1192-5.2895-34.559Q30.801,229.1619,23.9325,205.21c-4-13.9931-5.6686-28.4817-7.8562-42.8435q-1.5147-9.9443-2.9631-19.8985a3.7446,3.7446,0,0,0-1.8516-3.1635,3.4061,3.4061,0,0,0-2.1962-.2749c-.3573.097-.711,1.0591-.6753,1.6054.1871,2.8667.4743,5.728.7724,8.5863a231.9227,231.9227,0,0,0,4.46,29.3429c6.3822,27.0384,12.6343,54.1056,18.1394,81.339,1.4551,7.1985,3.102,14.3691,3.6027,21.7232.5317,7.808,1.2545,15.6136,1.4514,23.4313.3178,12.6156.32,25.24.3522,37.861a102.8549,102.8549,0,0,1-.5507,11.0049c-.8354,7.9406-1.8831,15.8587-2.8006,23.791a356.3416,356.3416,0,0,0-2.6733,36.3049c-.0855,6.5488-.4292,13.094-.5467,19.6428q-.189,10.5417-.1483,21.0868a49.1276,49.1276,0,0,0,.5566,6.1957,11.9434,11.9434,0,0,0,6.5438,9.4742,53.3807,53.3807,0,0,0,8.7847,3.7424,69.6338,69.6338,0,0,0,18.4058,2.9529c5.5912.1872,11.1784.4931,16.77.6587a80.5441,80.5441,0,0,0,8.63-.0708c13.39-1.0451,26.76-2.3889,40.1622-3.235,8.4058-.5307,16.3012-3.0531,24.3365-5.1043a6.5085,6.5085,0,0,0,4.4319-3.4153c2.433-5.0322,4.74-10.0459,4.5959-15.919-.4543-18.5247-.3-37.07-1.7348-55.56-.6669-8.5948-1.5807-17.1743-2.5677-25.7394-1.06-9.2037-2.3792-18.3793-2.4843-27.666-.0614-5.43-.1771-10.8613-.1331-16.2909.1126-13.9008.3926-27.8,1.4742-41.6648a102.0662,102.0662,0,0,1,1.4414-11.4c2.24-11.5986,4.5448-23.1872,7.03-34.7356,3.09-14.3585,5.9432-28.7894,9.6938-42.9794,5.7446-21.7336,8.4687-43.87,10.2939-66.1754.2213-2.7042.2608-5.4266.2978-8.1418.0313-2.3029-.2971-2.8673-1.4626-3.0515-1.1854-.1873-1.678.4707-1.8091,2.7094-.3456,5.8982-.7131,11.7964-.947,17.7-.4248,10.7173-1.4286,21.3487-4.1285,31.771a41.17,41.17,0,0,0-1.3069,6.5707,64.2517,64.2517,0,0,1-3.0147,13.5287,309.57,309.57,0,0,0-7.8535,30.1135q-4.2231,20.4018-8.3891,40.8153c-3.3,16.1643-5.4264,32.44-4.8471,48.9963.4636,13.2524.5769,26.52,1.2375,39.7614.4611,9.2429,1.5,18.4614,2.448,27.6737.4569,4.4419,1.4063,8.8313,1.9453,13.2671,1.2741,10.4851,1.1192,21.0362,1.2274,31.57.0361,3.5115-.2123,7.0262-.34,10.539a17.2466,17.2466,0,0,0,1.344,7.94,20.0159,20.0159,0,0,1,1.5466,11.2561c-.8075,5.4273-2.8411,10.285-8.5453,12.18-5.1364,1.7063-10.3534,3.5685-15.6767,4.24a374.9973,374.9973,0,0,1-45.4844,2.5106c-15.6788.0614-31.3432-.5795-46.992-1.521a40.617,40.617,0,0,1-7.0854-1.15,7.2425,7.2425,0,0,1-5.812-7.7038c.0864-2.0211.4893-4.0288.7785-6.2681.9043.1973,1.5039.312,2.0954.4594a175.5948,175.5948,0,0,0,23.5577,4.2812,258.6431,258.6431,0,0,0,33.5515,1.138c11.8333-.2617,23.6644-.6223,35.4964-.9423,3.35-.0906,6.7017-.2,9.8514,1.06,1.5634,2.8908,1.5634,2.8931,4.2714,2.8489.48-.0079.961-.0873,1.4373-.06a5.7731,5.7731,0,0,0,5.7244-2.7359,5.7831,5.7831,0,0,1,3.1206-2.0669,6.21,6.21,0,0,0,2.6929-1.7915,6.1318,6.1318,0,0,0,.85-3.1461c.08-1.6147.611-3.3616-.5973-5.0732-1.1348,1.868-2.1032,3.4623-3.2634,5.3723-.6689-1.3106-1.1507-2.2544-1.647-3.2267a6.2729,6.2729,0,0,0-1.5156.2219c-8.3289,3.6532-17.1849,4.7512-26.13,5.5253-13.2764,1.1491-26.5382-.1178-39.8067-.12a26.077,26.077,0,0,1-3.6045-.48c-.7844-4.5609-.6817-7.3769.3265-10.5057,5.9021,0,11.8089.0675,17.7134-.0188,6.0413-.0884,12.08-.3278,19.1963-.532a10.27,10.27,0,0,0-5.4963-1.4394c-4.9287-.4883-9.8612-.9363-14.79-1.4256-.6379-.0633-1.2467-.29-1.0709-1.1651a47.8146,47.8146,0,0,1,12.1646-.8934c5.2585.3135,10.5384.4268,15.8063.3637,2.7645-.033,4.6983-1.918,6.1313-5.3587-4.2357.0218-8.3339.3143-12.4272.0891-3.99-.2194-7.9946-.1548-11.9922-.2421-4.158-.091-8.3178-.1587-12.4723-.34-4.1181-.18-8.2867.2762-12.3821-.7239a9.7259,9.7259,0,0,1,.0916-5.87c12.7826-.6748,25.4212.6314,37.54-.8929,2.4153-2.5559,4.4563-4.7939,6.582-6.9486,4.1536-4.21,8.42-8.3114,12.5078-12.5835,1.9812-2.07,3.6887-4.4065,5.46-6.6694.3163-.4041.997-.9308.3244-1.5906-.18-.05-.3741-.1718-.4584-.1187-1.59,1.0021-3.1672,2.025-4.7636,3.0543-2.5383-.9847-2.5394-.9883-4.8766-.2984-.6125.1808-1.2106.4111-1.8245.5867-10.3781,2.9687-20.9036,4.509-31.7389,3.5858-3.6575-.3116-7.3521-.1979-11.03-.2465a3.6025,3.6025,0,0,0-1.8634.2761,2.2815,2.2815,0,0,0-.8058,1.53c-.0369.2954.5007.9.85.9616a21.4731,21.4731,0,0,0,3.3369.2612c8.63.1527,17.2637.638,25.8437-.94a25.8192,25.8192,0,0,1,5.74,0c.47.0211.9219.4574,1.5027.7671-.5093.441-.7078.7484-.9694.8175-1.8369.4856-3.3556,1.0792-2.7962,3.56.1278.5669-.6822,1.3448-.9278,1.7868-2.5055.2593-4.7114.3946-6.88.7526a1.5612,1.5612,0,0,0-1.2713,2.1452c1.27,1.22,3.5141-.066,4.707,1.6751-.3844.2772-.5917.5476-.8341.584a212.5161,212.5161,0,0,1-26.7771,1.9176,20.5107,20.5107,0,0,1-3.352-.1275,15.4662,15.4662,0,0,1-2.4477-.7258v-7.5787c2.6778-.8166,5.2583.3187,8.0935-.7416-1.4109-1.3133-2.7086-1.0572-3.89-1.1735-1.3736-.1354-2.7477-.2647-3.8357-.3692-1.44-2.5577,1.3622-2.6356,1.76-3.9451-2.0955-3.1423-2.0955-3.1423-1.4352-6.2918.8688,0,1.8-.0026,2.7312,0,4.7964.0154,9.5932.0683,14.3888.0169a7.419,7.419,0,0,0,2.7026-.7079,1.2261,1.2261,0,0,0-.2808-2.1711,16.2239,16.2239,0,0,0-2.852-.1342c-3.8384.0141-7.6773.0924-11.5151.0546A9.1531,9.1531,0,0,1,81.6561,394.9809ZM7.6123,75.2263a2.7741,2.7741,0,0,0,.1451,3.1676c.6254.9251,1.328,1.8,2.0275,2.6729a171.7758,171.7758,0,0,0,20.0879,21.2146c4.6069,4.0827,4.0926,2.8235,3.9913,8.9055-.2342,14.0688-.1,28.1142,2.1429,42.0629a238.9987,238.9987,0,0,0,5.21,25.8014c5.0573,18.3183,9.2677,36.8469,13.0976,55.46.1868.9077.5311,1.783.8247,2.7475a17.2117,17.2117,0,0,0,2.9184.598c3.3789.0906,6.015,1.7185,8.6173,3.675,5.11,3.8419,10.3262,7.5436,15.5288,11.2609a15.1922,15.1922,0,0,0,2.4589,1.1519,3.2952,3.2952,0,0,0-.8853-3.7886,15.6845,15.6845,0,0,0-2.2936-1.7174c-3.4108-2.3737-6.8348-4.7286-10.24-7.1106-.6172-.4319-1.48-.7061-1.4183-1.7831a10.942,10.942,0,0,1,8.8907,2.3883c1.5286,1.242,2.98,2.8166,5.0967,3.1a2.3237,2.3237,0,0,0-.2959-3.2012c-.7745-.7876-1.8178-1.3111-2.5953-2.0965a2.1736,2.1736,0,0,1-.3557-3.0956l3.2027,1.2735c.7193-3.02-.2853-5.1452-2.783-6.5127a3.3642,3.3642,0,0,1-1.7489-3.5994c.016-.2527.2924-.4889.5166-.839.944.292,1.9225.5949,3.399,1.0518-.31-1.05-.3238-1.7271-.6656-2.1185a10.42,10.42,0,0,0-2.1738-1.8359,5.7068,5.7068,0,0,1-2.8-4.24c-.6825-5.5324-3.4307-10.6369-3.3969-16.3218a3.5075,3.5075,0,0,0-.3056-.8987c-1.9171-6.41-3.996-12.7766-5.7045-19.2413a198.7045,198.7045,0,0,1-4.9108-26.3562c-1.9312-15.5724-2.2286-31.2229-1.9958-46.89a23.9813,23.9813,0,0,1,.43-3.097c2.3821-1.2246,4.68-.5885,6.8594-.8863.8537-.1167,1.9857.35,2.4923-1.2034-1.3785-1.3594-2.8347-2.8178-4.3166-4.25-1.2644-1.2219-2.5856-2.3861-3.8282-3.6293A1.8966,1.8966,0,0,1,62.48,94.29,15.6138,15.6138,0,0,1,64.2776,95.57c2.4424,2.3016,4.8417,4.6489,7.27,6.966a21.3007,21.3007,0,0,0,2.497,2.2283,7.38,7.38,0,0,0,8.0377.0655c-.7277-.6829-1.3984-1.341-2.0994-1.9652C74.9684,98.3991,69.9367,93.9528,64.94,89.468a15.2264,15.2264,0,0,1-2.5847-2.7932,1.6,1.6,0,0,1,.5494-2.5461c1.1488.979,2.3683,1.9762,3.5411,3.0255,4.0512,3.6245,8.055,7.3024,12.139,10.8895,2.401,2.1089,4.8653,4.1559,7.4124,6.0839a6.884,6.884,0,0,0,3.3977,1.4929,16.7571,16.7571,0,0,0,6.6371-.5871c-.339-1.76-1.7965-2.3247-2.8353-3.2A348.2141,348.2141,0,0,1,64.5813,74.1882c-2.0511-2.1726-2.0389-2.4521-.7849-6.03a98.31,98.31,0,0,1,8.0174,8.9743c2.2345,2.7022,4.5771,5.3332,7.0607,7.8066,2.2592,2.25,4.7742,4.2432,7.1729,6.3536,3.7211,3.2737,7.7217,6.2883,11.0832,9.8965,3.7588,4.0346,8.249,4.3328,13.1315,3.9081.6318-.0549,1.2476-.297,1.8794-.3491a10.4033,10.4033,0,0,1,2.3431-.0059,37.8845,37.8845,0,0,0,12.4027-.2064,11.2532,11.2532,0,0,1,2.8089.0086c1.1034.0819,2.1979.3641,3.2991.3811,12.4755.1929,24.9522.3122,37.427.54a56.8762,56.8762,0,0,1,13.8024,1.4358,11.0578,11.0578,0,0,0,2.5121.0258c0-2.8065.0554-5.3413-.0109-7.8729-.1674-6.3848-.3168-12.7716-.6174-19.1508-.18-3.8225-.456-7.6573-1-11.4418-.8624-5.9969-1.71-6.5916-7.75-6.3834-.2638.0091-.5184.284-1.0953.6208.0376,4.0989.2475,8.3733.4595,12.6538q.3083,6.2219.3269,12.457c.0109,4.28.3769,8.5819-.3115,12.7146-1.0935.6907-1.9437.811-2.4783.0641-.2564-11.5878-.5009-22.9182-.7677-34.2481a25.2883,25.2883,0,0,0-.3052-3.3339c-.1553-.9856-.7947-1.1352-2.6092-.68,0,2.0252-.0414,4.079.0073,6.1308.2158,9.1029.4693,18.205.6765,27.308a16.2473,16.2473,0,0,1-.2387,3.8132c-.2231,1.0183-1.0009,1.5943-2.2714.7648-.3731-1.9032-.894-3.9079-1.1283-5.9454-.2181-1.8963-.1382-3.8275-.1771-5.7436-.1587-7.8249-.2949-15.65-.4888-23.4742a13.7264,13.7264,0,0,0-.5509-3.26c-.0735-.2668-.7411-.3706-1.142-.5521-.8867,1.6236-.5222,3.2508-.4871,4.8178.21,9.4239.486,18.8463.712,28.27a42.1568,42.1568,0,0,1-.1346,4.3059,1.7238,1.7238,0,0,1-1.9265,1.6889,12.4057,12.4057,0,0,1-2.2353-.4758c-.21-3.4773-.5172-6.6507-.5726-9.8284-.1531-8.7832-.192-17.5684-.3069-26.3524a9.4413,9.4413,0,0,0-.407-2.3067c-.0515-.19-.4723-.384-.7248-.3858-.2609-.0018-.7272.1966-.7528.3616a24.4467,24.4467,0,0,0-.4107,3.7353c.0108,9.9065.0935,19.8129.0889,29.7194-.0009,1.7172.3467,3.5182-.6818,5.2941l-2.0882-.1852a43.55,43.55,0,0,1-1.4127-13.0432c.077-1.7548.0464-3.5143.0616-5.2718.054-6.2312.1229-12.4623.1407-18.6937.0024-.8561.278-1.99-1.3455-2.2317-1.0207,1.3348-.5472,2.9568-.5638,4.4452-.11,9.9046-.1411,19.81-.261,29.7147-.0209,1.7265.1687,3.5281-.721,5.1039a1.879,1.879,0,0,1-2.8182-.3612c-.2023-3.7014-.6325-7.6731-.5916-11.64.084-8.1438.4357-16.2845.6345-24.4276a30.3108,30.3108,0,0,0-.3241-3.474,7.3592,7.3592,0,0,0-2.4225.1892,2.0625,2.0625,0,0,0-.8452,1.55,43.6241,43.6241,0,0,0,.0346,5.2674c.7344,10.3886-.0871,20.76-.3065,31.1375a8.839,8.839,0,0,1-.3756,1.7471c-1.2238.4216-2.0931.2278-2.2807-1.0144a20.0126,20.0126,0,0,1-.0706-2.8687c-.0538-10.8625-.0929-21.725-.1742-32.5872a24.6744,24.6744,0,0,0-.401-3.1255c-1.6226-.3406-1.6226-.3406-3.5865.2877,0,1.465-.0154,3.0418.0027,4.6181.0826,7.19.1839,14.3793.2556,21.5691.0143,1.4365-.0206,2.8779-.1258,4.31a5.0376,5.0376,0,0,1-2.1536,4.248,6.7613,6.7613,0,0,1-1.4694-4.9048c.0615-2.715.2237-5.4277.2863-8.1428.1472-6.3887.3171-12.7778.3628-19.1676.0213-2.9824-.64-3.5016-3.7812-3.51a6.787,6.787,0,0,0-1.63.5026c-.0842,1.3516-.2387,2.7524-.2469,4.154-.0308,5.2728.0181,10.5463-.035,15.8187a27.6605,27.6605,0,0,1-.4577,4.7441c-.1152.6208-.2438,1.6105-1.5315,1.5909-1.0814-1.4993-.754-3.301-.7575-4.9926-.0126-6.0717.0712-12.1434.08-18.2152.0018-1.2453-.1643-2.4909-.2661-3.92-2.3092-.4159-4.33-1.3367-6.7491-.9595a20.7592,20.7592,0,0,0-.4749,2.8921c-.048,2.2349.0858,4.474.0306,6.7085q-.1719,6.9432-.4823,13.8826c-.0407.9361-.1969,1.9588-1.5616,2.06-.7619-1.8232-.5475-3.7283-.5117-5.6453.1136-6.0693.143-12.14.1728-18.211a11.0894,11.0894,0,0,0-.3464-1.9337,9.9667,9.9667,0,0,0-1.8849-.4725c-5.752-.2553-11.5042-.58-17.26-.6665-5.9166-.0894-11.8368.0878-17.7555.0978-1.9164.0032-3.8359-.1143-5.7479-.2573-.72-.0539-1.608-.1321-1.4288-1.54,3.2829-.3062,6.607-.8247,9.94-.8886,10.3944-.199,20.7922-.22,31.1884-.3293.918-.01,1.8345-.1544,2.9844-.2573.1293-1.477.2252-2.7133.3489-3.9468.1331-1.3279-.1674-2.79,1.0841-4.2118,1.846,2.6515.37,5.6406,1.7182,7.924,3.5994.69,3.5994.69,6.6565-.2737.0947-1.02.19-2.1149.2994-3.2086.1077-1.0821-.08-2.2982,1.2018-2.8333,1.8629,1.86.8321,4.6034,1.7922,6.6008,1.814.6609,3.3248.9236,4.8745-.0765,1.1514-3.16-.6943-6.6526.8673-9.724,1.2177-.0759,1.52.6444,1.5787,1.48.179,2.5443.2926,5.0931.4749,7.6371.0192.2687.3237.5169.5312.8274a3.0561,3.0561,0,0,0,4.1684-.5318c0-1.1308-.089-2.5622.0226-3.9778.1373-1.7431.3973-3.4808.699-5.2043.0991-.5662.3212-1.2814,1.51-1.0188,1.0249,3.3859.0992,7.0776.694,10.7185a9.9113,9.9113,0,0,0,1.9429.4944,5.2351,5.2351,0,0,0,1.5542-.529c.0724-1.7027.1567-3.4263.2163-5.1507.0716-2.0748.0589-4.1548.2032-6.2242.1023-1.4679.5225-1.6328,2.7721-1.4041.8328,2.1341.4477,4.3935.5,6.603.1,4.1911.0583,4.1921,1.0621,6.1942.8918.0064.993-.6985,1.01-1.2944.0646-2.2345-.0371-4.4771.107-6.7048a17.11,17.11,0,0,1,.8333-4.1594c.1783-.5466.9566-.8979,1.815-1.6454.1977,2.1308.3692,3.7094.4854,5.292.187,2.5494.31,5.1037.519,7.6511.0707.86.5083,1.4951,1.7946,1.3346a18.2722,18.2722,0,0,0,.4107-2.6116c.0532-2.5554-.0343-5.1138.0241-7.6689a15.4435,15.4435,0,0,1,.4619-3.2746,1.4031,1.4031,0,0,1,.9986-.828,1.3677,1.3677,0,0,1,1.1573.5843,21.0685,21.0685,0,0,1,.954,4.1406c.2761,2.86.3411,5.7392.5755,8.6038.06.7353.2526,1.6265,1.8388,1.3181.8363-3.9159-1.5144-8.3572,1.2068-12.6875a8.3949,8.3949,0,0,1,1.2378,2.2566c.3777,2.8472.5877,5.7161.9075,8.5716a7.4237,7.4237,0,0,0,.5649,2.2607,1.4228,1.4228,0,0,0,1.1656.5744,1.3991,1.3991,0,0,0,1.0218-.7562,4.947,4.947,0,0,0,.1412-1.8892c-.1384-1.9083-.3918-3.81-.4676-5.72-.0174-.4378.4977-.8968.8712-1.5182,2.4361,3.1341,1.0391,6.9418,3.1274,10.2688,2.2125-.1876,4.4714,1.3564,7.3722.8489-.1015-.9579-.1134-1.7259-.2724-2.4623-.9435-4.3693-1.8714-8.743-2.91-13.09a37.72,37.72,0,0,0-1.857-5.9326,11.8379,11.8379,0,0,0-2.5414-3.9908c-3.7194-3.5053-7.5905-6.8526-11.4585-10.1971a12.5837,12.5837,0,0,0-5.9213-3.0083,24.1335,24.1335,0,0,1-11.4205-5.76c-3.1859-2.75-6.8994-3.1006-10.8328-2.3714a20.0334,20.0334,0,0,0-2.7515.8259,10.3572,10.3572,0,0,1-8.7713-.9279,55.36,55.36,0,0,0-5.1262-2.6018c-1.8163-.7821-3.8-1.139-5.48.203-2.169,1.7319-4.3851,1.3978-6.8039.7856a17.0531,17.0531,0,0,1-7.7082-3.6481,6.8178,6.8178,0,0,0-4.83-1.7107,20.5908,20.5908,0,0,0-7.5688.9A29.7891,29.7891,0,0,1,75.1815,5.4833c-2.7163-.1258-5.4281-.3661-8.1451-.4543-2.2323-.0725-4.4736-.0823-6.7034.03-7.2837.3664-14.1168,2.5836-20.7889,5.3247a9.82,9.82,0,0,0-3.45,2.4529A32.8375,32.8375,0,0,1,23.58,21.4717,17.19,17.19,0,0,0,13.5648,31.7946C12.116,35.4965,10.1326,38.9879,8.43,42.5933a31.6325,31.6325,0,0,0-1.8241,4.4072c-.585,1.9644-.6079,10.0464-.1963,12.9556.7424,0,1.5211.0475,2.2925-.0071,11.3248-.8017,22.6464-1.6491,33.974-2.41,3.4832-.2339,7.003-.45,10.8869,1.1325-2.7067.4151-4.8881.8066-7.0848,1.0705-2.2217.2669-4.4584.41-6.6889.6023s-4.46.3767-6.69.565c-2.39.2019-4.7786.4346-7.1716.5972-2.2337.1519-4.4752.192-6.7083.35-2.1677.1537-4.4072-.1582-6.3876.5507-.0911.4905-.183.6646-.1337.777a6.8421,6.8421,0,0,0,.6465,1.2537A137.37,137.37,0,0,0,31.1783,85.0931a13.7179,13.7179,0,0,1,2.4856,3.43c.3826.693.2263,1.5753-1.2834,1.7786-4.05-4.2148-8.3324-8.5176-12.4343-12.9856-3.68-4.0083-7.0883-8.2461-9.2616-13.324a3.2211,3.2211,0,0,0-1.0477-1.5577,10.8451,10.8451,0,0,0-2.5238-.7135A9.5584,9.5584,0,0,0,8.8906,71.7261a193.7463,193.7463,0,0,0,21.2232,22.783A25.29,25.29,0,0,1,32.8747,97.16c.6617.8182,1.43,1.786.4823,3.2629-.8981-.6473-1.8155-1.2012-2.6085-1.8967A191.195,191.195,0,0,1,10.3766,77.5681C9.6081,76.6519,9.1421,75.292,7.6123,75.2263ZM153.2407,400.2349c-2.186,2.7292-3.8246,4.8756-5.5727,6.9291-1.7542,2.0607-3.5495,4.0959-5.4521,6.0187s-3.9757,3.6744-5.9442,5.5328c-1.89,1.7844-4.2743,3.046-6.0448,5.2594,2.5907,1.06,3.49-1.7328,5.4539-1.6792.273,1.2191.4647,2.4738.8419,3.67a4.6693,4.6693,0,0,0,4.1122,3.4889c.79.0994,1.5762.2663,2.3686.3024,2.7163.1243,4.0386-.7047,4.2913-3.3292a55.6728,55.6728,0,0,0-.2816-7.4705c.97-.8824,2.2489-2.058,3.5422-3.2178.7112-.6377,1.5167-1.1844,2.157-1.8841,1.631-1.7825,1.8409-3.828.64-6.4859-2.057,2.324-4.01,4.6048-6.0512,6.8041a20.6606,20.6606,0,0,1-3.1757,2.8415c-.922.651-1.8157.3439-2.3179-.896,3.23-3.6443,6.5088-7.31,9.7425-11.0143a23.456,23.456,0,0,0,2.234-3.0685C153.9265,401.8062,153.57,401.2672,153.2407,400.2349ZM57.5342,240.1427c-.3578,3.3013.33,5.6657,2.8817,7.324q11.4414,7.4341,22.8783,14.8748a5.077,5.077,0,0,0,1.394.3924c1.1958-2.7554.12-4.5067-2.16-6.0235-5.3149-3.5358-10.5253-7.2277-15.8167-10.7993C63.821,243.96,60.8822,242.0746,57.5342,240.1427Zm100.822-109.1433a34.3853,34.3853,0,0,1-.9613,4.7136c-.904,2.5665.1263,4.1714,2.2984,5.8282.5684-1.2308.9978-2.1606,1.4655-3.173,3.9138.8024,7.3369.4248,8.963-3.6058a12.0268,12.0268,0,0,0,.7815-5.1037,5.1309,5.1309,0,0,0-2.43-4.21C163.7182,125.321,161.4675,129.175,158.3562,130.9994ZM6.8759,82.0643c-1.03,2.8938-.419,4.6442,1.0546,6.3962a189.6068,189.6068,0,0,0,15.98,17.1216,12.7465,12.7465,0,0,0,1.83,1.5318,3.7982,3.7982,0,0,0,4.9161-.4709c-2.1424-2.0162-4.1269-3.84-6.0606-5.7157-2.0595-1.9979-4.1044-4.0131-6.0939-6.08-1.879-1.9522-3.6731-3.9858-5.513-5.9756C11.07,86.796,9.4656,84.4213,6.8759,82.0643ZM131.521,438.6306c5.4287-.4414,10.0481-1.0859,14.86-1.67-.36,3.1442,1.5585,4.1065,3.8,4.7575,1.677.4872,2.97-.191,3.3431-1.7083.5166-2.1014-.2953-4.15-1.9479-4.1413-2.16.0108-3.9852-1.0169-6.0046-1.3418-1.8779-.3023-3.7832-.4345-5.66-.74C136.2084,433.1828,134.06,435.2662,131.521,438.6306ZM21.3867,107.5857a3.0763,3.0763,0,0,0-.3463-.9717Q14.5633,99.6222,8.0363,92.6764a6.2154,6.2154,0,0,0-1.544-.8542c-.7388,2.4834-.3,4.223,1.4506,5.8475,2.5582,2.373,4.8946,4.9844,7.3277,7.4921a33.1186,33.1186,0,0,0,2.3461,2.3677A2.8168,2.8168,0,0,0,21.3867,107.5857Zm-9.4024,13.0351a15.3714,15.3714,0,0,0-2.4715-.3366c-1.7025.06-2.4.6791-2.4,2.2348a43.0617,43.0617,0,0,0,.284,6.1413c.2691,1.8665.8929,3.7065,3.39,4.0261.4105-.7038,1.0789-1.3454,1.14-2.04A40.8762,40.8762,0,0,0,11.9843,120.6208Zm111.1133-2.2892c1.951,3.2044,6.528,7.0327,10.624,8.9493,1.7631-3.5552-1.2036-5.0091-3.0341-7.0464A6.2865,6.2865,0,0,0,123.0976,118.3316ZM91.68,140.52c-1.3205,4.2956.009,8.2586,5.6427,10.284C98.092,145.8857,95.7741,142.8106,91.68,140.52ZM6.4764,108.65c1.3382,0,2.4317.08,3.5075-.0233,1.0141-.0976,2.1672.5859,3.2815-.6642a58.7882,58.7882,0,0,0-6.5332-7.26C5.6275,103.7364,5.6275,103.7364,6.4764,108.65Zm93.7954,19.8149c-1.153,5.5734.14,8.9592,4.1181,9.7811C105.1783,134.108,104.6916,130.5369,100.2718,128.4644Zm-.3,42.3043c.5328-5.0889-.5606-6.6981-5.6511-8.4885-.0921,2.8519-.1,3.5032.61,4.4467A10.2726,10.2726,0,0,0,99.972,170.7687Zm-9.5782,56.01c1.2392-6.3823.0084-7.6542-4.3832-9.1265,0,1.32.0193,2.5291-.0037,3.7378C85.949,224.4311,87.6959,225.9264,90.3938,226.7782Zm-2.5751-29.6494c.2909-2.14.29-3.815-.8582-5.2881a8.8253,8.8253,0,0,0-4.8993-2.8083C82.21,193.28,82.9781,194.424,87.8187,197.1288Zm7.0369-67.2262c.1724-2.8421.83-5.3665-.4671-7.6723-.5266-.936-1.2326-2.2567-2.9878-1.81C90.5959,124.0394,89.9555,127.541,94.8556,129.9026ZM72.4328,167.0563c.0227-5.4877-1.1032-7.1105-5.3705-8.5159C66.0493,162.89,69.1245,164.6511,72.4328,167.0563Zm6.5257,32.87c-.241-6.2958-.2491-6.3106-5.1883-8.9636C74.9362,194.5778,74.1623,198.4332,78.9585,199.9265Zm4.8442-1.2756c-.6033,4.2421.9895,6.682,4.6726,7.8563C89.3679,201.8347,89.0587,201.3011,83.8027,198.6509Zm17.09-19.49c.1881-3.3706.2249-4.2082-.3368-4.7054-1.4392-1.2742-2.6192-3.02-4.9209-3.2345C94.504,175.7194,97.7584,177.0006,100.8927,179.1613Zm-6.9284,44.14c-.0856,1.203-.1471,2.2831-.2422,3.36-.2323,2.6336.9827,4.0976,3.9162,4.6082,0-1.371-.0484-2.6024.01-3.8287C97.7681,224.9371,96.44,223.7588,93.9643,223.3011Zm-22.9477-43.58c.7725,5.4233,1.7287,6.7541,5.4734,8.0133C76.2838,183.136,75.2564,181.5521,71.0166,179.7215Zm7.5445-12.585c-.234,5.3787.87,7.0086,5.1324,7.9837C83.3411,171.745,82.1452,169.0653,78.5611,167.1365Zm19.5523-6.8031c1.2361-1.7027.942-3.0139.14-3.9515-1.3595-1.5893-2.8221-3.2092-5.2927-3.7183C92.351,156.98,95.7186,158.0918,98.1134,160.3334Zm2.6274-19.2168c-.6491,4.5359,2.9554,5.77,5.7727,8.285a6.1148,6.1148,0,0,0-1.2486-4.8559C104.1524,143.0221,102.9875,141.5247,100.7408,141.1166ZM78.3431,212.2275v6.1233c1.0582,1.1268,1.9879,2.0916,3.8823,2.14C81.4139,217.4716,82.8434,213.9022,78.3431,212.2275Zm6.5731,203.329.0191.9649c4.87.066,9.7393.1367,14.6092.1865a1.4764,1.4764,0,0,0,.88-.2659,1.0509,1.0509,0,0,0,.3792-.7739c-.0224-.256-.3149-.6957-.4921-.6972-1.227-.01-2.4546.0772-3.6824.126Q90.7726,415.3293,84.9162,415.5565Zm-4.56-237.5908a3.3092,3.3092,0,0,0,.2367,3.8421,11.0558,11.0558,0,0,0,5.2509,4.0863C86.172,181.66,83.7645,179.6867,80.3559,177.9657Zm21.1025,11.1693c.1952-4.97-.4136-5.9307-4.3259-7.2684C96.3984,185.5364,97.0757,186.7443,101.4584,189.135ZM66.2222,136.4534c-.9383,5.1631-.44,6.3075,3.3358,8.1339C70.4234,141.2706,69.3922,138.8078,66.2222,136.4534ZM77.2638,132.66a12.7068,12.7068,0,0,0,.1855-6.3036,2.3785,2.3785,0,0,0-2.8321-2.0745C75.0682,127.2754,73.23,130.656,77.2638,132.66Zm24.6191,65.2923c.7678-4.3456.7678-4.3456-3.4192-6.449-1.06,1.1667-.4267,2.3935.0236,3.4917C99.101,196.4924,100.0424,197.7617,101.8829,197.9526ZM69.3256,169.04c-.9131,1.45-.7523,2.3846-.1,3.1206,1.393,1.5727,2.6985,3.3127,5.195,4.085C74.8163,172.0576,71.6782,171.06,69.3256,169.04ZM96.48,212.4738c.4032-2.4246.369-4.1222-.7267-5.6651-.6581-.9269-1.3977-1.7174-3.0031-1.15C92.66,208.42,92.9649,210.9071,96.48,212.4738ZM91.1077,242.823c.6311-3.93.2306-4.7605-2.9368-6.092C87.1844,240.9536,87.7414,242.1089,91.1077,242.823Zm4.1417-40.1325c.49-4.1736.2555-4.7378-2.79-6.4157-1.0331,1.687-.3741,3.277.2867,4.7938A2.2194,2.2194,0,0,0,95.2494,202.6905ZM70.8707,154.4223c-.1785-4.6035-.5393-5.0987-4.752-7.0616a6.5716,6.5716,0,0,0,.0428,2.337C67.005,151.6158,68.6153,152.8393,70.8707,154.4223Zm15.0576-13.7064c-.2362-2.6517-.3252-4.5442-.6077-6.4074a1.2732,1.2732,0,0,0-1.7388-1.1074C82.9454,138.5833,82.9454,138.5833,85.9283,140.7159Zm9.3747-1.7312c.3434-3.7755-.2557-4.6767-4.4013-6.5045C90.6739,135.9886,92.9908,137.3507,95.303,138.9847Zm-5.46,31.0529c.6332-3.516-.0829-4.8758-3.3845-6.4268C85.88,167.2638,86.488,168.4176,89.8429,170.0376Zm-4.7052-16.1237c-.467,4.3535-.0361,5.156,3.7274,7.049A7.0833,7.0833,0,0,0,85.1377,153.9139ZM80.63,162.79a15.87,15.87,0,0,0-.0221-2.7282c-.5795-2.6914-1.8214-4.2286-3.1663-4.06a.6765.6765,0,0,0-.4019.1806c-.8851,1.0227-.3639,3.19,1.3136,5.0426A14.1074,14.1074,0,0,0,80.63,162.79Zm4.6326,46.7422c.3292,4.268,1.1432,5.2107,4.5,5.6869C90.55,211.7545,87.8294,211.0325,85.2621,209.5324ZM100.8593,118.88c-1.0346,4.1355-.8989,4.46,2.5039,5.9819C104.1055,120.9158,104.0884,120.8747,100.8593,118.88ZM76.0927,146.2554c-.4585,3.9654-.0714,4.8169,2.8932,6.3635C79.5267,148.6018,79.1994,147.8818,76.0927,146.2554ZM91.573,259.159c.4022-3.86.4022-3.86-3.0722-5.4052C87.7084,256.9078,87.7084,256.9078,91.573,259.159Zm51.1178-124.3476c1.3265-4.007,1.1816-4.42-1.6739-5.5861C139.847,132.3443,139.847,132.3443,142.6908,134.8114ZM91.7865,250.5945c-.0575-1.1935.1941-2.3931-.2309-3.2631a3.8585,3.8585,0,0,0-3.4007-1.9756C87.7829,249.0282,87.7829,249.0282,91.7865,250.5945ZM93.8806,215.39c-.4313,3.95-.27,4.2283,2.9534,5.5439C97.6416,217.8189,97.4278,217.38,93.8806,215.39Zm63.3763-72.76c-1.1629,4.135-1.1286,4.2132,2.3387,5.6918C160.3593,145.9005,160.0471,143.9761,157.2569,142.63Zm-13.85-14.5334c1.3792-3.62,1.1658-4.0489-2.3546-5.3379C140.051,125.1616,141.2662,126.6261,143.4071,128.0967Zm7.2257-.2728c-1.7939,4.2961-1.7546,4.6312.4626,5.9649a4.6431,4.6431,0,0,0,.8063-3.9616C151.7825,129.2746,151.2741,128.8057,150.6328,127.8239ZM110.5254,396.9544c.1622.4279.1874.85.3836.9558a4.69,4.69,0,0,0,4.7835-.268.8694.8694,0,0,0,.3211-.7776c-.15-.3832-.4661-.9528-.7638-.9854A6.0338,6.0338,0,0,0,110.5254,396.9544Zm-19.52-211.2155c-.2262,4.58-.1436,4.7556,2.719,6.02C94.0827,189.3227,93.7042,187.3429,91.0059,185.7389Zm.9188-3.6621c.0628-3.0747-.075-5.2172-3.1138-6.4979C88.6305,178.3737,88.7936,180.5011,91.9247,182.0768Zm8.4458,192.9086a22.7326,22.7326,0,0,0-.53-2.3034.85.85,0,0,0-1.5218-.0465,4.9857,4.9857,0,0,0,.0958,4.1309.98.98,0,0,0,.7524.4492.95.95,0,0,0,.7655-.41A12.7266,12.7266,0,0,0,100.3705,374.9854ZM68.5635,123.5391v-5.2085a6.6928,6.6928,0,0,0-2.3432.4138c-.3627.2371-.5047,1.0927-.4448,1.6389A3.4185,3.4185,0,0,0,68.5635,123.5391ZM119.0361,395.61c.31.815.3363,1.2464.539,1.3585,1.8243,1.008,3.2412-.2269,4.9741-.6862-.0783-1-.1364-1.74-.2221-2.8345ZM88.9194,373.7363a16.7275,16.7275,0,0,0-.3082-1.7774,1.4325,1.4325,0,0,0-1.9942-.4975,3.2913,3.2913,0,0,0-.1443,3.8638c.4136.5269,1.86.4393,2.0834-.1508A12.9214,12.9214,0,0,0,88.9194,373.7363ZM148.7976,135.72a11.1282,11.1282,0,0,0-.393,3.2032c.1262.6193.9057,1.1756,1.5116,1.5868.1943.1318.9885-.1839,1.1266-.4753C151.8462,138.34,151.414,137.4238,148.7976,135.72ZM109.6614,392.5224c2.6687,1.1532,4.3612.98,6.0466.0783a.85.85,0,0,0,.2637-.7953c-.1819-.3592-.533-.8545-.853-.885C113.5454,390.7709,112.0629,391.1456,109.6614,392.5224Zm2.4507-4.13c.6874-.0771,1.4656-.1391,2.2353-.2569,1.0361-.1584,1.7741-.9364,1.3523-1.4191a2.0986,2.0986,0,0,0-1.469-.7219,16.164,16.164,0,0,0-3.1489.6758.87.87,0,0,0-.4055.7157,1.12,1.12,0,0,0,.4751.716A3.4,3.4,0,0,0,112.1121,388.3921ZM84.1568,145.1835a3.7946,3.7946,0,0,0,2.337,4.645C87.0839,146.854,86.917,146.5059,84.1568,145.1835Zm6.4856,88.3973c-.0888-2.8528-.5312-3.52-2.507-3.94a.9964.9964,0,0,0-.795.3377,1.0206,1.0206,0,0,0-.1708.8475A4.3574,4.3574,0,0,0,90.6424,233.5808Zm-14.8615-96.81c-.8667,2.5882-.6033,3.017,2.404,4.1177A3.9666,3.9666,0,0,0,75.7809,136.7708Zm1.342,68.0923c-.1477,1.7707.3837,2.8387,1.5965,3.5034a1.3881,1.3881,0,0,0,1.2563.0052,1.5088,1.5088,0,0,0,.2724-1.2717C79.905,205.741,79.03,204.9245,77.1229,204.8631ZM94.8687,374.5722c-.1969-1.094.23-2.3369-1.1826-2.8013-.92-.3026-1.4763.8351-1.3439,2.8317a2.8032,2.8032,0,0,0,.298,1.325,1.4822,1.4822,0,0,0,1.0731.6213,1.42,1.42,0,0,0,.958-.7277A3.6582,3.6582,0,0,0,94.8687,374.5722Zm14.025,41.6037c.0833-1.2827-.7775-1.6169-1.7358-1.7869a2.31,2.31,0,0,0-2.5127.8132,1.2083,1.2083,0,0,0,.297,1.1482A3.931,3.931,0,0,0,108.8937,416.1759Zm7.1383-5.66c-1.13-2.04-2.7728-1.95-4.9324.2284A6.4724,6.4724,0,0,0,116.032,410.5163Zm-10.1212-29.5438c-.4622.03-.851-.0588-1.0726.0941a9.8,9.8,0,0,0-1.1986,1.1341c.4375.3758.8321.982,1.3225,1.0731a6.2489,6.2489,0,0,0,2.29-.1967.8521.8521,0,0,0,.48-.6918,1.9017,1.9017,0,0,0-.6129-1.1233A3.1392,3.1392,0,0,0,105.9108,380.9725ZM159.2927,123.421c-1.2786,1.4213-1.0947,2.5018-.0748,3.4965a.94.94,0,0,0,.8424.1129c.915-.4108.85-1.3316-.1936-3.16C159.7957,123.7455,159.6265,123.6769,159.2927,123.421Zm-90.9161,8.3963c.1241-2.9534-.2523-3.4476-2.615-3.5316C65.7057,130.1487,66.8217,131.0588,68.3766,131.8173Zm35.8253,264.9485c.987,1.7343,2.4559,2.0755,3.2818.9415.1238-.17-.2652-1.0414-.4577-1.0562A21.6128,21.6128,0,0,0,104.2019,396.7658ZM89.2852,366.9286c-.8374-.5341-1.3568-1.0786-1.9408-1.16a1.5571,1.5571,0,0,0-1.1913.9445,1.3311,1.3311,0,0,0,1.61,1.5766C88.2322,368.15,88.5752,367.5878,89.2852,366.9286Zm18.3863,20.1292H104.28C105.5459,388.9982,106.0063,389.0258,107.6715,387.0578Zm44.712-266.4395a9.6364,9.6364,0,0,0,.3057-2.1618,1.2486,1.2486,0,0,0-.9226-.8315,1.2715,1.2715,0,0,0-.9139.8621,3.9888,3.9888,0,0,0,.4307,1.7455C151.3563,120.4049,151.7929,120.4236,152.3835,120.6183ZM93.5125,365.5712a8.5078,8.5078,0,0,0-1.0051,2.3154c-.0165.2365.8558.7345,1.3418.76.78.0413.9633-.692.8126-1.2887A8.288,8.288,0,0,0,93.5125,365.5712Zm1.915,45.9246c-1.3308-1.2642-2.1024-1.3971-3.2972,0Zm8.4264-18.37a17.4637,17.4637,0,0,0,2.2322.371c.8822-.01,1.48-.6367,1.0685-1.0251a1.7436,1.7436,0,0,0-1.2349-.3948C105.502,392.1179,105.1139,392.4618,103.8539,393.1258Zm56.4217-273.0667a3.0051,3.0051,0,0,0,.3729-.4928c.3148-.7592.4568-1.564-.35-2.0535a1.2543,1.2543,0,0,0-1.1957.2606c-.5645.7431-.1889,1.4538.4084,2.0386C159.6075,119.9066,159.7943,119.9093,160.2756,120.0591Zm-71.4073,260.97a8.1785,8.1785,0,0,0-1.7346-.7306c-.5693-.0814-1.1822.8869-.8089,1.222a2.6508,2.6508,0,0,0,1.52.5817C88.0863,382.118,88.3637,381.5819,88.8683,381.0294Zm53.44-263.121c.0682.2734.0478.6769.2217.7951a11.51,11.51,0,0,0,1.5536.7727c.0685-.2782.2763-.73.1822-.805a9.2476,9.2476,0,0,0-1.5315-.9363C142.6468,117.6894,142.4541,117.8452,142.3084,117.9084Zm-56.3072,1.6272c-.518-.3759-.8757-.8317-1.1627-.7909-.3137.0445-.81.5793-.7765.8438a1.2348,1.2348,0,0,0,.849.8452C85.1875,120.4646,85.5247,119.9526,86.0012,119.5356Zm66.56,5.7086a11.3208,11.3208,0,0,0-1.4447-1.1274c-.0626-.0355-.7147.6494-.652.7683a4.0446,4.0446,0,0,0,1.0529,1.1992A6.8085,6.8085,0,0,0,152.5614,125.2442ZM84.709,127.9675c.1683-.2454.46-.48.4823-.7382a1.3958,1.3958,0,0,0-1.1628-1.7141.831.831,0,0,0-.6947.4184,1.5734,1.5734,0,0,0,.9256,1.9063A2.6627,2.6627,0,0,0,84.709,127.9675Zm-7.7778-7.9353c.1039-.1137.2517-.21.304-.344a.9945.9945,0,0,0-.6067-1.4451c-.2223-.0812-.5468.1171-.8246.1877a4.4623,4.4623,0,0,0,.35,1.1493C76.2926,119.805,76.6636,119.8868,76.9312,120.0322ZM99.4894,380.9881c-.4222.4272-.8937.6933-.8931.9583a1.1206,1.1206,0,0,0,.6459.8849,1.1022,1.1022,0,0,0,.8906-.6387C100.2,381.9221,99.804,381.5364,99.4894,380.9881Zm-4.5408.99c-.4445-.4028-.72-.8549-1.0362-.8855a1.4243,1.4243,0,0,0-1.107.5063c-.2947.4125.42,1.2938.9755,1.18C94.1367,382.7061,94.4337,382.3463,94.9486,381.9782Zm10.22,28.9952,2.5942-.1215C106.663,409.4458,105.9017,409.8786,105.1688,410.9734ZM133.88,119.0188q-.1644-.4017-.3286-.8034c-.1289.0873-.3776.1978-.3659.2579a4.4754,4.4754,0,0,0,.2762.7591ZM99.9635,410.4728l-.1708.3186.2775.0359Z"/><path class="cls-1" d="M81.6561,394.9809a9.1531,9.1531,0,0,0,5.683,1.422c3.8378.0378,7.6767-.0405,11.5151-.0546a16.2239,16.2239,0,0,1,2.852.1342,1.2261,1.2261,0,0,1,.2808,2.1711,7.419,7.419,0,0,1-2.7026.7079c-4.7956.0514-9.5924-.0015-14.3888-.0169-.9312-.003-1.8624,0-2.7312,0-.66,3.1495-.66,3.1495,1.4352,6.2918-.3974,1.3095-3.2,1.3874-1.76,3.9451,1.088.1045,2.4621.2338,3.8357.3692,1.1812.1163,2.4789-.14,3.89,1.1735-2.8352,1.06-5.4157-.075-8.0935.7416v7.5787a15.4662,15.4662,0,0,0,2.4477.7258,20.5107,20.5107,0,0,0,3.352.1275,212.5161,212.5161,0,0,0,26.7771-1.9176c.2424-.0364.45-.3068.8341-.584-1.1929-1.7411-3.4373-.4548-4.707-1.6751a1.5612,1.5612,0,0,1,1.2713-2.1452c2.169-.358,4.3749-.4933,6.88-.7526.2456-.442,1.0556-1.22.9278-1.7868-.5594-2.4806.9593-3.0742,2.7962-3.56.2616-.0691.46-.3765.9694-.8175-.5808-.31-1.0324-.746-1.5027-.7671a25.8192,25.8192,0,0,0-5.74,0c-8.58,1.5781-17.2142,1.0928-25.8437.94a21.4731,21.4731,0,0,1-3.3369-.2612c-.35-.0615-.8872-.6662-.85-.9616a2.2815,2.2815,0,0,1,.8058-1.53,3.6025,3.6025,0,0,1,1.8634-.2761c3.6782.0486,7.3728-.0651,11.03.2465,10.8353.9232,21.3608-.6171,31.7389-3.5858.6139-.1756,1.212-.4059,1.8245-.5867,2.3372-.69,2.3383-.6863,4.8766.2984,1.5964-1.0293,3.1735-2.0522,4.7636-3.0543.0843-.0531.2787.0683.4584.1187.6726.66-.0081,1.1865-.3244,1.5906-1.7712,2.2629-3.4787,4.5989-5.46,6.6694-4.0878,4.2721-8.3542,8.3733-12.5078,12.5835-2.1257,2.1547-4.1667,4.3927-6.582,6.9486-12.1191,1.5243-24.7577.2181-37.54.8929a9.7259,9.7259,0,0,0-.0916,5.87c4.0954,1,8.264.5443,12.3821.7239,4.1545.1813,8.3143.249,12.4723.34,3.9976.0873,8.0025.0227,11.9922.2421,4.0933.2252,8.1915-.0673,12.4272-.0891-1.433,3.4407-3.3668,5.3257-6.1313,5.3587-5.2679.0631-10.5478-.05-15.8063-.3637a47.8146,47.8146,0,0,0-12.1646.8934c-.1758.8748.433,1.1018,1.0709,1.1651,4.9285.4893,9.861.9373,14.79,1.4256a10.27,10.27,0,0,1,5.4963,1.4394c-7.1159.2042-13.155.4436-19.1963.532-5.9045.0863-11.8113.0188-17.7134.0188-1.0082,3.1288-1.1109,5.9448-.3265,10.5057a26.077,26.077,0,0,0,3.6045.48c13.2685.0027,26.53,1.27,39.8067.12,8.9453-.7741,17.8013-1.8721,26.13-5.5253a6.2729,6.2729,0,0,1,1.5156-.2219c.4963.9723.9781,1.9161,1.647,3.2267,1.16-1.91,2.1286-3.5043,3.2634-5.3723,1.2083,1.7116.6775,3.4585.5973,5.0732a6.1318,6.1318,0,0,1-.85,3.1461,6.21,6.21,0,0,1-2.6929,1.7915,5.7831,5.7831,0,0,0-3.1206,2.0669,5.7731,5.7731,0,0,1-5.7244,2.7359c-.4763-.0278-.9578.0516-1.4373.06-2.708.0442-2.708.0419-4.2714-2.8489-3.15-1.2591-6.501-1.15-9.8514-1.06-11.832.32-23.6631.6806-35.4964.9423a258.6431,258.6431,0,0,1-33.5515-1.138,175.5948,175.5948,0,0,1-23.5577-4.2812c-.5915-.1474-1.1911-.2621-2.0954-.4594-.2892,2.2393-.6921,4.247-.7785,6.2681a7.2425,7.2425,0,0,0,5.812,7.7038,40.617,40.617,0,0,0,7.0854,1.15c15.6488.9415,31.3132,1.5824,46.992,1.521a374.9973,374.9973,0,0,0,45.4844-2.5106c5.3233-.6713,10.54-2.5335,15.6767-4.24,5.7042-1.8949,7.7378-6.7526,8.5453-12.18A20.0159,20.0159,0,0,0,161.081,439.58a17.2466,17.2466,0,0,1-1.344-7.94c.1278-3.5128.3762-7.0275.34-10.539-.1082-10.534.0467-21.0851-1.2274-31.57-.539-4.4358-1.4884-8.8252-1.9453-13.2671-.9478-9.2123-1.9869-18.4308-2.448-27.6737-.6606-13.2414-.7739-26.509-1.2375-39.7614-.5793-16.5562,1.5474-32.832,4.8471-48.9963q4.1673-20.4132,8.3891-40.8153a309.57,309.57,0,0,1,7.8535-30.1135,64.2517,64.2517,0,0,0,3.0147-13.5287,41.17,41.17,0,0,1,1.3069-6.5707c2.7-10.4223,3.7037-21.0537,4.1285-31.771.2339-5.9031.6014-11.8013.947-17.6995.1311-2.2387.6237-2.8967,1.8091-2.7094,1.1655.1842,1.4939.7486,1.4626,3.0515-.037,2.7152-.0765,5.4376-.2978,8.1418-1.8252,22.3053-4.5493,44.4418-10.2939,66.1754-3.7506,14.19-6.604,28.6209-9.6938,42.9794-2.4851,11.5484-4.79,23.137-7.03,34.7356a102.0662,102.0662,0,0,0-1.4414,11.4c-1.0816,13.8652-1.3616,27.764-1.4742,41.6648-.044,5.43.0717,10.8607.1331,16.2909.1051,9.2867,1.4239,18.4623,2.4843,27.666.987,8.5651,1.9008,17.1446,2.5677,25.7394,1.4346,18.49,1.28,37.0349,1.7348,55.56.1441,5.8731-2.1629,10.8868-4.5959,15.919a6.5085,6.5085,0,0,1-4.4319,3.4153c-8.0353,2.0512-15.9307,4.5736-24.3365,5.1043-13.4019.8461-26.7718,2.19-40.1622,3.235a80.5441,80.5441,0,0,1-8.63.0708c-5.5917-.1656-11.1789-.4715-16.77-.6587a69.6338,69.6338,0,0,1-18.4058-2.9529,53.3807,53.3807,0,0,1-8.7847-3.7424,11.9434,11.9434,0,0,1-6.5438-9.4742,49.1276,49.1276,0,0,1-.5566-6.1957q-.0312-10.5434.1483-21.0868c.1175-6.5488.4612-13.094.5467-19.6428a356.3416,356.3416,0,0,1,2.6733-36.3049c.9175-7.9323,1.9652-15.85,2.8006-23.791a102.8549,102.8549,0,0,0,.5507-11.0049c-.032-12.6209-.0344-25.2454-.3522-37.861-.1969-7.8177-.92-15.6233-1.4514-23.4313-.5007-7.3541-2.1476-14.5247-3.6027-21.7232-5.5051-27.2334-11.7572-54.3006-18.1394-81.339a231.9227,231.9227,0,0,1-4.46-29.3429c-.2981-2.8583-.5853-5.72-.7724-8.5863-.0357-.5463.318-1.5084.6753-1.6054a3.4061,3.4061,0,0,1,2.1962.2749,3.7446,3.7446,0,0,1,1.8516,3.1635q1.4628,9.9521,2.9631,19.8985c2.1876,14.3618,3.8563,28.85,7.8562,42.8435q6.8532,23.975,11.7572,48.3857c2.289,11.44,3.9155,22.98,5.2895,34.559q.48,4.0437.9582,8.0877a127.0232,127.0232,0,0,1,.3477,23.445c-.5712,8.6064-.7355,17.2393-1.2734,25.8484-.4081,6.531-.9526,13.064-1.7547,19.5568a66.5585,66.5585,0,0,0,.1012,16.7225c1.2374,9.605,8.1488,15.7917,18.1011,16.65.1885-.2474.5662-.52.5375-.7389-.67-5.127.678-10.15.7619-15.2452.1209-7.3451.6418-14.6829.9252-22.0263q.2218-5.7461.209-11.5a175.3565,175.3565,0,0,1,.8562-20.0949,84.2072,84.2072,0,0,0,.0794-11.4809c-.1-4.1483-.3692-8.2925-.5587-12.4388-.0292-.6382-.0177-1.2781-.04-1.9167-.3829-11.0073-.7882-22.0139-1.13-33.0225-.0488-1.5717.2488-3.1512.3064-4.73.0568-1.5565.0124-3.1168.0124-4.8131.7331-.6111,1.3238.1255,1.9213.5218,3.5963,2.3853,7.1946,4.7686,10.7551,7.2067a265.2365,265.2365,0,0,0,29.7142,17.5212c1.8183.9246,3.568,2.0856,5.9743,2.4288,0-.7041.2266-1.4749-.045-1.7439a11.4717,11.4717,0,0,0-2.35-1.5814c-7.7249-4.511-15.529-8.8924-23.1568-13.5614-4.0785-2.4965-7.86-5.4781-11.7685-8.25-2.8677-2.0338-5.6326-4.2308-8.6146-6.08-2.4966-1.5479-3.6414-3.4357-2.8761-6.3431.8414-.6957,1.4944.01,2.0861.3994,2.8008,1.8416,5.5188,3.81,8.3406,5.6181,3.9021,2.5,7.8708,4.8965,11.8107,7.338a11.55,11.55,0,0,0,2.8643,1.7134c1.9718.5,1.3455,3.7642,4.0392,3.4384,2.2458-.2717,3.7286,1.5675,5.532,2.4936,1.7036.875,3.3214,1.9159,4.9837,2.8719,1.801,1.0358,3.6021,2.0719,5.4175,3.082,1.674.9313,3.35,1.8634,5.0669,2.71.345.17.8788-.0415,1.9667-.1282-1.48-1.0173-2.461-1.7531-3.5-2.3946q-8.5662-5.2908-17.1567-10.5424c-2.1726-1.3323-3.0682-3.083-1.8235-5.87,4.072,2.0761,7.68,4.6969,11.516,6.9187,3.7023,2.1447,7.3576,4.37,11.6543,6.93-.1491-1.2562-.0123-2.0133-.313-2.2823a24.7566,24.7566,0,0,0-3.0969-2.2266c-4.2931-2.7807-8.6236-5.5041-12.8924-8.3212-2.0922-1.3805-2.0586-1.5124-1.02-5.0709,6.2049,2.8482,11.81,6.8242,18.0868,9.2594a1.2836,1.2836,0,0,0-.174-2.1845c-1.0183-.7623-2.1452-1.3815-3.2348-2.0473-4.091-2.4995-8.1783-5.0053-12.2826-7.483a5.5346,5.5346,0,0,1-2.961-3.5735,11.4631,11.4631,0,0,1,.1078-2.5224c3.9779,1.4,6.9822,3.8158,10.29,5.6664,3.1334,1.7529,5.99,4.0744,9.69,4.7422-2.7838-3.0276-6.5481-4.64-9.8006-6.9651-3.2441-2.3191-6.6513-4.41-10.0471-6.6412a5.94,5.94,0,0,1,.0706-4.7886c2.5657,1.0989,4.4939,2.7875,6.6224,4.1294,2.1629,1.3635,4.27,2.8219,6.4877,4.09,2.21,1.2632,4.5252,2.3412,6.7323,3.4688,1.3592-1.2429.3582-1.88-.4249-2.2541-5.9653-2.85-11.1126-6.9218-16.3675-10.8311a17.4631,17.4631,0,0,1-2.8327-2.5514,2.138,2.138,0,0,1,.0768-3.2093c6.8035,3.6142,13.2587,8.0194,20.0576,11.4288,1.2243-.8671.9715-1.6687.3465-2.1949a25.8325,25.8325,0,0,0-3.156-2.1337c-3.936-2.4211-7.8863-4.8189-11.98-7.3162.1618-1.113.29-2.02.4268-2.926.1172-.776.2448-1.55.4269-2.6974a22.0042,22.0042,0,0,1,2.65,1.0885c3.3173,1.9232,6.6037,3.8995,9.8959,5.8656a2.6492,2.6492,0,0,0,2.0891.5641c.5817-1.5474-.6606-1.8252-1.3415-2.27-2.9424-1.9221-5.9576-3.7327-8.9375-5.5981-.8124-.5086-1.5845-1.0809-2.3909-1.6-2.007-1.2905-2.7841-2.9947-1.74-5.5706a24.8535,24.8535,0,0,1,2.4644,1.0992c3.4564,2,6.8778,4.06,10.3365,6.0558a5.2109,5.2109,0,0,0,1.7935.5383c.1785.0275.4481-.3437.6234-.5723a.467.467,0,0,0,.0175-.4465,12.436,12.436,0,0,0-1.7118-1.58c-3.7079-2.5012-7.4986-4.8831-11.1562-7.4545-3.48-2.4465-3.4233-2.5269-2.4859-7.4206,3.0193.85,5.2087,3.0111,7.695,4.6339,2.3912,1.5608,4.7174,3.2208,7.0648,4.8321,1.1522-1.3647.1268-1.9578-.5527-2.4522-3.6188-2.6332-7.2922-5.1913-10.9345-7.7924-1.425-1.0176-2.8181-2.08-4.15-3.065a10.2333,10.2333,0,0,1-.16-5.5772c5.7745,2.7136,10.3261,7.1226,15.7857,9.723,1.2408-.6168,1.0641-1.4529.5187-2.0364a19.6147,19.6147,0,0,0-2.8781-2.4484c-2.8333-2.0441-5.708-4.031-8.737-6.1606l1.2126-3.859c3.7626,1.9176,6.7277,4.6418,10.25,6.2674.8681-.981.7614-1.7584.104-2.337a37.323,37.323,0,0,0-3.0526-2.3091c-1.8229-1.298-3.6449-2.5988-5.5045-3.8429-2.1582-1.444-2.7842-3.2967-1.699-5.9505,3.8851,1.73,6.6294,5.1456,10.57,6.52a2.5315,2.5315,0,0,0-.4643-3.5445c-1.0593-.9656-2.2372-1.8028-3.3758-2.68-1.7732-1.3657-3.5-2.8014-5.3515-4.0534-2.1542-1.4569-2.8032-3.3125-1.9858-6.0433,2.29.6718,3.77,2.4351,5.6167,3.5608,1.7467,1.0648,3.44,2.2167,5.0953,3.29,1.0645-.96.279-1.3428-.1512-1.6637-2.8176-2.1012-5.6215-4.2256-8.5174-6.2156-2.5248-1.735-3.5855-3.9432-2.7983-6.9692.8811-.6784,1.4395.0773,2.0138.5208,3.1531,2.4354,6.2846,4.8987,9.2424,7.2109,1.7213-.4009,1.82-1.2758,1.0647-2.1656a20.8355,20.8355,0,0,0-2.5213-2.1791c-3.29-2.7937-6.5916-5.574-9.8613-8.3913a3.3614,3.3614,0,0,1-.9765-4.4914c1.8674.874,3.1609,2.2926,4.65,3.4028,1.5379,1.1462,3.0207,2.3658,4.5445,3.5311,1.5024,1.1489,3.0259,2.27,4.43,3.3211,1.3033-.5334,1.2574-1.3653.7312-2.006a18.2873,18.2873,0,0,0-2.4556-2.2487c-3.3042-2.7771-6.4959-5.71-9.9728-8.2529-2.9534-2.16-3.7732-4.9063-3.5085-8.6779a11.9065,11.9065,0,0,1,2.0812,1.0831c4.06,3.3679,8.0643,6.8032,12.1352,10.1578a36.0361,36.0361,0,0,0,3.6181,2.26c-.1407-1.252-.0063-1.9783-.3085-2.3563a18.6555,18.6555,0,0,0-2.4144-2.3113c-2.0513-1.7825-4.1075-3.56-6.194-5.3012-1.6751-1.3979-2.1054-3.0286-1.089-5.3284,1.1722.7483,2.25,1.3633,3.2485,2.0881,2.4576,1.7845,4.8611,3.6436,7.3276,5.4154a.9935.9935,0,0,0,1.5914-.3814,1.4969,1.4969,0,0,0-.0773-1.2886,15.8971,15.8971,0,0,0-2.0934-1.9359c-2.8424-2.3324-5.6123-4.7668-8.5829-6.9249a7.5807,7.5807,0,0,1-3.4358-6.4243c-.0084-.78-.0013-1.5613-.0013-2.8732a14.618,14.618,0,0,1,2.2819,1.2291c3.6744,3.0815,7.3008,6.22,10.9682,9.31.8267.6966,1.7544,1.2737,2.526,1.8271,1.4764-.7607,1.2636-1.7769.6755-2.5226a24.2434,24.2434,0,0,0-2.77-2.63q-6.0031-5.5157-12.0131-11.024a5.4433,5.4433,0,0,1-1.5044-6.66c2.49,1.6178,4.1925,3.7433,6.1944,5.5024,1.9212,1.6882,3.7648,3.4642,5.6621,5.18,2.0017,1.81,4.0267,3.5948,5.9505,5.31,1.3272-.6351,1.0914-1.4516.6018-2.0424a34.5216,34.5216,0,0,0-2.7063-2.7052c-4.4878-4.3279-9.0157-8.6153-13.4421-13.0048a14.3534,14.3534,0,0,1-2.3605-3.504c-.1925-.3619.2376-1.0542.4677-1.9145,2.4534,1.0591,3.6422,3.0453,5.2943,4.4416,1.8308,1.5473,3.5642,3.2092,5.3775,4.7779,1.6926,1.464,3.4243,2.8836,5.1575,4.3,1.7145,1.4008,3.4526,2.7728,5.0111,4.0217,1.4162-.3821,1.6238-1.1388,1.0572-1.8485a18.4968,18.4968,0,0,0-2.4611-2.2567c-3.3834-2.93-6.7963-5.827-10.1493-8.7915-1.1814-1.0445-2.2222-2.2474-3.3132-3.3636,1.2691-1.7963,2.7393-1.7517,4.271-.9994a9.7939,9.7939,0,0,1,1.9237,1.4024c3.8993,3.31,7.7226,6.7123,11.7041,9.92a5.3478,5.3478,0,0,1,2.1811,4.9587c-.4517,6.3724-.7149,12.761-1.3008,19.12-.7032,7.632-1.6522,15.2418-2.52,22.8584-.1988,1.7438-.54,3.4711-.7476,5.2142a19.9047,19.9047,0,0,0-.2231,6.7207c1.7582-2.1888,1.7212-4.4423,2.26-6.4551.5769-2.156.9575-4.3655,1.3942-6.5576.4054-2.0355.7522-4.0828,1.1609-6.1176.44-2.1912.9233-4.3738,1.3855-6.5606s.9235-4.3742,1.3819-6.5619.9463-4.37,1.359-6.5664q.5748-3.059,1.0112-6.1434c.3043-2.1573.5275-4.3259.7825-6.4589a2.0939,2.0939,0,0,1,2.4572,2.0244,9.418,9.418,0,0,1-.1115,2.377c-2.3443,17.0891-5.075,34.1162-8.5891,51.006-2.0858,10.0248-3.2192,20.1779-4.5026,30.3145a291.9229,291.9229,0,0,0-2.0536,32.0276c-.0332,2.0738-.2431,4.1451-.3863,6.2166a8.0245,8.0245,0,0,0,1.2387,5.5388,47.3382,47.3382,0,0,0,.9413-4.7464c.3854-4.4558.8239-8.9168.9447-13.3838.2509-9.2807,1.5876-18.4548,2.4228-27.6784,1.7063-18.8455,6.6133-37.0693,10.5276-55.4884,1.2608-5.9332,2.4166-11.8886,3.6527-17.8272.2875-1.3815.7067-2.7357,1.0392-4.003a1.9911,1.9911,0,0,1,2.5413,1.8289,12.801,12.801,0,0,1-.1465,3.7982c-.4674,2.8343-.8983,5.6923-1.643,8.46-2.8678,10.6613-4.4643,21.57-6.4836,32.3961-1.7855,9.5741-3.6614,19.1324-5.3474,28.7239q-3.07,17.4672-4.4472,35.1591c-.3482,4.4589-.6848,8.919-.9687,13.3823a10.6128,10.6128,0,0,0,.4292,4.987c1.4535.0744,1.4836-.9022,1.5768-1.5852.583-4.27,1.2041-8.5391,1.6023-12.8282A348.7882,348.7882,0,0,1,143.44,205.891c2.5752-10.3737,4.3752-20.9373,6.667-31.3843,1.3334-6.0785,2.9622-12.0921,4.4322-18.1411.4083-1.68.7237-3.3833,1.157-5.4316.7711.3018,1.474.3619,1.7734.74a5.1007,5.1007,0,0,1,1.25,2.4344,11.4506,11.4506,0,0,1-.5368,3.2879c-2.35,10.76-4.6723,21.5268-7.0815,32.2739-2.8636,12.7734-5.8836,25.5123-8.6884,38.2984a257.0934,257.0934,0,0,0-4.5463,31.27c-.801,8.5873-1.8823,17.17-2.1884,25.777-.4653,13.0839-.5637,26.1864.97,39.2455.6516,5.5474,1.0857,11.1349,1.2949,16.7163q.6194,16.5216.8275,33.0573a79.02,79.02,0,0,1-.881,9.5141c-.043.3937-.41.7521-.7582,1.3531-.7548-13.8249-1.35-27.3678-2.2732-40.8883-.9238-13.5278-2.3109-27.02-3.73-40.8066a2.9115,2.9115,0,0,0-1.5407,2.9231c-.0178,3.1938-.0919,6.3966.1049,9.5806.6208,10.0446,1.5866,20.0733,1.9809,30.1253.4005,10.2122.3105,20.4446.3755,30.6685.0306,4.7927-.0585,9.5865-.1433,14.379a10.6125,10.6125,0,0,1-.45,2.7969c-.0849.2865-.7018.4922-1.107.57-.1649.0318-.5673-.3556-.5961-.5855a12.6025,12.6025,0,0,1-.0072-1.9081c.1979-7.0271.5237-14.0533.5661-21.0812.0481-7.9865.0989-15.9882-.331-23.9575-.3518-6.5235-1.3531-13.016-2.1735-19.5087-.4159-3.2917-1.0685-6.5537-1.6551-10.076-1.2645,2.87-1.2609,2.87-1.02,5.8016.4711,5.7293,1.15,11.4509,1.365,17.19a395.9423,395.9423,0,0,1-1.0443,44.54c-.178,2.3682-.7023,4.71-1.053,6.9769a6.4267,6.4267,0,0,1-5.5825.5523,6.6365,6.6365,0,0,1,1.1056-1.9474,10.3663,10.3663,0,0,1,2.5012-1.0533l-3.5086-1.7485c-.3722-3.237.1187-6.5856-2.14-9.61-1.8366,1.9245-.1247,4.1227-1.6649,5.9045a23.7065,23.7065,0,0,1-3.463-.0567,1.8919,1.8919,0,0,1-1.2469-1.2,2.1386,2.1386,0,0,1,.5673-1.6522,9.2946,9.2946,0,0,1,1.9728-1.246l-2.54-1.6632c-.8743-2.9873.7743-6.4614-2.3044-9.745-.03,2.6992-.0252,4.5955-.0788,6.49-.1006,3.5535-.8634,3.9933-4.5419,2.5381a8.7716,8.7716,0,0,0-.3591-1.7563c-.8239-1.987,1.2835-3.6828.2834-5.9037-.8-1.7753-.5063-4.0561-.6293-6.1166-.124-2.0727-.1639-4.15-.2389-6.2262s-.1271-4.1527-.2292-6.2272a32.4133,32.4133,0,0,0-.3391-3.81,10.6019,10.6019,0,0,0-1.3024-2.31c-.1961,1.8938-.389,2.9094-.392,3.9255-.0168,5.7518.0306,11.5037.0082,17.2555-.0041,1.0462.3574,2.3283-1.003,2.9-.8184.3438-1.5125-.8535-1.5744-2.9012-.15-4.9508-.1985-9.9051-.3881-14.8542-.1223-3.1912-.4033-6.377-.6538-9.562-.073-.9283-.1472-1.9312-1.3467-2.2108-1.0857,2.2183-1.0783,2.218-.9308,5.68.0953,2.2347.1846,4.47.24,6.7058.0517,2.0764.0646,4.1539.077,6.2309.0123,2.0561.0027,4.1122.0027,5.9591-1.4657.9413-2.251.2772-2.4987-.6741a19.3713,19.3713,0,0,1-.3437-3.7979c-.4183-7.6558-.81-15.3131-1.2514-22.9676-.0589-1.0223.2259-2.2662-1.3119-2.9381-.7686.9342-.49,2.0354-.4836,3.0406.0477,7.19.1465,14.3794.1719,21.5693.0055,1.5662.3433,3.2023-.5248,4.657-1.1213.4666-2.0079.1554-2.2593-.9662a16.5884,16.5884,0,0,1-.203-3.3368c-.1152-7.189-.2-14.3786-.3331-21.5673a19.0115,19.0115,0,0,0-.4025-3.7679c-.0892-.4-.8309-.6554-1.7122-1.2946-.1791,1.6064-.3934,2.6527-.3966,3.7-.022,7.1894.0466,14.3794-.0215,21.5682-.0191,2.0185.4574,4.0659-.6327,6.0853-.4154.7694.6585,2.3287.2534,3.1185a4.9894,4.9894,0,0,0-.0156,4.8762,4.6612,4.6612,0,0,1-.5589,4.139,3.1492,3.1492,0,0,0-.4407,2.2343c.6834,2.0062.2514,3.8657.0362,5.8821A108.1985,108.1985,0,0,0,81.6561,394.9809Zm19.5575-102.8471a6.0208,6.0208,0,0,0,.6984.5157c.0975.0541.272-.03.4114-.0515-.1286-.1841-.2415-.5056-.3891-.5222a2.4982,2.4982,0,0,0-.84.1941c.0964-1.3294-.7759-1.2849-1.6863-1.1863-.2528-.3619-.4268-.845-.77-1.0674q-7.9689-5.1609-15.9879-10.2444a6.3786,6.3786,0,0,0-1.75-.3019c.53,1.0579.6741,1.9556,1.1767,2.2563q7.7361,4.6291,15.5886,9.0621a4.8608,4.8608,0,0,0,1.8283.199C99.5534,292.1194,100.5326,291.9063,101.2136,292.1338ZM47.3251,418.82c2.6777-.93,4.908.9165,7.3914,1.1789a22.8811,22.8811,0,0,0,2.293.0117c-1.1886-4.1783,1.2666-8.0422-.163-12.0109-2.93-1.1774-5.831-2.5142-8.8455-3.507-3.1257-1.0295-6.2776-1.136-8.88,1.2924a6.7494,6.7494,0,0,1-.9595-.4087c-2.0549-1.3238-2.7635-1.1078-3.1914,1.1087a23.2525,23.2525,0,0,0-.4366,3.7942c-.0855,3.3473-.1581,6.6985-.0931,10.0454.0924,4.7517,1.5827,6.55,6.1334,7.7911a95.4194,95.4194,0,0,0,15.562,2.4557c.45-2.6061,1.05-5.0465.5295-7.4409-3.2117-1.5472-6.2062-2.99-9.2006-4.4327ZM43.39,443.0043c1.3926-1.1764,2.6167-.4391,3.792-.2,2.3308.4751,4.6356,1.079,6.9692,1.5381a1.23,1.23,0,0,0,.989-.6932,1.3533,1.3533,0,0,0-.3982-1.22,14.9479,14.9479,0,0,0-2.6484-.9285c-1.3724-.4007-2.7642-.7364-4.128-1.1627-.1715-.0536-.2233-.4892-.4639-1.069l7.8251.3927c.2388-1.2149.4349-2.2129.6792-3.4561-1.6109-.4808-2.9406-.97-4.3118-1.27-5.1275-1.1232-10.2958-2.0862-15.1457-4.2035a4.04,4.04,0,0,0-.4418-.1808,2.6178,2.6178,0,0,0-3.5433,2.1108,6.0493,6.0493,0,0,0-.0418,2.3637,40,40,0,0,1,.6633,11.3942,9.853,9.853,0,0,0,.6468,2.6824c3.8382-.0248,7.5839.7032,10.085-2.6465a13.6554,13.6554,0,0,1,6.3767,2.5334,17.212,17.212,0,0,0,3.85,1.8139c.1954.0818.5342-.178.9079-.3175V446.7c-1.6791-.443-3.1926-.8725-4.7216-1.2379-1.8555-.4433-3.74-.7744-5.5763-1.2832C44.2492,444.0392,43.8734,443.4374,43.39,443.0043Zm13.9031-37.9654c.5893-3.2892.4945-3.72-1.2663-4.3712a40.2446,40.2446,0,0,0-5.4919-1.6651,12.029,12.029,0,0,1-6.5268-3.7646c-1.3966-1.53-2.6326-3.2066-4.0434-4.7221a2.0121,2.0121,0,0,0-1.6684-.5335,1.8191,1.8191,0,0,0-1.0286,1.3407,31.4225,31.4225,0,0,0,.5848,7.7729C43.9335,402.07,50.6757,402.75,57.2934,405.0389Zm8.8537-117.6513c-1.033,2.1774.04,3.4716,1.5978,4.4794,7.672,4.9644,15.9824,8.6965,24.2861,12.435.6573.296.9839.1562,3.048-.7165-3.3947-1.7767-6.6449-3.4153-9.8343-5.1648-3.2216-1.7671-6.3154-3.7767-9.5894-5.4354C72.4068,291.3394,69.9,288.4286,66.1471,287.3876ZM80.5232,423.9335c9.287.6027,17.957-.0959,26.6276-.6281.6908-.0424,1.59.1811,1.9992-.9-.7231-1.1476-1.9265-.7936-2.9306-.7943-7.6165-.0058-15.2332.04-22.85.0759-.4745.0022-1.1-.1157-1.3892.1321A11.2009,11.2009,0,0,0,80.5232,423.9335Zm-14.3894-128.79c-.936,2.4354-.9785,2.7784.2125,3.6123a67.3392,67.3392,0,0,0,13.9149,7.3661c.87.3445,2.0246-.0258,3.0671-.0668-.0551-.4735-.0174-.7222-.0992-.771C77.6342,301.9518,72.03,298.6351,66.1338,295.1439Zm35.0292,4.9187c0-.5231.06-.7834-.0086-.8236q-9.2644-5.4147-18.56-10.7753c-.1908-.11-.5653.099-1.0489.2-.4206,1.6749.58,2.615,1.9035,3.2831q7.4862,3.7784,15.0231,7.4558A13.271,13.271,0,0,0,101.163,300.0626ZM80.2087,437.6235c-.1925,1.014-.3217,1.6944-.4993,2.63,2.5228.3456,4.6973.6809,7.1093-1.3207Zm46.0921-31.8724q-.21-.33-.4188-.6605c-.1108.0944-.317.1913-.3145.2824a4.6023,4.6023,0,0,0,.1549.81Q126.0112,405.9676,126.3008,405.7511Z"/><path class="cls-1" d="M7.6123,75.2263c1.53.0657,1.9958,1.4256,2.7643,2.3418A191.195,191.195,0,0,0,30.7485,98.526c.793.6955,1.71,1.2494,2.6085,1.8967.9474-1.4769.1794-2.4447-.4823-3.2629a25.29,25.29,0,0,0-2.7609-2.6507A193.7463,193.7463,0,0,1,8.8906,71.7261,9.5584,9.5584,0,0,1,7.1131,61.7208a10.8451,10.8451,0,0,1,2.5238.7135,3.2211,3.2211,0,0,1,1.0477,1.5577c2.1733,5.0779,5.5818,9.3157,9.2616,13.324C24.0481,81.784,28.33,86.0868,32.38,90.3016c1.51-.2033,1.666-1.0856,1.2834-1.7786a13.7179,13.7179,0,0,0-2.4856-3.43A137.37,137.37,0,0,1,13.345,64.4386a6.8421,6.8421,0,0,1-.6465-1.2537c-.0493-.1124.0426-.2865.1337-.777,1.98-.7089,4.22-.397,6.3876-.5507,2.2331-.1584,4.4746-.1985,6.7083-.35,2.393-.1626,4.7812-.3953,7.1716-.5972q3.3449-.2824,6.69-.565c2.23-.192,4.4672-.3354,6.6889-.6023,2.1967-.2639,4.3781-.6554,7.0848-1.0705-3.8839-1.5824-7.4037-1.3664-10.8869-1.1325-11.3276.7606-22.6492,1.608-33.974,2.41-.7714.0546-1.55.0071-2.2925.0071-.4116-2.9092-.3887-10.9912.1963-12.9556A31.6325,31.6325,0,0,1,8.43,42.5933c1.7023-3.6054,3.6857-7.0968,5.1345-10.7987A17.19,17.19,0,0,1,23.58,21.4717a32.8375,32.8375,0,0,0,12.5149-8.6352,9.82,9.82,0,0,1,3.45-2.4529C46.2162,7.6425,53.0493,5.4253,60.333,5.0589c2.23-.1122,4.4711-.1024,6.7034-.03,2.717.0882,5.4288.3285,8.1451.4543A29.7891,29.7891,0,0,0,87.0059,4.0369a20.5908,20.5908,0,0,1,7.5688-.9,6.8178,6.8178,0,0,1,4.83,1.7107,17.0531,17.0531,0,0,0,7.7082,3.6481c2.4188.6122,4.6349.9463,6.8039-.7856,1.6808-1.342,3.6642-.9851,5.48-.203a55.36,55.36,0,0,1,5.1262,2.6018,10.3572,10.3572,0,0,0,8.7713.9279,20.0334,20.0334,0,0,1,2.7515-.8259c3.9334-.7292,7.6469-.3785,10.8328,2.3714a24.1335,24.1335,0,0,0,11.4205,5.76,12.5837,12.5837,0,0,1,5.9213,3.0083c3.868,3.3445,7.7391,6.6918,11.4585,10.1971a11.8379,11.8379,0,0,1,2.5414,3.9908,37.72,37.72,0,0,1,1.857,5.9326c1.0381,4.3472,1.966,8.7209,2.91,13.09.159.7364.1709,1.5044.2724,2.4623-2.9008.5075-5.16-1.0365-7.3722-.8489-2.0883-3.327-.6913-7.1347-3.1274-10.2688-.3735.6214-.8886,1.08-.8712,1.5182.0758,1.91.3292,3.8113.4676,5.72a4.947,4.947,0,0,1-.1412,1.8892,1.3991,1.3991,0,0,1-1.0218.7562,1.4228,1.4228,0,0,1-1.1656-.5744,7.4237,7.4237,0,0,1-.5649-2.2607c-.32-2.8555-.53-5.7244-.9075-8.5716a8.3949,8.3949,0,0,0-1.2378-2.2566c-2.7212,4.33-.37,8.7716-1.2068,12.6875-1.5862.3084-1.7787-.5828-1.8388-1.3181-.2344-2.8646-.2994-5.7441-.5755-8.6038a21.0685,21.0685,0,0,0-.954-4.1406,1.3677,1.3677,0,0,0-1.1573-.5843,1.4031,1.4031,0,0,0-.9986.828,15.4435,15.4435,0,0,0-.4619,3.2746c-.0584,2.5551.0291,5.1135-.0241,7.6689A18.2722,18.2722,0,0,1,159.69,54.55c-1.2863.16-1.7239-.4744-1.7946-1.3346-.2094-2.5474-.332-5.1017-.519-7.6511-.1162-1.5826-.2877-3.1612-.4854-5.292-.8584.7475-1.6367,1.0988-1.815,1.6454a17.11,17.11,0,0,0-.8333,4.1594c-.1441,2.2277-.0424,4.47-.107,6.7048-.0173.5959-.1185,1.3008-1.01,1.2944-1.0038-2.0021-.9621-2.0031-1.0621-6.1942-.0527-2.2095.3324-4.4689-.5-6.603-2.25-.2287-2.67-.0638-2.7721,1.4041-.1443,2.0694-.1316,4.1494-.2032,6.2242-.06,1.7244-.1439,3.448-.2163,5.1507a5.2351,5.2351,0,0,1-1.5542.529,9.9113,9.9113,0,0,1-1.9429-.4944c-.5948-3.6409.3309-7.3326-.694-10.7185-1.1884-.2626-1.4105.4526-1.51,1.0188-.3017,1.7235-.5617,3.4612-.699,5.2043-.1116,1.4156-.0226,2.847-.0226,3.9778a3.0561,3.0561,0,0,1-4.1684.5318c-.2075-.31-.512-.5587-.5312-.8274-.1823-2.544-.2959-5.0928-.4749-7.6371-.0588-.8352-.361-1.5555-1.5787-1.48-1.5616,3.0714.2841,6.5638-.8673,9.724-1.55,1-3.0605.7374-4.8745.0765-.96-1.9974.0707-4.7406-1.7922-6.6008-1.2821.5351-1.0941,1.7512-1.2018,2.8333-.109,1.0937-.2047,2.1887-.2994,3.2086-3.0571.9634-3.0571.9634-6.6565.2737-1.3486-2.2834.1278-5.2725-1.7182-7.924-1.2515,1.4218-.951,2.8839-1.0841,4.2118-.1237,1.2335-.22,2.47-.3489,3.9468-1.15.1029-2.0664.2477-2.9844.2573-10.3962.1089-20.794.13-31.1884.3293-3.3329.0639-6.657.5824-9.94.8886-.1792,1.4082.7087,1.4864,1.4288,1.54,1.912.143,3.8315.2605,5.7479.2573,5.9187-.01,11.8389-.1872,17.7555-.0978,5.7555.0869,11.5077.4112,17.26.6665a9.9667,9.9667,0,0,1,1.8849.4725,11.0894,11.0894,0,0,1,.3464,1.9337c-.03,6.0706-.0592,12.1417-.1728,18.211-.0358,1.917-.25,3.8221.5117,5.6453,1.3647-.1007,1.5209-1.1234,1.5616-2.0595q.3015-6.9389.4823-13.8826c.0552-2.2345-.0786-4.4736-.0306-6.7085a20.7592,20.7592,0,0,1,.4749-2.8921c2.42-.3772,4.44.5436,6.7491.9595.1018,1.4295.2679,2.6751.2661,3.92-.0085,6.0718-.0923,12.1435-.08,18.2152.0035,1.6916-.3239,3.4933.7575,4.9926,1.2877.02,1.4163-.97,1.5315-1.5909a27.6605,27.6605,0,0,0,.4577-4.7441c.0531-5.2724.0042-10.5459.035-15.8187.0082-1.4016.1627-2.8024.2469-4.154a6.787,6.787,0,0,1,1.63-.5026c3.1412.0082,3.8025.5274,3.7812,3.51-.0457,6.39-.2156,12.7789-.3628,19.1676-.0626,2.7151-.2248,5.4278-.2863,8.1428a6.7613,6.7613,0,0,0,1.4694,4.9048,5.0376,5.0376,0,0,0,2.1536-4.248c.1052-1.4323.14-2.8737.1258-4.31-.0717-7.19-.173-14.3794-.2556-21.5691-.0181-1.5763-.0027-3.1531-.0027-4.6181,1.9639-.6283,1.9639-.6283,3.5865-.2877a24.6744,24.6744,0,0,1,.401,3.1255c.0813,10.8622.12,21.7247.1742,32.5872a20.0126,20.0126,0,0,0,.0706,2.8687c.1876,1.2422,1.0569,1.436,2.2807,1.0144a8.839,8.839,0,0,0,.3756-1.7471c.2194-10.3775,1.0409-20.7489.3065-31.1375a43.6241,43.6241,0,0,1-.0346-5.2674,2.0625,2.0625,0,0,1,.8452-1.55,7.3592,7.3592,0,0,1,2.4225-.1892,30.3108,30.3108,0,0,1,.3241,3.474c-.1988,8.1431-.55,16.2838-.6345,24.4276-.0409,3.9669.3893,7.9386.5916,11.64a1.879,1.879,0,0,0,2.8182.3612c.89-1.5758.7-3.3774.721-5.1039.12-9.9045.1508-19.81.261-29.7147.0166-1.4884-.4569-3.11.5638-4.4452,1.6235.2419,1.3479,1.3756,1.3455,2.2317-.0178,6.2314-.0867,12.4625-.1407,18.6937-.0152,1.7575.0154,3.517-.0616,5.2718a43.55,43.55,0,0,0,1.4127,13.0432l2.0882.1852c1.0285-1.7759.6809-3.5769.6818-5.2941.0046-9.9065-.0781-19.8129-.0889-29.7194a24.4467,24.4467,0,0,1,.4107-3.7353c.0256-.165.4919-.3634.7528-.3616.2525.0018.6733.1961.7248.3858a9.4413,9.4413,0,0,1,.407,2.3067c.1149,8.784.1538,17.5692.3069,26.3524.0554,3.1777.3622,6.3511.5726,9.8284a12.4057,12.4057,0,0,0,2.2353.4758,1.7238,1.7238,0,0,0,1.9265-1.6889,42.1568,42.1568,0,0,0,.1346-4.3059c-.226-9.4236-.5015-18.846-.712-28.27-.0351-1.567-.4-3.1942.4871-4.8178.4009.1815,1.0685.2853,1.142.5521a13.7264,13.7264,0,0,1,.5509,3.26c.1939,7.824.33,15.6493.4888,23.4742.0389,1.9161-.041,3.8473.1771,5.7436.2343,2.0375.7552,4.0422,1.1283,5.9454,1.27.8295,2.0483.2535,2.2714-.7648a16.2473,16.2473,0,0,0,.2387-3.8132c-.2072-9.103-.4607-18.2051-.6765-27.308-.0487-2.0518-.0073-4.1056-.0073-6.1308,1.8145-.4551,2.4539-.3055,2.6092.68a25.2883,25.2883,0,0,1,.3052,3.3339c.2668,11.33.5113,22.66.7677,34.2481.5346.7469,1.3848.6266,2.4783-.0641.6884-4.1327.3224-8.4345.3115-12.7146q-.0157-6.2293-.3269-12.457c-.212-4.2805-.4219-8.5549-.4595-12.6538.5769-.3368.8315-.6117,1.0953-.6208,6.04-.2082,6.8877.3865,7.75,6.3834.5443,3.7845.82,7.6193,1,11.4418.3006,6.3792.45,12.766.6174,19.1508.0663,2.5316.0109,5.0664.0109,7.8729a11.0578,11.0578,0,0,1-2.5121-.0258,56.8762,56.8762,0,0,0-13.8024-1.4358c-12.4748-.2277-24.9515-.347-37.427-.54-1.1012-.017-2.1957-.2992-3.2991-.3811a11.2532,11.2532,0,0,0-2.8089-.0086,37.8845,37.8845,0,0,1-12.4027.2064,10.4033,10.4033,0,0,0-2.3431.0059c-.6318.0521-1.2476.2942-1.8794.3491-4.8825.4247-9.3727.1265-13.1315-3.9081-3.3615-3.6082-7.3621-6.6228-11.0832-9.8965-2.3987-2.11-4.9137-4.1038-7.1729-6.3536-2.4836-2.4734-4.8262-5.1044-7.0607-7.8066a98.31,98.31,0,0,0-8.0174-8.9743c-1.254,3.578-1.2662,3.8575.7849,6.03a348.2141,348.2141,0,0,0,28.6151,27.6455c1.0388.875,2.4963,1.44,2.8353,3.2a16.7571,16.7571,0,0,1-6.6371.5871,6.884,6.884,0,0,1-3.3977-1.4929c-2.5471-1.928-5.0114-3.975-7.4124-6.0839-4.084-3.5871-8.0878-7.265-12.139-10.8895-1.1728-1.0493-2.3923-2.0465-3.5411-3.0255a1.6,1.6,0,0,0-.5494,2.5461A15.2264,15.2264,0,0,0,64.94,89.468c4.997,4.4848,10.0287,8.9311,15.0429,13.3969.701.6242,1.3717,1.2823,2.0994,1.9652a7.38,7.38,0,0,1-8.0377-.0655,21.3007,21.3007,0,0,1-2.497-2.2283c-2.428-2.3171-4.8273-4.6644-7.27-6.966A15.6138,15.6138,0,0,0,62.48,94.29a1.8966,1.8966,0,0,0,.3565,2.7557c1.2426,1.2432,2.5638,2.4074,3.8282,3.6293,1.4819,1.4321,2.9381,2.8905,4.3166,4.25-.5066,1.5537-1.6386,1.0867-2.4923,1.2034-2.1791.2978-4.4773-.3383-6.8594.8863a23.9813,23.9813,0,0,0-.43,3.097c-.2328,15.6676.0646,31.3181,1.9958,46.8905a198.7045,198.7045,0,0,0,4.9108,26.3562c1.7085,6.4647,3.7874,12.8317,5.7045,19.2413a3.5075,3.5075,0,0,1,.3056.8987c-.0338,5.6849,2.7144,10.7894,3.3969,16.3218a5.7068,5.7068,0,0,0,2.8,4.24,10.42,10.42,0,0,1,2.1738,1.8359c.3418.3914.3558,1.0684.6656,2.1185-1.4765-.4569-2.455-.76-3.399-1.0518-.2242.35-.5006.5863-.5166.839a3.3642,3.3642,0,0,0,1.7489,3.5994c2.4977,1.3675,3.5023,3.4931,2.783,6.5127L80.5657,236.64a2.1736,2.1736,0,0,0,.3557,3.0956c.7775.7854,1.8208,1.3089,2.5953,2.0965a2.3237,2.3237,0,0,1,.2959,3.2012c-2.1162-.283-3.5681-1.8576-5.0967-3.1a10.942,10.942,0,0,0-8.8907-2.3883c-.0615,1.077.8011,1.3512,1.4183,1.7831,3.405,2.382,6.829,4.7369,10.24,7.1106a15.6845,15.6845,0,0,1,2.2936,1.7174,3.2952,3.2952,0,0,1,.8853,3.7886,15.1922,15.1922,0,0,1-2.4589-1.1519c-5.2026-3.7173-10.4188-7.419-15.5288-11.2609-2.6023-1.9565-5.2384-3.5844-8.6173-3.675a17.2117,17.2117,0,0,1-2.9184-.598c-.2936-.9645-.6379-1.84-.8247-2.7475-3.83-18.6134-8.04-37.142-13.0976-55.46a238.9987,238.9987,0,0,1-5.21-25.8014c-2.2429-13.9487-2.3771-27.9941-2.1429-42.0629.1013-6.082.6156-4.8228-3.9913-8.9055A171.7758,171.7758,0,0,1,9.7849,81.0668c-.7-.8725-1.4021-1.7478-2.0275-2.6729A2.7741,2.7741,0,0,1,7.6123,75.2263Zm8.191-27.4824a9.3639,9.3639,0,0,0,2.3893-2.5806A11.06,11.06,0,0,1,26.2483,40.54c2.5422-.2088,5.0858-.4076,7.6229-.6679a57.235,57.235,0,0,0,8.521-1.0555,78.0039,78.0039,0,0,0,9.8785-3.5531c5.491-2.2513,10.9963-4.2453,17.064-4.3146a16.5381,16.5381,0,0,0,8.4822-2.3211,15.0886,15.0886,0,0,0-6.53-.7137c-1.9116.1567-3.8231.4017-5.7369.4255a23.2107,23.2107,0,0,0-8.8373,1.8988c-3.2343,1.3646-6.5243,2.5979-9.7556,3.97A33.9215,33.9215,0,0,1,34.849,36.7954c-2.0765.0786-4.165.0363-6.2267.2518A41.9781,41.9781,0,0,0,22.503,38.123a8.6132,8.6132,0,0,0-5.0177,3.4839A8.156,8.156,0,0,0,15.8033,47.7439Zm102.71-19.5225a34.7977,34.7977,0,0,1,3.4472-1.4069,41.4249,41.4249,0,0,1,5.9951-1.4707,20.0435,20.0435,0,0,1,12.0441,2.0932c2.6166,1.3349,5.3529,2.2783,8.2638,1.4648a24.4974,24.4974,0,0,1,7.566-.645c.629.0211,1.6159.3859,1.8174-.9336-3.0067-1.7559-6.16-2.5193-9.56-1.457a8.6182,8.6182,0,0,1-5.5978-.4718c-1.1975-.4178-2.3156-1.0569-3.4949-1.5334A23.2386,23.2386,0,0,0,125.85,22.7061C122.6188,23.3,119.9135,24.8666,118.5129,28.2214ZM114.9038,16.63c-.8506-.1473-1.3558-.4055-1.71-.27-3.5311,1.3527-7.0383,1.2334-10.7744.7024-6.2011-.8814-11.4955,1.449-16.0674,5.85.4134.2218.5709.3815.6819.354a14.9481,14.9481,0,0,0,2.6891-.75c4.8985-2.26,9.9084-3.39,15.3105-2.0765C109.0064,21.4064,111.9823,19.592,114.9038,16.63Zm65.641,49.84c-1.0758,3.3793-.9486,6.3774-.9029,9.402.084,5.5685-.0142,11.14-.0329,16.71-.0081,2.3888-.0977,4.7823.0266,7.1645.0636,1.2205.83,1.6454,1.9358.8119.624-7.3477.55-27.7172-.1609-31.9868A11.8466,11.8466,0,0,0,180.5448,66.4694ZM67.5267,18.6045c2.4966-.0213,3.9041-1.1493,5.3148-2.0961a8.2226,8.2226,0,0,1,7.2713-1.2856c1.0687.313,2.2334.3186,3.2828.6748,3.7691,1.2791,7.4028-.1206,11.9075-.1183a10.4072,10.4072,0,0,0-6.8364-2.4022,32.6362,32.6362,0,0,1-5.2043-.4981C75.2578,11.0317,73.6161,11.5513,67.5267,18.6045Zm-25.8728,9.679c3.9882.9078,6.18.08,8.7261-2.9792,1.7029-2.0458,3.3568-4.1324,4.9741-6.1284-2.8718.2-3.8218.4853-5.91,2.9014A22.4259,22.4259,0,0,1,41.6539,28.2835Zm68.0378-3.1216,12.4742-3.7884C116.4809,19.2261,112.85,20.3711,109.6917,25.1619ZM24.6177,28.49c1.9257.4071,3.3234-.6454,4.69-1.6788,1.9328-1.4616,2.921-2.8868,4.2377-5.8344C30.2137,21.8733,27.5617,24.1009,24.6177,28.49Zm9.6832,48.5945c-.1948-1.67-.087-2.6551-.4449-3.4241-.7936-1.7052-3.46-3.95-5.9689-5.372C29.0549,71.91,30.09,73.3984,34.3009,77.0845ZM56.9584,13.977c-4.0978.3913-5.8856,1.49-7.9651,4.8936C52.9445,17.7963,53.8824,17.22,56.9584,13.977ZM86.8992,26.7911c2.09,1.5735,3.4237.7639,5.091-1.6061ZM40.5507,19.1187A3.9971,3.9971,0,0,0,43.6768,15.91C41.3191,16.0129,40.7963,17.4236,40.5507,19.1187Z"/><path class="cls-1" d="M153.2407,400.2349c.3293,1.0323.6858,1.5713.5431,1.8015a23.456,23.456,0,0,1-2.234,3.0685c-3.2337,3.7045-6.5122,7.37-9.7425,11.0143.5022,1.24,1.3959,1.547,2.3179.896a20.6606,20.6606,0,0,0,3.1757-2.8415c2.041-2.1993,3.9942-4.48,6.0512-6.8041,1.2012,2.6579.9913,4.7034-.64,6.4859-.64.7-1.4458,1.2464-2.157,1.8841-1.2933,1.16-2.5723,2.3354-3.5422,3.2178a55.6728,55.6728,0,0,1,.2816,7.4705c-.2527,2.6245-1.575,3.4535-4.2913,3.3292-.7924-.0361-1.5786-.203-2.3686-.3024a4.6693,4.6693,0,0,1-4.1122-3.4889c-.3772-1.1963-.5689-2.451-.8419-3.67-1.9641-.0536-2.8632,2.7389-5.4539,1.6792,1.77-2.2134,4.1548-3.475,6.0448-5.2594,1.9685-1.8584,4.042-3.6105,5.9442-5.5328s3.6979-3.958,5.4521-6.0187C149.4161,405.1105,151.0547,402.9641,153.2407,400.2349Z"/><path class="cls-1" d="M57.5342,240.1427c3.348,1.9319,6.2868,3.8175,9.1771,5.7684,5.2914,3.5716,10.5018,7.2635,15.8167,10.7993,2.28,1.5168,3.356,3.2681,2.16,6.0235a5.077,5.077,0,0,1-1.394-.3924q-11.4533-7.4157-22.8783-14.8748C57.8637,245.8084,57.1764,243.444,57.5342,240.1427Z"/><path class="cls-1" d="M158.3562,130.9994c3.1113-1.8244,5.362-5.6784,10.1172-5.55a5.1309,5.1309,0,0,1,2.43,4.21,12.0268,12.0268,0,0,1-.7815,5.1037c-1.6261,4.0306-5.0492,4.4082-8.963,3.6058-.4677,1.0124-.8971,1.9422-1.4655,3.173-2.1721-1.6568-3.2024-3.2617-2.2984-5.8282A34.3853,34.3853,0,0,0,158.3562,130.9994Z"/><path class="cls-1" d="M6.8759,82.0643c2.59,2.357,4.1941,4.7317,6.1133,6.8073,1.84,1.99,3.634,4.0234,5.513,5.9756,1.99,2.067,4.0344,4.0822,6.0939,6.08,1.9337,1.8758,3.9182,3.7,6.0606,5.7157a3.7982,3.7982,0,0,1-4.9161.4709,12.7465,12.7465,0,0,1-1.83-1.5318,189.6068,189.6068,0,0,1-15.98-17.1216C6.4569,86.7085,5.846,84.9581,6.8759,82.0643Z"/><path class="cls-1" d="M131.521,438.6306c2.5386-3.3644,4.6874-5.4478,8.3905-4.844,1.877.3059,3.7823.4381,5.66.74,2.0194.3249,3.8446,1.3526,6.0046,1.3418,1.6526-.0083,2.4645,2.04,1.9479,4.1413-.3731,1.5173-1.6661,2.1955-3.3431,1.7083-2.2415-.651-4.16-1.6133-3.8-4.7575C141.5691,437.5447,136.95,438.1892,131.521,438.6306Z"/><path class="cls-1" d="M21.3867,107.5857a2.8168,2.8168,0,0,1-3.77-.0562,33.1186,33.1186,0,0,1-2.3461-2.3677c-2.4331-2.5077-4.77-5.1191-7.3277-7.4921-1.751-1.6245-2.1894-3.3641-1.4506-5.8475a6.2154,6.2154,0,0,1,1.544.8542q6.538,6.9351,13.0041,13.9376A3.0763,3.0763,0,0,1,21.3867,107.5857Z"/><path class="cls-1" d="M11.9843,120.6208a40.8762,40.8762,0,0,1-.0582,10.0254c-.061.6948-.7294,1.3364-1.14,2.04-2.4967-.32-3.12-2.16-3.39-4.0261a43.0617,43.0617,0,0,1-.284-6.1413c.0005-1.5557.6977-2.1751,2.4-2.2348A15.3714,15.3714,0,0,1,11.9843,120.6208Z"/><path class="cls-1" d="M130.01,418.3566a14.5765,14.5765,0,0,1,1.434-1.84A118.4278,118.4278,0,0,0,146.85,398.9437c1.505-2.1057,2.7008-2.7309,3.1832-1.8508.8127,1.4824-.5312,2.3339-1.2124,3.2644a93.8282,93.8282,0,0,1-16.4581,17.2237,11.9015,11.9015,0,0,1-2.0544,1.1037Z"/><path class="cls-1" d="M123.0976,118.3316a6.2865,6.2865,0,0,1,7.59,1.9029c1.8305,2.0373,4.7972,3.4912,3.0341,7.0464C129.6256,125.3643,125.0486,121.536,123.0976,118.3316Z"/><path class="cls-1" d="M91.68,140.52c4.0941,2.2906,6.412,5.3657,5.6427,10.284C91.689,148.7786,90.36,144.8156,91.68,140.52Z"/><path class="cls-1" d="M6.4764,108.65c-.8489-4.9131-.8489-4.9131.2558-7.9471a58.7882,58.7882,0,0,1,6.5332,7.26c-1.1143,1.25-2.2674.5666-3.2815.6642C8.9081,108.73,7.8146,108.65,6.4764,108.65Z"/><path class="cls-1" d="M100.2718,128.4644c4.42,2.0725,4.9065,5.6436,4.1181,9.7811C100.4121,137.4236,99.1188,134.0378,100.2718,128.4644Z"/><path class="cls-1" d="M99.972,170.7687a10.2726,10.2726,0,0,1-5.0411-4.0418c-.71-.9435-.7021-1.5948-.61-4.4467C99.4114,164.0706,100.5048,165.68,99.972,170.7687Z"/><path class="cls-1" d="M90.3938,226.7782c-2.6979-.8518-4.4448-2.3471-4.3869-5.3887.023-1.2087.0037-2.4181.0037-3.7378C90.4022,219.124,91.633,220.3959,90.3938,226.7782Z"/><path class="cls-1" d="M87.8187,197.1288c-4.8406-2.7048-5.6083-3.8487-5.7575-8.0964a8.8253,8.8253,0,0,1,4.8993,2.8083C88.1088,193.3138,88.11,194.9886,87.8187,197.1288Z"/><path class="cls-1" d="M94.8556,129.9026c-4.9-2.3616-4.26-5.8632-3.4549-9.4824,1.7552-.4466,2.4612.8741,2.9878,1.81C95.6858,124.5361,95.028,127.0605,94.8556,129.9026Z"/><path class="cls-1" d="M72.4328,167.0563c-3.3083-2.4052-6.3835-4.166-5.3705-8.5159C71.33,159.9458,72.4555,161.5686,72.4328,167.0563Z"/><path class="cls-1" d="M78.9585,199.9265c-4.7962-1.4933-4.0223-5.3487-5.1883-8.9636C78.7094,193.6159,78.7175,193.6307,78.9585,199.9265Z"/><path class="cls-1" d="M83.8027,198.6509c5.256,2.65,5.5652,3.1838,4.6726,7.8563C84.7922,205.3329,83.1994,202.893,83.8027,198.6509Z"/><path class="cls-1" d="M100.8927,179.1613c-3.1343-2.1607-6.3887-3.4419-5.2577-7.94,2.3017.2142,3.4817,1.96,4.9209,3.2345C101.1176,174.9531,101.0808,175.7907,100.8927,179.1613Z"/><path class="cls-1" d="M93.9643,223.3011c2.4755.4577,3.8038,1.636,3.6842,4.14-.0586,1.2263-.01,2.4577-.01,3.8287-2.9335-.5106-4.1485-1.9746-3.9162-4.6082C93.8172,225.5842,93.8787,224.5041,93.9643,223.3011Z"/><path class="cls-1" d="M71.0166,179.7215c4.24,1.8306,5.2672,3.4145,5.4734,8.0133C72.7453,186.4756,71.7891,185.1448,71.0166,179.7215Z"/><path class="cls-1" d="M78.5611,167.1365c3.5841,1.9288,4.78,4.6085,5.1324,7.9837C79.4311,174.1451,78.3271,172.5152,78.5611,167.1365Z"/><path class="cls-1" d="M98.1134,160.3334c-2.3948-2.2416-5.7624-3.3536-5.1526-7.67,2.4706.5091,3.9332,2.129,5.2927,3.7183C99.0554,157.32,99.35,158.6307,98.1134,160.3334Z"/><path class="cls-1" d="M100.7408,141.1166c2.2467.4081,3.4116,1.9055,4.5241,3.4291a6.1148,6.1148,0,0,1,1.2486,4.8559C103.6962,146.8865,100.0917,145.6525,100.7408,141.1166Z"/><path class="cls-1" d="M78.3431,212.2275c4.5,1.6747,3.0708,5.2441,3.8823,8.2633-1.8944-.0484-2.8241-1.0132-3.8823-2.14Z"/><path class="cls-1" d="M84.9162,415.5565q5.8563-.2294,11.7125-.46c1.2278-.0488,2.4554-.136,3.6824-.126.1772.0015.47.4412.4921.6972a1.0509,1.0509,0,0,1-.3792.7739,1.4764,1.4764,0,0,1-.88.2659c-4.87-.05-9.7395-.12-14.6092-.1865Z"/><path class="cls-1" d="M80.3559,177.9657c3.4086,1.721,5.8161,3.6943,5.4876,7.9284a11.0558,11.0558,0,0,1-5.2509-4.0863A3.3092,3.3092,0,0,1,80.3559,177.9657Z"/><path class="cls-1" d="M101.4584,189.135c-4.3827-2.3907-5.06-3.5986-4.3259-7.2684C101.0448,183.2043,101.6536,184.165,101.4584,189.135Z"/><path class="cls-1" d="M66.2222,136.4534c3.17,2.3544,4.2012,4.8172,3.3358,8.1339C65.7825,142.7609,65.2839,141.6165,66.2222,136.4534Z"/><path class="cls-1" d="M77.2638,132.66c-4.0334-2.0043-2.1956-5.3849-2.6466-8.3781a2.3785,2.3785,0,0,1,2.8321,2.0745A12.7068,12.7068,0,0,1,77.2638,132.66Z"/><path class="cls-1" d="M101.8829,197.9526c-1.8405-.1909-2.7819-1.46-3.3956-2.9573-.45-1.0982-1.0839-2.325-.0236-3.4917C102.6507,193.607,102.6507,193.607,101.8829,197.9526Z"/><path class="cls-1" d="M69.3256,169.04c2.3526,2.02,5.4907,3.0177,5.0947,7.2056-2.4965-.7723-3.802-2.5123-5.195-4.085C68.5733,171.4245,68.4125,170.49,69.3256,169.04Z"/><path class="cls-1" d="M96.48,212.4738c-3.5151-1.5667-3.82-4.0535-3.73-6.815,1.6054-.5675,2.345.223,3.0031,1.15C96.849,208.3516,96.8832,210.0492,96.48,212.4738Z"/><path class="cls-1" d="M91.1077,242.823c-3.3663-.7141-3.9233-1.8694-2.9368-6.092C91.3383,238.0625,91.7388,238.8933,91.1077,242.823Z"/><path class="cls-1" d="M95.2485,202.6919a2.2211,2.2211,0,0,1-2.5028-1.6233c-.6608-1.5168-1.32-3.1068-.2867-4.7938C95.5049,197.9527,95.7392,198.5169,95.2485,202.6919Z"/><path class="cls-1" d="M70.8707,154.4223c-2.2554-1.583-3.8657-2.8065-4.7092-4.7246a6.5716,6.5716,0,0,1-.0428-2.337C70.3314,149.3236,70.6922,149.8188,70.8707,154.4223Z"/><path class="cls-1" d="M85.9283,140.7159c-2.9829-2.1326-2.9829-2.1326-2.3465-7.5148a1.2732,1.2732,0,0,1,1.7388,1.1074C85.6031,136.1717,85.6921,138.0642,85.9283,140.7159Z"/><path class="cls-1" d="M95.303,138.9847c-2.3122-1.634-4.6291-2.9961-4.4013-6.5045C95.0473,134.308,95.6464,135.2092,95.303,138.9847Z"/><path class="cls-1" d="M89.8429,170.0376c-3.3549-1.62-3.9625-2.7738-3.3845-6.4268C89.76,165.1618,90.4761,166.5216,89.8429,170.0376Z"/><path class="cls-1" d="M85.1377,153.9139a7.0833,7.0833,0,0,1,3.7274,7.049C85.1016,159.07,84.6707,158.2674,85.1377,153.9139Z"/><path class="cls-1" d="M80.63,162.79a14.1074,14.1074,0,0,1-2.2767-1.5648c-1.6775-1.8525-2.1987-4.02-1.3136-5.0426a.6765.6765,0,0,1,.4019-.1806c1.3449-.1688,2.5868,1.3684,3.1663,4.06A15.87,15.87,0,0,1,80.63,162.79Z"/><path class="cls-1" d="M85.2621,209.5324c2.5673,1.5,5.2879,2.2221,4.5,5.6869C86.4053,214.7431,85.5913,213.8,85.2621,209.5324Z"/><path class="cls-1" d="M100.8593,118.88c3.2291,1.9946,3.2462,2.0357,2.5039,5.9819C99.96,123.34,99.8247,123.0156,100.8593,118.88Z"/><path class="cls-1" d="M76.0927,146.2554c3.1067,1.6264,3.434,2.3464,2.8932,6.3635C76.0213,151.0723,75.6342,150.2208,76.0927,146.2554Z"/><path class="cls-1" d="M91.573,259.159c-3.8646-2.2512-3.8646-2.2512-3.0722-5.4052C91.9752,255.299,91.9752,255.299,91.573,259.159Z"/><path class="cls-1" d="M142.6908,134.8114c-2.8438-2.4671-2.8438-2.4671-1.6739-5.5861C143.8724,130.3915,144.0173,130.8044,142.6908,134.8114Z"/><path class="cls-1" d="M91.7865,250.5945c-4.0036-1.5663-4.0036-1.5663-3.6316-5.2387a3.8585,3.8585,0,0,1,3.4007,1.9756C91.9806,248.2014,91.729,249.401,91.7865,250.5945Z"/><path class="cls-1" d="M93.8806,215.39c3.5472,1.9893,3.761,2.4287,2.9534,5.5439C93.61,219.6185,93.4493,219.3405,93.8806,215.39Z"/><path class="cls-1" d="M130.3087,418.6847c-2.1237,2.0679-4.2179,4.1678-6.4,6.1727-.3734.343-1.1209.28-2.27.5291a7.254,7.254,0,0,1,2.6954-2.885c.84-.7143,1.6939-1.4175,2.5859-2.0648,1.0041-.7288,2.0578-1.39,3.09-2.08Z"/><path class="cls-1" d="M157.2569,142.63c2.79,1.346,3.1024,3.27,2.3387,5.6918C156.1283,146.8433,156.094,146.7651,157.2569,142.63Z"/><path class="cls-1" d="M143.4071,128.0967c-2.1409-1.4706-3.3561-2.9351-2.3546-5.3379C144.5729,124.0478,144.7863,124.4762,143.4071,128.0967Z"/><path class="cls-1" d="M150.6328,127.8239c.6413.9818,1.15,1.4507,1.2689,2.0033a4.6431,4.6431,0,0,1-.8063,3.9616C148.8782,132.4551,148.8389,132.12,150.6328,127.8239Z"/><path class="cls-1" d="M110.5254,396.9544a6.0338,6.0338,0,0,1,4.7244-1.0752c.2977.0326.6137.6022.7638.9854a.8694.8694,0,0,1-.3211.7776,4.69,4.69,0,0,1-4.7835.268C110.7128,397.8043,110.6876,397.3823,110.5254,396.9544Z"/><path class="cls-1" d="M91.0059,185.7389c2.6983,1.604,3.0768,3.5838,2.719,6.02C90.8623,190.4945,90.78,190.3187,91.0059,185.7389Z"/><path class="cls-1" d="M91.9247,182.0768c-3.1311-1.5757-3.2942-3.7031-3.1138-6.4979C91.85,176.86,91.9875,179.0021,91.9247,182.0768Z"/><path class="cls-1" d="M100.3705,374.9854a12.7266,12.7266,0,0,1-.4384,1.82.95.95,0,0,1-.7655.41.98.98,0,0,1-.7524-.4492,4.9857,4.9857,0,0,1-.0958-4.1309.85.85,0,0,1,1.5218.0465A22.7326,22.7326,0,0,1,100.3705,374.9854Z"/><path class="cls-1" d="M68.5635,123.5391a3.4185,3.4185,0,0,1-2.788-3.1558c-.06-.5462.0821-1.4018.4448-1.6389a6.6928,6.6928,0,0,1,2.3432-.4138Z"/><path class="cls-1" d="M119.0361,395.61l5.291-2.1622c.0857,1.0941.1438,1.8345.2221,2.8345-1.7329.4593-3.15,1.6942-4.9741.6862C119.3724,396.8562,119.3465,396.4248,119.0361,395.61Z"/><path class="cls-1" d="M88.9194,373.7363a12.9214,12.9214,0,0,1-.3633,1.4381c-.223.59-1.67.6777-2.0834.1508a3.2913,3.2913,0,0,1,.1443-3.8638,1.4325,1.4325,0,0,1,1.9942.4975A16.7275,16.7275,0,0,1,88.9194,373.7363Z"/><path class="cls-1" d="M148.7976,135.72c2.6164,1.7041,3.0486,2.62,2.2452,4.3147-.1381.2914-.9323.6071-1.1266.4753-.6059-.4112-1.3854-.9675-1.5116-1.5868A11.1282,11.1282,0,0,1,148.7976,135.72Z"/><path class="cls-1" d="M109.6614,392.5224c2.4015-1.3768,3.884-1.7515,5.4573-1.602.32.0305.6711.5258.853.885a.85.85,0,0,1-.2637.7953C114.0226,393.5023,112.33,393.6756,109.6614,392.5224Z"/><path class="cls-1" d="M112.1121,388.3921a3.4,3.4,0,0,1-.9607-.29,1.12,1.12,0,0,1-.4751-.716.87.87,0,0,1,.4055-.7157,16.164,16.164,0,0,1,3.1489-.6758,2.0986,2.0986,0,0,1,1.469.7219c.4218.4827-.3162,1.2607-1.3523,1.4191C113.5777,388.253,112.8,388.315,112.1121,388.3921Z"/><path class="cls-1" d="M84.1568,145.1835c2.76,1.3224,2.9271,1.6705,2.337,4.645A3.7946,3.7946,0,0,1,84.1568,145.1835Z"/><path class="cls-1" d="M90.6424,233.5808a4.3574,4.3574,0,0,1-3.4728-2.7549,1.0206,1.0206,0,0,1,.1708-.8475.9964.9964,0,0,1,.795-.3377C90.1112,230.061,90.5536,230.728,90.6424,233.5808Z"/><path class="cls-1" d="M75.7809,136.7708a3.9666,3.9666,0,0,1,2.404,4.1177C75.1776,139.7878,74.9142,139.359,75.7809,136.7708Z"/><path class="cls-1" d="M77.1229,204.8631c1.9069.0614,2.7821.8779,3.1252,2.2369a1.5088,1.5088,0,0,1-.2724,1.2717,1.3881,1.3881,0,0,1-1.2563-.0052C77.5066,207.7018,76.9752,206.6338,77.1229,204.8631Z"/><path class="cls-1" d="M94.8687,374.5722a3.6582,3.6582,0,0,1-.1974,1.249,1.42,1.42,0,0,1-.958.7277,1.4822,1.4822,0,0,1-1.0731-.6213,2.8032,2.8032,0,0,1-.298-1.325c-.1324-1.9966.4235-3.1343,1.3439-2.8317C95.0985,372.2353,94.6718,373.4782,94.8687,374.5722Z"/><path class="cls-1" d="M108.8937,416.1759a3.931,3.931,0,0,1-3.9515.1745,1.2083,1.2083,0,0,1-.297-1.1482,2.31,2.31,0,0,1,2.5127-.8132C108.1162,414.559,108.977,414.8932,108.8937,416.1759Z"/><path class="cls-1" d="M116.032,410.5163a6.4724,6.4724,0,0,1-4.9324.2284C113.2592,408.566,114.9015,408.4762,116.032,410.5163Z"/><path class="cls-1" d="M105.9108,380.9725a3.1392,3.1392,0,0,1,1.2091.2895,1.9017,1.9017,0,0,1,.6129,1.1233.8521.8521,0,0,1-.48.6918,6.2489,6.2489,0,0,1-2.29.1967c-.49-.0911-.885-.6973-1.3225-1.0731a9.8,9.8,0,0,1,1.1986-1.1341C105.06,380.9137,105.4486,381.0027,105.9108,380.9725Z"/><path class="cls-1" d="M159.2927,123.421c.3338.2559.503.3245.574.449,1.0437,1.8288,1.1086,2.75.1936,3.16a.94.94,0,0,1-.8424-.1129C158.198,125.9228,158.0141,124.8423,159.2927,123.421Z"/><path class="cls-1" d="M68.3766,131.8173c-1.5549-.7585-2.6709-1.6686-2.615-3.5316C68.1243,128.37,68.5007,128.8639,68.3766,131.8173Z"/><path class="cls-1" d="M104.2019,396.7658a21.6128,21.6128,0,0,1,2.8241-.1147c.1925.0148.5815.8862.4577,1.0562C106.6578,398.8413,105.1889,398.5,104.2019,396.7658Z"/><path class="cls-1" d="M89.2852,366.9286c-.71.6592-1.053,1.2209-1.5223,1.3613a1.3311,1.3311,0,0,1-1.61-1.5766,1.5571,1.5571,0,0,1,1.1913-.9445C87.9284,365.85,88.4478,366.3945,89.2852,366.9286Z"/><path class="cls-1" d="M107.6715,387.0578c-1.6652,1.968-2.1256,1.94-3.3911,0Z"/><path class="cls-1" d="M152.3835,120.6183c-.5906-.1947-1.0272-.2134-1.1-.3857a3.9888,3.9888,0,0,1-.4307-1.7455,1.2715,1.2715,0,0,1,.9139-.8621,1.2486,1.2486,0,0,1,.9226.8315A9.6364,9.6364,0,0,1,152.3835,120.6183Z"/><path class="cls-1" d="M93.5125,365.5712a8.288,8.288,0,0,1,1.1493,1.7869c.1507.5967-.0325,1.33-.8126,1.2887-.486-.0257-1.3583-.5237-1.3418-.76A8.5078,8.5078,0,0,1,93.5125,365.5712Z"/><path class="cls-1" d="M95.4275,411.4958H92.13C93.3251,410.0987,94.0967,410.2316,95.4275,411.4958Z"/><path class="cls-1" d="M103.8539,393.1258c1.26-.664,1.6481-1.0079,2.0658-1.0489a1.7436,1.7436,0,0,1,1.2349.3948c.4114.3884-.1863,1.0146-1.0685,1.0251A17.4637,17.4637,0,0,1,103.8539,393.1258Z"/><path class="cls-1" d="M160.2756,120.0591c-.4813-.15-.6681-.1525-.7648-.2471-.5973-.5848-.9729-1.2955-.4084-2.0386a1.2543,1.2543,0,0,1,1.1957-.2606c.8072.49.6652,1.2943.35,2.0535A3.0051,3.0051,0,0,1,160.2756,120.0591Z"/><path class="cls-1" d="M88.8683,381.0294c-.5046.5525-.782,1.0886-1.0237,1.0731a2.6508,2.6508,0,0,1-1.52-.5817c-.3733-.3351.24-1.3034.8089-1.222A8.1785,8.1785,0,0,1,88.8683,381.0294Z"/><path class="cls-1" d="M142.3093,117.9082c.1448-.063.3375-.2188.4251-.1733a9.2476,9.2476,0,0,1,1.5315.9363c.0941.0755-.1137.5268-.1822.805a11.51,11.51,0,0,1-1.5536-.7727C142.3562,118.5853,142.3766,118.1818,142.3093,117.9082Z"/><path class="cls-1" d="M86.0012,119.5356c-.4765.417-.8137.929-1.09.8981a1.2348,1.2348,0,0,1-.849-.8452c-.0334-.2645.4628-.7993.7765-.8438C85.1255,118.7039,85.4832,119.16,86.0012,119.5356Z"/><path class="cls-1" d="M152.5614,125.2442a6.8085,6.8085,0,0,1-1.0438.84,4.0446,4.0446,0,0,1-1.0529-1.1992c-.0627-.1189.5894-.8038.652-.7683A11.3208,11.3208,0,0,1,152.5614,125.2442Z"/><path class="cls-1" d="M84.7088,127.9673a2.6468,2.6468,0,0,1-.4494-.1274,1.5734,1.5734,0,0,1-.9256-1.9063.831.831,0,0,1,.6947-.4184,1.3958,1.3958,0,0,1,1.1628,1.7141C85.1689,127.4874,84.8773,127.7221,84.7088,127.9673Z"/><path class="cls-1" d="M76.9311,120.0324c-.2675-.1456-.6385-.2274-.7776-.4523a4.4623,4.4623,0,0,1-.35-1.1493c.2778-.0706.6023-.2689.8246-.1877a.9945.9945,0,0,1,.6067,1.4451C77.1829,119.822,77.0351,119.9185,76.9311,120.0324Z"/><path class="cls-1" d="M99.4894,380.9881c.3146.5483.7108.934.6434,1.2045a1.1022,1.1022,0,0,1-.8906.6387,1.1206,1.1206,0,0,1-.6459-.8849C98.5957,381.6814,99.0672,381.4153,99.4894,380.9881Z"/><path class="cls-1" d="M94.9486,381.9782c-.5149.3681-.8119.7279-1.1677.8009-.5554.1137-1.27-.7676-.9755-1.18a1.4243,1.4243,0,0,1,1.107-.5063C94.2287,381.1233,94.5041,381.5754,94.9486,381.9782Z"/><path class="cls-1" d="M105.1688,410.9734c.7329-1.0948,1.4942-1.5276,2.5942-.1215Z"/><path class="cls-1" d="M133.88,119.0191l-.4175.2133a4.4754,4.4754,0,0,1-.2762-.7591c-.0117-.06.237-.1706.3659-.2579Q133.7161,118.6171,133.88,119.0191Z"/><polygon class="cls-1" points="99.963 410.473 100.07 410.827 99.793 410.791 99.963 410.473"/><path d="M47.4642,418.6982c2.9944,1.4428,5.9889,2.8855,9.2006,4.4327.5209,2.3944-.0792,4.8348-.5295,7.4409a95.4194,95.4194,0,0,1-15.562-2.4557c-4.5507-1.2407-6.041-3.0394-6.1334-7.7911-.065-3.3469.0076-6.6981.0931-10.0454a23.2525,23.2525,0,0,1,.4366-3.7942c.4279-2.2165,1.1365-2.4325,3.1914-1.1087a6.7494,6.7494,0,0,0,.9595.4087c2.6029-2.4284,5.7548-2.3219,8.88-1.2924,3.0145.9928,5.9154,2.33,8.8455,3.507,1.43,3.9687-1.0256,7.8326.163,12.0109a22.8811,22.8811,0,0,1-2.293-.0117c-2.4834-.2624-4.7137-2.1093-7.3828-1.1856-.0742-.342-.1532-.6784-.257-1.0069-.0033-.01-.2635.06-.4039.0933Zm-8.2691-10.927c-.3355,3.2909-.4092,3.3436.8905,5.158.44.6144.6786,2.0052,2.342,1.1949C41.1339,412.2164,40.9174,409.8067,39.1951,407.7712Zm15.0615,8.2313-.0324.2864.3962-.1119Z"/><path d="M43.39,443.0043c.4831.4331.8589,1.0349,1.3631,1.1746,1.8361.5088,3.7208.84,5.5763,1.2832,1.529.3654,3.0425.7949,4.7216,1.2379v3.7856c-.3737.1395-.7125.3993-.9079.3175a17.212,17.212,0,0,1-3.85-1.8139,13.6554,13.6554,0,0,0-6.3767-2.5334c-2.5011,3.35-6.2468,2.6217-10.085,2.6465a9.853,9.853,0,0,1-.6468-2.6824,40,40,0,0,0-.6633-11.3942,6.0493,6.0493,0,0,1,.0418-2.3637,2.6178,2.6178,0,0,1,3.5433-2.1108,4.04,4.04,0,0,1,.4418.1808c4.85,2.1173,10.0182,3.08,15.1457,4.2035,1.3712.3,2.7009.79,4.3118,1.27-.2443,1.2432-.44,2.2412-.6792,3.4561l-7.8251-.3927c.2406.58.2924,1.0154.4639,1.069,1.3638.4263,2.7556.762,4.128,1.1627a14.9479,14.9479,0,0,1,2.6484.9285,1.3533,1.3533,0,0,1,.3982,1.22,1.23,1.23,0,0,1-.989.6932c-2.3336-.4591-4.6384-1.063-6.9692-1.5381C46.007,442.5652,44.7829,441.8279,43.39,443.0043Z"/><path d="M57.2934,405.0389c-6.6177-2.2891-13.36-2.9686-19.4406-5.9429a31.4225,31.4225,0,0,1-.5848-7.7729,1.8191,1.8191,0,0,1,1.0286-1.3407,2.0121,2.0121,0,0,1,1.6684.5335c1.4108,1.5155,2.6468,3.1923,4.0434,4.7221a12.029,12.029,0,0,0,6.5268,3.7646,40.2446,40.2446,0,0,1,5.4919,1.6651C57.7879,401.3185,57.8827,401.75,57.2934,405.0389Z"/><path d="M66.1471,287.3876c3.7527,1.041,6.26,3.9518,9.5082,5.5977,3.274,1.6587,6.3678,3.6683,9.5894,5.4354,3.1894,1.75,6.44,3.3881,9.8343,5.1648-2.0641.8727-2.3907,1.0125-3.048.7165-8.3037-3.7385-16.6141-7.4706-24.2861-12.435C66.1874,290.8592,65.1141,289.565,66.1471,287.3876Z"/><path d="M80.5232,423.9335a11.2009,11.2009,0,0,1,1.4573-2.1144c.289-.2478.9147-.13,1.3892-.1321,7.6165-.0362,15.2332-.0817,22.85-.0759,1.0041.0007,2.2075-.3533,2.9306.7943-.41,1.0811-1.3084.8576-1.9992.9C98.48,423.8376,89.81,424.5362,80.5232,423.9335Z"/><path d="M66.1338,295.1439c5.8959,3.4912,11.5,6.8079,17.0953,10.1406.0818.0488.0441.2975.0992.771-1.0425.041-2.1966.4113-3.0671.0668a67.3392,67.3392,0,0,1-13.9149-7.3661C65.1553,297.9223,65.1978,297.5793,66.1338,295.1439Z"/><path d="M101.163,300.0626a13.271,13.271,0,0,1-2.6913-.66q-7.5438-3.6615-15.0231-7.4558c-1.3238-.6681-2.3241-1.6082-1.9035-3.2831.4836-.1008.8581-.31,1.0489-.2q9.3009,5.3521,18.56,10.7753C101.2232,299.2792,101.163,299.54,101.163,300.0626Z"/><path d="M99.4935,290.9873a4.86,4.86,0,0,1-1.8281-.199q-7.8393-4.4532-15.5886-9.0621c-.5026-.3007-.6471-1.1984-1.1767-2.2563a6.3786,6.3786,0,0,1,1.75.3019q8.0176,5.0851,15.9879,10.2444c.3434.2224.5174.7055.77,1.0674Z"/><path d="M80.2087,437.6235l6.61,1.309c-2.412,2.0016-4.5865,1.6663-7.1093,1.3207C79.887,439.3179,80.0162,438.6375,80.2087,437.6235Z"/><path d="M126.3,405.7517q-.2893.2163-.5779.4313a4.6023,4.6023,0,0,1-.1549-.81c-.0025-.0911.2037-.188.3145-.2824Q126.0914,405.4209,126.3,405.7517Z"/><path d="M99.4077,291.0836c.91-.0986,1.7827-.1431,1.6863,1.1863l.1054-.12c-.6668-.244-1.646-.0309-1.7058-1.163Z"/><path d="M101.094,292.27a2.4982,2.4982,0,0,1,.84-.1941c.1476.0166.2605.3381.3891.5222-.1394.0213-.3139.1056-.4114.0515a8.136,8.136,0,0,1-.7055-.5074Z"/><path d="M15.8033,47.7439a8.156,8.156,0,0,1,1.682-6.137A8.6132,8.6132,0,0,1,22.503,38.123a41.9781,41.9781,0,0,1,6.1193-1.0758c2.0617-.2155,4.15-.1732,6.2267-.2518a33.9215,33.9215,0,0,0,12.1083-2.5879c3.2313-1.3716,6.5213-2.6049,9.7556-3.97A23.2107,23.2107,0,0,1,65.55,28.3392c1.9138-.0238,3.8253-.2688,5.7369-.4255a15.0886,15.0886,0,0,1,6.53.7137,16.5381,16.5381,0,0,1-8.4822,2.3211c-6.0677.0693-11.573,2.0633-17.064,4.3146a78.0039,78.0039,0,0,1-9.8785,3.5531,57.235,57.235,0,0,1-8.521,1.0555c-2.5371.26-5.0807.4591-7.6229.6679a11.06,11.06,0,0,0-8.0557,4.6237A9.3639,9.3639,0,0,1,15.8033,47.7439Z"/><path d="M118.5129,28.2214c1.4006-3.3548,4.1059-4.9213,7.337-5.5153a23.2386,23.2386,0,0,1,13.1434,1.1549c1.1793.4765,2.2974,1.1156,3.4949,1.5334a8.6182,8.6182,0,0,0,5.5978.4718c3.4-1.0623,6.5538-.2989,9.56,1.457-.2015,1.32-1.1884.9547-1.8174.9336a24.4974,24.4974,0,0,0-7.566.645c-2.9109.8135-5.6472-.13-8.2638-1.4648a20.0435,20.0435,0,0,0-12.0441-2.0932,41.4249,41.4249,0,0,0-5.9951,1.4707A34.7977,34.7977,0,0,0,118.5129,28.2214Z"/><path d="M114.9038,16.63c-2.9215,2.9622-5.8974,4.7766-9.87,3.8106-5.4021-1.3138-10.412-.1838-15.3105,2.0765a14.9481,14.9481,0,0,1-2.6891.75c-.111.0275-.2685-.1322-.6819-.354,4.5719-4.4013,9.8663-6.7317,16.0674-5.85,3.7361.531,7.2433.65,10.7744-.7024C113.548,16.2243,114.0532,16.4825,114.9038,16.63Z"/><path d="M180.5448,66.4694a11.8466,11.8466,0,0,1,.8657,2.1014c.71,4.27.7849,24.6391.1609,31.9868-1.1062.8335-1.8722.4086-1.9358-.8119-.1243-2.3822-.0347-4.7757-.0266-7.1645.0187-5.57.1169-11.1413.0329-16.71C179.5962,72.8468,179.469,69.8487,180.5448,66.4694Z"/><path d="M67.5267,18.6045c6.0894-7.0532,7.7311-7.5728,15.7357-5.7255a32.6362,32.6362,0,0,0,5.2043.4981,10.4072,10.4072,0,0,1,6.8364,2.4022c-4.5047-.0023-8.1384,1.3974-11.9075.1183-1.0494-.3562-2.2141-.3618-3.2828-.6748a8.2226,8.2226,0,0,0-7.2713,1.2856C71.4308,17.4552,70.0233,18.5832,67.5267,18.6045Z"/><path d="M41.6539,28.2835a22.4259,22.4259,0,0,0,7.79-6.2062c2.0886-2.4161,3.0386-2.7017,5.91-2.9014-1.6173,1.996-3.2712,4.0826-4.9741,6.1284C47.8337,28.3631,45.6421,29.1913,41.6539,28.2835Z"/><path d="M109.6917,25.1619c3.1583-4.7908,6.7892-5.9358,12.4742-3.7884Z"/><path d="M24.6177,28.49c2.944-4.3891,5.596-6.6167,8.9278-7.5132-1.3167,2.9476-2.3049,4.3728-4.2377,5.8344C27.9411,27.8446,26.5434,28.8971,24.6177,28.49Z"/><path d="M34.3009,77.0845c-4.2107-3.6861-5.246-5.175-6.4138-8.7961,2.5086,1.422,5.1753,3.6668,5.9689,5.372C34.2139,74.4294,34.1061,75.4147,34.3009,77.0845Z"/><path d="M56.9584,13.977c-3.076,3.2431-4.0139,3.8193-7.9651,4.8936C51.0728,15.4667,52.8606,14.3683,56.9584,13.977Z"/><path d="M86.8992,26.7911,91.99,25.185C90.3229,27.555,88.9888,28.3646,86.8992,26.7911Z"/><path d="M40.5507,19.1187c.2456-1.6951.7684-3.1058,3.1261-3.2087A3.9971,3.9971,0,0,1,40.5507,19.1187Z"/><path class="cls-1" d="M39.1951,407.7712c1.7223,2.0355,1.9388,4.4452,3.2325,6.3529-1.6634.81-1.902-.58-2.342-1.1949C38.7859,411.1148,38.86,411.0621,39.1951,407.7712Z"/><path class="cls-1" d="M47.4642,418.6982l-.7914-.7982c.14-.0329.4006-.1036.4039-.0933.1038.3285.1828.6649.257,1.0069C47.3251,418.82,47.4642,418.6982,47.4642,418.6982Z"/><polygon class="cls-1" points="54.257 416.003 54.62 416.177 54.224 416.289 54.257 416.003"/></g></g></svg>