<svg xmlns="http://www.w3.org/2000/svg" viewBox="0 0 187.8284 486.2083"><defs><style>.cls-1{fill:#fff;}</style></defs><g id="Слой_2" data-name="Слой 2"><g id="Слой_1-2" data-name="Слой 1"><path d="M85.9379,4.3955c.7068-.6244,1.3062-1.1327,1.8822-1.6663C90.6717.0874,94.07-.7489,97.5821.7169c4.93,2.0575,9.9858,1.91,15.1012,1.679,3.1957-.1443,6.3887-.3482,9.5826-.5332a19.1817,19.1817,0,0,1,12.2377,3.3964,95.8811,95.8811,0,0,0,8.5837,5.26,18.0814,18.0814,0,0,0,5.391,1.7936,10.7993,10.7993,0,0,1,6.9184,3.9274c2.2819,2.8587,4.7809,5.5727,5.3086,9.4925a9.6938,9.6938,0,0,0,1.8254,3.8664,13.8769,13.8769,0,0,1,2.4755,9.0706c-.0922,1.312-.1081,2.4964,1.1216,3.4326,1.1607.8837.8762,2.3239.9343,3.5695.29,6.233.2648,12.4946.8682,18.6958.9751,10.0222,1.9674,20.07,3.643,29.9909q5.432,32.1576,11.6218,64.1855a246.9372,246.9372,0,0,1,3.9862,65.4214c-.7051,9.7211-1.6495,19.4562-4.2309,28.9163a126.5391,126.5391,0,0,1-16.3559,36.1248,188.4425,188.4425,0,0,1-16.7333,21.6071c-8.0527,9.1058-15.9559,18.3438-23.9217,27.5266a7.9733,7.9733,0,0,0-.9066,1.1163c-3.8841,6.6026-8.1286,13.0427-10.1613,20.5439-1.2956,4.7812-2.4841,9.5995-3.4815,14.45a37.8142,37.8142,0,0,0-.9269,8.5452q.3447,12.71,1.1879,25.4049a43.918,43.918,0,0,0,4.1268,15.2123c2.5138,5.5289,5.2538,10.9559,7.9459,16.4022a21.1907,21.1907,0,0,0,5.7955,6.95,57.9459,57.9459,0,0,0,20.5892,11.0191c5.3648,1.5638,10.8473,2.7195,16.2573,4.1339,2.6193.685,5.2323,1.4372,7.7746,2.3612a7.0327,7.0327,0,0,1,4.2018,4.36c.7274,1.946.2739,3.4433-1.5752,4.4551a49.2894,49.2894,0,0,1-13.3187,5.3348c-9.5358,2.0187-19.0826,4.0725-28.7128,5.53-6.9353,1.0494-14.0073,1.2552-21.0283,1.6658-18.7092,1.094-37.4229.4268-56.1246-.205a260.7516,260.7516,0,0,1-35.2567-3.9246,26.1126,26.1126,0,0,1-4.207-.9484c-3.8324-1.34-6.71-3.7094-7.6582-7.8681-.965-4.2345.6962-7.6741,4.73-9.2945a80.2,80.2,0,0,1,8.2223-2.575c4.7684-1.3405,9.5811-2.5262,14.3355-3.913a61.1641,61.1641,0,0,0,16.3758-7.8589A30.9334,30.9334,0,0,0,66.0511,434.989c1.6158-3.8271,3.5162-7.5339,5.28-11.2989a51.21,51.21,0,0,0,5.04-19.8574c.2221-5.5945.6115-11.1821.8909-16.7746.5706-11.4213-1.9568-22.0854-6.7629-32.505A127.7631,127.7631,0,0,0,46.985,319.7348c-2.9737-3.1317-5.9566-6.26-8.81-9.4994C23.7618,293.8728,11.8419,276.04,5.74,254.8057a149.3639,149.3639,0,0,1-4.5-24.5017c-1.6137-14.1981-1.3849-28.442-.809-42.6691a129.2881,129.2881,0,0,1,2.1374-17.1237c4.1083-23.3028,8.49-46.5578,12.5332-69.8716,2.7605-15.9182,5.0442-31.9114,5.25-48.123a199.1169,199.1169,0,0,1,2.1046-22.9192,17.4781,17.4781,0,0,1,8.4112-13.26,35.4506,35.4506,0,0,1,12.2309-5.3419,17.8608,17.8608,0,0,0,8.5246-4.1233c3.8781-3.38,8.1758-4.1436,12.9186-2.0868,3.3171,1.4385,6.4129,1.48,9.4972-.7969,2.4924-1.84,5.3781-1.8126,8.2606-.8217C83.488,3.5757,84.6805,3.9714,85.9379,4.3955ZM64.2607,248.8747c.1491-.7566.7872-1.5933-.7419-2.4134l.83,2.3271q.4209,1.9911.8419,3.9823l1.0059,3.7835c.5263,2.5428.5865,5.2153,2.0833,7.488a20.2872,20.2872,0,0,0,2.9073,9.39c.2057.3794,1.0015.4389,1.4857.6726q-.0775.5183-.1552,1.0364c.0882-.0561.2571-.1226.2515-.1668-.0351-.275-.1093-.545-.1706-.8167-1.0687-2.9584-2.1075-5.9284-3.2368-8.8634-.1821-.4733-.7679-.7913-1.1592-1.1882.1108-3.5088-.4055-5.3733-2.0513-7.4975.3153-1.43.7774-2.9011-1.014-3.7683C65.4888,251.3772,65.98,249.8821,64.2607,248.8747ZM134.8714,13.1776a13.3222,13.3222,0,0,0-1.2523-3.0277,14.5176,14.5176,0,0,0-15.45-4.8548A39.0924,39.0924,0,0,1,106.419,7.3c-3.4373.0308-6.6733-.4661-9.45-2.7336-2.1476-1.7539-4.3752-1.6791-6.5916-.0549a7.1,7.1,0,0,1-1.6109,1.0271c-3.2709,1.2163-6.5051,2.7687-10.1263,1.1967a4.48,4.48,0,0,0-4.1084.5247,15.3229,15.3229,0,0,1-12.02,1.3846A21.1677,21.1677,0,0,0,59.6764,8.2a6.5693,6.5693,0,0,0-6.1185,1.8731,12.4207,12.4207,0,0,1-6.2861,3.3026,29.5667,29.5667,0,0,0-3.2574.7974c-7.1974,2.5161-12.5074,6.94-14.413,14.6493-.9621,3.8917-1.9131,7.7375-4.74,10.8349-.4955.5431-.3762,1.6476-.607,2.8324,2.779-.4161,5.1057-.9112,7.4562-1.0883,6.3726-.48,12.7507-.9434,19.1353-1.1915,6.5449-.2543,13.1191.032,19.6462-.4169,10.049-.6909,20.0844-1.4108,30.1657-1.1976,1.2447.0264,2.4938-.1553,3.6613-.2352.438-1.0058.7762-1.7826,1.2315-2.8284.4194.684.67,1.059.8853,1.4529.225.4111.4168.84.6045,1.2238,4.5453.4852,4.7.48,5.6291-.1922,1.1088-.8176-.01-3.07,2.3243-3.325q.7665,1.8441,1.5558,3.7425h9.1487l1.62-3.342c1.6.2831,1.2967,1.478,1.6556,2.2919a1.8269,1.8269,0,0,0,3.075.6224,18.3752,18.3752,0,0,0,.9818-1.6133c1-1.3361,2.0415-1.2353,2.9273.2775.3177.5424.4115,1.3066.8546,1.6574a1.75,1.75,0,0,0,1.6465.1487,16.2836,16.2836,0,0,0,2.1166-2.2882c1.0461,1.1741,1.7073,2.3436,2.7091,2.943,1.6129.9647,2.287-1.1276,3.7083-1.61.2687,1.6121,1.3837,1.9956,2.8021,2.0661,3.5075.1742,7.01.443,10.5172.6239a8.8116,8.8116,0,0,0,1.8455-.3072,12.0512,12.0512,0,0,0-1.4057-8.4568c-1.4153-2.4976-2.7947-5.0182-4.1022-7.5737a13.4471,13.4471,0,0,0-10.4392-7.5386c-.661-.1034-1.5864-.49-2.0026.6954l3.3417,4.1881a10.3107,10.3107,0,0,1-2.5835-.84,27.3038,27.3038,0,0,1-3.4686-3.2594,11.4571,11.4571,0,0,0-6.79-4.1131ZM116.2637,143.9765c.9493-3.7371.0084-6.5178-3.7853-8.1207a41.7771,41.7771,0,0,1-4.5195-2.69c-.9061-.5277-1.8581-.9765-2.8776-1.5066A6.6179,6.6179,0,0,0,104,137.1239c3.6156,2.172,7.2907,4.3986,10.9949,6.5756a3.7087,3.7087,0,0,0,1.3716.1807l-.1721,1.9614a17.9567,17.9567,0,0,1-2.0932-.76c-1.8355-.9741-3.648-1.9919-5.4618-3.0064-1.6736-.9361-3.3375-1.8894-5.0058-2.8352-2.6778.8185-2.9681-2.2479-4.737-2.9141-.9749-.3673-1.9377-.7668-3.181-1.2611-.2934,1.12-.5283,1.8629-.6738,2.6224-.1169.6091-.125,1.239-.19,1.9548,3.0481,2.751,6.7782,4.2838,10.12,6.4138,3.3279,2.1212,7.1773,3.357,10.21,6.0851a5.0758,5.0758,0,0,1-2.6215-.37c-4.8486-2.4535-9.6507-4.9988-14.491-7.469-1.2393-.6324-2.3253-1.796-3.937-1.3711-1.7687,3.4355-1.7517,3.78.9645,5.3045,5.5772,3.131,11.2021,6.1768,16.79,9.2884a26.0882,26.0882,0,0,1,3.1789,2.0974c.2321.1782.1337.7873.2522,1.694-1.3313-.5486-2.3393-.8716-3.26-1.3587-5.6543-2.99-11.28-6.0348-16.9391-9.0148a23.4981,23.4981,0,0,0-2.927-1.0942,2.9386,2.9386,0,0,0,.3707,4.1477,15.6425,15.6425,0,0,0,2.7543,1.9c5.0654,3.0571,10.1487,6.0846,15.2171,9.1366,1.1809.711,2.3283,1.4779,3.9619,2.5192-2.3858.4558-3.664-.6529-5.0026-1.3946-5.3149-2.9448-10.5835-5.9734-15.8965-8.9217a15.5758,15.5758,0,0,0-2.5917-.8979c-1.0485,4.3635-.97,4.7925,1.9061,6.7093,1.9938,1.3288,4.09,2.506,6.1606,3.7167,5.1075,2.9862,10.2338,5.94,15.3322,8.9418.6906.4066,1.2658,1.0119.2946,1.9743-.8224-.4066-1.6846-.7947-2.5115-1.2475q-10.0959-5.53-20.18-11.08c-.9621-.5288-1.8855-1.2868-3.1552-.3971-1.2107-1.76-1.887-4.1962-4.9731-4.1495-.4346,1.3986-.8954,2.8815-1.4352,4.6184,1.6386,1.0906,3.0362,2.1307,4.5334,2.9989,8.0227,4.6519,16.0711,9.26,24.1081,13.8867,1.107.6373,2.2313,1.2524,3.2869,1.9675.5323.3605.8968.9247-.1271,1.7128-10.6062-5.5157-21.39-10.9889-31.7853-17.11-2.0163,2.8087-2.0636,3.4757-.1814,4.9962a42.9682,42.9682,0,0,0,5.0537,3.6483c7.1554,4.2277,14.3629,8.3674,21.5611,12.5224,1.3839.7989,2.8482,1.4631,4.2015,2.3079.4926.3075.8667.9559.0944,1.5059a3.087,3.087,0,0,1-.9452-.1113c-10.58-4.9354-21.1819-9.8277-30.6612-16.7833-1.8018-1.3221-3.7191-2.4927-5.6272-3.6611a12.2219,12.2219,0,0,0-2.1175-.82c-1.6866,4.1212-1.5117,4.9331,1.4819,6.99,1.0534.724,2.1356,1.4167,3.2547,2.0326q13.0255,7.1679,26.0766,14.29c2.2452,1.2233,4.5574,2.323,6.8175,3.52.514.2721,1.2094.6064.3464,1.6726-1.4821-.6182-3.1043-1.189-4.6319-1.95-8.0138-3.9918-16.0226-7.9948-23.9913-12.0756-2.7-1.3829-5.1589-3.2963-7.9445-4.4392-3.0341-1.245-5.18-3.5488-7.7274-5.37q-1.3662-.9769-2.7275-1.96c-3.2442-2.3366-6.4938-4.6659-9.7254-7.02-.4468-.3255-1.1885-.6243-.5721-1.4131,4.514-.76,7.0211,3.1548,10.763,4.9585.6325-2.795.9036-5.0044-1.6762-6.567a2.111,2.111,0,0,1-1.0392-2.4657,7.8421,7.8421,0,0,1,.6436-1.2978l3.0168,1.35c1.4354-2.2453,1.486-2.5816.3922-3.7669-.5387-.5838-1.2511-1.0124-1.7624-1.6152-.8344-.9841-.8237-2.01.2961-3.0994l2.8639,1.1542c2.0467-3.63,2.0469-3.6307-.3058-6.1376-.1091-.1163-.2279-.2235-.3446-.3325a1.7088,1.7088,0,0,1-.5014-2.1516c.5-.9124,1.2511-.6318,2.029-.2233a8.4048,8.4048,0,0,0,1.7663.4874c1.379-2.1931,1.5866-3.9932-.6744-5.5222a3.19,3.19,0,0,1-1.2272-1.4053c-.1679-.4756.1229-1.1132.1942-1.5714,1.742-.4942,2.53,1.828,4.0809.9322a2.5672,2.5672,0,0,0-.3528-3.1655,19.4849,19.4849,0,0,1-1.9488-2.0679c-.2558-.4022.0077-1.1349.0437-1.8626l3.2043.4321c.9967-1.6042,1.0155-2.9434-.0566-4.2111-.308-.3642-.817-.6126-.9953-1.0189a7.1676,7.1676,0,0,1-.3128-1.7358c.5733-.0848,1.1444-.1955,1.7207-.2462.4616-.0405.93-.0082,1.38-.0082,1.0762-2.2281,1.3213-4.2435-.8785-6.0237-.3854-.3118-.1808-1.3531-.251-2.0812h2.6759c.8321-2.2957,1.4123-4.3812-.9339-6.0946a3.1078,3.1078,0,0,1-.73-1.1974,1.28,1.28,0,0,1,1.1079-1.7154,8.9049,8.9049,0,0,1,1.815.2137c.6849-3.7929.6849-3.7929-1.504-5.8842.533-8.6128.2171-7.8076,3.1854-10.4278-.5589-.7454-1.1776-1.4659-1.6713-2.2639a.9794.9794,0,0,1,.5318-1.5707c2.8529,1.0874,4.4451,4.7509,8.1373,4.3424,3.1732-.351,6.5181.6589,9.6657-.9091-.3161-.55-.4066-.9051-.6352-1.0757-5.4172-4.0444-9.9815-8.9711-14.48-13.9656A28.0771,28.0771,0,0,1,79.57,74.4035c-.3348-.4751-.5354-1.17.6616-1.6,1.99,1.8233,3.9138,3.92,5.8777,5.995,2.6348,2.7833,5.2731,5.5933,8.1642,8.0983,8.2951,7.1872,7.3517,5.5329,15.9725,5.5373.711,0,1.648.179,1.8344-.8094-5.8439-5.7894-11.6-11.5252-17.3973-17.219-2.3962-2.3535-4.9789-4.5239-7.2888-6.9561A37.2681,37.2681,0,0,1,83.7528,62.46c-.2966-.4406-.6206-1.1341.5571-1.6968,2.4686,2.5284,5.0452,5.1206,7.5691,7.7633,4.1982,4.3959,8.2787,8.9079,12.57,13.21,2.9315,2.9385,6.2426,5.498,9.1752,8.4354a6.0256,6.0256,0,0,0,4.6052,2.0657c2.8683-.0552,5.736-.2083,8.6039-.2021,9.91.0212,19.8191.1,29.7287.1392,1.439.0058,2.8778-.099,4.3172-.12,1.5344-.0221,3.0694-.005,4.9526-.005-.196-2.497-.4677-4.8427-.8331-7.1931-.5648-3.6327-1.23-7.2646-1.5152-10.9231-.6707-8.6093-1.1424-17.234-1.6942-25.8525a12.7121,12.7121,0,0,0-.2334-2.8554,2.7313,2.7313,0,0,0-1.3742-1.7172,9.3636,9.3636,0,0,0-6.4349-.0077,39.6751,39.6751,0,0,1,.9766,5.8374c.1776,10.5529.23,21.1081.2965,31.6627a9.812,9.812,0,0,1-.3646,2.3446c-.0567.2331-.437.5655-.6418.5471-.4192-.0378-1.1163-.2083-1.1778-.4544a17.8623,17.8623,0,0,1-.6109-3.7209c-.2354-7.3559-.3133-14.718-.6277-22.07-.2041-4.7714-.6754-9.5266,1.3051-14.2691-1.8148-.7857-3.23-1.2569-4.86.28,0,1.4177.0048,3.0068-.0007,4.5958-.0342,10.08-.0528,20.16-.1253,30.24a23.2317,23.2317,0,0,1-.487,4.74c-.1009.4647-1.0621.7424-1.7644,1.1923-1.16-2.7857-.9647-5.38-.9941-7.9087-.119-10.2346-.6406-20.4767.3961-30.6983a7.6059,7.6059,0,0,0-.102-2.376c-.0788-.356-.7106-.9057-.9575-.8426a2.5646,2.5646,0,0,0-1.3728.9763c-.2348.3436-.1353.9283-.151,1.4069q-.2751,8.3949-.5408,16.79c-.1962,5.9166-.3863,11.8335-.6214,17.7486a18.09,18.09,0,0,1-.4885,3.7814c-.11.4273-.8643.8181-1.3936.9522-.26.0659-.9189-.4449-.9841-.7761a26.7448,26.7448,0,0,1-.756-5.2016c.0348-7.1946.1836-14.3892.3536-21.5823.0983-4.1567.3437-8.31.4557-12.4663.0188-.6992.1036-1.6427-1.3266-1.8939a3.2185,3.2185,0,0,0-.6582,2.4214q-.3945,16.5491-.8055,33.0978c-.04,1.598-.1026,3.1993-.2543,4.7895-.1261,1.3219-.7881,1.9175-1.77,1.8028-1.1714-.1368-1.5564-.965-1.6869-1.9743a14.6883,14.6883,0,0,1-.1193-1.9143c.0077-3.04.0122-6.08.0612-9.119.134-8.3182.304-16.6359.4215-24.9544a16.4412,16.4412,0,0,0-.3261-3.79c-.09-.4048-.957-.8874-1.4606-.8784a1.8594,1.8594,0,0,0-1.4519.9282,10.9006,10.9006,0,0,0-.2631,2.8468c-.3393,9.1125-.73,18.2207-.0707,27.3418a67.4357,67.4357,0,0,1-.0926,8.6279,15.4446,15.4446,0,0,1-1.2115,3.51c-.6553-1.0595-1.1774-1.5408-1.2443-2.0788a40.3371,40.3371,0,0,1-.362-5.2543c.0761-10.5585.2164-21.1166.3052-31.675.0116-1.3773.5224-2.8726-.9725-4.4221-2.8139.2475-5.9449-.7252-9.2538.6595-.0737,1.4933-.1972,2.904-.2033,4.3152-.0237,5.44.0273,10.8806-.03,16.32-.02,1.9118-.2459,3.8235-.43,5.73-.0649.6741-.4118,1.1662-1.582.8641-.1445-2.0848-.4053-4.292-.43-6.5019-.064-5.7594.0025-11.52-.0475-17.28a33.0755,33.0755,0,0,0-.4733-3.8011c-2.1646-.4061-3.9891-.7317-6.1085.4692,0,2.1327-.021,4.35.0059,6.566.027,2.24.1127,4.4786.1526,6.7182.0674,3.7789.0607,3.779-1.2027,6.7118a37.5788,37.5788,0,0,1-.6155-4.1506c-.1136-4.3181-.112-8.639-.2005-12.9579-.022-1.07-.2195-2.1364-.3531-3.3577a18.2942,18.2942,0,0,0-2.9973-.4239q-12.465.3993-24.9267.9005c-6.5472.2686-13.0911.6192-19.6369.9233-1.275.0592-2.5574.0088-3.8274.1164-6.0516.5128-12.0989,1.0765-18.15,1.5932a55.6,55.6,0,0,0-8.458.9934,7.973,7.973,0,0,0-1.0964,4.7762,108.9465,108.9465,0,0,1-1.2215,19.6119C22.99,78.1836,22.6679,86.05,20.73,93.6817a5.1024,5.1024,0,0,0,.154,1.7082c3.939.5907,5.2791.43,8.9437-1.05-.9631-1.6766-2.9339-3.21-1.1516-5.4188.3286.0606.7034.0233.9273.1895.8961.6649,1.7734,1.3618,2.6042,2.1065a23.8536,23.8536,0,0,0,2.4249,2.3106,8.1988,8.1988,0,0,0,3.0391,1.2371c.9862.1724,2.1949.438,3.1738-.8777-.7025-.7222-1.3125-1.4112-1.9862-2.0308-2.4728-2.2736-4.9967-4.4925-7.4354-6.8015a9.5692,9.5692,0,0,1-2.0332-2.6173c-.3882-.789-.5606-1.8775.892-2.3387,3.6035,3.3033,7.2066,6.6816,10.8935,9.9658,4.1941,3.736,4.2267,3.6994,9.29,4.6986a11.8958,11.8958,0,0,1,.0875,2.197c-.431,3.1686-.9583,6.3239-1.411,9.49a232.6973,232.6973,0,0,1-5.6723,29.1683c-2.2986,8.318-4.4109,16.6875-6.5957,25.0367-.2821,1.078-.6473,2.186.5069,3.33a12.1509,12.1509,0,0,0,2.0726.517,17.8786,17.8786,0,0,1,9.1426,3.8458c18.6708,13.7982,37.8263,26.8415,58.6593,37.2383a14.3787,14.3787,0,0,1,1.9131,1.45c-.7795.1153-1.1246.2756-1.3815.1852a29.6363,29.6363,0,0,1-3.1036-1.2441,296.9794,296.9794,0,0,1-34.7057-19.459c-8.6616-5.7464-17.17-11.7228-25.7587-17.58-1.0091-.6882-2.09-1.2707-3.1768-1.9255-1.6179,4.0572-1.7077,4.18,1.1225,6.2463,4.7779,3.4875,9.5786,6.9633,14.5557,10.1536,9.29,5.9545,18.6352,11.83,28.108,17.4868,6.0315,3.6016,12.3325,6.7519,18.5164,10.0977.8425.4558,1.7419.8159,2.5479,1.3262.4855.3073,1.0438.7589.4768,1.4759-.3158.0506-.679.2336-.9071.1271-5.4985-2.5662-11.0957-4.9515-16.44-7.81-6.2-3.3166-12.1824-7.0409-18.2456-10.6115a318.716,318.716,0,0,1-29.0027-18.7387,27.2176,27.2176,0,0,0-2.4417-1.4566c-.9347.9972-1.03,1.9489-.3017,2.6883a19.2441,19.2441,0,0,0,3.0211,2.3306c7.0329,4.7326,14.172,9.3132,21.1057,14.1864a364.1244,364.1244,0,0,0,38.87,23.7348c.6455.3423,1.5465.5631,1.5363,1.5926-.8649,1.2463-1.7106.2823-2.4593-.074a291.6425,291.6425,0,0,1-36.6628-20.8519c-7.98-5.3292-16.0432-10.5333-24.085-15.769-.7512-.4892-1.4512-1.3227-2.5429-.8364-.9724,2.5046-.9977,2.8842.5448,4.11,2.3781,1.89,4.87,3.6354,7.2765,5.49.5288.4075,1.4528.7387.8641,1.9058-3.6588.0446-6.57-1.9459-9.3126-3.7743-1.3756.66-2.1844,1.8677-3.7372,1.2575-.6083-.2391-1.4472.1087-2.061.176a6.4627,6.4627,0,0,0-.3672,1.1973c-.9879,17.6379-.7417,35.1794,3.911,52.4027,2.0417,7.5584,3.6229,15.2523,6.9782,22.4016,3.3968,7.2377,6.6069,14.5682,10.1982,21.7074a139.4271,139.4271,0,0,0,7.7653,13.2161,32.8338,32.8338,0,0,0,9.0081,9.2173,12.5637,12.5637,0,0,0,4.7153,2.1762c3.93.6721,7.9251.9754,11.9,1.3628a1.6713,1.6713,0,0,0,2.0246-1.2337,15.7282,15.7282,0,0,0-1.2206-1.7484c-5.283-5.8825-9.695-12.2993-12.395-19.8039-.43-1.1965-1.1242-2.2966-1.6713-3.4531-7.2512-15.3273-11.3828-31.5329-13.513-48.29-.7662-6.0279-1.4053-12.072-2.0892-18.11a33.3063,33.3063,0,0,1-.31-3.8182,8.8249,8.8249,0,0,1,.4871-2.08c1.8754-.0572,2.8572,2.0123,4.6088,1.2774.9837-2.445.1573-4.1414-1.801-5.4513a21.6048,21.6048,0,0,1-2.74-1.8873,1.5717,1.5717,0,0,1-.055-2.4861c.34,0,.73-.1246.94.0178,12.3179,8.38,25.8917,14.553,38.7,22.0692.0957.0562.082.2988.1217.4636-.8784.9646-1.692.27-2.497-.1217-4.8872-2.38-9.7632-4.7831-14.6562-7.1511-1.2554-.6076-2.5584-1.1166-4.0326-1.7544a4.8355,4.8355,0,0,0,1.476,5.4256,2.9106,2.9106,0,0,0,3.6509.3532,6.5566,6.5566,0,0,0,3.6826,3.5743c2.1454,1.07,4.2734,2.1789,6.3677,3.3452.48.2672.7908.837,1.3791,1.4885a14.1081,14.1081,0,0,1-1.7223.2992c-.6105.0175-1.2823-.2081-1.6261.8175,2.4428,11.2119,7.448,21.5318,13.2288,31.5235a4.3941,4.3941,0,0,0,1.6588,1.6247,2.0218,2.0218,0,0,0,1.7594-.0848,1.817,1.817,0,0,0,.6062-1.5824,30.6486,30.6486,0,0,0-1.4505-3.5384c-2.4857-5.8906-4.9841-11.7759-7.4388-17.6793-.4622-1.1115-1.1624-2.2581-.1612-3.9132.8368,1.6126,1.5994,2.9763,2.2663,4.3852,2.8723,6.068,5.7777,12.1217,8.5379,18.2408.9571,2.1219,2.2375,3.7272,4.6064,4.264-.7507,1.3088-.947,2.397-.0834,3.3715.7288.8224,1.6057,1.5116,2.3712,2.304.4026.4168,1.0669.9929.9964,1.3865-.4073,2.2711,1.27,3.5259,2.35,5.006,1.1906,1.632,2.1148,1.531,4.3908-.1468-.8339-2.2436-2.4-4.0689-3.7841-5.9955a119.6492,119.6492,0,0,1-13.728-25.22c-.2721-.675-.9132-1.3517-.1792-2.231,1.65,1.4127,2.3926,3.3751,3.3728,5.1913,1.8977,3.5162,3.61,7.1646,5.8348,10.4647,3.6615,5.4326,7.6536,10.6432,11.5426,15.9205.8606,1.1679,1.9828,1.5894,3.4947.4413a17.2749,17.2749,0,0,0-1.0142-2.0038c-3.1237-4.6444-6.3778-9.2044-9.39-13.92-2.3207-3.6331-4.422-7.4137-6.4706-11.21a9.0288,9.0288,0,0,1-1.57-5.2754,13.4625,13.4625,0,0,1,1.3974,1.5171c1.554,2.4231,3.0685,4.8715,4.5935,7.313a164.6756,164.6756,0,0,0,14.9753,19.927,6.3722,6.3722,0,0,0,1.4233.8616c.9489-1.0156,1.8747-2.0065,2.903-3.1069-.6876-.8366-1.0734-1.7687-1.6987-1.9751a4.1721,4.1721,0,0,1-2.6458-2.9324,13.9757,13.9757,0,0,0-1.9049-2.75c-1.9459-2.7383-3.9051-5.4672-5.8265-8.2226a10.2977,10.2977,0,0,1-2.21-5.1818c2.1377,1.5366,3.1154,3.3436,4.3712,4.8834,1.2127,1.4872,2.2879,3.089,3.5364,4.5435,1.3017,1.5165,2.0946,3.57,4.1279,4.3565a2.6561,2.6561,0,0,0,.9511-3.8532c-.8282-1.62-2.3032-3.0047-2.14-5.4856,1.5789,1.121,2.82,2.0026,4.2256,3,1.78-2.525,2.05-5.287,2.9082-7.8189.7164-2.114,1.3748-4.249,2.1544-6.3391.18-.4819.749-.8186,1.4082-1.5007a11.5464,11.5464,0,0,1,.1965,6.1166c-.65,2.6182-1.5961,5.1629-2.3776,7.785a35.3946,35.3946,0,0,0-1.5215,3.886,3.5092,3.5092,0,0,0,.2546,2.2236c.207.4454.9512.6411,1.4741.96,1.4-1.6573,1.6944-3.2474.7849-5.0119-.3635-.705-.7162-1.4157-1.0739-2.1238l2.7828.8751a22.43,22.43,0,0,0,.9006-2.4694c.9935-4.36,1.9442-8.73,2.9087-13.0973.62-2.8055,1.2058-5.6193,1.89-8.409.1079-.44.6569-.7715,1.4749-1.6765a29.0087,29.0087,0,0,1-.02,3.5758c-.6693,4.4251-1.3981,8.8413-2.1252,13.2575-.4932,2.9967-1.0955,5.9782-1.4878,8.9875a7.6833,7.6833,0,0,0,.399,3.2281c.1335.4166.9766.74,1.54.8289.2943.0462.8521-.442.998-.8061a30.6248,30.6248,0,0,0,1.1928-3.6367,196.461,196.461,0,0,0,5.453-29.2007,140.9932,140.9932,0,0,0,.7665-24.4325c-.54-7.821-1.24-15.6178-2.4749-23.3649-1.8366-11.5225-3.5027-23.0688-6.4843-34.383-1.3422-5.0937-2.2854-10.2963-3.309-15.4693-1.21-6.1127-2.31-12.247-3.458-18.3719-.647-3.4529-1.2749-6.91-1.9618-10.3545-.0869-.4357-.4811-.81-1.17-1.9121a22.6608,22.6608,0,0,0-.1764,3.196c.5,4.12.8156,8.2825,1.6482,12.3374,3.6018,17.5408,6.89,35.1381,9.6246,52.833.8528,5.5194,1.6329,11.0869,1.2567,16.7161-.0372.5579.047,1.3314-1.19,1.2242a13.9937,13.9937,0,0,1-.6-2.1146c-.4565-3.4855-.7734-6.9906-1.2869-10.467a294.9847,294.9847,0,0,0-6.0314-29.5865c-2.481-9.7566-4.9953-19.5052-7.3784-29.2857-.8531-3.5008-1.3656-7.0846-2.0334-10.63a6.81,6.81,0,0,0-.3953,3.2946c.348,2.6911.7223,5.3847,1.2432,8.0466q3.3136,16.9356,6.726,33.8519c2.4278,12.0673,5.1094,24.0959,5.7271,36.4431.2156,4.31.2807,8.6282.3487,12.9437.0143.9113.0385,1.9875-1.5237,2.3822-.3459-3.3571-.6433-6.6761-1.0378-9.9835-.8329-6.9825-1.3483-14.0292-2.662-20.9221-2.2134-11.6131-4.8857-23.1407-7.48-34.6782-1.9967-8.8773-5.3539-17.4269-6.4322-26.5322-.049-.4143-.4327-.7889-.6606-1.182a3.9475,3.9475,0,0,0-.7,2.8731c1.5642,7.1823,3.3275,14.3235,4.772,21.5289q3.0622,15.2755,5.7408,30.6271a63.4758,63.4758,0,0,1,.3289,16.519c-.7762-1.1276-1.2974-1.5625-1.3867-2.073a31.7146,31.7146,0,0,1-.63-5.2322,89.516,89.516,0,0,0-3.1675-21.7824c-2.5022-9.75-5.1657-19.4586-7.7726-29.1816a16.81,16.81,0,0,0-.61-1.6369c-1.394-.3839-2.1546.0567-1.8812,1.33.8044,3.7479,1.66,7.4882,2.6321,11.1958,1.54,5.8738,3.2755,11.6971,4.7474,17.587a38.41,38.41,0,0,1,.7681,6.6355c.0409.5886.2707,1.5415-.9248,1.88-.262-.84-.5607-1.57-.7156-2.3285-1.6987-8.3205-4.4375-16.3441-6.9715-24.4249a10.9971,10.9971,0,0,0-1.4232-2.9961c-.4117-.5874-1.1909-1.1243-2.2415-.114.509,2.9454,1.14,6.0507,1.5606,9.1843.4127,3.0717,1.2893,6.1885-.0842,9.8933C117.4062,147.4661,116.8335,145.722,116.2637,143.9765Zm7.7586,335.0208c-.3852-4.3274-.67-4.6768-3.6645-4.8187-.9574-.0454-1.9193-.0135-2.8787.0073-8.156.1768-16.3143.2858-24.4674.5546a478.2631,478.2631,0,0,1-57.5249-1.5879,102.7868,102.7868,0,0,1-12.235-2.2418c-.7615-.1616-1.9988-.3033-1.9635-1.6569,3.1527-1.0127,4.6406-1.082,8.304-.4658,3.1523.53,6.2932,1.2721,9.4689,1.4937,11.6443.8126,23.293,1.6687,34.9551,2.0865,11.5063.4121,23.0308.3276,34.5476.4315,4.9579.0447,9.92.1186,14.8133-.9482a3.1234,3.1234,0,0,1,3.5068,1.161c.1334,1.7533.2745,3.6077.4174,5.487,2.8777.627,5.4-.0364,7.8988-.3185,3.959-.4468,7.8889-1.1544,11.8246-1.7925.2017-.0327.3413-.449.5081-.6876l-1.5173-1.0126,3.15-2.3455c-2.4262,0-3.9988.0048-5.5714-.0011a7.15,7.15,0,0,1-4.5271-1.0242,66.2231,66.2231,0,0,1,9.6013-1.8084c5.8741-.7037,11.7476-1.4136,17.6124-2.1888a10.97,10.97,0,0,0,2.5278-1.2879c-1.5545-.3278-2.3147-.5015-3.08-.6474a133.2212,133.2212,0,0,1-24.0242-6.5433,63.0031,63.0031,0,0,1-15.4353-8.6406,23.6,23.6,0,0,1-6.8882-7.8913q-4.3669-8.5374-8.6-17.143a31.1587,31.1587,0,0,1-2.6327-8.6886c-.5369-3.1511-1.2434-6.2728-1.8109-9.419-.823-4.5624-1.9557-9.108-2.296-13.71-.6013-8.1315-.9142-16.2986-.9624-24.453-.0575-9.7245.566-10.82,7.3633-17.836,2.786-2.8756,5.6047-5.7342,7.6145-9.2332a114.13,114.13,0,0,1,15.9758-20.9365c4.37-4.6746,8.6279-9.4533,12.9559-14.1671a132.95,132.95,0,0,0,19.6858-28.8484,101.0033,101.0033,0,0,0,6.897-15.2711c4.2784-13.1164,7.7311-26.4113,8.6535-40.2255a282.5973,282.5973,0,0,0-.0583-35.019,128.8918,128.8918,0,0,0-1.4307-12.8647c-.98-6.1552-2.1764-12.2778-3.3671-18.3975-2.5038-12.869-5.0728-25.7254-7.596-38.5906-.9231-4.7071-1.7856-9.426-2.69-14.1367-.1834-.9549-.4559-2.0456-1.5466-2.17a9.4869,9.4869,0,0,0-2.8176.6438c1.7211,10.24,3.1723,20.2025,5.1063,30.07,2.92,14.9,6.741,29.6181,8.5689,44.7371,1.3077,10.817,2.4671,21.6193,1.6361,32.5322-.4372,5.7409-.77,11.4942-1.3938,17.2154-.8842,8.1127-2.0834,16.18-4.7686,23.9463-1.62,4.6848-3.2485,9.3682-4.754,14.09-5.65,17.7225-16.0534,32.6037-27.8172,46.671-1.537,1.8381-3.2169,3.5632-4.91,5.2612a13.4714,13.4714,0,0,1-2.1315,1.4931,41.4065,41.4065,0,0,0-5.48-2.2429c-1.7908-.4549-3.829-1.7129-5.7613.4177,2.6041,1.969,6.3006,1.2709,8.2825,4.4592a39.426,39.426,0,0,1-1.7177,3.6629,2.04,2.04,0,0,1-3.2648.6242c-3.47-3.3168-8.0613-4.4991-12.1752-6.5785a5.1089,5.1089,0,0,0-2.7758-.4553c-2.3346.2869-4.643.7879-6.9619,1.2034a3.62,3.62,0,0,0,2.2084,1.0406c2.7038.2739,5.4136.4919,8.1231.7055a8.7864,8.7864,0,0,1,6.317,2.9991c2.6562,3.107,2.3291,6.2188-.9128,8.65a13.3923,13.3923,0,0,1-6.2148,2.3771,91.011,91.011,0,0,1-10.4768,1.1352c-6.5535.1976-13.1161.068-19.6743.1407a14.5237,14.5237,0,0,1-9.68-3.57c-.6084-.5027-1.2582-1.0345-.7012-2.1056a38.6075,38.6075,0,0,1,9.9407.3477,90.7364,90.7364,0,0,0,28.1575-1.329,6.4858,6.4858,0,0,0,1.8065-.5844,2.4793,2.4793,0,0,0,1.384-2.3409,2.0381,2.0381,0,0,0-1.7216-2.0188,31.4041,31.4041,0,0,0-4.708-.8755,85.19,85.19,0,0,0-17.2443.1666c-4.5821.5242-9.1843.8733-14.4308,1.3609a9.7251,9.7251,0,0,1,1.9471-1.3961c1.6749-.5294,3.4059-.8815,5.0808-1.4109.6493-.2053,1.5537-.3524,1.4808-1.4436-3.5078-.393-6.9883-.895-10.4869-1.1491a26.3246,26.3246,0,0,1-14.5483-5.6178,98.2656,98.2656,0,0,1-7.9932-6.8848,125.049,125.049,0,0,1-30.5791-46.5172c-7.63-20.3621-10.3247-41.51-10.16-63.107A75.5189,75.5189,0,0,1,10.3382,185.58c2.1285-12.6109,4.5161-25.1779,6.7316-37.7745,2.5742-14.6357,6.2915-29.0737,7.6078-43.9262a7.9589,7.9589,0,0,0-.2414-1.6154l-3.255-.5365a30.2242,30.2242,0,0,0-.9036,2.9093c-3.4529,17.4085-6.9513,34.8084-10.2968,52.2377a282.8652,282.8652,0,0,0-4.6856,38.07A180.06,180.06,0,0,0,9.28,243.0945a140.0517,140.0517,0,0,0,10.0736,30.4362,57.1832,57.1832,0,0,0,7.03,11.9715c5.0587,6.1946,10.12,12.3894,15.2915,18.4891,3.931,4.6363,8.0582,9.1054,12.0583,13.6838a120.5257,120.5257,0,0,1,20.9806,33.6211c5.3726,13.0478,8.5052,26.4209,8.3158,40.5746-.1668,12.4627-2.0429,24.5235-7.6187,35.8091-2.0535,4.1564-4.1927,8.2706-6.3,12.4007A30.7768,30.7768,0,0,1,56.5,452.89a74.0536,74.0536,0,0,1-18.012,7.7608c-5.5635,1.4438-11.1956,2.64-16.83,3.7848-2.2644.46-4.3361,1.0762-5.89,2.8742-1.4294,1.6539-1.4314,3.0767.0156,4.6762a12.7179,12.7179,0,0,0,8.4105,4.1151c4.4493.487,8.8873,1.083,13.3254,1.6674a240.5292,240.5292,0,0,0,33.9421,2.5064c10.7173-.112,21.4369.0043,32.1551-.0391,3.9978-.0162,7.9994-.1184,11.9908-.336C118.2968,479.7525,120.9719,479.3346,124.0223,478.9973ZM80.8251,277.0815c-.2063-.8458-.3471-1.5867-.5677-2.3031q-3.6693-11.9152-7.36-23.824c-.2361-.7641-.4218-1.5472-.71-2.291-.5106-1.3187-1.989-2.1861-3.01-1.6835-1.1087.5454-.853,1.6264-.5963,2.5194,1.8975,6.6038,3.7859,13.2113,5.7988,19.78a70.946,70.946,0,0,0,2.6415,6.6893C77.7458,277.6869,79.0671,277.6874,80.8251,277.0815ZM99.287,270.37c-2.3252-5.1375-4.6609-9.8391-6.5945-14.7006-1.92-4.8275-3.4353-9.816-5.2108-14.9742l-2.85,1.1106c.5811,2.1154.953,3.988,1.6062,5.7567,2.6445,7.16,5.3239,14.3089,8.1042,21.4173C95.2371,271.2675,95.9456,271.39,99.287,270.37Zm-11.7686,6.6113a3.53,3.53,0,0,0-.1529-1.3016,32.7442,32.7442,0,0,1-2.33-4.1073,39.192,39.192,0,0,1-.8215-4.6693c-.2779-1.2419-.7779-2.4333-1.1637-3.6521-1.6387-5.1782-3.233-10.3711-4.936-15.528a12.4082,12.4082,0,0,0-1.77-3.3017,1.3268,1.3268,0,0,0-2.1135-.23,4.2162,4.2162,0,0,0,.0177,1.3234q5.0868,14.9738,10.2377,29.9257a4.6205,4.6205,0,0,0,.93,1.64A1.2735,1.2735,0,0,0,87.5184,276.9816Zm-6.2031-32.61c-1.23,1.8319-.71,3.6557-.0426,5.4845,2.2938,6.2874,4.5674,12.5821,6.8739,18.8648a4.16,4.16,0,0,0,.939,1.61,1.54,1.54,0,0,0,2.3562-.1039c-.3592-1.1951-.685-2.54-1.1635-3.8278-2.9414-7.9169-5.9555-15.8068-7.69-24.1118a6.7168,6.7168,0,0,0-1.1724-2.5743c-.6856-.9143-1.6414-1.5483-2.8583-.7315C78.1412,241.3525,79.529,242.8557,81.3153,244.3716ZM123.0027,309.93c-.5857-1.8774-1.5744-2.5674-3.0155-2.3471-3.2726.5-6.5309,1.0931-9.7676,1.6438a3.7,3.7,0,0,0,2.2455,3.736A29.9228,29.9228,0,0,0,123.0027,309.93ZM107.7956,114.3508c-.9175,1.2057-.8857,2.6681-.9313,4.0619-.0949,2.9,1.1562,4.14,4.5,4.6344C111.6378,117.3309,111.006,115.7431,107.7956,114.3508Zm-3.9823-3.0463c-.9917-.6821-2.011-1.4326-3.0847-2.095a4.6168,4.6168,0,0,0-1.3053-.3509c-.204.3285-.4752.5737-.5027.8438a25.3041,25.3041,0,0,0-.1457,2.8544c.0387,3.3547.9442,4.2846,5.0384,5.0517Zm-6.5565,15.5282c-.2425,1.7785-1.2082,3.2924-.7459,5.2619,1.2362.9816,2.3615,2.2641,4.1728,2.2561,2.5536-5.081.9849-5.7125-2.36-7.51C98.2027,126.7757,98.0157,126.8327,97.2568,126.8327Zm9.477-3.1281c-1.0229,2.2045-1.4514,3.8266-.7291,5.767,1.0839.69,2.2584,1.4675,3.4714,2.18.2148.1262.59-.0208,1.1314-.0584.14-1.805.7318-3.6211-.168-5.7493ZM80.55,163.7928c.3736-1.6481,1.46-3.1124,1.0486-5.1255a5.8709,5.8709,0,0,0-4.0493-2.2324c-.975,1.5114-1.8776,3.0709-1.0533,4.87A4.2742,4.2742,0,0,0,80.55,163.7928Zm57.9069,114.2507c-1.0805.9772-1.974,1.7855-2.7884,2.5221.8856,2.9774,3.8223,3.2744,5.4453,5.0994,1.9631-3.1742,1.98-3.1908-.0693-5.2994C140.2952,279.5942,139.4434,278.922,138.4573,278.0435Zm-36.1041-151.87c1.7279-4.8477.8131-6.5322-3.97-6.9718-.1319,1.3808-.2639,2.7625-.4055,4.2437C99.4183,124.552,100.4615,125.9921,102.3532,126.1738Zm29.7407,174.03c2.1951-2.369,2.3229-2.7379,1.3226-3.9478a38.92,38.92,0,0,0-3.5194-3.8792,3.6375,3.6375,0,0,0-2.1474-.5779,1.3154,1.3154,0,0,0-.9891.7755,2.04,2.04,0,0,0,.3383,1.2859,1.1659,1.1659,0,0,0,.7155.5761c1.4125.2235,2.1185.6607,2.05,2.4283C129.827,297.8484,131.1611,298.8846,132.0939,300.204Zm-23.52-20.25a7.9988,7.9988,0,0,0,1.3486,3.7938c1.2932,1.7433,2.4409,1.7058,4.6066-.2225-.5337-.9271-1.0289-1.9078-1.6351-2.8143C111.7109,278.9427,111.5582,278.938,108.5737,279.9545ZM79.5683,148.95c-1.56,3.9623-1.56,3.9623,2.6536,6.1246C84.33,151.2287,84.2481,151.0206,79.5683,148.95Zm27.1,135.906c-.8062-1.467-1.3421-2.6195-2.0395-3.6641-.78-1.1684-1.44-1.1647-3.7862-.165a20.38,20.38,0,0,0,.8778,2.6139C102.7856,285.8309,103.2184,285.9317,106.6681,284.8558Zm-1.83,4.0183c1.4868,4.1482,1.4868,4.1482,5.8253,3.135C109.057,287.7422,108.99,287.703,104.8384,288.8741Zm-34.5229-113.65a4.5661,4.5661,0,0,0,.7854-4.4537,2.8016,2.8016,0,0,0-2.97-1.8124c-2.3781,3.3634-2.3393,3.6963.817,5.8218A5.6586,5.6586,0,0,0,70.3155,175.2245Zm49.0561,115.4418c-.0923-1.559-1.1651-2.5212-2.25-3.42a2.8266,2.8266,0,0,0-3.1306.2177c-.9187.8287-.4088,1.7418.0637,2.5684C115.45,292.4735,116.5275,292.5988,119.3716,290.6663Zm-32.11-50.918c.25-5.3681.1237-5.55-4.1578-6.3916C82.7274,237.2245,83.1454,237.9052,87.2617,239.7483Zm-22.956-15.3121c-.2644,4.1906-.2644,4.1906,3.8623,5.6517a4.1752,4.1752,0,0,0-.609-4.466A2.6787,2.6787,0,0,0,64.3057,224.4362Zm51.7649-105.5851c-1.7142,1.7031-1.5772,3.5181-1.1139,5.3362.38,1.4928.7527,3.0956,3.0437,3.3548C117.9165,124.5023,117.702,121.6722,116.0706,118.8511ZM74.7132,233.5852c.2008-4.4062-.315-5.19-3.7012-6.0125C70.2571,231.1193,70.73,231.9481,74.7132,233.5852Zm.9433-68.38c-1.4271,1.3275-1.662,2.4709-.59,3.5733a5.1917,5.1917,0,0,0,3.5426,1.9789c1.47-2.5811,1.4545-3.0128-.3394-4.1866C77.4923,166.0615,76.6177,165.7005,75.6565,165.205Zm-6.0329,53.7588a3.9964,3.9964,0,0,0,.5509,4.3382c.7581.9915,1.62,1.8974,3.0712,1.3179C73.6554,220.5152,73.6554,220.5152,69.6236,218.9638Zm7.81,11.5569c-.7749,3.8639-.405,4.605,3.008,6.0258C81.2815,232.8149,80.904,232.0586,77.4332,230.5207Zm-6.61,14.9854a3.9649,3.9649,0,0,0-1.1335-4.4884c-.8322-.8795-1.8547-1.69-3.3121-1.0152C66.3176,243.17,67.9621,244.6871,70.8234,245.5061Zm2.901-85.9774c.389-1.1879.8632-2.3251,1.1231-3.5094.322-1.4665.0327-1.7528-2.45-2.947a33.9153,33.9153,0,0,0-1.1828,3.5221C70.8907,158.0406,71.2,158.3324,73.7244,159.5287ZM136.5805,293.748c2.0984-2.7167,2.2325-3.3355,1.1986-4.3589-1.2931-1.28-2.1757-1.08-4.2442,1.0965Zm-27.6963,3.0048c1.5443,2.7992,2.5856,3.2776,4.7635,2.3689a1.5035,1.5035,0,0,0,.4514-2.3614,2.5119,2.5119,0,0,0-1.5754-.8177A27.2117,27.2117,0,0,0,108.8842,296.7528Zm18.879,4.6328c-2.1224-3.2147-3.0863-3.2028-6.0309-.1958C123.622,302.9153,123.622,302.9153,127.7632,301.3856ZM67,221.53a3.7009,3.7009,0,0,0-.3425-4.3218c-.6139-.875-1.4-1.6864-2.6831-1.16C63.62,220.15,63.7848,220.4522,67,221.53Zm24.58-98.573a31.2059,31.2059,0,0,0-.7365,4.3713c-.0351,1.2064.63,2.1264,2.2936,1.9723a41.1437,41.1437,0,0,0,.8942-4.0761C94.19,123.94,93.5,123.1242,91.58,122.9565ZM88.4205,158.8a36.1963,36.1963,0,0,0,.2727-3.6315,1.7479,1.7479,0,0,0-1.8477-1.6859c-.9635.1519-1.1433.9138-1.3414,1.6633C84.882,157.4991,85.1491,157.8584,88.4205,158.8Zm9.7006-54.9346c2.0741,2.1484,3.4857,3.4905,5.8244,3.8179V103.66c-1.0313-.0551-1.8038-.1441-2.5736-.1242S99.8338,103.6846,98.1211,103.865ZM85.2419,140.8921a4.0913,4.0913,0,0,0,.4141-3.8651c-.3315-.8529-2.0328-1.3352-2.3447-.64a5.793,5.793,0,0,0-.7292,3.04A1.9579,1.9579,0,0,0,85.2419,140.8921Zm38.3408,154.7048c-2.2116-2.8661-3.9588-1.3409-5.7755-.62.8954,2.3368,1.1445,2.6055,2.4082,2.1823A35.4585,35.4585,0,0,0,123.5827,295.5969ZM75.6921,240.9051a3.5766,3.5766,0,0,0-.7878-4.2791,1.6779,1.6779,0,0,0-2.5573-.2372C72.1976,238.6433,73.078,240.1922,75.6921,240.9051Zm45.8651,45.453a4.61,4.61,0,0,0,2.6675,3.005c.6973.3336,1.9106-.1109,1.9741-.7407a3.3915,3.3915,0,0,0-1.7929-3.0642C123.3439,284.7875,122.3263,285.2882,121.5572,286.3581ZM64.8649,232.2355c.186,2.6186,1.3285,3.982,3.1971,4.7456a1.4248,1.4248,0,0,0,1.2529-.1851,1.5319,1.5319,0,0,0,.3019-1.2436C69.1276,233.2133,67.5335,232.34,64.8649,232.2355Zm81.9577,39.701c.4783-1.0256.82-1.7058,1.1105-2.4069.116-.28.2653-.685.1494-.8949a4.9045,4.9045,0,0,0-1.265-1.7286c-.7182-.4926-1.4679-.1472-1.9886.5669C143.5369,269.2452,143.8306,270.0345,146.8226,271.9365Zm-36.9648,3.8748a15.9,15.9,0,0,0-1.4935-2.5329c-.6524-.7422-2.3983-.4385-2.9856.3745a2.324,2.324,0,0,0,.7116,2.57C107.1393,276.9236,108.207,276.7074,109.8578,275.8113Zm23.7172,10.0046a2.95,2.95,0,0,0-4.1008-2.032,1.3115,1.3115,0,0,0-.5119,1.1409,2.7071,2.7071,0,0,0,3.7666,1.818C133.1024,286.6025,133.3361,286.09,133.575,285.8159Zm-52.37-142.8348c-.7522,2.8909-.51,3.5916,1.6533,4.55a1.4153,1.4153,0,0,0,1.2345-.1752,1.5678,1.5678,0,0,0,.4933-1.2161A3.477,3.477,0,0,0,81.2047,142.9811Zm30-10.2931c1.1259.8551,1.7647,2.0719,3.6017,1.62a8.0967,8.0967,0,0,0-.9508-4.3968c-.1346-.2331-.5083-.3281-.966-.604C112.3449,130.4008,111.8083,131.4774,111.205,132.688ZM93.9885,120.7324a4.6953,4.6953,0,0,0,.6813-4.7479c-.1153-.2726-.3423-.6212-.5855-.6881-.3926-.1079-1.164-.1294-1.2176.0171C92.2109,117.1033,91.6221,118.9358,93.9885,120.7324Zm6.7637,188.979c2.9332,3.358,2.9332,3.358,5.7915,3.4689a4.7361,4.7361,0,0,0-2.8842-3.43A10.9246,10.9246,0,0,0,100.7522,309.7114Zm-3.2045-35.1508c.52,2.164,1.56,3.08,3.3913,2.8488a1.4782,1.4782,0,0,0,1.0391-.6858,1.5967,1.5967,0,0,0-.1334-1.3069C100.8178,273.8775,99.4129,273.7471,97.5477,274.5606ZM69.849,161.9963c-.8814,3.2044-.8814,3.2044,2.13,4.2444C73.2,163.3771,73.2,163.3771,69.849,161.9963Zm-10.81,59.1759a3.9556,3.9556,0,0,0,.5693,4.4988,1.5553,1.5553,0,0,0,1.2413.4672,1.3737,1.3737,0,0,0,.7892-.9681A3.2229,3.2229,0,0,0,59.0394,221.1722Zm32.1542-89.65a4.8741,4.8741,0,0,0-1.2771,4.594,1.076,1.076,0,0,0,.5057.7337c.39.1453,1.1907.2208,1.2308.1109a8.5792,8.5792,0,0,0,.7776-3.01C92.41,133.2132,91.7186,132.4942,91.1936,131.5219Zm-.6908,8.1736c-.7195.28-1.1225.3069-1.2476.5071a3.8984,3.8984,0,0,0-.4537,3.9758,1.0476,1.0476,0,0,0,.75.437c.2676.0251.7627-.1236.8027-.2846a25.8245,25.8245,0,0,0,.6946-3.6021C91.0873,140.3525,90.6335,139.9264,90.5028,139.6955Zm27.66,163.6822a8.6069,8.6069,0,0,0-2.12-1.39,1.8352,1.8352,0,0,0-2.2964,1.1389,2.2424,2.2424,0,0,0,2.2079,2.0335,4.5459,4.5459,0,0,0,1.743-.659C117.9,304.3887,117.9319,303.9681,118.1631,303.3777Zm-22.007-22.2138c-.68.3732-1.2162.5019-1.4415.8384a1.5281,1.5281,0,0,0-.1023,1.283,2.8441,2.8441,0,0,0,2.47,1.9038c.2691.0109.7611-.1661.7831-.3118a2.9977,2.9977,0,0,0-.0272-1.7216A12.3716,12.3716,0,0,0,96.1561,281.1639ZM80.3352,130.0679c1.6536-2.6922,1.8149-3.237,1.3349-4.8506-.06-.2023-.4589-.4036-.7133-.4208-.2634-.0177-.7294.1317-.7834.3074a19.808,19.808,0,0,0-.8784,3.5786C79.2512,129.0772,79.9269,129.5518,80.3352,130.0679ZM94.1313,105.709c-1.3892,3.6789-1.3007,4.6582.5079,5.6164C95.6361,107.2005,95.6361,107.2005,94.1313,105.709Zm15.6981,6.2494c-.3292-2.2875.8174-4.2961-2.47-6.1562C107.995,108.2022,106.4893,110.2839,109.8294,111.9584Zm9.9042,1.57a6.2418,6.2418,0,0,0,.3763,4.6873c.3381.8.964,1.2373,1.9307.279C121.3666,116.8886,121.9678,114.6916,119.7336,113.5284ZM82.285,121.7235a4.96,4.96,0,0,0,1.41-4.053c-.0522-.7606-.4045-1.54-1.8211-1.19C81.81,118.1466,79.94,119.9458,82.285,121.7235ZM76.48,148.18c.1713-1.3046-.4429-2.3976-1.2078-2.3057-1.0239.1229-1.2245.9754-1.3151,1.7337a7.5451,7.5451,0,0,0,.1835,2.2825.8908.8908,0,0,0,.707.518,1.6455,1.6455,0,0,0,1.1369-.531A6.7935,6.7935,0,0,0,76.48,148.18ZM90.7719,273.85c1.1526,3.859,1.1526,3.859,3.6554,3.2267C94.2961,275.0867,93.2955,274.0608,90.7719,273.85Zm-4.429-145.356c-2.0221.3839-1.8485,2.0068-1.7918,3.2832.0317.7131.8326,1.3921,1.5368,2.4687C87.02,131.9908,87.5007,130.3036,86.3429,128.4938Zm-8.7348,6.3407a2.27,2.27,0,0,0,.0906.9094c.2129.3619.5432.84.88.89.3209.0476.7669-.3378,1.0567-.6324a1.7384,1.7384,0,0,0,.3065-.8654c.1751-.9172.3744-1.8608-.6205-2.4815C78.596,132.2025,77.7479,133.2844,77.6081,134.8345Zm12.115,14.9278a4.2758,4.2758,0,0,0-.1883-1.3869c-.1841-.3644-.7364-.8906-.9543-.8192a2.1817,2.1817,0,0,0-1.255,1.0185,2.03,2.03,0,0,0,.6755,2.5046,1.2626,1.2626,0,0,0,1.2139-.0517C89.5207,150.7663,89.565,150.1989,89.7231,149.7623Zm-1.69-29.5851c-2.0173,2.1612-2.1561,3.128-.6324,5.1065C87.8519,123.5329,88.67,122.0353,88.0331,120.1772ZM129.51,302.4609c-1.6279.9974-3.0523,1.7752-3.6138,4.0506.922-.1114,1.6859.0263,1.9736-.2813C128.749,305.29,130.2218,304.5154,129.51,302.4609Zm-27.6861,3.7683a22.64,22.64,0,0,0-2.2569-2.5772,1.4926,1.4926,0,0,0-1.3478.0368,1.4146,1.4146,0,0,0-.6031,1.1383,1.51,1.51,0,0,0,.8211,1.0909A22.4675,22.4675,0,0,0,101.8239,306.2292Zm5.0007-2.9882a1.06,1.06,0,0,0-.8361,1.68,2.1889,2.1889,0,0,0,3.2087.7808,1.0372,1.0372,0,0,0,.4341-.7435c.0377-.9582-.9255-1.66-2.34-1.7647A2.6149,2.6149,0,0,0,106.8246,303.241ZM90.8937,284.6647a2.6707,2.6707,0,0,0-.04-.4577c-.294-1.1334-.7946-2.07-2.1976-1.72a.9664.9664,0,0,0-.71,1.4092C88.46,285.0952,88.904,285.1874,90.8937,284.6647Zm46.28-16.5331c-1.0427.268-1.68.8074-1.0844,1.9407.5442,1.0353,1.6882,1.5574,2.1455,1.029.7627-.8816.3074-1.692-.3293-2.4164A4.4664,4.4664,0,0,0,137.1732,268.1316ZM83.6042,113.4533c.6806-2.3619.9846-3.7759-.43-5.7833C82.7887,109.7589,82.16,111.1183,83.6042,113.4533ZM101.7386,292.076c-1.0692-2.7746-1.0692-2.7746-3.0964-1.5626C99.78,292.9114,99.7786,292.9189,101.7386,292.076Zm-9.5073-2.0527c-.2093.2366-.8051.6082-.8944,1.0763-.1652.8664.7952,1.5833,1.9468,1.481a1.4034,1.4034,0,0,0,.991-.7437C94.5942,290.9786,93.755,290.1338,92.2313,290.0233Zm52.9958-12.8006a8.5573,8.5573,0,0,0-3.5757-3.79C141.1367,275.7582,142.0344,276.7544,145.2271,277.2227Zm-64.9217,6.2451c1.1592,1.55,1.6756,1.7738,2.8209,1.1121a.8544.8544,0,0,0,.2975-.7721c-.6408-1.2966-1.6866-1.05-2.7447-.6181A1.8437,1.8437,0,0,0,80.3054,283.4678Zm9.7222-175.7529c.3842-2.3859.3842-2.3859-.3556-3.76C88.5566,105.0538,88.9271,106.0933,90.0276,107.7149Zm35.1316-.8875.9326-.2339a18.9289,18.9289,0,0,0-.1793-2.6827,1.1717,1.1717,0,0,0-1.0044-.5618c-.3388.1457-.7723.7394-.7042,1.0366A15.9278,15.9278,0,0,0,125.1592,106.8274Zm-39.74,185.8834c.49-.4586.98-.697,1.0552-1.03.2292-1.0072-.5579-1.4771-1.3276-1.5323-.4237-.0305-.894.5872-1.3434.9128C84.303,291.5718,84.8029,292.082,85.4189,292.7108ZM61.9557,231.4716a7.0917,7.0917,0,0,0-.5747-1.35c-.1505-.217-.6537-.4575-.7806-.37a1.7027,1.7027,0,0,0-.7653.9714,2.1962,2.1962,0,0,0,.4211,1.29c.1407.2218.6338.4643.7971.377A4.1614,4.1614,0,0,0,61.9557,231.4716Zm16.1036-90.3695a3.8717,3.8717,0,0,0-.7623-.8882c-.1233-.0795-.597.1585-.728.3671a2.2689,2.2689,0,0,0-.42,1.2271,1.7083,1.7083,0,0,0,.6269.9709c.0795.0719.5845-.1541.7241-.3594A7.27,7.27,0,0,0,78.0593,141.1021Zm41.79-31.424a2.4059,2.4059,0,0,0,.3155-.8391c-.0245-.7024.2762-1.5734-.7282-1.8992a.469.469,0,0,0-.3945.119,1.8211,1.8211,0,0,0,.39,2.4229A1.6878,1.6878,0,0,0,119.8492,109.6781ZM105.3485,298.4254a12.5342,12.5342,0,0,0-1.9025-.8274c-.1856-.0438-.467.3187-.7047.4957a7.2557,7.2557,0,0,0,1.2032,1.232C104.0736,299.411,104.5716,298.9379,105.3485,298.4254Zm-16.6039.6227c.0871-.2477.3125-.5729.2276-.7244-.1174-.21-.4681-.2891-.719-.4242-.087.253-.3108.5761-.2262.7413C88.1315,298.8452,88.492,298.9186,88.7446,299.0481Zm5.9831-.415c.9995,1.1032,1.8129,1.06,2.9906,0ZM61.8568,240.2476c1.4154-1.1157.8794-1.8839-.21-2.611C61.7107,238.434,61.775,239.2315,61.8568,240.2476ZM89.3612,112.8251l-.6531-.0325-.1357,2.54.6695.0335Q89.3016,114.0958,89.3612,112.8251Z"/><path class="cls-1" d="M140.6849,259.3146c.82-2.5762,1.7653-5.1209,2.4157-7.7391a11.5464,11.5464,0,0,0-.1965-6.1166c-.6592.6821-1.2284,1.0188-1.4082,1.5007-.78,2.09-1.438,4.2251-2.1544,6.3391-.8578,2.5319-1.1277,5.2939-2.9082,7.8189-1.4052-.9978-2.6467-1.8794-4.2256-3-.163,2.4809,1.312,3.8661,2.14,5.4856a2.6561,2.6561,0,0,1-.9511,3.8532c-2.0333-.7863-2.8262-2.84-4.1279-4.3565-1.2485-1.4545-2.3237-3.0563-3.5364-4.5435-1.2558-1.54-2.2335-3.3468-4.3712-4.8834a10.2977,10.2977,0,0,0,2.21,5.1818c1.9214,2.7554,3.8806,5.4843,5.8265,8.2226a13.9757,13.9757,0,0,1,1.9049,2.75,4.1721,4.1721,0,0,0,2.6458,2.9324c.6253.2064,1.0111,1.1385,1.6987,1.9751-1.0283,1.1-1.9541,2.0913-2.903,3.1069a6.3722,6.3722,0,0,1-1.4233-.8616,164.6756,164.6756,0,0,1-14.9753-19.927c-1.525-2.4415-3.04-4.89-4.5935-7.313a13.4625,13.4625,0,0,0-1.3974-1.5171,9.0288,9.0288,0,0,0,1.57,5.2754c2.0486,3.7961,4.15,7.5767,6.4706,11.21,3.0119,4.7152,6.266,9.2752,9.39,13.92a17.2749,17.2749,0,0,1,1.0142,2.0038c-1.5119,1.1481-2.6341.7266-3.4947-.4413-3.889-5.2773-7.8811-10.4879-11.5426-15.9205-2.2244-3.3-3.9371-6.9485-5.8348-10.4647-.98-1.8162-1.7226-3.7786-3.3728-5.1913-.734.8793-.0929,1.556.1792,2.231a119.6492,119.6492,0,0,0,13.728,25.22c1.3838,1.9266,2.95,3.7519,3.7841,5.9955-2.276,1.6778-3.2,1.7788-4.3908.1468-1.08-1.48-2.7571-2.7349-2.35-5.006.07-.3936-.5938-.97-.9964-1.3865-.7655-.7924-1.6424-1.4816-2.3712-2.304-.8636-.9745-.6673-2.0627.0834-3.3715-2.3689-.5368-3.6493-2.1421-4.6064-4.264-2.76-6.1191-5.6656-12.1728-8.5379-18.2408-.6669-1.4089-1.43-2.7726-2.2663-4.3852-1.0012,1.6551-.301,2.8017.1612,3.9132,2.4547,5.9034,4.9531,11.7887,7.4388,17.6793a30.6486,30.6486,0,0,1,1.4505,3.5384,1.817,1.817,0,0,1-.6062,1.5824,2.0218,2.0218,0,0,1-1.7594.0848,4.3941,4.3941,0,0,1-1.6588-1.6247c-5.7808-9.9917-10.786-20.3116-13.2288-31.5235.3438-1.0256,1.0156-.8,1.6261-.8175a14.1081,14.1081,0,0,0,1.7223-.2992c-.5883-.6515-.9-1.2213-1.3791-1.4885-2.0943-1.1663-4.2223-2.275-6.3677-3.3452a6.5566,6.5566,0,0,1-3.6826-3.5743,2.9106,2.9106,0,0,1-3.6509-.3532,4.8355,4.8355,0,0,1-1.476-5.4256c1.4742.6378,2.7772,1.1468,4.0326,1.7544,4.893,2.368,9.769,4.7709,14.6562,7.1511.805.3921,1.6186,1.0863,2.497.1217-.04-.1648-.026-.4074-.1217-.4636-12.8079-7.5162-26.3817-13.6895-38.7-22.0692-.2092-.1424-.6-.0178-.94-.0178a1.5717,1.5717,0,0,0,.055,2.4861,21.6048,21.6048,0,0,0,2.74,1.8873c1.9583,1.31,2.7847,3.0063,1.801,5.4513-1.7516.7349-2.7334-1.3346-4.6088-1.2774a8.8249,8.8249,0,0,0-.4871,2.08,33.3063,33.3063,0,0,0,.31,3.8182c.6839,6.0382,1.323,12.0823,2.0892,18.11,2.13,16.7575,6.2618,32.9631,13.513,48.29.5471,1.1565,1.2408,2.2566,1.6713,3.4531,2.7,7.5046,7.112,13.9214,12.395,19.8039a15.7282,15.7282,0,0,1,1.2206,1.7484,1.6713,1.6713,0,0,1-2.0246,1.2337c-3.9752-.3874-7.97-.6907-11.9-1.3628a12.5637,12.5637,0,0,1-4.7153-2.1762,32.8338,32.8338,0,0,1-9.0081-9.2173A139.4271,139.4271,0,0,1,52.11,289.1846c-3.5913-7.1392-6.8014-14.47-10.1982-21.7074-3.3553-7.1493-4.9365-14.8432-6.9782-22.4016-4.6527-17.2233-4.8989-34.7648-3.911-52.4027a6.4627,6.4627,0,0,1,.3672-1.1973c.6138-.0673,1.4527-.4151,2.061-.176,1.5528.61,2.3616-.5977,3.7372-1.2575,2.7424,1.8284,5.6538,3.8189,9.3126,3.7743.5887-1.1671-.3353-1.4983-.8641-1.9058-2.4066-1.8548-4.8984-3.6006-7.2765-5.49-1.5425-1.2258-1.5172-1.6054-.5448-4.11,1.0917-.4863,1.7917.3472,2.5429.8364,8.0418,5.2357,16.1052,10.44,24.085,15.769a291.6425,291.6425,0,0,0,36.6628,20.8519c.7487.3563,1.5944,1.32,2.4593.074.01-1.03-.8908-1.25-1.5363-1.5926a364.1244,364.1244,0,0,1-38.87-23.7348c-6.9337-4.8732-14.0728-9.4538-21.1057-14.1864a19.2441,19.2441,0,0,1-3.0211-2.3306c-.7287-.7394-.633-1.6911.3017-2.6883a27.2176,27.2176,0,0,1,2.4417,1.4566,318.716,318.716,0,0,0,29.0027,18.7387c6.0632,3.5706,12.0458,7.2949,18.2456,10.6115,5.3438,2.8587,10.941,5.244,16.44,7.81.2281.1065.5913-.0765.9071-.1271.567-.717.0087-1.1686-.4768-1.4759-.806-.51-1.7054-.87-2.5479-1.3262-6.1839-3.3458-12.4849-6.4961-18.5164-10.0977-9.4728-5.6564-18.8184-11.5323-28.108-17.4868-4.9771-3.19-9.7778-6.6661-14.5557-10.1536-2.83-2.066-2.74-2.1891-1.1225-6.2463,1.0864.6548,2.1677,1.2373,3.1768,1.9255,8.5882,5.8575,17.0971,11.8339,25.7587,17.58a296.9794,296.9794,0,0,0,34.7057,19.459,29.6363,29.6363,0,0,0,3.1036,1.2441c.2569.09.602-.07,1.3815-.1852a14.3787,14.3787,0,0,0-1.9131-1.45c-20.833-10.3968-39.9885-23.44-58.6593-37.2383a17.8786,17.8786,0,0,0-9.1426-3.8458,12.1509,12.1509,0,0,1-2.0726-.517c-1.1542-1.1437-.789-2.2517-.5069-3.33,2.1848-8.3492,4.2971-16.7187,6.5957-25.0367A232.6973,232.6973,0,0,0,49.1429,106.45c.4527-3.1658.98-6.3211,1.411-9.49a11.8958,11.8958,0,0,0-.0875-2.197c-5.0637-.9992-5.0963-.9626-9.29-4.6986-3.6869-3.2842-7.29-6.6625-10.8935-9.9658-1.4526.4612-1.28,1.55-.892,2.3387a9.5692,9.5692,0,0,0,2.0332,2.6173c2.4387,2.309,4.9626,4.5279,7.4354,6.8015.6737.62,1.2837,1.3086,1.9862,2.0308-.9789,1.3157-2.1876,1.05-3.1738.8777a8.1988,8.1988,0,0,1-3.0391-1.2371,23.8536,23.8536,0,0,1-2.4249-2.3106c-.8308-.7447-1.7081-1.4416-2.6042-2.1065-.2239-.1662-.5987-.1289-.9273-.1895-1.7823,2.2089.1885,3.7422,1.1516,5.4188-3.6646,1.48-5.0047,1.64-8.9437,1.05a5.1024,5.1024,0,0,1-.154-1.7082c1.938-7.632,2.26-15.4981,3.4057-23.2433a108.9465,108.9465,0,0,0,1.2215-19.6119A7.973,7.973,0,0,1,26.4535,46.05a55.6,55.6,0,0,1,8.458-.9934c6.0513-.5167,12.0986-1.08,18.15-1.5932,1.27-.1076,2.5524-.0572,3.8274-.1164,6.5458-.3041,13.09-.6547,19.6369-.9233q12.4609-.511,24.9267-.9005a18.2942,18.2942,0,0,1,2.9973.4239c.1336,1.2213.3311,2.2877.3531,3.3577.0885,4.3189.0869,8.64.2005,12.9579a37.5788,37.5788,0,0,0,.6155,4.1506c1.2634-2.9328,1.27-2.9329,1.2027-6.7118-.04-2.24-.1256-4.4785-.1526-6.7182-.0269-2.2164-.0059-4.4333-.0059-6.566,2.1194-1.2009,3.9439-.8753,6.1085-.4692a33.0755,33.0755,0,0,1,.4733,3.8011c.05,5.76-.0165,11.5207.0475,17.28.0244,2.21.2852,4.4171.43,6.5019,1.17.3021,1.5171-.19,1.582-.8641.1837-1.9068.41-3.8185.43-5.73.057-5.44.006-10.88.03-16.32.0061-1.4112.13-2.8219.2033-4.3152,3.3089-1.3847,6.44-.412,9.2538-.6595,1.4949,1.5495.9841,3.0448.9725,4.4221-.0888,10.5584-.2291,21.1165-.3052,31.675a40.3371,40.3371,0,0,0,.362,5.2543c.0669.538.589,1.0193,1.2443,2.0788a15.4446,15.4446,0,0,0,1.2115-3.51,67.4357,67.4357,0,0,0,.0926-8.6279c-.6594-9.1211-.2686-18.2293.0707-27.3418a10.9006,10.9006,0,0,1,.2631-2.8468,1.8594,1.8594,0,0,1,1.4519-.9282c.5036-.009,1.37.4736,1.4606.8784a16.4412,16.4412,0,0,1,.3261,3.79c-.1175,8.3185-.2875,16.6362-.4215,24.9544-.049,3.0393-.0535,6.0793-.0612,9.119a14.6883,14.6883,0,0,0,.1193,1.9143c.1305,1.0093.5155,1.8375,1.6869,1.9743.9815.1147,1.6435-.4809,1.77-1.8028.1517-1.59.214-3.1915.2543-4.7895q.4178-16.5486.8055-33.0978a3.2185,3.2185,0,0,1,.6582-2.4214c1.43.2512,1.3454,1.1947,1.3266,1.8939-.112,4.1565-.3574,8.31-.4557,12.4663-.17,7.1931-.3188,14.3877-.3536,21.5823a26.7448,26.7448,0,0,0,.756,5.2016c.0652.3312.7242.842.9841.7761.5293-.1341,1.2833-.5249,1.3936-.9522a18.09,18.09,0,0,0,.4885-3.7814c.2351-5.9151.4252-11.832.6214-17.7486q.2785-8.3947.5408-16.79c.0157-.4786-.0838-1.0633.151-1.4069a2.5646,2.5646,0,0,1,1.3728-.9763c.2469-.0631.8787.4866.9575.8426a7.6059,7.6059,0,0,1,.102,2.376c-1.0367,10.2216-.5151,20.4637-.3961,30.6983.0294,2.529-.1658,5.123.9941,7.9087.7023-.45,1.6635-.7276,1.7644-1.1923a23.2317,23.2317,0,0,0,.487-4.74c.0725-10.08.0911-20.16.1253-30.24.0055-1.589.0007-3.1781.0007-4.5958,1.6308-1.5365,3.0455-1.0653,4.86-.28-1.9805,4.7425-1.5092,9.4977-1.3051,14.2691.3144,7.3521.3923,14.7142.6277,22.07a17.8623,17.8623,0,0,0,.6109,3.7209c.0615.2461.7586.4166,1.1778.4544.2048.0184.5851-.314.6418-.5471a9.812,9.812,0,0,0,.3646-2.3446c-.0662-10.5546-.1189-21.11-.2965-31.6627a39.6751,39.6751,0,0,0-.9766-5.8374,9.3636,9.3636,0,0,1,6.4349.0077,2.7313,2.7313,0,0,1,1.3742,1.7172,12.7121,12.7121,0,0,1,.2334,2.8554c.5518,8.6185,1.0235,17.2432,1.6942,25.8525.2852,3.6585.95,7.29,1.5152,10.9231.3654,2.35.6371,4.6961.8331,7.1931-1.8832,0-3.4182-.0171-4.9526.005-1.4394.0207-2.8782.1255-4.3172.12-9.91-.04-19.8191-.118-29.7287-.1392-2.8679-.0062-5.7356.1469-8.6039.2021a6.0256,6.0256,0,0,1-4.6052-2.0657c-2.9326-2.9374-6.2437-5.4969-9.1752-8.4354-4.2917-4.3018-8.3722-8.8138-12.57-13.21-2.5239-2.6427-5.1005-5.2349-7.5691-7.7633-1.1777.5627-.8537,1.2562-.5571,1.6968A37.2681,37.2681,0,0,0,87.3943,67.45c2.31,2.4322,4.8926,4.6026,7.2888,6.9561,5.7973,5.6938,11.5534,11.43,17.3973,17.219-.1864.9884-1.1234.81-1.8344.8094-8.6208-.0044-7.6774,1.65-15.9725-5.5373-2.8911-2.505-5.5294-5.315-8.1642-8.0983-1.9639-2.0746-3.8879-4.1717-5.8777-5.995-1.197.43-.9964,1.125-.6616,1.6A28.0771,28.0771,0,0,0,81.7274,76.95c4.499,4.9945,9.0633,9.9212,14.48,13.9656.2286.1706.3191.526.6352,1.0757-3.1476,1.568-6.4925.5581-9.6657.9091-3.6922.4085-5.2844-3.255-8.1373-4.3424a.9794.9794,0,0,0-.5318,1.5707c.4937.798,1.1124,1.5185,1.6713,2.2639-2.9683,2.62-2.6524,1.815-3.1854,10.4278,2.1889,2.0913,2.1889,2.0913,1.504,5.8842a8.9049,8.9049,0,0,0-1.815-.2137,1.28,1.28,0,0,0-1.1079,1.7154,3.1078,3.1078,0,0,0,.73,1.1974c2.3462,1.7134,1.766,3.7989.9339,6.0946H74.5633c.07.7281-.1344,1.7694.251,2.0812,2.2,1.78,1.9547,3.7956.8785,6.0237-.45,0-.9186-.0323-1.38.0082-.5763.0507-1.1474.1614-1.7207.2462a7.1676,7.1676,0,0,0,.3128,1.7358c.1783.4063.6873.6547.9953,1.0189,1.0721,1.2677,1.0533,2.6069.0566,4.2111l-3.2043-.4321c-.036.7277-.3,1.46-.0437,1.8626a19.4849,19.4849,0,0,0,1.9488,2.0679,2.5672,2.5672,0,0,1,.3528,3.1655c-1.5506.8958-2.3389-1.4264-4.0809-.9322-.0713.4582-.3621,1.0958-.1942,1.5714a3.19,3.19,0,0,0,1.2272,1.4053c2.261,1.529,2.0534,3.3291.6744,5.5222a8.4048,8.4048,0,0,1-1.7663-.4874c-.7779-.4085-1.529-.6891-2.029.2233a1.7088,1.7088,0,0,0,.5014,2.1516c.1167.109.2355.2162.3446.3325,2.3527,2.5069,2.3525,2.5072.3058,6.1376l-2.8639-1.1542c-1.12,1.0892-1.13,2.1153-.2961,3.0994.5113.6028,1.2237,1.0314,1.7624,1.6152,1.0938,1.1853,1.0432,1.5216-.3922,3.7669l-3.0168-1.35a7.8421,7.8421,0,0,0-.6436,1.2978,2.111,2.111,0,0,0,1.0392,2.4657c2.58,1.5626,2.3087,3.772,1.6762,6.567-3.7419-1.8037-6.249-5.7185-10.763-4.9585-.6164.7888.1253,1.0876.5721,1.4131,3.2316,2.3539,6.4812,4.6832,9.7254,7.02q1.3628.9816,2.7275,1.96c2.5473,1.8214,4.6933,4.1252,7.7274,5.37,2.7856,1.1429,5.2441,3.0563,7.9445,4.4392,7.9687,4.0808,15.9775,8.0838,23.9913,12.0756,1.5276.7609,3.15,1.3317,4.6319,1.95.863-1.0662.1676-1.4005-.3464-1.6726-2.26-1.1967-4.5723-2.2964-6.8175-3.52q-13.0555-7.113-26.0766-14.29c-1.1191-.6159-2.2013-1.3086-3.2547-2.0326-2.9936-2.0574-3.1685-2.8693-1.4819-6.99a12.2219,12.2219,0,0,1,2.1175.82c1.9081,1.1684,3.8254,2.339,5.6272,3.6611,9.4793,6.9556,20.0812,11.8479,30.6612,16.7833a3.087,3.087,0,0,0,.9452.1113c.7723-.55.3982-1.1984-.0944-1.5059-1.3533-.8448-2.8176-1.509-4.2015-2.3079-7.1982-4.155-14.4057-8.2947-21.5611-12.5224a42.9682,42.9682,0,0,1-5.0537-3.6483c-1.8822-1.52-1.8349-2.1875.1814-4.9962,10.3952,6.1208,21.1791,11.594,31.7853,17.11,1.0239-.7881.6594-1.3523.1271-1.7128-1.0556-.7151-2.18-1.33-3.2869-1.9675-8.037-4.6272-16.0854-9.2348-24.1081-13.8867-1.4972-.8682-2.8948-1.9083-4.5334-2.9989.54-1.7369,1.0006-3.22,1.4352-4.6184,3.0861-.0467,3.7624,2.39,4.9731,4.1495,1.27-.89,2.1931-.1317,3.1552.3971q10.0878,5.544,20.18,11.08c.8269.4528,1.6891.8409,2.5115,1.2475.9712-.9624.396-1.5677-.2946-1.9743-5.0984-3.0016-10.2247-5.9556-15.3322-8.9418-2.0706-1.2107-4.1668-2.3879-6.1606-3.7167-2.876-1.9168-2.9546-2.3458-1.9061-6.7093a15.5758,15.5758,0,0,1,2.5917.8979c5.313,2.9483,10.5816,5.9769,15.8965,8.9217,1.3386.7417,2.6168,1.85,5.0026,1.3946-1.6336-1.0413-2.781-1.8082-3.9619-2.5192-5.0684-3.052-10.1517-6.0795-15.2171-9.1366a15.6425,15.6425,0,0,1-2.7543-1.9,2.9386,2.9386,0,0,1-.3707-4.1477,23.4981,23.4981,0,0,1,2.927,1.0942c5.6594,2.98,11.2848,6.0246,16.9391,9.0148.921.4871,1.929.81,3.26,1.3587-.1185-.9067-.02-1.5158-.2522-1.694a26.0882,26.0882,0,0,0-3.1789-2.0974c-5.5882-3.1116-11.2131-6.1574-16.79-9.2884-2.7162-1.5249-2.7332-1.869-.9645-5.3045,1.6117-.4249,2.6977.7387,3.937,1.3711,4.84,2.47,9.6424,5.0155,14.491,7.469a5.0758,5.0758,0,0,0,2.6215.37c-3.0329-2.7281-6.8823-3.9639-10.21-6.0851-3.342-2.13-7.0721-3.6628-10.12-6.4138.065-.7158.0731-1.3457.19-1.9548.1455-.76.38-1.5019.6738-2.6224,1.2433.4943,2.2061.8938,3.181,1.2611,1.7689.6662,2.0592,3.7326,4.737,2.9141,1.6683.9458,3.3322,1.8991,5.0058,2.8352,1.8138,1.0145,3.6263,2.0323,5.4618,3.0064a17.9567,17.9567,0,0,0,2.0932.76l.1721-1.9614-.1062.0978c.5728,1.744,1.1455,3.4881,1.9234,5.8568,1.3735-3.7048.4969-6.8216.0842-9.8933-.421-3.1336-1.0516-6.2389-1.5606-9.1843,1.0506-1.01,1.83-.4734,2.2415.114a10.9971,10.9971,0,0,1,1.4232,2.9961c2.534,8.0808,5.2728,16.1044,6.9715,24.4249.1549.759.4536,1.4887.7156,2.3285,1.1955-.3388.9657-1.2917.9248-1.88a38.41,38.41,0,0,0-.7681-6.6355c-1.4719-5.89-3.2078-11.7132-4.7474-17.587-.9719-3.7076-1.8277-7.4479-2.6321-11.1958-.2734-1.2736.4872-1.7142,1.8812-1.33a16.81,16.81,0,0,1,.61,1.6369c2.6069,9.723,5.27,19.4316,7.7726,29.1816a89.516,89.516,0,0,1,3.1675,21.7824,31.7146,31.7146,0,0,0,.63,5.2322c.0893.51.6105.9454,1.3867,2.073a63.4758,63.4758,0,0,0-.3289-16.519q-2.69-15.3456-5.7408-30.6271c-1.4445-7.2054-3.2078-14.3466-4.772-21.5289a3.9475,3.9475,0,0,1,.7-2.8731c.2279.3931.6116.7677.6606,1.182,1.0783,9.1053,4.4355,17.6549,6.4322,26.5322,2.5948,11.5375,5.2671,23.0651,7.48,34.6782,1.3137,6.8929,1.8291,13.94,2.662,20.9221.3945,3.3074.6919,6.6264,1.0378,9.9835,1.5622-.3947,1.538-1.4709,1.5237-2.3822-.068-4.3155-.1331-8.6338-.3487-12.9437-.6177-12.3472-3.2993-24.3758-5.7271-36.4431q-3.4037-16.9179-6.726-33.8519c-.5209-2.6619-.8952-5.3555-1.2432-8.0466a6.81,6.81,0,0,1,.3953-3.2946c.6678,3.5459,1.18,7.13,2.0334,10.63,2.3831,9.7805,4.8974,19.5291,7.3784,29.2857a294.9847,294.9847,0,0,1,6.0314,29.5865c.5135,3.4764.83,6.9815,1.2869,10.467a13.9937,13.9937,0,0,0,.6,2.1146c1.2371.1072,1.1529-.6663,1.19-1.2242.3762-5.6292-.4039-11.1967-1.2567-16.7161-2.7342-17.6949-6.0228-35.2922-9.6246-52.833-.8326-4.0549-1.1486-8.2177-1.6482-12.3374a22.6608,22.6608,0,0,1,.1764-3.196c.6886,1.1019,1.0828,1.4764,1.17,1.9121.6869,3.4449,1.3148,6.9016,1.9618,10.3545,1.1476,6.1249,2.2485,12.2592,3.458,18.3719,1.0236,5.173,1.9668,10.3756,3.309,15.4693,2.9816,11.3142,4.6477,22.8605,6.4843,34.383,1.2348,7.7471,1.9349,15.5439,2.4749,23.3649a140.9932,140.9932,0,0,1-.7665,24.4325,196.461,196.461,0,0,1-5.453,29.2007,30.6248,30.6248,0,0,1-1.1928,3.6367c-.1459.3641-.7037.8523-.998.8061-.5638-.0885-1.4069-.4123-1.54-.8289a7.6833,7.6833,0,0,1-.399-3.2281c.3923-3.0093.9946-5.9908,1.4878-8.9875.7271-4.4162,1.4559-8.8324,2.1252-13.2575a29.0087,29.0087,0,0,0,.02-3.5758c-.818.905-1.367,1.2366-1.4749,1.6765-.6842,2.79-1.27,5.6035-1.89,8.409-.9645,4.3669-1.9152,8.7369-2.9087,13.0973a22.43,22.43,0,0,1-.9006,2.4694l-2.7828-.8751ZM57.1691,200.5061c-1.3436.92-1.09,1.8993-.4833,2.6414a8.3252,8.3252,0,0,0,2.2381,1.74c10.4169,6.1751,20.8028,12.4089,31.6937,17.734,2.5741,1.2587,5.2039,2.4077,7.8428,3.5251a4.8662,4.8662,0,0,0,1.7507.03c.0546-1.7877-1.3544-1.82-2.2313-2.2948-5.8817-3.1811-11.8844-6.1479-17.6788-9.4785-6.4908-3.7308-12.798-7.78-19.1966-11.6726C59.7756,201.9228,58.3963,201.1972,57.1691,200.5061ZM50.4754,78.546c1.1466-2.7049-.1464-4.38-1.5671-5.9371q-7.4407-8.1537-14.9766-16.22a4.9735,4.9735,0,0,0-1.6017-.7476c-1.075,2.5313.0206,4.2417,1.5021,5.8258Q41.3726,69.53,48.939,77.5682A9.1519,9.1519,0,0,0,50.4754,78.546Zm-.6636,10.7507a3.1982,3.1982,0,0,0,.3068-4.0783A10.5738,10.5738,0,0,0,48.28,83.0573Q40.5342,75.64,32.7434,68.27a13.02,13.02,0,0,0-1.393-1.0129c-1.5385,2.1478-1.0819,3.8129.497,5.2955q5.3857,5.0574,10.8039,10.08C44.9622,84.7858,47.2758,86.9366,49.8118,89.2967Zm71.1568-34.6081c-1.86.8434-1.542,2.2852-1.5574,3.46-.1017,7.79-.1315,15.5813-.158,23.3721a9.0128,9.0128,0,0,0,.2956,2.356c.1064.3938.5532.6957,1.0224,1.2457.4627-.5573.9913-.9435,1.1527-1.4474a7.848,7.848,0,0,0,.2873-2.3534c.01-6.9962.06-13.9935-.0629-20.9877A36.53,36.53,0,0,0,120.9686,54.6886Zm-76.9877,1.576c-.24.4538-.4834.7146-.5089.9952-.1372,1.51,1.1384,2.1642,1.9768,3.0441,3.1554,3.3112,3.173,3.2945,5.5338,4.1238-.1514-.873-.04-1.8-.448-2.314C48.6982,59.8051,46.865,57.4346,43.9809,56.2646Z"/><path class="cls-1" d="M124.0223,478.9973c-3.05.3373-5.7255.7552-8.4153.902-3.9914.2176-7.993.32-11.9908.336-10.7182.0434-21.4378-.0729-32.1551.0391A240.5292,240.5292,0,0,1,37.519,477.768c-4.4381-.5844-8.8761-1.18-13.3254-1.6674a12.7179,12.7179,0,0,1-8.41-4.1151c-1.447-1.5995-1.445-3.0223-.0156-4.6762,1.5538-1.798,3.6255-2.4143,5.89-2.8742,5.6346-1.1443,11.2667-2.341,16.83-3.7848A74.0536,74.0536,0,0,0,56.5,452.89a30.7768,30.7768,0,0,0,12.6122-12.8089c2.1069-4.13,4.2461-8.2443,6.3-12.4007,5.5758-11.2856,7.4519-23.3464,7.6187-35.8091.1894-14.1537-2.9432-27.5268-8.3158-40.5746a120.5257,120.5257,0,0,0-20.9806-33.6211c-4-4.5784-8.1273-9.0475-12.0583-13.6838-5.1719-6.1-10.2328-12.2945-15.2915-18.4891a57.1832,57.1832,0,0,1-7.03-11.9715A140.0517,140.0517,0,0,1,9.28,243.0945a180.06,180.06,0,0,1-3.9848-48.1508,282.8652,282.8652,0,0,1,4.6856-38.07c3.3455-17.4293,6.8439-34.8292,10.2968-52.2377a30.2242,30.2242,0,0,1,.9036-2.9093l3.255.5365a7.9589,7.9589,0,0,1,.2414,1.6154c-1.3163,14.8525-5.0336,29.29-7.6078,43.9262-2.2155,12.5966-4.6031,25.1636-6.7316,37.7745a75.5189,75.5189,0,0,0-1.0251,11.9443c-.1646,21.5967,2.53,42.7449,10.16,63.107a125.049,125.049,0,0,0,30.5791,46.5172,98.2656,98.2656,0,0,0,7.9932,6.8848,26.3246,26.3246,0,0,0,14.5483,5.6178c3.4986.2541,6.9791.7561,10.4869,1.1491.0729,1.0912-.8315,1.2383-1.4808,1.4436-1.6749.5294-3.4059.8815-5.0808,1.4109A9.7251,9.7251,0,0,0,74.572,325.05c5.2465-.4876,9.8487-.8367,14.4308-1.3609a85.19,85.19,0,0,1,17.2443-.1666,31.4041,31.4041,0,0,1,4.708.8755,2.0381,2.0381,0,0,1,1.7216,2.0188,2.4793,2.4793,0,0,1-1.384,2.3409,6.4858,6.4858,0,0,1-1.8065.5844,90.7364,90.7364,0,0,1-28.1575,1.329,38.6075,38.6075,0,0,0-9.9407-.3477c-.557,1.0711.0928,1.6029.7012,2.1056a14.5237,14.5237,0,0,0,9.68,3.57c6.5582-.0727,13.1208.0569,19.6743-.1407a91.011,91.011,0,0,0,10.4768-1.1352,13.3923,13.3923,0,0,0,6.2148-2.3771c3.2419-2.4313,3.569-5.5431.9128-8.65a8.7864,8.7864,0,0,0-6.317-2.9991c-2.7095-.2136-5.4193-.4316-8.1231-.7055a3.62,3.62,0,0,1-2.2084-1.0406c2.3189-.4155,4.6273-.9165,6.9619-1.2034a5.1089,5.1089,0,0,1,2.7758.4553c4.1139,2.0794,8.7055,3.2617,12.1752,6.5785a2.04,2.04,0,0,0,3.2648-.6242,39.426,39.426,0,0,0,1.7177-3.6629c-1.9819-3.1883-5.6784-2.49-8.2825-4.4592,1.9323-2.1306,3.9705-.8726,5.7613-.4177a41.4065,41.4065,0,0,1,5.48,2.2429,13.4714,13.4714,0,0,0,2.1315-1.4931c1.6934-1.698,3.3733-3.4231,4.91-5.2612,11.7638-14.0673,22.1667-28.9485,27.8172-46.671,1.5055-4.7221,3.1343-9.4055,4.754-14.09,2.6852-7.7659,3.8844-15.8336,4.7686-23.9463.6235-5.7212.9566-11.4745,1.3938-17.2154.831-10.9129-.3284-21.7152-1.6361-32.5322-1.8279-15.119-5.6485-29.8372-8.5689-44.7371-1.934-9.8674-3.3852-19.83-5.1063-30.07a9.4869,9.4869,0,0,1,2.8176-.6438c1.0907.1248,1.3632,1.2155,1.5466,2.17.9048,4.7107,1.7673,9.43,2.69,14.1367,2.5232,12.8652,5.0922,25.7216,7.596,38.5906,1.1907,6.12,2.3867,12.2423,3.3671,18.3975a128.8918,128.8918,0,0,1,1.4307,12.8647,282.5973,282.5973,0,0,1,.0583,35.019c-.9224,13.8142-4.3751,27.1091-8.6535,40.2255a101.0033,101.0033,0,0,1-6.897,15.2711,132.95,132.95,0,0,1-19.6858,28.8484c-4.328,4.7138-8.5862,9.4925-12.9559,14.1671a114.13,114.13,0,0,0-15.9758,20.9365c-2.01,3.499-4.8285,6.3576-7.6145,9.2332-6.7973,7.0161-7.4208,8.1115-7.3633,17.836.0482,8.1544.3611,16.3215.9624,24.453.34,4.6017,1.473,9.1473,2.296,13.71.5675,3.1462,1.274,6.2679,1.8109,9.419a31.1587,31.1587,0,0,0,2.6327,8.6886q4.2539,8.5945,8.6,17.143a23.6,23.6,0,0,0,6.8882,7.8913,63.0031,63.0031,0,0,0,15.4353,8.6406,133.2212,133.2212,0,0,0,24.0242,6.5433c.7656.1459,1.5258.32,3.08.6474a10.97,10.97,0,0,1-2.5278,1.2879c-5.8648.7752-11.7383,1.4851-17.6124,2.1888a66.2231,66.2231,0,0,0-9.6013,1.8084,7.15,7.15,0,0,0,4.5271,1.0242c1.5726.0059,3.1452.0011,5.5714.0011l-3.15,2.3455c.5322.3552,1.0248.6839,1.5182,1.013-.1677.2382-.3073.6545-.509.6872-3.9357.6381-7.8656,1.3457-11.8246,1.7925-2.4986.2821-5.0211.9455-7.8988.3185-.1429-1.8793-.284-3.7337-.4174-5.487a3.1234,3.1234,0,0,0-3.5068-1.161c-4.893,1.0668-9.8554.9929-14.8133.9482-11.5168-.1039-23.0413-.0194-34.5476-.4315-11.6621-.4178-23.3108-1.2739-34.9551-2.0865-3.1757-.2216-6.3166-.9635-9.4689-1.4937-3.6634-.6162-5.1513-.5469-8.304.4658-.0353,1.3536,1.202,1.4953,1.9635,1.6569a102.7868,102.7868,0,0,0,12.235,2.2418,478.2631,478.2631,0,0,0,57.5249,1.5879c8.1531-.2688,16.3114-.3778,24.4674-.5546.9594-.0208,1.9213-.0527,2.8787-.0073C123.3527,474.3205,123.6371,474.67,124.0223,478.9973Zm-8.4636-141.444c-3.8522.3867-6.9992.8678-10.16.9879-8.31.3157-16.6267.46-24.94.7084a32.7789,32.7789,0,0,0-4.7663.427c-1.9021.3394-2.5761,1.6826-1.9387,3.5912a12.5627,12.5627,0,0,0,.9706,2.1843c1.2526,2.2191,2.5033,4.4424,3.863,6.5955a5.5745,5.5745,0,0,0,1.5543,1.215c.9079-2.1546,1.6455-4.0772,2.5241-5.933a4.68,4.68,0,0,1,3.2759-2.6044,42.9247,42.9247,0,0,1,12.87-.984,4.1749,4.1749,0,0,1,2.4079,1.3056,2.9055,2.9055,0,0,1-.0315,4.3149c-2.9856,3.335-3.5393,7.3253-3.9542,11.5442a120.7852,120.7852,0,0,0-.1707,25.8659,36.9151,36.9151,0,0,1,.1669,4.3157,64.3428,64.3428,0,0,0,1.7,14.7473q2.0676,8.8721,4.4226,17.6763a30.7479,30.7479,0,0,1,.4215,12.8558c-.4569,2.8776-1.5654,5.5826-4.8523,6.547-.2941.0864-.441.6747-.7222,1.1388,3.627.8242,6.7567-.0147,9.9723-1.259,4.692-1.8156,4.5194-3.1746,2.8121-7.2308-1.5483-3.6782-3.0957-7.3793-4.2775-11.1841a107.0422,107.0422,0,0,1-3.8336-20.7243c-.548-5.2441-.4842-10.5536-1.0662-15.7925-1.05-9.4446-.5278-18.851.0659-28.2794a9.8033,9.8033,0,0,1,2.9146-6.8473,52.958,52.958,0,0,0,5.1316-5.7047c1.7414-2.28,3.2356-4.7521,4.7894-7.1714A14.06,14.06,0,0,0,115.5587,337.5533ZM110.9,447.46a31.1022,31.1022,0,0,0,2.3328,4.5282c1.1107,1.5275,2.6372,2.746,3.9016,4.1709a3.05,3.05,0,0,1,.5136,3.144,3.3667,3.3667,0,0,1-2.6771,2.4307,30.9746,30.9746,0,0,1-9.0139.87,1.8437,1.8437,0,0,0-1.3407,1.0432,1.3222,1.3222,0,0,0,1.01,1.8262c1.5544.3083,3.1653.3263,4.7248.6151a12.88,12.88,0,0,0,8.7348-1.7124c5.7361-3.1236,6.4-6.5881,2.0086-11.3843-2.77-3.0252-6.0773-5.559-7.9823-9.1933-4.7531,1.2151-9.1553,2.9949-13.66,3.3119-4.6936.33-9.5255-.513-14.225-1.2824-4.6105-.7547-8.3208-3.6624-12.2091-6.5429-1.7731,3.2032-4.8882,4.889-6.3513,7.77.911,1.6584,2.1838,1.6729,3.4657,1.6823a21.9352,21.9352,0,0,1,4.2375.091c11.77,2.4477,23.4227,2.4378,34.9459-1.35A5.8789,5.8789,0,0,1,110.9,447.46Zm-4.1511,21.6829c2.3045,1.6645,4.6889,1.6412,7.0384,1.4859q9.3213-.616,18.6264-1.4634a13.7282,13.7282,0,0,0,4.6017-1.2058,8.2725,8.2725,0,0,0,2.7037-2.5558,1.9681,1.9681,0,0,0-.7945-2.8768c-3.1213-1.0385-6.123-2.6692-9.5733-2.4565-.615.6973-1.1556,1.2771-1.66,1.8871a15.3443,15.3443,0,0,1-11.1685,5.739c-2.3867.1753-4.7633.51-7.1367.8315C108.4956,468.6482,107.6273,468.9328,106.7488,469.1426ZM85.1964,410.5764a10.3791,10.3791,0,0,0-1.0823,2.1209A40.8511,40.8511,0,0,1,78.5872,427.34a13.0606,13.0606,0,0,0-1.47,4.4823c-.317,1.7391.4282,2.7123,2.1139,3.1863a29.8511,29.8511,0,0,0,10.9031.5624c.648-.0586,1.2287-.233.9021-1.3714-2.7473-.1495-5.59-.2669-8.4239-.4973-.4424-.0359-.843-.5869-1.7931-1.2948,1.5942-.3045,2.4882-.5181,3.3946-.64,2.3613-.3176,4.73-.5829,7.09-.91.2022-.028.3627-.3564.5689-.5728l-2.6805-1.2123c.7081-.4223,1.0818-.6519,1.4621-.87.3227-.1851.6529-.3566,1.2879-.7014-2.8337-.72-5.4484.2325-7.9808-.8974C84.9033,421.4716,86.8269,416.5,85.1964,410.5764Zm-.1292-46.1575c1.675-1.5409,1.4843-3.0657,1.527-4.46a8.4419,8.4419,0,0,1,2.489-6.0272,9.5711,9.5711,0,0,0,1.8866-2.7159,2.1156,2.1156,0,0,0-2.3016-2.7259c-.9288.1953-1.8011.743-2.73.8415-2.5716.273-3.5671,2.0161-3.8834,4.19A13.6454,13.6454,0,0,0,85.0672,364.4189ZM98.4455,463.72c-7.87.051-15.594.0966-23.3178.1579a15.5125,15.5125,0,0,0-2.3552.1913c-.208.0338-.3614.4042-.5395.6229.1821.2115.3458.5882.549.6108,5.825.6482,11.6462,1.3576,17.4867,1.8234a20.4776,20.4776,0,0,0,5.6431-.63,6.0286,6.0286,0,0,0,2.3589-1.4363C98.5081,464.863,98.3911,464.2382,98.4455,463.72Z"/><path class="cls-1" d="M134.7079,13.0064a11.4565,11.4565,0,0,1,6.79,4.113,27.3038,27.3038,0,0,0,3.4686,3.2594,10.3107,10.3107,0,0,0,2.5835.84l-3.3417-4.1881c.4162-1.1858,1.3416-.7988,2.0026-.6954A13.4471,13.4471,0,0,1,156.65,23.8737c1.3075,2.5555,2.6869,5.0761,4.1022,7.5737a12.0512,12.0512,0,0,1,1.4057,8.4568,8.8116,8.8116,0,0,1-1.8455.3072c-3.5071-.1809-7.01-.45-10.5172-.6239-1.4184-.07-2.5334-.454-2.8021-2.0661-1.4213.4822-2.0954,2.5745-3.7083,1.61-1.0018-.5994-1.663-1.7689-2.7091-2.943a16.2836,16.2836,0,0,1-2.1166,2.2882,1.75,1.75,0,0,1-1.6465-.1487c-.4431-.3508-.5369-1.115-.8546-1.6574-.8858-1.5128-1.9271-1.6136-2.9273-.2775a18.3752,18.3752,0,0,1-.9818,1.6133,1.8269,1.8269,0,0,1-3.075-.6224c-.3589-.8139-.0552-2.0088-1.6556-2.2919l-1.62,3.342H116.55q-.79-1.8991-1.5558-3.7425c-2.3338.2548-1.2155,2.5074-2.3244,3.3249-.929.672-1.0837.6775-5.629.1923-.1877-.3834-.3795-.8127-.6045-1.2238-.2156-.3939-.4659-.7689-.8853-1.4529-.4553,1.0458-.7935,1.8226-1.2315,2.8284-1.1675.08-2.4166.2616-3.6613.2352-10.0813-.2132-20.1167.5067-30.1657,1.1976-6.5271.4489-13.1013.1626-19.6462.4169-6.3846.2481-12.7627.7113-19.1353,1.1915-2.3505.1771-4.6772.6722-7.4562,1.0883.2308-1.1848.1115-2.2893.607-2.8324,2.8268-3.0974,3.7778-6.9432,4.74-10.8349,1.9056-7.7089,7.2156-12.1332,14.413-14.6493a29.5667,29.5667,0,0,1,3.2574-.7974,12.4207,12.4207,0,0,0,6.2861-3.3026A6.5693,6.5693,0,0,1,59.6764,8.2a21.1677,21.1677,0,0,1,2.8356.4448A15.3229,15.3229,0,0,0,74.5321,7.26a4.48,4.48,0,0,1,4.1084-.5247c3.6212,1.572,6.8554.02,10.1263-1.1967a7.1,7.1,0,0,0,1.6109-1.0271c2.2164-1.6242,4.444-1.699,6.5916.0549,2.7764,2.2675,6.0124,2.7644,9.45,2.7336a39.0924,39.0924,0,0,0,11.75-2.0051,14.5176,14.5176,0,0,1,15.45,4.8548,13.3666,13.3666,0,0,1,1.253,3.0267q-.5208-.2715-1.0431-.5412c-.0281.2668-.15.5723-.06.79a1.3328,1.3328,0,0,0,.6172.6455,2.0527,2.0527,0,0,0,.8208.0116Zm-11.5685-2.3527c.1814.9.3027,1.5027.4858,2.4114-.5742.108-1.1534.1867-1.7157.3309-.5936.1522-1.3109.2178-1.22,1.1281,7.1689,3.7862,7.1689,3.7862,8.673,6.8842-8.5156-1.8957-16.2969-1.7792-22.438.3389a1.3632,1.3632,0,0,0,1.0981,1.7927,45.2621,45.2621,0,0,0,7.1081.8387,35.8231,35.8231,0,0,1,14.0106,2.6679,33.1682,33.1682,0,0,0,10.1943,2.4885c2.2263.1807,4.4663.1922,6.7.2824A9.0064,9.0064,0,0,1,152.5,32.4862c.5456.5694,1.1576,1.0751,1.9922,1.8425a6.478,6.478,0,0,0-.0315-2.1161,7.2975,7.2975,0,0,0-6.3264-4.4447,41.9111,41.9111,0,0,1-14.956-4.7831c-.2008-.1066-.2979-.4085-.46-.6433l3.0784-1.1341c-2.95-1.4928-3.8571-3.8814-4.9459-6.2166C129.3674,11.8082,126.7458,10.429,123.1394,10.6537ZM98.6847,17.0923a8.4391,8.4391,0,0,0-5.7909-3.5211c-4.5227-.7273-9.0887-1.1991-13.6476-1.6724-.6466-.0671-1.3524.4365-2.5521.86C83.5584,17.2227,90.7845,16.5611,98.6847,17.0923ZM44.9493,20.7231a29.3768,29.3768,0,0,1,5.0537.44,12.2873,12.2873,0,0,0,8.3966-.79,18.3207,18.3207,0,0,1,13.99-.29c.5692.2061,1.2736,1.0083,1.9949-.0774a8.552,8.552,0,0,0-5.8572-2.8569,19.5151,19.5151,0,0,0-10.338,1.18,11.0335,11.0335,0,0,1-6.9386.9721A6.8888,6.8888,0,0,0,44.9493,20.7231Zm68.3867-6.9989c-2.173-3.3253-5.1789-4.7343-9.2775-3.8153a62.6436,62.6436,0,0,1-7.1073.833c-.93.0984-1.9188.03-2.4782,1.2334a4.8852,4.8852,0,0,0,1.176.3568c1.9094.0715,3.8227.05,5.7311.1372C105.3176,12.65,109.3456,12.1289,113.336,13.7242Zm-40.3666,2.25c5.4859,2.0943,5.4859,2.0943,8.0806,1.7277C78.6723,16.1533,76.592,14.8823,72.9694,15.9739Zm23.0145,3.324c.7086.6575,1.0793,1.3006,1.5373,1.37a18.0721,18.0721,0,0,0,4.1555.2006c.5064-.0413.9545-.8,1.8-1.5678A20.1759,20.1759,0,0,0,95.9839,19.2979Z"/><path class="cls-1" d="M80.8251,277.0815c-1.758.6059-3.0793.6054-3.8037-1.1126A70.946,70.946,0,0,1,74.38,269.28c-2.0129-6.569-3.9013-13.1765-5.7988-19.78-.2567-.893-.5124-1.974.5963-2.5194,1.0215-.5026,2.5.3648,3.01,1.6835.2879.7438.4736,1.5269.71,2.291q3.6821,11.9114,7.36,23.824C80.478,275.4948,80.6188,276.2357,80.8251,277.0815Z"/><path class="cls-1" d="M99.287,270.37c-3.3414,1.0194-4.05.8972-4.9445-1.39-2.78-7.1084-5.46-14.257-8.1042-21.4173-.6532-1.7687-1.0251-3.6413-1.6062-5.7567l2.85-1.1106c1.7755,5.1582,3.2908,10.1467,5.2108,14.9742C94.6261,260.5312,96.9618,265.2328,99.287,270.37Z"/><path class="cls-1" d="M87.5184,276.9816a1.2735,1.2735,0,0,1-2.1021.0992,4.6205,4.6205,0,0,1-.93-1.64q-5.15-14.9522-10.2377-29.9257a4.2162,4.2162,0,0,1-.0177-1.3234,1.3268,1.3268,0,0,1,2.1135.23,12.4082,12.4082,0,0,1,1.77,3.3017c1.703,5.1569,3.2973,10.35,4.936,15.528.3858,1.2188.8858,2.41,1.1637,3.6521a39.192,39.192,0,0,0,.8215,4.6693,32.7442,32.7442,0,0,0,2.33,4.1073A3.53,3.53,0,0,1,87.5184,276.9816Z"/><path class="cls-1" d="M81.3153,244.3716c-1.7863-1.5159-3.1741-3.0191-2.7579-5.39,1.2169-.8168,2.1727-.1828,2.8583.7315a6.7168,6.7168,0,0,1,1.1724,2.5743c1.7347,8.305,4.7488,16.1949,7.69,24.1118.4785,1.288.8043,2.6327,1.1635,3.8278a1.54,1.54,0,0,1-2.3562.1039,4.16,4.16,0,0,1-.939-1.61c-2.3065-6.2827-4.58-12.5774-6.8739-18.8648C80.6055,248.0273,80.0851,246.2035,81.3153,244.3716Z"/><path class="cls-1" d="M116.3669,143.88a3.7087,3.7087,0,0,1-1.3716-.1807c-3.7042-2.177-7.3793-4.4036-10.9949-6.5756a6.6179,6.6179,0,0,1,1.0809-5.4648c1.02.53,1.9715.9789,2.8776,1.5066a41.7771,41.7771,0,0,0,4.5195,2.69c3.7937,1.6029,4.7346,4.3836,3.7838,8.1214Z"/><path class="cls-1" d="M123.0027,309.93a29.9228,29.9228,0,0,1-10.5376,3.0327,3.7,3.7,0,0,1-2.2455-3.736c3.2367-.5507,6.495-1.1439,9.7676-1.6438C121.4283,307.3627,122.417,308.0527,123.0027,309.93Z"/><path class="cls-1" d="M107.7956,114.3508c3.21,1.3923,3.8422,2.98,3.5687,8.6963-3.3438-.4941-4.5949-1.734-4.5-4.6344C106.91,117.0189,106.8781,115.5565,107.7956,114.3508Z"/><path class="cls-1" d="M103.8133,111.3045v6.304c-4.0942-.7671-5-1.697-5.0384-5.0517a25.3041,25.3041,0,0,1,.1457-2.8544c.0275-.27.2987-.5153.5027-.8438a4.6168,4.6168,0,0,1,1.3053.3509C101.8023,109.8719,102.8216,110.6224,103.8133,111.3045Z"/><path class="cls-1" d="M97.2568,126.8327c.7589,0,.9459-.057,1.0673.0083,3.3445,1.7972,4.9132,2.4287,2.36,7.51-1.8113.008-2.9366-1.2745-4.1728-2.2561C96.0486,130.1251,97.0143,128.6112,97.2568,126.8327Z"/><path class="cls-1" d="M106.7338,123.7046l3.7057,2.1391c.9,2.1282.3076,3.9443.168,5.7493-.5415.0376-.9166.1846-1.1314.0584-1.213-.7123-2.3875-1.49-3.4714-2.18C105.2824,127.5312,105.7109,125.9091,106.7338,123.7046Z"/><path class="cls-1" d="M80.55,163.7928a4.2742,4.2742,0,0,1-4.054-2.4874c-.8243-1.8.0783-3.3591,1.0533-4.87a5.8709,5.8709,0,0,1,4.0493,2.2324C82.01,160.68,80.924,162.1447,80.55,163.7928Z"/><path class="cls-1" d="M138.4573,278.0435c.9861.8785,1.8379,1.5507,2.5876,2.3221,2.0494,2.1086,2.0324,2.1252.0693,5.2994-1.623-1.825-4.56-2.122-5.4453-5.0994C136.4833,279.829,137.3768,279.0207,138.4573,278.0435Z"/><path class="cls-1" d="M102.3532,126.1738c-1.8917-.1817-2.9349-1.6218-4.3755-2.7281.1416-1.4812.2736-2.8629.4055-4.2437C103.1663,119.6416,104.0811,121.3261,102.3532,126.1738Z"/><path class="cls-1" d="M132.0939,300.204c-.9328-1.3194-2.2669-2.3556-2.2291-3.3391.0681-1.7676-.6379-2.2048-2.05-2.4283a1.1659,1.1659,0,0,1-.7155-.5761,2.04,2.04,0,0,1-.3383-1.2859,1.3154,1.3154,0,0,1,.9891-.7755,3.6375,3.6375,0,0,1,2.1474.5779,38.92,38.92,0,0,1,3.5194,3.8792C134.4168,297.4661,134.289,297.835,132.0939,300.204Z"/><path class="cls-1" d="M108.5737,279.9545c2.9845-1.0165,3.1372-1.0118,4.32.757.6062.9065,1.1014,1.8872,1.6351,2.8143-2.1657,1.9283-3.3134,1.9658-4.6066.2225A7.9988,7.9988,0,0,1,108.5737,279.9545Z"/><path class="cls-1" d="M79.5683,148.95c4.68,2.0708,4.7617,2.2789,2.6536,6.1246C78.0086,152.9121,78.0086,152.9121,79.5683,148.95Z"/><path class="cls-1" d="M106.6681,284.8558c-3.45,1.0759-3.8825.9751-4.9479-1.2152a20.38,20.38,0,0,1-.8778-2.6139c2.3463-1,3.0062-1.0034,3.7862.165C105.326,282.2363,105.8619,283.3888,106.6681,284.8558Z"/><path class="cls-1" d="M104.8384,288.8741c4.1514-1.1711,4.2186-1.1319,5.8253,3.135C106.3252,293.0223,106.3252,293.0223,104.8384,288.8741Z"/><path class="cls-1" d="M70.3155,175.2245a5.6586,5.6586,0,0,1-1.368-.4443c-3.1563-2.1255-3.1951-2.4584-.817-5.8218a2.8016,2.8016,0,0,1,2.97,1.8124A4.5661,4.5661,0,0,1,70.3155,175.2245Z"/><path class="cls-1" d="M119.3716,290.6663c-2.8441,1.9325-3.922,1.8072-5.3171-.6338-.4725-.8266-.9824-1.74-.0637-2.5684a2.8266,2.8266,0,0,1,3.1306-.2177C118.2065,288.1451,119.2793,289.1073,119.3716,290.6663Z"/><path class="cls-1" d="M87.2617,239.7483c-4.1163-1.8431-4.5343-2.5238-4.1578-6.3916C87.3854,234.1979,87.5119,234.38,87.2617,239.7483Z"/><path class="cls-1" d="M64.3057,224.4362a2.6787,2.6787,0,0,1,3.2533,1.1857,4.1752,4.1752,0,0,1,.609,4.466C64.0413,228.6268,64.0413,228.6268,64.3057,224.4362Z"/><path class="cls-1" d="M116.0706,118.8511c1.6314,2.8211,1.8459,5.6512,1.93,8.691-2.291-.2592-2.6633-1.862-3.0437-3.3548C114.4934,122.3692,114.3564,120.5542,116.0706,118.8511Z"/><path class="cls-1" d="M74.7132,233.5852c-3.9836-1.6371-4.4561-2.4659-3.7012-6.0125C74.3982,228.3951,74.914,229.179,74.7132,233.5852Z"/><path class="cls-1" d="M75.6565,165.205c.9612.4955,1.8358.8565,2.6136,1.3656,1.7939,1.1738,1.809,1.6055.3394,4.1866a5.1917,5.1917,0,0,1-3.5426-1.9789C73.9945,167.6759,74.2294,166.5325,75.6565,165.205Z"/><path class="cls-1" d="M69.6236,218.9638c4.0318,1.5514,4.0318,1.5514,3.6221,5.6561-1.4514.5795-2.3131-.3264-3.0712-1.3179A3.9964,3.9964,0,0,1,69.6236,218.9638Z"/><path class="cls-1" d="M77.4332,230.5207c3.4708,1.5379,3.8483,2.2942,3.008,6.0258C77.0282,235.1257,76.6583,234.3846,77.4332,230.5207Z"/><path class="cls-1" d="M70.8234,245.5061c-2.8613-.819-4.5058-2.3362-4.4456-5.5036,1.4574-.6749,2.48.1357,3.3121,1.0152A3.9649,3.9649,0,0,1,70.8234,245.5061Z"/><path class="cls-1" d="M73.7244,159.5287c-2.5249-1.1963-2.8337-1.4881-2.51-2.9343a33.9153,33.9153,0,0,1,1.1828-3.5221c2.4828,1.1942,2.7721,1.48,2.45,2.947C74.5876,157.2036,74.1134,158.3408,73.7244,159.5287Z"/><path class="cls-1" d="M136.5805,293.748l-3.0456-3.2624c2.0685-2.1761,2.9511-2.3763,4.2442-1.0965C138.813,290.4125,138.6789,291.0313,136.5805,293.748Z"/><path class="cls-1" d="M108.8842,296.7528a27.2117,27.2117,0,0,1,3.6395-.81,2.5119,2.5119,0,0,1,1.5754.8177,1.5035,1.5035,0,0,1-.4514,2.3614C111.47,300.03,110.4285,299.552,108.8842,296.7528Z"/><path class="cls-1" d="M127.7632,301.3856c-4.1412,1.53-4.1412,1.53-6.0309-.1958C124.6769,298.1828,125.6408,298.1709,127.7632,301.3856Z"/><path class="cls-1" d="M67,221.53c-3.2154-1.0773-3.3807-1.38-3.0256-5.4815,1.2833-.5267,2.0692.2847,2.6831,1.16A3.7009,3.7009,0,0,1,67,221.53Z"/><path class="cls-1" d="M91.58,122.9565c1.92.1677,2.61.9838,2.4513,2.2675a41.1437,41.1437,0,0,1-.8942,4.0761c-1.6637.1541-2.3287-.7659-2.2936-1.9723A31.2059,31.2059,0,0,1,91.58,122.9565Z"/><path class="cls-1" d="M88.4205,158.8c-3.2714-.9412-3.5385-1.3-2.9164-3.6541.1981-.75.3779-1.5114,1.3414-1.6633a1.7479,1.7479,0,0,1,1.8477,1.6859A36.1963,36.1963,0,0,1,88.4205,158.8Z"/><path class="cls-1" d="M98.1211,103.865c1.7127-.18,2.48-.3091,3.2508-.329s1.5423.0691,2.5736.1242v4.0227C101.6068,107.3555,100.1952,106.0134,98.1211,103.865Z"/><path class="cls-1" d="M85.2419,140.8921a1.9579,1.9579,0,0,1-2.66-1.466,5.793,5.793,0,0,1,.7292-3.04c.3119-.6947,2.0132-.2124,2.3447.64A4.0913,4.0913,0,0,1,85.2419,140.8921Z"/><path class="cls-1" d="M123.5827,295.5969a35.4585,35.4585,0,0,1-3.3673,1.5625c-1.2637.4232-1.5128.1545-2.4082-2.1823C119.6239,294.256,121.3711,292.7308,123.5827,295.5969Z"/><path class="cls-1" d="M75.6921,240.9051c-2.6141-.7129-3.4945-2.2618-3.3451-4.5163a1.6779,1.6779,0,0,1,2.5573.2372A3.5766,3.5766,0,0,1,75.6921,240.9051Z"/><path class="cls-1" d="M121.5572,286.3581c.7691-1.07,1.7867-1.5706,2.8487-.8a3.3915,3.3915,0,0,1,1.7929,3.0642c-.0635.63-1.2768,1.0743-1.9741.7407A4.61,4.61,0,0,1,121.5572,286.3581Z"/><path class="cls-1" d="M64.8649,232.2355c2.6686.1044,4.2627.9778,4.7519,3.3169a1.5319,1.5319,0,0,1-.3019,1.2436,1.4248,1.4248,0,0,1-1.2529.1851C66.1934,236.2175,65.0509,234.8541,64.8649,232.2355Z"/><path class="cls-1" d="M146.8226,271.9365c-2.992-1.902-3.2857-2.6913-1.9937-4.4635.5207-.7141,1.27-1.06,1.9886-.5669a4.9045,4.9045,0,0,1,1.265,1.7286c.1159.21-.0334.6153-.1494.8949C147.6423,270.2307,147.3009,270.9109,146.8226,271.9365Z"/><path class="cls-1" d="M140.6412,259.2943c.3577.7081.71,1.4188,1.0739,2.1238.9095,1.7645.6148,3.3546-.7849,5.0119-.5229-.3188-1.2671-.5145-1.4741-.96a3.5092,3.5092,0,0,1-.2546-2.2236c.3635-1.3345.9987-2.5949,1.5025-3.909A.2219.2219,0,0,0,140.6412,259.2943Z"/><path class="cls-1" d="M109.8578,275.8113c-1.6508.8961-2.7185,1.1123-3.7675.412a2.324,2.324,0,0,1-.7116-2.57c.5873-.813,2.3332-1.1167,2.9856-.3745A15.9,15.9,0,0,1,109.8578,275.8113Z"/><path class="cls-1" d="M133.575,285.8159c-.2389.2736-.4726.7866-.8461.9269a2.7071,2.7071,0,0,1-3.7666-1.818,1.3115,1.3115,0,0,1,.5119-1.1409A2.95,2.95,0,0,1,133.575,285.8159Z"/><path class="cls-1" d="M81.2047,142.9811a3.477,3.477,0,0,1,3.3811,3.1585,1.5678,1.5678,0,0,1-.4933,1.2161,1.4153,1.4153,0,0,1-1.2345.1752C80.6946,146.5727,80.4525,145.872,81.2047,142.9811Z"/><path class="cls-1" d="M111.205,132.688c.6033-1.2106,1.14-2.2872,1.6849-3.381.4577.2759.8314.3709.966.604a8.0967,8.0967,0,0,1,.9508,4.3968C112.97,134.76,112.3309,133.5431,111.205,132.688Z"/><path class="cls-1" d="M93.9885,120.7324c-2.3664-1.7966-1.7776-3.6291-1.1218-5.4189.0536-.1465.825-.125,1.2176-.0171.2432.0669.47.4155.5855.6881A4.6953,4.6953,0,0,1,93.9885,120.7324Z"/><path class="cls-1" d="M100.7522,309.7114a10.9246,10.9246,0,0,1,2.9073.0391,4.7361,4.7361,0,0,1,2.8842,3.43C103.6854,313.0694,103.6854,313.0694,100.7522,309.7114Z"/><path class="cls-1" d="M97.5477,274.5606c1.8652-.8135,3.27-.6831,4.297.8561a1.5967,1.5967,0,0,1,.1334,1.3069,1.4782,1.4782,0,0,1-1.0391.6858C99.1073,277.6407,98.0679,276.7246,97.5477,274.5606Z"/><path class="cls-1" d="M69.849,161.9963c3.3514,1.3808,3.3514,1.3808,2.13,4.2444C68.9676,165.2007,68.9676,165.2007,69.849,161.9963Z"/><path class="cls-1" d="M59.0394,221.1722a3.2229,3.2229,0,0,1,2.6,3.9979,1.3737,1.3737,0,0,1-.7892.9681,1.5553,1.5553,0,0,1-1.2413-.4672A3.9556,3.9556,0,0,1,59.0394,221.1722Z"/><path class="cls-1" d="M68.195,264.1136c.3992.39.985.7077,1.1671,1.181,1.1293,2.935,2.1681,5.905,3.2368,8.8634l.1125-.0788c-.5224-.2078-1.3182-.2673-1.5239-.6467a20.2343,20.2343,0,0,1-2.9031-9.3939Z"/><path class="cls-1" d="M91.1936,131.5219c.525.9723,1.2168,1.6913,1.237,2.4286a8.5792,8.5792,0,0,1-.7776,3.01c-.04.11-.8408.0344-1.2308-.1109a1.076,1.076,0,0,1-.5057-.7337A4.8741,4.8741,0,0,1,91.1936,131.5219Z"/><path class="cls-1" d="M90.5028,139.6955c.1307.2309.5845.657.5463,1.0332a25.8245,25.8245,0,0,1-.6946,3.6021c-.04.161-.5351.31-.8027.2846a1.0476,1.0476,0,0,1-.75-.437,3.8984,3.8984,0,0,1,.4537-3.9758C89.38,140.0024,89.7833,139.9757,90.5028,139.6955Z"/><path class="cls-1" d="M118.1631,303.3777c-.2312.59-.263,1.011-.4658,1.1238a4.5459,4.5459,0,0,1-1.743.659,2.2424,2.2424,0,0,1-2.2079-2.0335,1.8352,1.8352,0,0,1,2.2964-1.1389A8.6069,8.6069,0,0,1,118.1631,303.3777Z"/><path class="cls-1" d="M96.1561,281.1639a12.3716,12.3716,0,0,1,1.6818,1.9918,2.9977,2.9977,0,0,1,.0272,1.7216c-.022.1457-.514.3227-.7831.3118a2.8441,2.8441,0,0,1-2.47-1.9038,1.5281,1.5281,0,0,1,.1023-1.283C94.94,281.6658,95.4757,281.5371,96.1561,281.1639Z"/><path class="cls-1" d="M80.3352,130.0679c-.4083-.5161-1.084-.9907-1.04-1.3854a19.808,19.808,0,0,1,.8784-3.5786c.054-.1757.52-.3251.7834-.3074.2544.0172.6532.2185.7133.4208C82.15,126.8309,81.9888,127.3757,80.3352,130.0679Z"/><path class="cls-1" d="M94.1313,105.709c1.5048,1.4915,1.5048,1.4915.5079,5.6164C92.8306,110.3672,92.7421,109.3879,94.1313,105.709Z"/><path class="cls-1" d="M109.8294,111.9584c-3.34-1.6745-1.8344-3.7562-2.47-6.1562C110.6468,107.6623,109.5,109.6709,109.8294,111.9584Z"/><path class="cls-1" d="M119.7336,113.5284c2.2342,1.1632,1.633,3.36,2.307,4.9663-.9667.9583-1.5926.5212-1.9307-.279A6.2418,6.2418,0,0,1,119.7336,113.5284Z"/><path class="cls-1" d="M82.285,121.7235c-2.3454-1.7777-.4746-3.5769-.4111-5.2429,1.4166-.35,1.7689.4293,1.8211,1.19A4.96,4.96,0,0,1,82.285,121.7235Z"/><path class="cls-1" d="M76.48,148.18a6.7935,6.7935,0,0,1-.4955,1.6975,1.6455,1.6455,0,0,1-1.1369.531.8908.8908,0,0,1-.707-.518,7.5451,7.5451,0,0,1-.1835-2.2825c.0906-.7583.2912-1.6108,1.3151-1.7337C76.0374,145.7826,76.6516,146.8756,76.48,148.18Z"/><path class="cls-1" d="M90.7719,273.85c2.5236.211,3.5242,1.2369,3.6554,3.2267C91.9245,277.7088,91.9245,277.7088,90.7719,273.85Z"/><path class="cls-1" d="M86.3429,128.4938c1.1578,1.81.6769,3.497-.255,5.7519-.7042-1.0766-1.5051-1.7556-1.5368-2.4687C84.4944,130.5006,84.3208,128.8777,86.3429,128.4938Z"/><path class="cls-1" d="M77.6083,134.8345c.14-1.55.9877-2.632,1.713-2.18.9949.6207.7956,1.5643.6205,2.4815a1.7384,1.7384,0,0,1-.3065.8654c-.29.2946-.7358.68-1.0567.6324-.3367-.05-.667-.5284-.88-.89A2.2661,2.2661,0,0,1,77.6083,134.8345Z"/><path class="cls-1" d="M89.7231,149.7623c-.1581.4366-.2024,1.004-.5082,1.2653a1.2626,1.2626,0,0,1-1.2139.0517,2.03,2.03,0,0,1-.6755-2.5046,2.1817,2.1817,0,0,1,1.255-1.0185c.2179-.0714.77.4548.9543.8192A4.2758,4.2758,0,0,1,89.7231,149.7623Z"/><path class="cls-1" d="M88.0331,120.1772c.637,1.8581-.1812,3.3557-.6324,5.1065C85.877,123.3052,86.0158,122.3384,88.0331,120.1772Z"/><path class="cls-1" d="M129.51,302.4609c.7118,2.0545-.761,2.8287-1.64,3.7693-.2877.3076-1.0516.17-1.9736.2813C126.4577,304.2361,127.8821,303.4583,129.51,302.4609Z"/><path class="cls-1" d="M101.8239,306.2292a22.4675,22.4675,0,0,1-3.3867-.3112,1.51,1.51,0,0,1-.8211-1.0909,1.4146,1.4146,0,0,1,.6031-1.1383,1.4926,1.4926,0,0,1,1.3478-.0368A22.64,22.64,0,0,1,101.8239,306.2292Z"/><path class="cls-1" d="M106.8246,303.241a2.6149,2.6149,0,0,1,.4662-.0472c1.415.1044,2.3782.8065,2.34,1.7647a1.0372,1.0372,0,0,1-.4341.7435,2.1889,2.1889,0,0,1-3.2087-.7808A1.06,1.06,0,0,1,106.8246,303.241Z"/><path class="cls-1" d="M66.1325,256.63c1.6649,2.1029,2.1812,3.9674,2.0664,7.48-.0039.0036.09-.075.0855-.0714-1.501-2.2691-1.5612-4.9416-2.0756-7.4969C66.2207,256.5293,66.1325,256.63,66.1325,256.63Z"/><path class="cls-1" d="M90.8937,284.6647c-1.99.5227-2.4333.43-2.9476-.7682a.9664.9664,0,0,1,.71-1.4092c1.403-.35,1.9036.5863,2.1976,1.72A2.6707,2.6707,0,0,1,90.8937,284.6647Z"/><path class="cls-1" d="M137.1732,268.1316a4.4664,4.4664,0,0,1,.7318.5533c.6367.7244,1.092,1.5348.3293,2.4164-.4573.5284-1.6013.0063-2.1455-1.029C135.4931,268.939,136.1305,268.4,137.1732,268.1316Z"/><path class="cls-1" d="M83.6042,113.4533c-1.4445-2.335-.8155-3.6944-.43-5.7833C84.5888,109.6774,84.2848,111.0914,83.6042,113.4533Z"/><path class="cls-1" d="M101.7386,292.076c-1.96.8429-1.959.8354-3.0964-1.5626C100.6694,289.3014,100.6694,289.3014,101.7386,292.076Z"/><path class="cls-1" d="M92.2313,290.0233c1.5237.1105,2.3629.9553,2.0434,1.8136a1.4034,1.4034,0,0,1-.991.7437c-1.1516.1023-2.112-.6146-1.9468-1.481C91.4262,290.6315,92.022,290.26,92.2313,290.0233Z"/><path class="cls-1" d="M145.2271,277.2227c-3.1927-.4683-4.09-1.4645-3.5757-3.79A8.5573,8.5573,0,0,1,145.2271,277.2227Z"/><path class="cls-1" d="M80.3054,283.4678a1.8437,1.8437,0,0,1,.3737-.2781c1.0581-.4315,2.1039-.6785,2.7447.6181a.8544.8544,0,0,1-.2975.7721C81.981,285.2416,81.4646,285.0174,80.3054,283.4678Z"/><path class="cls-1" d="M90.0276,107.7149c-1.1005-1.6216-1.471-2.6611-.3556-3.76C90.4118,105.329,90.4118,105.329,90.0276,107.7149Z"/><path class="cls-1" d="M125.1592,106.8274a15.9278,15.9278,0,0,1-.9553-2.4418c-.0681-.2972.3654-.8909.7042-1.0366a1.1717,1.1717,0,0,1,1.0044.5618,18.9289,18.9289,0,0,1,.1793,2.6827Z"/><path class="cls-1" d="M85.4189,292.7108c-.616-.6288-1.1159-1.139-1.6158-1.6491.4494-.3256.92-.9433,1.3434-.9128.77.0552,1.5568.5251,1.3276,1.5323C86.3984,292.0138,85.9084,292.2522,85.4189,292.7108Z"/><path class="cls-1" d="M61.9557,231.4716a4.1614,4.1614,0,0,1-.9024.9173c-.1633.0873-.6564-.1552-.7971-.377a2.1962,2.1962,0,0,1-.4211-1.29,1.7027,1.7027,0,0,1,.7653-.9714c.1269-.0872.63.1533.7806.37A7.0917,7.0917,0,0,1,61.9557,231.4716Z"/><path class="cls-1" d="M78.0593,141.1021A7.27,7.27,0,0,1,77.5,142.42c-.14.2053-.6446.4313-.7241.3594a1.7083,1.7083,0,0,1-.6269-.9709,2.2689,2.2689,0,0,1,.42-1.2271c.131-.2086.6047-.4466.728-.3671A3.8717,3.8717,0,0,1,78.0593,141.1021Z"/><path class="cls-1" d="M119.8488,109.678a1.688,1.688,0,0,1-.4167-.1963,1.8211,1.8211,0,0,1-.39-2.4229.469.469,0,0,1,.3945-.119c1.0044.3258.7037,1.1968.7282,1.8992A2.398,2.398,0,0,1,119.8488,109.678Z"/><path class="cls-1" d="M105.3485,298.4254c-.7769.5125-1.2749.9856-1.404.9a7.2557,7.2557,0,0,1-1.2032-1.232c.2377-.177.5191-.54.7047-.4957A12.5342,12.5342,0,0,1,105.3485,298.4254Z"/><path d="M134.7079,13.0064l.4989,1.0765a2.0527,2.0527,0,0,1-.8208-.0116,1.3328,1.3328,0,0,1-.6172-.6455c-.09-.2181.0321-.5236.06-.79q.522.27,1.0432.5412Z"/><path class="cls-1" d="M88.7433,299.0483c-.2513-.13-.6118-.2031-.7163-.4075-.0846-.1652.1392-.4883.2262-.7413.2509.1351.6016.2144.719.4242C89.0571,298.4752,88.8317,298.8,88.7433,299.0483Z"/><path class="cls-1" d="M94.7277,298.6331h2.9906C96.5406,299.6932,95.7272,299.7363,94.7277,298.6331Z"/><path class="cls-1" d="M61.8568,240.2476c-.0818-1.0161-.1461-1.8136-.21-2.611C62.7362,238.3637,63.2722,239.1319,61.8568,240.2476Z"/><path class="cls-1" d="M65.1123,252.8708c1.8167.837,1.3546,2.308,1.03,3.7488-.01.0106.0787-.09.0668-.0779-.3472-1.2486-.6825-2.51-1.0177-3.771Z"/><path class="cls-1" d="M65.1911,252.7707q-.4211-1.9911-.842-3.9823l-.1059.1033c1.7363.99,1.2456,2.4855.8817,3.964C65.1123,252.8708,65.1911,252.7707,65.1911,252.7707Z"/><path class="cls-1" d="M89.3612,112.8251q-.06,1.2707-.1193,2.5412l-.6695-.0335.1357-2.54Z"/><path class="cls-1" d="M64.3491,248.7884l-.83-2.3271c1.5291.82.891,1.6568.7332,2.4219Z"/><path class="cls-1" d="M72.5989,274.158c.0613.2717.1355.5417.1706.8167.0056.0442-.1633.1107-.2515.1668.0518-.3455.1035-.6909.1743-1.0493C72.7114,274.0792,72.5989,274.158,72.5989,274.158Z"/><path d="M57.1691,200.5061c1.2272.6911,2.6065,1.4167,3.9353,2.225,6.3986,3.8921,12.7058,7.9418,19.1966,11.6726,5.7944,3.3306,11.7971,6.2974,17.6788,9.4785.8769.4743,2.2859.5071,2.2313,2.2948a4.8662,4.8662,0,0,1-1.7507-.03c-2.6389-1.1174-5.2687-2.2664-7.8428-3.5251-10.8909-5.3251-21.2768-11.5589-31.6937-17.734a8.3252,8.3252,0,0,1-2.2381-1.74C56.0794,202.4054,55.8255,201.4262,57.1691,200.5061Z"/><path d="M50.4754,78.546a9.1519,9.1519,0,0,1-1.5364-.9778Q41.3667,69.5354,33.8321,61.467c-1.4815-1.5841-2.5771-3.2945-1.5021-5.8258a4.9735,4.9735,0,0,1,1.6017.7476q7.5313,8.07,14.9766,16.22C50.329,74.1657,51.622,75.8411,50.4754,78.546Z"/><path d="M49.8118,89.2967c-2.536-2.36-4.85-4.5109-7.16-6.6643q-5.4052-5.0367-10.8039-10.08c-1.5789-1.4826-2.0355-3.1477-.497-5.2955a13.02,13.02,0,0,1,1.393,1.0129Q40.5283,75.6459,48.28,83.0573a10.5738,10.5738,0,0,1,1.8387,2.1611A3.1982,3.1982,0,0,1,49.8118,89.2967Z"/><path d="M120.9686,54.6886a36.53,36.53,0,0,1,.98,5.6457c.1233,6.9942.0732,13.9915.0629,20.9877a7.848,7.848,0,0,1-.2873,2.3534c-.1614.5039-.69.89-1.1527,1.4474-.4692-.55-.916-.8519-1.0224-1.2457a9.0128,9.0128,0,0,1-.2956-2.356c.0265-7.7908.0563-15.582.158-23.3721C119.4266,56.9738,119.1087,55.532,120.9686,54.6886Z"/><path d="M43.9809,56.2646c2.8841,1.17,4.7173,3.5405,6.5537,5.8491.4084.5135.2966,1.441.448,2.314-2.3608-.8293-2.3784-.8126-5.5338-4.1238-.8384-.88-2.114-1.5339-1.9768-3.0441C43.4975,56.9792,43.7409,56.7184,43.9809,56.2646Z"/><path d="M115.5587,337.5533a14.06,14.06,0,0,1-.85,2.3059c-1.5538,2.4193-3.048,4.891-4.7894,7.1714a52.958,52.958,0,0,1-5.1316,5.7047,9.8033,9.8033,0,0,0-2.9146,6.8473c-.5937,9.4284-1.1155,18.8348-.0659,28.2794.582,5.2389.5182,10.5484,1.0662,15.7925a107.0422,107.0422,0,0,0,3.8336,20.7243c1.1818,3.8048,2.7292,7.5059,4.2775,11.1841,1.7073,4.0562,1.88,5.4152-2.8121,7.2308-3.2156,1.2443-6.3453,2.0832-9.9723,1.259.2812-.4641.4281-1.0524.7222-1.1388,3.2869-.9644,4.3954-3.6694,4.8523-6.547a30.7479,30.7479,0,0,0-.4215-12.8558q-2.34-8.8043-4.4226-17.6763a64.3428,64.3428,0,0,1-1.7-14.7473,36.9151,36.9151,0,0,0-.1669-4.3157,120.7852,120.7852,0,0,1,.1707-25.8659c.4149-4.2189.9686-8.2092,3.9542-11.5442a2.9055,2.9055,0,0,0,.0315-4.3149,4.1749,4.1749,0,0,0-2.4079-1.3056,42.9247,42.9247,0,0,0-12.87.984,4.68,4.68,0,0,0-3.2759,2.6044c-.8786,1.8558-1.6162,3.7784-2.5241,5.933a5.5745,5.5745,0,0,1-1.5543-1.215c-1.36-2.1531-2.61-4.3764-3.863-6.5955a12.5627,12.5627,0,0,1-.9706-2.1843c-.6374-1.9086.0366-3.2518,1.9387-3.5912a32.7789,32.7789,0,0,1,4.7663-.427c8.313-.2487,16.63-.3927,24.94-.7084C108.56,338.4211,111.7065,337.94,115.5587,337.5533Z"/><path d="M110.9,447.46a5.8789,5.8789,0,0,0-1.5847.0176c-11.5232,3.7877-23.1762,3.7976-34.9459,1.35a21.9352,21.9352,0,0,0-4.2375-.091c-1.2819-.0094-2.5547-.0239-3.4657-1.6823,1.4631-2.8806,4.5782-4.5664,6.3513-7.77,3.8883,2.8805,7.5986,5.7882,12.2091,6.5429,4.7.7694,9.5314,1.6126,14.225,1.2824,4.5052-.317,8.9074-2.0968,13.66-3.3119,1.905,3.6343,5.2122,6.1681,7.9823,9.1933,4.3919,4.7962,3.7275,8.2607-2.0086,11.3843a12.88,12.88,0,0,1-8.7348,1.7124c-1.5595-.2888-3.17-.3068-4.7248-.6151a1.3222,1.3222,0,0,1-1.01-1.8262,1.8437,1.8437,0,0,1,1.3407-1.0432,30.9746,30.9746,0,0,0,9.0139-.87,3.3667,3.3667,0,0,0,2.6771-2.4307,3.05,3.05,0,0,0-.5136-3.144c-1.2644-1.4249-2.7909-2.6434-3.9016-4.1709A31.1022,31.1022,0,0,1,110.9,447.46Z"/><path d="M106.7488,469.1426c.8785-.21,1.7468-.4944,2.6374-.6148,2.3734-.3211,4.75-.6562,7.1367-.8315a15.3443,15.3443,0,0,0,11.1685-5.739c.5042-.61,1.0448-1.19,1.66-1.8871,3.45-.2127,6.452,1.418,9.5733,2.4565a1.9681,1.9681,0,0,1,.7945,2.8768,8.2725,8.2725,0,0,1-2.7037,2.5558,13.7282,13.7282,0,0,1-4.6017,1.2058q-9.3016.86-18.6264,1.4634C111.4377,470.7838,109.0533,470.8071,106.7488,469.1426Z"/><path d="M85.1964,410.5764c1.63,5.9239-.2931,10.8952-1.2355,16.0274,2.5324,1.13,5.1471.1773,7.9808.8974-.635.3448-.9652.5163-1.2879.7014-.38.2181-.754.4477-1.4621.87l2.6805,1.2123c-.2062.2164-.3667.5448-.5689.5728-2.36.3267-4.7285.592-7.09.91-.9064.1218-1.8.3354-3.3946.64.95.7079,1.3507,1.2589,1.7931,1.2948,2.8337.23,5.6766.3478,8.4239.4973.3266,1.1384-.2541,1.3128-.9021,1.3714a29.8511,29.8511,0,0,1-10.9031-.5624c-1.6857-.474-2.4309-1.4472-2.1139-3.1863a13.0606,13.0606,0,0,1,1.47-4.4823,40.8511,40.8511,0,0,0,5.5269-14.6424A10.3791,10.3791,0,0,1,85.1964,410.5764Z"/><path d="M85.0672,364.4189a13.6454,13.6454,0,0,1-3.0119-10.8977c.3163-2.1739,1.3118-3.917,3.8834-4.19.9284-.0985,1.8007-.6462,2.73-.8415a2.1156,2.1156,0,0,1,2.3016,2.7259,9.5711,9.5711,0,0,1-1.8866,2.7159,8.4419,8.4419,0,0,0-2.489,6.0272C86.5515,361.3532,86.7422,362.878,85.0672,364.4189Z"/><path d="M98.4455,463.72c-.0544.5183.0626,1.1431-.1748,1.34a6.0286,6.0286,0,0,1-2.3589,1.4363,20.4776,20.4776,0,0,1-5.6431.63c-5.84-.4658-11.6617-1.1752-17.4867-1.8234-.2032-.0226-.3669-.3993-.5492-.6122.1783-.2173.3317-.5877.54-.6215a15.5125,15.5125,0,0,1,2.3552-.1913C82.8515,463.8165,90.5756,463.7709,98.4455,463.72Z"/><path d="M123.1394,10.6537c3.6064-.2247,6.228,1.1545,7.7119,4.3371,1.0888,2.3352,1.9957,4.7238,4.9459,6.2166l-3.0784,1.1341c.162.2348.2591.5367.46.6433a41.9111,41.9111,0,0,0,14.956,4.7831,7.2975,7.2975,0,0,1,6.3264,4.4447,6.478,6.478,0,0,1,.0315,2.1161c-.8346-.7674-1.4466-1.2731-1.9922-1.8425a9.0064,9.0064,0,0,0-6.4651-2.6688c-2.2338-.09-4.4738-.1017-6.7-.2824a33.1682,33.1682,0,0,1-10.1943-2.4885A35.8231,35.8231,0,0,0,115.13,24.3786a45.2621,45.2621,0,0,1-7.1081-.8387,1.3632,1.3632,0,0,1-1.0981-1.7927c6.1411-2.1181,13.9224-2.2346,22.438-.3389-1.5041-3.098-1.5041-3.098-8.673-6.8842-.09-.91.6268-.9759,1.22-1.1281.5623-.1442,1.1415-.2229,1.7157-.3309C123.4421,12.1564,123.3208,11.554,123.1394,10.6537Z"/><path d="M98.6847,17.0923c-7.9-.5312-15.1263.13-21.9906-4.3336,1.2-.4234,1.9055-.927,2.5521-.86,4.5589.4733,9.1249.9451,13.6476,1.6724A8.4391,8.4391,0,0,1,98.6847,17.0923Z"/><path d="M44.9493,20.7231A6.8888,6.8888,0,0,1,51.2506,19.3a11.0335,11.0335,0,0,0,6.9386-.9721,19.5151,19.5151,0,0,1,10.338-1.18,8.552,8.552,0,0,1,5.8572,2.8569c-.7213,1.0857-1.4257.2835-1.9949.0774a18.3207,18.3207,0,0,0-13.99.29,12.2873,12.2873,0,0,1-8.3966.79A29.3768,29.3768,0,0,0,44.9493,20.7231Z"/><path d="M113.336,13.7242c-3.99-1.5953-8.0184-1.0742-11.9559-1.2549-1.9084-.0875-3.8217-.0657-5.7311-.1372a4.8852,4.8852,0,0,1-1.176-.3568c.5594-1.2031,1.5487-1.135,2.4782-1.2334a62.6436,62.6436,0,0,0,7.1073-.833C108.1571,8.99,111.163,10.3989,113.336,13.7242Z"/><path d="M72.9694,15.9739c3.6226-1.0916,5.7029.1794,8.0806,1.7277C78.4553,18.0682,78.4553,18.0682,72.9694,15.9739Z"/><path d="M95.9839,19.2979a20.1759,20.1759,0,0,1,7.493.0031c-.8457.7682-1.2938,1.5265-1.8,1.5678a18.0721,18.0721,0,0,1-4.1555-.2006C97.0632,20.5985,96.6925,19.9554,95.9839,19.2979Z"/></g></g></svg>