<svg xmlns="http://www.w3.org/2000/svg" viewBox="0 0 497.4589 129.2252"><defs><style>.cls-1{fill:#fff;}</style></defs><g id="Слой_2" data-name="Слой 2"><g id="Слой_1-2" data-name="Слой 1"><path d="M129.19,30.1724c1.2632,1.0837,2.7.7735,4.1215.5182q7.08-1.272,14.1572-2.5607c18.4059-3.3177,36.7674-6.9145,55.2323-9.8626,15.4655-2.4693,31.03-4.3649,46.59-6.1884A866.3673,866.3673,0,0,1,351.2682,6.25a161.03,161.03,0,0,1,22.019,1.2642,42.3576,42.3576,0,0,1,5.65,1.06,4.291,4.291,0,0,1,3.4518,4.5795,44.5766,44.5766,0,0,1-.5651,5.72c-.4653,3.325-1.0395,6.6349-1.502,9.96a20.4789,20.4789,0,0,0-.2169,3.8216,3.223,3.223,0,0,0,2.9449,3.251,20.0106,20.0106,0,0,0,3.344.04c7.832-.2263,15.6667-.7369,23.4947-.6473,16.3135.1869,32.6261.5983,48.9333,1.1042,6.8692.213,13.7206.9524,20.586,1.35,4.4692.2589,8.9494.3236,13.4239.4956,1.4209.0546,2.8391.175,4.6273.2888a21.4026,21.4026,0,0,1-.4193,3.37,147.5309,147.5309,0,0,1-9.635,23.4933c-.7836,1.575-1.5638,3.153-2.3982,4.7013a21.0687,21.0687,0,0,0-1.3541,17.6292,83.02,83.02,0,0,0,3.5089,8.3962,137.77,137.77,0,0,1,7.78,19.5981c.4546,1.5057,1.1276,2.9946.3792,4.9255-1.1544.0273-2.4.1581-3.6294.0686q-8.3739-.61-16.74-1.3258a412.3787,412.3787,0,0,0-45.0617-1.4745c-15.1917.3731-30.37,1.073-45.5163,2.3656-8.7638.7479-17.5411,1.3455-26.2984,2.1608-7.4815.6965-14.9419,1.6183-22.4138,2.42q-12.161,1.3045-24.3258,2.5725c-4.1344.4382-8.2616.959-12.4034,1.3068-3.34.28-6.6961.46-10.0463.4794a23.1185,23.1185,0,0,1-4.7178-.7337,5.4528,5.4528,0,0,1-4.7953-5.1873c-.8613-8.0044-3.8219-15.5062-5.7335-23.26-1.0138-4.1122-3.07-5.5641-7.32-5.353A100.4593,100.4593,0,0,0,254.8771,95.9c-13.5611,2.2509-27.1016,4.6273-40.6459,6.9789-15.435,2.68-30.8578,5.4309-46.3,8.065-16.5463,2.8223-33.1123,5.5295-49.6651,8.3141-22.4239,3.7722-44.9271,6.547-67.7362,6.3274a96.3309,96.3309,0,0,1-26.8512-4.5187c-4.52-1.3535-6.81-4.2712-7.2486-9.0138-.6629-7.1624-1.4585-14.3215-2.4963-21.4384A225.605,225.605,0,0,0,1.7593,43.3249,47.138,47.138,0,0,1,.2344,38.7833a5.4461,5.4461,0,0,1,1.9471-6.0124,39.3473,39.3473,0,0,1,3.5114-2.5015A80.4734,80.4734,0,0,1,24.409,21.7366,340.8243,340.8243,0,0,1,69.9757,10.38c17.3114-3.081,34.6774-5.8554,52.0182-8.772,2.9951-.5038,5.9747-1.1048,8.977-1.5588,1.7994-.2721,2.8179.601,2.64,2.4443-.3381,3.4976-.7367,7.0045-1.4,10.4517-.8148,4.2339-1.9089,8.415-2.9174,12.61C128.8122,27.5553,128.7753,27.5465,129.19,30.1724ZM297.54,95.1936l.0319-.0376c-.1271-1.0411.7138-1.2443,1.3691-1.6731,1.13-.74,2.9256-.4724,3.5548-2.57-7.9587.9038-15.7229,1.7738-23.4815,2.69a7.2954,7.2954,0,0,0-1.791.7639c.1336,4.1859,1.7586,7.8869,2.7527,11.7081.9874,3.7955,1.4555,7.844,4.23,11.2777,2.8326-.7027,5.6543-1.2567,8.3852-2.1038,18.6413-5.7821,37.6148-10.2709,56.609-14.6873,6.3823-1.484,12.7433-3.0593,19.1191-4.5714a8.381,8.381,0,0,0,4.6407-2.2932,1.5715,1.5715,0,0,0,.0754-1.2262c-.0467-.1757-.5552-.3637-.8167-.32a5.1854,5.1854,0,0,0-1.8041.5426c-2.5274,1.5165-5.365,2.0427-8.1764,2.6275q-17.1344,3.5637-34.2808,7.07c-2.9314.6043-5.86,1.2215-8.79,1.8329,14.8716-5.5883,30.4571-8.239,46.2806-11.6513-3.33-1.3753-4.2257-1.5952-6.7994-1.3575a57.6149,57.6149,0,0,0-6.18.8284c-13.4653,2.7386-26.9505,5.3929-40.2151,9.0306-1.4709.4034-2.9892.6338-5.3837,1.1309,3.593-2.2406,6.7857-2.7464,9.8519-3.5421,7.8869-2.0465,15.8083-3.96,23.711-5.9468.72-.1811,1.5917-.36,1.13-1.6441a27.0449,27.0449,0,0,0-8.0451.306c-5.1808.9874-10.3631,1.9679-15.5536,2.9023a16.94,16.94,0,0,1-2.7095.02c1.4831-1.8748,3.9728-1.1976,5.0751-3.0137C315.2791,90.523,305.4564,92.2152,297.54,95.1936ZM49.8922,22.5884l-.1333.018c-1.301,1.3487-3.1475,1.4162-4.7677,1.9884-8.1247,2.87-16.3058,5.5842-24.386,8.5726a74.5114,74.5114,0,0,0-8.5588,4.2558c-.42.2205-.6394.8238-.9686,1.2734.4135.2454.5739.42.6809.3914a9.6753,9.6753,0,0,0,2.2315-.6857,88.5886,88.5886,0,0,1,21.46-8.0579c8.2013-2.0719,16.3842-4.22,24.605-6.2108,3.5639-.8633,7.1961-1.4543,10.8115-2.0878a17.0583,17.0583,0,0,1,2.9044-.0248A6.4905,6.4905,0,0,1,70.7146,23.64c-4.195.9843-8.4055,1.9023-12.6091,2.85-12.7937,2.8855-25.36,6.4963-37.3686,11.85-.7529.3357-1.9191.3185-2.05,1.5294a1.9422,1.9422,0,0,0,2.5255.7831c1.83-.5555,3.6442-1.19,5.4126-1.9182a131.3817,131.3817,0,0,1,18.2035-5.906c.9278-.2323,1.872-.4037,2.8143-.5714.9332-.1661,1.8735-.2919,2.8107-.4354a13.9111,13.9111,0,0,1-4.2515,2.3623c-4.3245,1.6511-8.6723,3.2416-12.9886,4.9136a25.1007,25.1007,0,0,0-3.0708,1.9056,34.9774,34.9774,0,0,0,3.9252-.3268c4.3544-.992,8.7083-1.9931,13.034-3.1016C51.74,36.386,56.318,34.9556,60.976,33.86c2.8782-.677,5.7952-1.4588,8.8629-1.0542a16.0786,16.0786,0,0,1-3.5,1.4412c-5.6772,1.6253-11.3647,3.2148-17.0454,4.8282-.7018.1993-1.5742.28-1.3425,1.6711a48.43,48.43,0,0,0,9.411-1.2473c6.0281-1.5319,12.0442-3.1108,18.0653-4.67l-.0294.0236c-.059,1.53-1.5386,1.4017-2.38,2.0011-.7259.5171-1.8281.6142-1.8458,2.2468a21.0774,21.0774,0,0,0,6.0169-.1849q11.915-1.3457,23.82-2.7744c4.6035-.5543,9.1861-1.3,13.7981-1.7595,4.6261-.4606,7.5167-2.6971,9.1609-7.13a100.7464,100.7464,0,0,0,4.9155-19.49,8.6269,8.6269,0,0,0-.3414-2.3694c-1.3631.1461-2.4666.2078-3.55.3892-12.454,2.0846-24.8992,4.2222-37.3581,6.2768C71.5426,14.711,55.5176,17.671,39.7117,21.7447a177.3076,177.3076,0,0,0-27.2252,9.1976c-2.196.9654-4.4531,1.8551-5.9341,3.8952-.5082.7-.66,1.4356.5254,2.0572,1.2963-.6378,2.7011-1.3723,4.1415-2.0286,3.0522-1.3909,6.0443-2.9689,9.2025-4.0608,6.7953-2.3494,13.6679-4.479,20.5339-6.6181A28.9534,28.9534,0,0,1,49.8922,22.5884ZM8.0177,43.8589c-.71,2.4953.3926,4.225.974,6.0027A230.9319,230.9319,0,0,1,18.5349,92.868c.64,5.0763,1.1529,10.1686,1.78,15.2466.63,5.1018,3.3712,8.5191,8.3074,10.0889.9105.29,1.847.5034,2.78.7173,9.1128,2.09,18.38,2.3173,27.666,2.2365a332.0882,332.0882,0,0,0,50.12-4.4955q34.5525-5.5841,69.0323-11.6163c26.7677-4.664,53.502-9.5131,80.4005-13.3938a435.496,435.496,0,0,1,53.4934-4.53c18.8715-.379,37.7411-.4851,56.6118.0049a42.0965,42.0965,0,0,0,4.3136-.0252,2.5063,2.5063,0,0,0,2.6462-2.787c-.016-2.8759-.1608-5.7571-.3907-8.6248a203.5494,203.5494,0,0,1-.03-31.64c.65-8.61,1.4962-17.2057,2.1653-25.8147.3579-4.6055-.6184-5.7143-5.0933-6.3207-.3168-.0429-.6364-.0652-.9546-.0977a353.7862,353.7862,0,0,0-49.3592-1.3015c-20.4626.7706-40.8535,2.5851-61.208,4.7323-15.1005,1.593-30.17,3.4973-45.2336,5.4181q-21.6488,2.7606-42.9919,7.3778c-19.54,4.2454-39.25,7.4566-59.0614,10.1047-10.4565,1.3977-20.8861,3.0066-31.3549,4.3015-9.6762,1.1967-19.3673,2.4316-29.09,3.0559-13.7381.8821-27.4935.8484-41.1307-1.6172A23.5049,23.5049,0,0,0,8.0177,43.8589ZM328.6339,117.34c-5.1378.7738-10.2987,1.4205-15.4078,2.352a99.1455,99.1455,0,0,1-21.9424,1.7528,14.589,14.589,0,0,0-2.3881.13,1.78,1.78,0,0,0-1.7314,1.8806c.1114.9711.817,1.3106,1.6453,1.4208a9.4924,9.4924,0,0,0,1.91.0515c3.8272-.2711,7.66-.494,11.4769-.872,7.1588-.7091,14.302-1.578,21.463-2.2628q17.9041-1.7121,35.8237-3.2619c11.31-.9621,22.6238-1.901,33.9494-2.6442,9.0934-.5968,18.2057-.9168,27.312-1.3048a532.2207,532.2207,0,0,1,62.8026,1.0713,36.52,36.52,0,0,0,4.7809.0646,1.7849,1.7849,0,0,0,1.6847-2.3643,36.8572,36.8572,0,0,0-1.736-4.4457c-2.7618-6.1183-5.5719-12.2148-8.3447-18.3282-3.11-6.856-3-13.4519.79-20.1873a173.7814,173.7814,0,0,0,7.7329-16.4879,53.7294,53.7294,0,0,0,2.5411-8.2269c.4649-1.8514-.2279-2.6537-2.1991-2.8062-8.7657-.6782-17.5322-1.3547-26.305-1.9317-4.1472-.2728-8.3109-.2845-12.4643-.4762q-27.5743-1.2724-55.16-.3011c-3.8328.1285-7.6621.4094-11.4874.6947-1.053.0785-2.3142.15-2.1835,2.1846,8.795.62,17.7-1.8517,27.1787.36a20.41,20.41,0,0,1-6.27,1.033c-3.6728.1989-7.3538.2564-11.024.49-3.0277.1926-6.0481.5246-9.0636.8671-.5993.0681-1.22.43-.68,1.4645,4.517.056,9.2041-.592,13.7161.9715a24.0713,24.0713,0,0,1-3.7973.5248c-3.1837.3025-6.3694.5923-9.5458.96-.7638.0885-1.5713.4065-1.0236,1.7092,4.0389.6208,8.26-.4039,12.3872.5222a72.03,72.03,0,0,1-7.9791,1.399c-.95.1255-1.9149.1372-2.8676.2476-1.0684.1238-2.3486-.0813-2.7582,1.333-.2.6884.9842,1.2848,2.63,1.3735q1.5786.0849,3.1572.1739a32.4766,32.4766,0,0,1-4.6843,1.074c-1.0972.2616-1.4243,1.1639-.8777,2.408,2.688.8772,5.6208-.2718,9.1643.7423-1.6.2023-2.4719.3-3.34.4249-1.7391.2508-3.4942.4377-5.2019.8288a1.8462,1.8462,0,0,0-1.0988,1.307c-.1023.9627.7,1.3439,1.56,1.3652,1.1175.0278,2.2372-.0508,3.3562-.0648s2.2415-.0508,3.358.0076c1.1464.06,2.3606-.3324,4.3687.497-1.6115.4-2.3329.6436-3.0739.7505-2.3733.3422-4.7553.6222-7.1309.9488-1.6962.2332-2.5722.8655-2.366,1.7426.3525,1.5,1.6286,1.2484,2.71,1.3152,1.3906.0859,2.7825.1514,4.9337.2663-2.9436,1.0329-5.5325.4515-7.7715,2.1258.2837.5493.426,1.3172.8317,1.5a5.8546,5.8546,0,0,0,2.31.3208c4.1408.0263,8.2819.0124,12.4229.0124a75.064,75.064,0,0,1-8.4006,1.3477c-1.269.1441-2.5566.1165-3.8309.2243-2.3348.1974-3.5771.9414-3.2168,1.9681.631,1.7982,2.2532,1.383,3.64,1.3726.7984-.006,1.5958-.11,2.3948-.1311.9424-.0242,1.8858-.0057,2.8289-.0057a19.4191,19.4191,0,0,1-4.9644,1.6008,20.39,20.39,0,0,0-2.7593.6648,1.3335,1.3335,0,0,0-.6055,1.1172c.0424.3631.5253.9479.8375.9626,2.2323.1049,4.4705.1252,6.7063.103,3.4967-.0347,6.9979-.2631,10.4948.3949a4.3749,4.3749,0,0,1-1.7724.5715c-3.3442.2988-6.6911.5691-10.038.8385-1.1157.09-2.2358.1284-3.35.23a4.9157,4.9157,0,0,0-1.3965.3c-.7706.3141-1.5081.8449-1.1482,1.7614a1.9206,1.9206,0,0,0,1.3944.9761c2.306.1434,4.6351-.1625,7.65.1247-2.8324,2.3009-6.3157.82-8.4834,3.2628,1.3125,1.9275,3.1588.9749,4.73.9413,1.7535-.0374,3.4991-.3689,5.2538-.4459,1.5873-.07,3.1821.0311,4.7737.0567a22.3366,22.3366,0,0,1-5.6138,1.4147c-3.6038.6831-7.1992,1.4187-10.7757,2.2306-.6181.14-1.58.4169-1.162,1.7607l6.1072.282a20.2905,20.2905,0,0,1-4.9538,1.4132c-4.2507.7364-8.51,1.4205-12.7646,2.1385-.7609.1284-.756.1571-2.2623,1.5041,8.401-.0208,16.7387-1.2339,25.1531-1.18a33.3345,33.3345,0,0,1-6.4684,1.4661c-4.761.55-9.54.9374-14.3075,1.4366-10.9684,1.1486-21.9384,2.2855-32.8987,3.5078a56.6234,56.6234,0,0,0-13.09,2.8519,19.998,19.998,0,0,0-2.8,1.7082c9.7287-1.0177,18.6087-1.9724,27.4945-2.8706,18.1221-1.8317,21.5683-1.9791,26.4841-1.1916-8.31.8087-16.4208,1.5311-24.515,2.4045-7.9459.8574-15.895,1.729-23.8064,2.8505-8.0044,1.1348-16.07,2.0156-23.8689,4.4033C310.5217,118.546,319.5378,117.2085,328.6339,117.34Z"/><path class="cls-1" d="M8.0177,43.8589a23.5049,23.5049,0,0,1,3.9345.0289c13.6372,2.4656,27.3926,2.4993,41.1307,1.6172,9.7227-.6243,19.4138-1.8592,29.09-3.0559,10.4688-1.2949,20.8984-2.9038,31.3549-4.3015C133.339,35.5,153.05,32.2883,172.5892,28.0429q21.3288-4.6343,42.9919-7.3778c15.0635-1.9208,30.1331-3.8251,45.2336-5.4181,20.3545-2.1472,40.7454-3.9617,61.208-4.7323a353.7862,353.7862,0,0,1,49.3592,1.3015c.3182.0325.6378.0548.9546.0977,4.4749.6064,5.4512,1.7152,5.0933,6.3207-.6691,8.609-1.515,17.2044-2.1653,25.8147a203.5494,203.5494,0,0,0,.03,31.64c.23,2.8677.3747,5.7489.3907,8.6248a2.5063,2.5063,0,0,1-2.6462,2.787,42.0965,42.0965,0,0,1-4.3136.0252c-18.8707-.49-37.74-.3839-56.6118-.0049a435.496,435.496,0,0,0-53.4934,4.53c-26.8985,3.8807-53.6328,8.73-80.4,13.3938q-34.4815,6.0081-69.0323,11.6163a332.0882,332.0882,0,0,1-50.12,4.4955c-9.2864.0808-18.5532-.1464-27.666-2.2365-.9325-.2139-1.869-.4277-2.78-.7173-4.9362-1.57-7.6774-4.9871-8.3074-10.0889-.6272-5.078-1.14-10.17-1.78-15.2466A230.9319,230.9319,0,0,0,8.9917,49.8616C8.41,48.0839,7.3081,46.3542,8.0177,43.8589ZM190.5022,27.0581c-4.1857.8254-8.3748,1.6344-12.5565,2.48-9.4878,1.9173-18.97,3.8609-28.46,5.7653a2.2422,2.2422,0,0,0-1.8494,1.2687h-3.2775l.0417.3759,3.1821-.4026c6.423-1.117,12.87-2.113,19.2625-3.3828,7.33-1.4561,14.6074-3.1715,21.9178-4.727a2.0442,2.0442,0,0,0,1.7337-1.3755l3.5767.2826.0166-.2841ZM367.2028,74.351a2.1427,2.1427,0,0,0-2.8306.1689l2.9462-.2847c.3667,1.4864,1.83.9723,2.6987,1.5183a2.0194,2.0194,0,0,1,.9477,1.434,1.726,1.726,0,0,1-1.1861,1.1782c-1.6858.1905-3.3965.1612-5.3927.224,1.7347,1.5711,4.0686.7753,5.6561,2.5768-.4333.433-.7936,1.11-1.1894,1.1315-1.425.0771-2.8619-.1148-4.2945-.1188q-7.6541-.0216-15.3082.03a12.877,12.877,0,0,0-2.021.329,10.3627,10.3627,0,0,0,4.58,1.2512c6.0513.3511,12.1062.64,18.1608.9308a3.7068,3.7068,0,0,0,3.3713-1.2846,29.9251,29.9251,0,0,0-1.8389-14.251h-4.8387a19.6717,19.6717,0,0,1,2.9913.7729,2.0989,2.0989,0,0,1,.3,3.8011A9.4833,9.4833,0,0,1,367.2028,74.351ZM53.74,70.0448q-10.7227-1.0611-21.4452-2.1242c-3.5-.35-7.0008-.6992-10.4957-1.0967-.8175-.093-1.5121-.4628-1.2036-1.775,6.0055-.5137,12.0032.9281,18.0455.7694,6.23-.1637,12.4669-.2138,18.6858-.5731a116.1486,116.1486,0,0,0,17.8686-1.9389,58.6236,58.6236,0,0,0-11.43.108,243.3806,243.3806,0,0,1-29.7256.5973c-3.9848-.1771-7.9555-.7635-11.9192-1.2685A13.1058,13.1058,0,0,1,18.483,61.678c-.3722-.1666-.562-1.0531-.5594-1.6091.0011-.2638.6537-.7513,1.0055-.7461,1.2694.0187,2.5377.1917,3.8042.3278a141.9151,141.9151,0,0,0,21.0586,1.1412c5.9125-.2445,11.8268-.4461,17.7405-.66a34.592,34.592,0,0,0,9.8415-1.5187,21.1973,21.1973,0,0,0-4.1218-.3929c-4.6388.004-9.28.1565-13.916.0625-10.3922-.2107-20.7826-.5155-31.1722-.8325-1.8654-.057-3.8337-.0256-5.5045-1.9384a7.0286,7.0286,0,0,1,2.17-.904c2.234-.0378,4.4785.0168,6.7057.1988a223.0317,223.0317,0,0,0,26.8523.4453,31.5968,31.5968,0,0,0,8.3074-1.4407,30.3167,30.3167,0,0,0-4.797-.2648c-6.0783-.03-12.1605.0609-18.2337-.1321-5.7519-.1828-11.4963-.6354-17.2391-1.039-1.1951-.0839-2.623.0339-3.1654-1.531.2754-.1868.5235-.5.7705-.4991,1.5951.0061,3.196.01,4.784.1441A202.7559,202.7559,0,0,0,70.17,48.7541c9.8007-1.4711,19.6312-2.7437,29.4338-4.2029,7.5867-1.1293,15.15-2.4164,22.726-3.6175a6.8,6.8,0,0,0,4.1177-1.6433c-4.0932.5818-7.88,1.1284-11.6693,1.6571-13.14,1.8334-26.27,3.7474-39.4267,5.4566-7.4479.9676-14.9246,1.8312-22.4158,2.32A143.3033,143.3033,0,0,1,20.8922,47.11,42.28,42.28,0,0,0,16.6,46.651c-1.5262-.0863-3.02-1.0531-4.7039-.3279-.9246,3.0449.0421,5.7877.9535,8.4741,4.4932,13.2431,6.9435,26.9139,8.6866,40.74q.81,6.4253,1.6914,12.8415c.5866,4.2881,2.8821,6.86,7.26,7.7626a114.675,114.675,0,0,0,19.4862,2.4346c13.463.4339,26.852-.7179,40.2042-2.2587,8.8923-1.0261,17.7657-2.2354,26.6268-3.5077,6.0117-.8631,12.06-1.59,17.9317-3.2864a5.4933,5.4933,0,0,0-1.9044-.148c-5.7156.6312-11.4311,1.2649-17.1421,1.9362-7.1443.84-14.31,1.5481-21.4206,2.6145a216.4341,216.4341,0,0,1-34.4063,2.6165c-9.5832-.1012-19.2077-.1849-28.6021-2.5526a15.9131,15.9131,0,0,1-3.5581-1.29c-.7577-.4017-.9316-1.23.0042-2.1518,9.1488,1.357,18.4216,2.9938,27.8585,3.056,12.3923.0817,23.1475-.7861,28.8286-2.5447-2.5392,0-4.29-.0113-6.04.0019-7.9978.06-15.9955.1411-23.9935.1866a106.4128,106.4128,0,0,1-18.1811-1.05c-2.207-.3681-4.427-.6892-6.6044-1.191a9.03,9.03,0,0,1-3.0018-1.3529,1.813,1.813,0,0,1-.4313-1.671,1.7239,1.7239,0,0,1,1.4547-.7766c1.8966.2487,3.757.7668,5.6519,1.037,10.979,1.5659,22.0066,1.3889,33.0407.8213.1416-.0073.27-.2651.7743-.7921-3.8934-.24-7.377-.544-10.8666-.6481-4.6357-.1383-9.2905.089-13.91-.2293-4.612-.3179-9.1936-1.0957-13.7818-1.7212a6.7075,6.7075,0,0,1-2.2514-.7277,1.4047,1.4047,0,0,1-.7693-1.9761,1.9507,1.9507,0,0,1,1.5032-.85c2.7.2958,5.3732.8431,8.0742,1.1263,17.5633,1.8415,35.133,1.4877,52.7029.0646A43.1412,43.1412,0,0,0,94.4613,99.9c-1.4383-.1134-1.9122-.1945-2.383-.18-1.2787.0406-2.5576.0992-3.8336.1906A363.264,363.264,0,0,1,36.9484,99.46c-2.707-.1888-5.4027-.619-8.0844-1.0552a14.4618,14.4618,0,0,1-3.6451-1.1044c-.3844-.1754-.5953-1.0445-.6036-1.6006-.0043-.2838.6131-.8194.9535-.8226a29.9027,29.9027,0,0,1,3.8029.2545c4.1255.4912,8.2345,1.1742,12.3722,1.4994,8.6309.6784,17.266.1633,25.8931-.2651a28.72,28.72,0,0,0,3.6155-.6312,17.12,17.12,0,0,0-5.5008-.7441c-6.8773-.06-13.7668.1422-20.6287-.207C39.0674,94.4757,33.0369,93.61,27.01,92.8731a8.1169,8.1169,0,0,1-2.9482-1.325,1.3889,1.3889,0,0,1-.2807-1.2585,1.7911,1.7911,0,0,1,.9682-.9263A3.0133,3.0133,0,0,1,26.16,89.254q4.5318.4665,9.0579.9885A150.7294,150.7294,0,0,0,57.697,91.6172c.91-.0307,1.9715.377,2.9313-.8548-2.42-.1762-4.6326-.41-6.8505-.4851-6.7109-.2279-13.4393-.1756-20.0953-1.2431-2.991-.48-5.9934-.9433-8.9374-1.64-1.7122-.4049-1.8633-1.21-.9889-3.4237,5.1587.657,10.3673,1.4356,15.6013,1.9614,8.9538.9,11.37.7842,15.3908-.3207a14.3727,14.3727,0,0,0-1.5237-.1968c-8.8133-.1494-17.5326-1.3287-26.2605-2.4032a19.6315,19.6315,0,0,1-3.2669-.7134,1.6961,1.6961,0,0,1-1.2892-1.7922c.0641-.9882.8514-1.2787,1.6732-1.3371a6.1609,6.1609,0,0,1,1.9054.1452c4.397,1.1018,8.8989.8477,13.3629,1.062a17.4215,17.4215,0,0,0,2.4373-.214,4.1974,4.1974,0,0,0-2.3126-.7752c-4.9143-.6209-9.8349-1.2-14.7363-1.91a9.3568,9.3568,0,0,1-3.0261-1.2469c-.2645-.1463-.39-.8764-.2877-1.2614a1.7633,1.7633,0,0,1,.8873-1.0037,2.373,2.373,0,0,1,1.4016-.096c9.7654,2.09,19.6871,2.1677,29.6021,2.3187,1.4378.022,2.8817-.0124,4.3148-.1236,1.5927-.1235,3.175-.3766,4.7643-.551,1.2419-.1362,2.4875-.2384,3.7315-.3557a37.3516,37.3516,0,0,0-7.2123-.4016,216.18,216.18,0,0,1-33.96-2.1589,23.1042,23.1042,0,0,1-3.2672-.73,1.5283,1.5283,0,0,1-1.2987-1.7253c.1482-.9621.8841-1.2323,1.7741-1.1241.3154.0384.62.16.9349.21A121.4592,121.4592,0,0,0,53.74,70.0448Zm74.1985-10.4863a13.8534,13.8534,0,0,1,.8565,2.195c1.6851,8.1274,3.3712,16.2549,4.9738,24.3988,1.0444,5.3072.9,5.4354-4.5411,6.3175a3.0458,3.0458,0,0,0,.6829,3.5029,3.8471,3.8471,0,0,0,3.45,1.3022,33.4845,33.4845,0,0,0,3.7539-.7458c6.36-1.5216,12.641-3.4057,19.1782-4.1075a12.0422,12.0422,0,0,0,1.8487-.4937,7.92,7.92,0,0,0,5.6732-5.3647,20.1536,20.1536,0,0,0,1.07-8.9651,7.99,7.99,0,0,0-5.1078-6.9576c-1.11-.4521-2.5771-.4961-3.1494-2.2017.2055-.42.45-.9831.748-1.5157a30.3712,30.3712,0,0,0,2.33-4.1473c2.5105-6.8537-1.7092-12.7486-8.9585-12.5474a53.366,53.366,0,0,0-6.6716.6528c-5.8346.9044-11.6556,1.8972-17.4777,2.88a9.9445,9.9445,0,0,0-2.2849.65,1.8424,1.8424,0,0,0-.9529.98,3.6868,3.6868,0,0,0,.4321,3.6226c.7092.87,1.6552.7284,2.6321.4734A5.5469,5.5469,0,0,1,127.9389,59.5585Zm65.9339-4.1657a7.2917,7.2917,0,0,0-.7179,1.5253,4.2006,4.2006,0,0,1-3.3716,3.6064c-.9234.2433-1.8063.6567-2.737.8526-2.93.617-4.4113-.202-5.7014-3a14.2663,14.2663,0,0,1-.8877-7.0595c.1452-2.3124.81-3.0762,3.1289-3.5754,2.1846-.47,4.4488-.6253,6.5891-1.2327,3.2413-.92,6.175-1.0413,9.0885,1.1328,1.7635,1.3159,3.51.3227,3.7695-1.8115.6373-5.23-1.1284-5.5743-4.909-4.8684-8.0073,1.4953-16.0341,2.886-24.05,4.3353a16.7,16.7,0,0,0-2.3165.6034c-.818.2735-1.5049.8911-1.2533,1.7484a4.5265,4.5265,0,0,0,1.4047,1.6852c.1938.1816.6087.1333.9245.1773a2.9686,2.9686,0,0,1,2.5279,2.5312,20.1059,20.1059,0,0,1,.4607,2.3487c.8233,6.1731,1.3644,12.3889,2.9131,18.45a18.3958,18.3958,0,0,1,.328,2.8556c.32,3.4648-.4242,6.38-4.0207,7.8566-.2307.0948-.3292.512-.5269.8422a3.5728,3.5728,0,0,0,4.0945,3.6026,42.4188,42.4188,0,0,0,6.1638-.72c7.5124-1.438,14.7363-4.3271,22.5249-4.4076,1.27-.0131,1.9286-.91,1.9061-2.2844a17.8065,17.8065,0,0,0-.3554-3.317,2.6794,2.6794,0,0,0-2.2053-2.2539,2.26,2.26,0,0,0-2.7275,1.4162c-.9672,2.4961-2.9337,3.1229-5.3493,3.1993-1.4292.0452-2.8465.3851-4.2764.51-1.7487.1523-3.504.2748-5.2583.3058a3.745,3.745,0,0,1-3.951-2.8721c-.9339-3.356-1.9014-6.7415-1.2711-10.4841,1.2544-.417,2.4759-.7371,3.6275-1.2228,2.7926-1.1781,5.2727-.96,7.4072,1.37.1869.2041.5819.2175.88.319,3.0526-1.33,3.1076-1.3464,2.9012-4.0217a43.4082,43.4082,0,0,0-.6737-5.2279C197.561,56.3605,196.3641,55.2564,193.8728,55.3928ZM222.149,72.91c-1.0372.71-1.68,1.1655-2.3391,1.5968a1.9858,1.9858,0,0,0-1.05,2.4057,2.755,2.755,0,0,0,2.2628,2.2018,10.3642,10.3642,0,0,0,2.3834-.06c5.2337-.6236,10.4669-1.2525,15.6945-1.9243,4.4223-.5682,8.8369-1.1966,12.9158-1.7522a4.7875,4.7875,0,0,0,1.0782-4.4166c-.442-2.79-1.1153-3.3113-4.6538-3.5349-.5754,1.3791-1.1647,2.7913-1.721,4.1247-4.3808.4766-8.4938.9293-12.6087,1.3643a9.1315,9.1315,0,0,1-1.4369-.0044c-3.8239-.2037-5.9039-1.9195-6.5528-5.7057a23.2,23.2,0,0,1-.0455-7.6444c2.9842-1.6345,6.2515-1.4952,9.3477-2.0656,2.5522-.47,4.3032,1.7816,6.524,2.3278,2.6277-2.4315,1.8259-5.121,1.1495-7.7283-.6083-2.3446-2.557-2.9911-4.2654-1.2541a8.4811,8.4811,0,0,1-6.3973,2.7408c-2.4782-.029-5.0665.9332-7.6327-.673-.367-2.3024-.8586-4.6493-1.0884-7.0216-.2607-2.6923.5886-3.8194,3.1341-4.5732a12.8172,12.8172,0,0,1,2.3526-.4144c3.0148-.3026,6.0344-.5576,9.05-.8563,2.9858-.2959,5.391.4119,6.5333,3.5409.1455.3985.59.6879.9035,1.0368a3.83,3.83,0,0,0,3.1261-3.2825,6.932,6.932,0,0,0-.5526-5.1165,2.8088,2.8088,0,0,0-2.0085-1.0042,33.3107,33.3107,0,0,0-4.7787.2518q-9.2962.947-18.5859,1.9579c-2.5412.2729-5.0814.5586-7.6155.8885a1.7617,1.7617,0,0,0-1.7714,1.86,2.279,2.279,0,0,0,1.2724,2.3545,4.1279,4.1279,0,0,0,1.4.2513c1.7472.0813,2.5212,1.1657,2.8491,2.7126.099.467.1267.9493.1851,1.4248.5841,4.7572,1.1981,9.5111,1.7422,14.2729C221.3824,64.9882,221.7308,68.7948,222.149,72.91Zm47.3166-17.23c2.56-.8859,4.9553-1.1017,7.0516.3431,4.4389,3.06,8.3746,6.5406,7.9,12.7077a4.09,4.09,0,0,0,.059.9529,1.9242,1.9242,0,0,0,1.8993,1.8167c2.8664-.01,5.7455-.0423,8.5937-.3255,1.8322-.1822,3.032-1.6072,2.6767-2.7829-.4161-1.3767-1.6634-1.3225-2.7754-1.2679-3.3.1618-5.4354-1.5135-6.8545-4.295-1.0153-1.99-2.0111-3.9947-2.9-6.0433-.7993-1.8431-.4708-2.9288,1.0775-4.1988.4915-.4032,1.0671-.7018,1.587-1.0726,4.6105-3.2889,5.4731-5.6816,3.9757-11.06-.171-.614-.421-1.206-.632-1.8089a8.7886,8.7886,0,0,0-6.7926-6.109,49.929,49.929,0,0,0-7.5732-1.0273c-5.7773-.29-11.4586.7216-17.1381,1.6169a3.4619,3.4619,0,0,0-1.7988.5287,3.2935,3.2935,0,0,0-.9341,2.0122c-.0195.4481.6374,1.0291,1.1211,1.3614.3513.2412.9164.1658,1.3843.2432,2.7331.4522,2.772.49,3.1484,3.217.0655.4744.0994.9535.1408,1.431.6071,7.0007,1.1831,14.0043,1.8289,21.0015.4886,5.2928.5281,5.2892-2.7637,8.7558.3217,2.1971,1.9672,2.7284,3.8179,2.6924a22.2807,22.2807,0,0,0,8.1709-1.9264c.6342-1.9675-.44-2.922-1.7357-3.6389-2.5964-1.4366-3.3594-3.66-3.0718-6.4564C269.1548,60.1517,269.2869,57.9454,269.4656,55.6805Zm77.2885-2.4018c-.3737-2.442.9574-4.7265-.6262-6.8147l-3.5806-.6492a5.536,5.536,0,0,1-.3338-1.55c.3643-2.9815-1.1471-4.7342-3.605-6.1052a62.43,62.43,0,0,1-5.1732-3.5864c-4.779,2.4894-9.14,5.5361-10.9939,11.0206l-4.1759-.4173c-.1317,2.8844-.2532,5.5445-.38,8.3164l-3.9223,1.0185a10.1135,10.1135,0,0,0,.2053,1.906,16.76,16.76,0,0,0,9.8264,11.0654,20.409,20.409,0,0,0,19.6308-1.92c3.4872-2.2569,5.2575-5.8822,6.0832-9.9137a6.0466,6.0466,0,0,0-.2224-1.8548ZM182.1757,100.5716l.3092.6082c16.4906-2.947,32.96-6.0221,49.479-8.7973Q249.44,89.4464,267.03,87.1973A292.2866,292.2866,0,0,1,298.5572,84.78a18.0335,18.0335,0,0,0,6.6168-1.0487,46.615,46.615,0,0,0-6.2481-.27A386.0436,386.0436,0,0,0,252.1176,86.9a542.2881,542.2881,0,0,0-55.1465,9.8674C192.0138,97.9268,187.1061,99.2979,182.1757,100.5716ZM371.4981,26.8175c-1.2806,1.6953-2.5981,1.4966-3.86,1.4368-1.2778-.0606-2.5532-.1729-4.2205-.29,2.315,2.1,5.7429,1.2044,7.3983,4.27-.9484.3464-1.65.6269-2.3675.858-.7442.24-1.7234-.1171-2.467.8677a35.7129,35.7129,0,0,1,3.7819,1.5006,2.1462,2.1462,0,0,1,.9346,1.4756c.0995.9474-.7187,1.43-1.5061,1.5484a36.0765,36.0765,0,0,1-3.7232.1862c1.2528,1.4824,2.7235,1.5513,4.1461,1.5981a2.2093,2.2093,0,0,0,2.2658-1.4438,11.631,11.631,0,0,0,.7513-2.7484c.6408-5.8612,1.3053-11.7222,1.7827-17.5978.2393-2.9443-.7378-4.0861-3.7868-4.3438-6.3491-.5367-12.7155-.8726-19.0775-1.2451a16.0839,16.0839,0,0,0-2.8763.52,19.6728,19.6728,0,0,0,2.2228.559c4.6088.3674,9.2218.6849,13.8287,1.075,1.902.161,3.8024.4041,5.683.7289.8664.15,1.3333.7925.9333,2.16-2.56.6761-5.4908-.1573-8.2474.5863a49.6094,49.6094,0,0,0,5.098,1.2856,14.2227,14.2227,0,0,1,2.7012.8827,1.82,1.82,0,0,1,.574,2.8288,8.5146,8.5146,0,0,1-1.5275,1.1005,2.9937,2.9937,0,0,0-.4677.5949ZM226.6775,22.47c4.191.599,7.62-.18,11.0685-.63,3.312-.4316,6.6579-.7,9.9236-1.3622,3.1925-.6471,6.5958-.439,10.1537-2.3772-10.1057,1.0637-19.6292,1.6753-29.0218,3.4288A12.7019,12.7019,0,0,0,226.6775,22.47ZM89.2793,49.8732c-5.24-.6958-9.2076.3748-13.165,1.174-1.389.2806-3.1129.1515-4.7283,2.071C77.55,52.5408,82.99,52.0627,89.2793,49.8732Zm-8.15,55.9349c2.1474,0,3.5784.0815,4.9969-.0171q4.2869-.2982,8.56-.7774a9.3823,9.3823,0,0,0,2.243-.7581c.0768-.03.05-.3251.074-.516C89.1859,103.8037,85.12,104.289,81.1293,105.8081Zm33.1652,1.37c-8.0222-.09-13.4659.7411-16.3225,2.5263C103.48,109.4027,108.5816,109.0618,114.2945,107.1781ZM58.0816,80.7754c4.2309.3221,4.2309.3221,6.74-1.1988C62.4157,79.7116,60.1668,79.1171,58.0816,80.7754Zm15.5469-11.362a16.4273,16.4273,0,0,0,7.3227-1.32C78.6063,67.773,76.2844,67.5974,73.6285,69.4134Zm7.0292,20.0214a6.71,6.71,0,0,0-5.9789.9739A10.2074,10.2074,0,0,0,80.6577,89.4348Zm191.026-71.5962,6.1388-1.3191C275.0444,16.1117,273.2746,16.5015,271.6837,17.8386Zm55.54,66.0572c1.2626,0,2.5257.02,3.787-.0179.2378-.0072.4686-.2468.9709-.531C330.1323,82.2653,328.6111,82.9191,327.2232,83.8958ZM138.7755,108.8413h.371c-.0818-.1159-.1412-.2823-.2525-.3317-.0886-.0393-.2406.0642-.3645.1043Z"/><path class="cls-1" d="M328.6339,117.34c-9.0961-.1319-18.1122,1.2056-27.2158,1.07,7.7986-2.3877,15.8645-3.2685,23.8689-4.4033,7.9114-1.1215,15.8605-1.9931,23.8064-2.8505,8.0942-.8734,16.2047-1.5958,24.515-2.4045-4.9158-.7875-8.362-.64-26.4841,1.1916-8.8858.8982-17.7658,1.8529-27.4945,2.8706a19.998,19.998,0,0,1,2.8-1.7082,56.6234,56.6234,0,0,1,13.09-2.8519c10.96-1.2223,21.93-2.3592,32.8987-3.5078,4.7671-.4992,9.5465-.8868,14.3075-1.4366a33.3345,33.3345,0,0,0,6.4684-1.4661c-8.4144-.0536-16.7521,1.16-25.1531,1.18,1.5063-1.347,1.5014-1.3757,2.2623-1.5041,4.2541-.718,8.5139-1.4021,12.7646-2.1385a20.2905,20.2905,0,0,0,4.9538-1.4132l-6.1072-.282c-.4177-1.3438.5439-1.62,1.162-1.7607,3.5765-.8119,7.1719-1.5475,10.7757-2.2306a22.3366,22.3366,0,0,0,5.6138-1.4147c-1.5916-.0256-3.1864-.1264-4.7737-.0567-1.7547.077-3.5.4085-5.2538.4459-1.5716.0336-3.4179.9862-4.73-.9413,2.1677-2.4431,5.651-.9619,8.4834-3.2628-3.0151-.2872-5.3442.0187-7.65-.1247a1.9206,1.9206,0,0,1-1.3944-.9761c-.36-.9165.3776-1.4473,1.1482-1.7614a4.9157,4.9157,0,0,1,1.3965-.3c1.1146-.1015,2.2347-.14,3.35-.23,3.3469-.2694,6.6938-.54,10.038-.8385a4.3749,4.3749,0,0,0,1.7724-.5715c-3.4969-.658-6.9981-.43-10.4948-.3949-2.2358.0222-4.474.0019-6.7063-.103-.3122-.0147-.7951-.5995-.8375-.9626a1.3335,1.3335,0,0,1,.6055-1.1172,20.39,20.39,0,0,1,2.7593-.6648,19.4191,19.4191,0,0,0,4.9644-1.6008c-.9431,0-1.8865-.0185-2.8289.0057-.799.0206-1.5964.1251-2.3948.1311-1.387.01-3.0092.4256-3.64-1.3726-.36-1.0267.882-1.7707,3.2168-1.9681,1.2743-.1078,2.5619-.08,3.8309-.2243a75.064,75.064,0,0,0,8.4006-1.3477c-4.141,0-8.2821.0139-12.4229-.0124a5.8546,5.8546,0,0,1-2.31-.3208c-.4057-.1828-.548-.9507-.8317-1.5,2.239-1.6743,4.8279-1.0929,7.7715-2.1258-2.1512-.1149-3.5431-.18-4.9337-.2663-1.081-.0668-2.3571.1844-2.71-1.3152-.2062-.8771.67-1.5094,2.366-1.7426,2.3756-.3266,4.7576-.6066,7.1309-.9488.741-.1069,1.4624-.3507,3.0739-.7505-2.0081-.8294-3.2223-.437-4.3687-.497-1.1165-.0584-2.2386-.0215-3.358-.0076s-2.2387.0926-3.3562.0648c-.86-.0213-1.6625-.4025-1.56-1.3652a1.8462,1.8462,0,0,1,1.0988-1.307c1.7077-.3911,3.4628-.578,5.2019-.8288.8678-.1252,1.74-.2226,3.34-.4249-3.5435-1.0141-6.4763.1349-9.1643-.7423-.5466-1.2441-.2195-2.1464.8777-2.408a32.4766,32.4766,0,0,0,4.6843-1.074q-1.5786-.087-3.1572-.1739c-1.6463-.0887-2.83-.6851-2.63-1.3735.41-1.4143,1.69-1.2092,2.7582-1.333.9527-.11,1.9175-.1221,2.8676-.2476a72.03,72.03,0,0,0,7.9791-1.399c-4.1274-.9261-8.3483.0986-12.3872-.5222-.5477-1.3027.26-1.6207,1.0236-1.7092,3.1764-.3679,6.3621-.6577,9.5458-.96a24.0713,24.0713,0,0,0,3.7973-.5248c-4.512-1.5635-9.1991-.9155-13.7161-.9715-.5395-1.0348.0809-1.3964.68-1.4645,3.0155-.3425,6.0359-.6745,9.0636-.8671,3.67-.2336,7.3512-.2911,11.024-.49a20.41,20.41,0,0,0,6.27-1.033c-9.479-2.212-18.3837.26-27.1787-.36-.1307-2.0342,1.13-2.1061,2.1835-2.1846,3.8253-.2853,7.6546-.5662,11.4874-.6947q27.5845-.9244,55.16.3011c4.1534.1917,8.3171.2034,12.4643.4762,8.7728.577,17.5393,1.2535,26.305,1.9317,1.9712.1525,2.664.9548,2.1991,2.8062a53.7294,53.7294,0,0,1-2.5411,8.2269,173.7814,173.7814,0,0,1-7.7329,16.4879c-3.79,6.7354-3.9,13.3313-.79,20.1873,2.7728,6.1134,5.5829,12.21,8.3447,18.3282a36.8572,36.8572,0,0,1,1.736,4.4457,1.7849,1.7849,0,0,1-1.6847,2.3643,36.52,36.52,0,0,1-4.7809-.0646,532.2207,532.2207,0,0,0-62.8026-1.0713c-9.1063.388-18.2186.708-27.312,1.3048-11.3256.7432-22.64,1.6821-33.9494,2.6442q-17.921,1.5246-35.8237,3.2619c-7.161.6848-14.3042,1.5537-21.463,2.2628-3.817.378-7.65.6009-11.4769.872a9.4924,9.4924,0,0,1-1.91-.0515c-.8283-.11-1.5339-.45-1.6453-1.4208a1.78,1.78,0,0,1,1.7314-1.8806,14.589,14.589,0,0,1,2.3881-.13,99.1455,99.1455,0,0,0,21.9424-1.7528C318.3352,118.7609,323.4961,118.1142,328.6339,117.34Zm26.8614-2.7546a91.5407,91.5407,0,0,0,13.3249-.2051c6.5131-.5309,13.0274-1.0889,19.552-1.4279,9.39-.4879,18.7889-.7938,28.1845-1.1674a20.1128,20.1128,0,0,0,7.6807-1.3745C400.6779,109.706,378.0893,112.1388,355.4953,114.5858ZM469.6318,46.3665c5.0929.3885,10.1847.7924,15.28,1.1483.7506.0525,1.6353.0979,1.9332-1.3044a7.4353,7.4353,0,0,0-2.2787-1.0675C479.5408,44.6631,474.51,44.4336,469.6318,46.3665Zm-47.1595-2.8491c3.6123,1.4655,7.2757,1.23,10.96.6476C429.9041,42.1532,426.1478,43.115,422.4723,43.5174Zm60.23,8.4316c-3.422-1.6035-7.8989-1.8326-12.5834-.7554A32.1666,32.1666,0,0,0,482.7025,51.949Zm-19.4712,58.4084c7.1338,1.7924,11.8105,2.0689,15.6523.9573ZM412.9024,48.1028c-3.2528-1.2694-3.3025-1.2656-6.0785.4307C408.93,48.4042,410.75,48.7229,412.9024,48.1028Zm69.06,8.5387c-2.3706-1.302-4.0419-1.0348-6.252-.8576A8.3073,8.3073,0,0,0,481.9626,56.6415Zm-32.2478,52.89h-5.0669C446.2556,110.43,447.8886,110.1062,449.7148,109.5313Zm-99.4661,5.9462-.1926-.3533-3.9438.1921.0142.1612ZM457.0268,49.2894l.19-.5748c-1.233-.0489-2.4658-.11-3.6991-.12-.0852-.0007-.1734.3765-.3107.6951ZM337.83,116.4836l.0836-.1775h-3.35l.0076.1775ZM400.46,70.064l.0024.2338h3.07l-.0044-.2338Zm9.5747,34.7889-.0007.1345H411.36l.0007-.1345Zm67.0424-44.027.0375-.2469c-.3681-.0614-.7351-.1334-1.1056-.1711-.0468-.0047-.1118.1709-.1685.2629Z"/><path class="cls-1" d="M75.427,34.8286c-6.0211,1.5594-12.0372,3.1383-18.0653,4.67a48.43,48.43,0,0,1-9.411,1.2473c-.2317-1.3908.6407-1.4718,1.3425-1.6711,5.6807-1.6134,11.3682-3.2029,17.0454-4.8282a16.0786,16.0786,0,0,0,3.5-1.4412c-3.0677-.4046-5.9847.3772-8.8629,1.0542-4.658,1.0958-9.2362,2.5262-13.8739,3.7147-4.3257,1.1085-8.68,2.11-13.034,3.1016a34.9774,34.9774,0,0,1-3.9252.3268,25.1007,25.1007,0,0,1,3.0708-1.9056c4.3163-1.672,8.6641-3.2625,12.9886-4.9136a13.9111,13.9111,0,0,0,4.2515-2.3623c-.9372.1435-1.8775.2693-2.8107.4354-.9423.1677-1.8865.3391-2.8143.5714a131.3817,131.3817,0,0,0-18.2035,5.906c-1.7684.7287-3.5825,1.3627-5.4126,1.9182a1.9422,1.9422,0,0,1-2.5255-.7831c.1306-1.2109,1.2968-1.1937,2.05-1.5294,12.0087-5.3534,24.5749-8.9642,37.3686-11.85,4.2036-.9481,8.4141-1.8661,12.6091-2.85a6.4905,6.4905,0,0,0,3.0566-1.6188,17.0583,17.0583,0,0,0-2.9044.0248c-3.6154.6335-7.2476,1.2245-10.8115,2.0878-8.2208,1.9912-16.4037,4.1389-24.605,6.2108a88.5886,88.5886,0,0,0-21.46,8.0579,9.6753,9.6753,0,0,1-2.2315.6857c-.107.0283-.2674-.146-.6809-.3914.3292-.45.5485-1.0529.9686-1.2734a74.5114,74.5114,0,0,1,8.5588-4.2558c8.08-2.9884,16.2613-5.703,24.386-8.5726,1.62-.5722,3.4667-.64,4.7782-1.9851.1826.0658.3546.1284.5267.191l-.4039-.2123a28.9534,28.9534,0,0,0-8.9365,1.5988c-6.866,2.1391-13.7386,4.2687-20.5339,6.6181-3.1582,1.0919-6.15,2.67-9.2025,4.0608-1.44.6563-2.8452,1.3908-4.1415,2.0286-1.1859-.6216-1.0336-1.3572-.5254-2.0572,1.481-2.04,3.7381-2.93,5.9341-3.8952a177.3076,177.3076,0,0,1,27.2252-9.1976C55.5176,17.671,71.5426,14.711,87.634,12.0573c12.4589-2.0546,24.9041-4.1922,37.3581-6.2768,1.0834-.1814,2.1869-.2431,3.55-.3892a8.6269,8.6269,0,0,1,.3414,2.3694,100.7464,100.7464,0,0,1-4.9155,19.49c-1.6442,4.4331-4.5348,6.67-9.1609,7.13-4.612.4592-9.1946,1.2052-13.7981,1.7595q-11.9046,1.4335-23.82,2.7744a21.0774,21.0774,0,0,1-6.0169.1849c.0177-1.6326,1.12-1.73,1.8458-2.2468.8414-.5994,2.321-.4713,2.387-2.0023.4811.0327.9553.0665,1.4294.1l.0093-.1228Zm-6.7718-7.7343a14.5353,14.5353,0,0,0-1.6989.58c-.6541.3122-1.26.7258-1.8877,1.0771l-.6412-.2739.5622.411a13.9986,13.9986,0,0,1,2.0768-.52,1.7149,1.7149,0,0,0,1.578-1.2609l1.7071.1959.0195-.2087ZM62.59,20.4821c3.4924.4046,6.0316-.6872,8.65-1.0538,2.52-.3529,5.0022-.9833,7.5015-1.489,2.6553-.5372,5.3124-1.066,7.9668-1.6079,2.4988-.51,5.0332-.8974,7.4817-1.5877,2.4028-.6774,5.058-.6406,7.4742-2.3233-7.8134-.0561-29.9522,4.7807-36.45,6.6587A17.4318,17.4318,0,0,0,62.59,20.4821ZM79.9969,29.678c1.9651.98,3.12.8418,4.2171-.2655Zm9.1986-10.0713.0684-.475-1.4426.1121.0256.3629Z"/><path class="cls-1" d="M297.54,95.1936c7.9166-2.9784,17.7393-4.6706,22.7887-3.907-1.1023,1.8161-3.592,1.1389-5.0751,3.0137a16.94,16.94,0,0,0,2.7095-.02c5.19-.9344,10.3728-1.9149,15.5536-2.9023a27.0449,27.0449,0,0,1,8.0451-.306c.4622,1.2843-.4092,1.463-1.13,1.6441-7.9027,1.9866-15.8241,3.9-23.711,5.9468-3.0662.7957-6.2589,1.3015-9.8519,3.5421,2.3945-.4971,3.9128-.7275,5.3837-1.1309,13.2646-3.6377,26.75-6.292,40.2151-9.0306a57.6149,57.6149,0,0,1,6.18-.8284c2.5737-.2377,3.47-.0178,6.7994,1.3575-15.8235,3.4123-31.409,6.063-46.2806,11.6513,2.93-.6114,5.8587-1.2286,8.79-1.8329q17.1408-3.5339,34.2808-7.07c2.8114-.5848,5.649-1.111,8.1764-2.6275a5.1854,5.1854,0,0,1,1.8041-.5426c.2615-.0434.77.1446.8167.32a1.5715,1.5715,0,0,1-.0754,1.2262,8.381,8.381,0,0,1-4.6407,2.2932c-6.3758,1.5121-12.7368,3.0874-19.1191,4.5714-18.9942,4.4164-37.9677,8.9052-56.609,14.6873-2.7309.8471-5.5526,1.4011-8.3852,2.1038-2.7742-3.4337-3.2423-7.4822-4.23-11.2777-.9941-3.8212-2.6191-7.5222-2.7527-11.7081a7.2954,7.2954,0,0,1,1.791-.7639c7.7586-.9165,15.5228-1.7865,23.4815-2.69-.6292,2.0973-2.4245,1.83-3.5548,2.57-.6553.4288-1.4962.632-1.3743,1.6748-.3-.0522-.5941-.1059-.8885-.16Zm5.628,2.062-1.2734.88c.8551.4722.8765-.3789,1.1978-.7353.1395-.057.2863-.1708.4161-.1537.1111.0146.2026.1788.3029.2769Zm13.0176,7.4542-.7618.061c.0959.0833.18.2062.2909.2391a.6424.6424,0,0,0,.3968-.0346C316.1632,104.9542,316.1623,104.8031,316.1854,104.71Z"/><path d="M53.74,70.0448a121.4592,121.4592,0,0,1-30.6438-.8183c-.3149-.05-.6195-.1715-.9349-.21-.89-.1082-1.6259.162-1.7741,1.1241a1.5283,1.5283,0,0,0,1.2987,1.7253,23.1042,23.1042,0,0,0,3.2672.73,216.18,216.18,0,0,0,33.96,2.1589,37.3516,37.3516,0,0,1,7.2123.4016c-1.244.1173-2.49.2195-3.7315.3557-1.5893.1744-3.1716.4275-4.7643.551-1.4331.1112-2.877.1456-4.3148.1236-9.915-.151-19.8367-.2292-29.6021-2.3187a2.373,2.373,0,0,0-1.4016.096,1.7633,1.7633,0,0,0-.8873,1.0037c-.102.385.0232,1.1151.2877,1.2614a9.3568,9.3568,0,0,0,3.0261,1.2469c4.9014.7107,9.822,1.29,14.7363,1.91a4.1974,4.1974,0,0,1,2.3126.7752,17.4215,17.4215,0,0,1-2.4373.214c-4.464-.2143-8.9659.04-13.3629-1.062a6.1609,6.1609,0,0,0-1.9054-.1452c-.8218.0584-1.6091.3489-1.6732,1.3371a1.6961,1.6961,0,0,0,1.2892,1.7922,19.6315,19.6315,0,0,0,3.2669.7134c8.7279,1.0745,17.4472,2.2538,26.2605,2.4032a14.3727,14.3727,0,0,1,1.5237.1968c-4.021,1.1049-6.437,1.22-15.3908.3207-5.234-.5258-10.4426-1.3044-15.6013-1.9614-.8744,2.2137-.7233,3.0188.9889,3.4237,2.944.6964,5.9464,1.16,8.9374,1.64,6.656,1.0675,13.3844,1.0152,20.0953,1.2431,2.2179.0753,4.43.3089,6.8505.4851-.96,1.2318-2.0208.8241-2.9313.8548a150.7294,150.7294,0,0,1-22.4791-1.3747q-4.5255-.5255-9.0579-.9885a3.0133,3.0133,0,0,0-1.4111.1093,1.7911,1.7911,0,0,0-.9682.9263,1.3889,1.3889,0,0,0,.2807,1.2585,8.1169,8.1169,0,0,0,2.9482,1.325c6.0273.7367,12.0578,1.6026,18.1134,1.9109,6.8619.3492,13.7514.1471,20.6287.207a17.12,17.12,0,0,1,5.5008.7441,28.72,28.72,0,0,1-3.6155.6312c-8.6271.4284-17.2622.9435-25.8931.2651-4.1377-.3252-8.2467-1.0082-12.3722-1.4994a29.9027,29.9027,0,0,0-3.8029-.2545c-.34.0032-.9578.5388-.9535.8226.0083.5561.2192,1.4252.6036,1.6006a14.4618,14.4618,0,0,0,3.6451,1.1044c2.6817.4362,5.3774.8664,8.0844,1.0552a363.264,363.264,0,0,0,51.2963.4507c1.276-.0914,2.5549-.15,3.8336-.1906.4708-.015.9447.0661,2.383.18a43.1412,43.1412,0,0,1-6.6981,1.4115c-17.57,1.4231-35.14,1.7769-52.7029-.0646-2.701-.2832-5.374-.83-8.0742-1.1263a1.9507,1.9507,0,0,0-1.5032.85,1.4047,1.4047,0,0,0,.7693,1.9761,6.7075,6.7075,0,0,0,2.2514.7277c4.5882.6255,9.17,1.4033,13.7818,1.7212,4.62.3183,9.2747.091,13.91.2293,3.49.1041,6.9732.408,10.8666.6481-.5041.527-.6327.7848-.7743.7921-11.0341.5676-22.0617.7446-33.0407-.8213-1.8949-.27-3.7553-.7883-5.6519-1.037a1.7239,1.7239,0,0,0-1.4547.7766,1.813,1.813,0,0,0,.4313,1.671,9.03,9.03,0,0,0,3.0018,1.3529c2.1774.5018,4.3974.8229,6.6044,1.191a106.4128,106.4128,0,0,0,18.1811,1.05c7.998-.0455,15.9957-.1266,23.9935-.1866,1.7506-.0132,3.5013-.0019,6.04-.0019-5.6811,1.7586-16.4363,2.6264-28.8286,2.5447-9.4369-.0622-18.71-1.699-27.8585-3.056-.9358.9214-.7619,1.75-.0042,2.1518a15.9131,15.9131,0,0,0,3.5581,1.29c9.3944,2.3677,19.0189,2.4514,28.6021,2.5526a216.4341,216.4341,0,0,0,34.4063-2.6165c7.111-1.0664,14.2763-1.7747,21.4206-2.6145,5.711-.6713,11.4265-1.305,17.1421-1.9362a5.4933,5.4933,0,0,1,1.9044.148c-5.8716,1.6966-11.92,2.4233-17.9317,3.2864-8.8611,1.2723-17.7345,2.4816-26.6268,3.5077C76.825,117.8583,63.436,119.01,49.973,118.5762a114.675,114.675,0,0,1-19.4862-2.4346c-4.3776-.9027-6.6731-3.4745-7.26-7.7626q-.8778-6.4164-1.6914-12.8415c-1.7431-13.8264-4.1934-27.4972-8.6866-40.74-.9114-2.6864-1.8781-5.4292-.9535-8.4741,1.6834-.7252,3.1777.2416,4.7039.3279a42.28,42.28,0,0,1,4.2927.4594,143.3033,143.3033,0,0,0,32.0435,1.6133c7.4912-.4884,14.9679-1.352,22.4158-2.32,13.1565-1.7092,26.2864-3.6232,39.4267-5.4566,3.7893-.5287,7.5761-1.0753,11.6693-1.6571a6.8,6.8,0,0,1-4.1177,1.6433c-7.5761,1.2011-15.1393,2.4882-22.726,3.6175C89.8012,46.01,79.9707,47.283,70.17,48.7541A202.7559,202.7559,0,0,1,22.8143,50.489c-1.588-.1344-3.1889-.138-4.784-.1441-.247-.001-.4951.3123-.7705.4991.5424,1.5649,1.97,1.4471,3.1654,1.531,5.7428.4036,11.4872.8562,17.2391,1.039,6.0732.193,12.1554.1026,18.2337.1321a30.3167,30.3167,0,0,1,4.797.2648,31.5968,31.5968,0,0,1-8.3074,1.4407,223.0317,223.0317,0,0,1-26.8523-.4453c-2.2272-.182-4.4717-.2366-6.7057-.1988a7.0286,7.0286,0,0,0-2.17.904c1.6708,1.9128,3.6391,1.8814,5.5045,1.9384,10.39.317,20.78.6218,31.1722.8325,4.6362.094,9.2772-.0585,13.916-.0625a21.1973,21.1973,0,0,1,4.1218.3929,34.592,34.592,0,0,1-9.8415,1.5187c-5.9137.2142-11.828.4158-17.7405.66a141.9151,141.9151,0,0,1-21.0586-1.1412c-1.2665-.1361-2.5348-.3091-3.8042-.3278-.3518-.0052-1.0044.4823-1.0055.7461-.0026.556.1872,1.4425.5594,1.6091a13.1058,13.1058,0,0,0,3.6383,1.0651c3.9637.505,7.9344,1.0914,11.9192,1.2685a243.3806,243.3806,0,0,0,29.7256-.5973,58.6236,58.6236,0,0,1,11.43-.108,116.1486,116.1486,0,0,1-17.8686,1.9389c-6.2189.3593-12.4561.4094-18.6858.5731-6.0423.1587-12.04-1.2831-18.0455-.7694-.3085,1.3122.3861,1.682,1.2036,1.775,3.4949.3975,6.9955.747,10.4957,1.0967Q43.0169,68.9916,53.74,70.0448Z"/><path d="M127.9389,59.5585a5.5469,5.5469,0,0,0-1.5133-.0715c-.9769.255-1.9229.3967-2.6321-.4734a3.6868,3.6868,0,0,1-.4321-3.6226,1.8424,1.8424,0,0,1,.9529-.98,9.9445,9.9445,0,0,1,2.2849-.65c5.8221-.9832,11.6431-1.976,17.4777-2.88a53.366,53.366,0,0,1,6.6716-.6528c7.2493-.2012,11.469,5.6937,8.9585,12.5474a30.3712,30.3712,0,0,1-2.33,4.1473c-.2985.5326-.5425,1.0958-.748,1.5157.5723,1.7056,2.04,1.75,3.1494,2.2017a7.99,7.99,0,0,1,5.1078,6.9576,20.1536,20.1536,0,0,1-1.07,8.9651,7.92,7.92,0,0,1-5.6732,5.3647,12.0422,12.0422,0,0,1-1.8487.4937c-6.5372.7018-12.8182,2.5859-19.1782,4.1075a33.4845,33.4845,0,0,1-3.7539.7458,3.8471,3.8471,0,0,1-3.45-1.3022,3.0458,3.0458,0,0,1-.6829-3.5029c5.4407-.8821,5.5855-1.01,4.5411-6.3175-1.6026-8.1439-3.2887-16.2714-4.9738-24.3988A13.8534,13.8534,0,0,0,127.9389,59.5585Zm9.6029,16.188A62.6609,62.6609,0,0,0,139.2141,89.88c5.1191.6769,9.7876-.341,14.3457-1.5744,4.5638-1.235,6.5334-4.8012,5.8488-9.5451-.6641-4.602-2.7675-6.5033-7.3926-6.1454C147.263,72.9828,142.6811,74.3023,137.5418,75.7465Zm17.4256-15.35c.1581-3.76-1.65-5.9513-5.3128-5.7315a93.7105,93.7105,0,0,0-11.3406,1.539c-2.3449.4326-3.4858,2.0167-3.704,4.38a13.9778,13.9778,0,0,0,1.3081,6.9712,3.4666,3.4666,0,0,0,4.24,2.2547q4.2276-.7167,8.4215-1.6291C152.6042,67.3045,154.7912,64.5894,154.9674,60.3963Z"/><path d="M193.8728,55.3928c2.4913-.1364,3.6882.9677,4.08,2.9142a43.4082,43.4082,0,0,1,.6737,5.2279c.2064,2.6753.1514,2.6916-2.9013,4.0219-.2984-.1017-.6934-.1151-.88-.3192-2.1345-2.3294-4.6146-2.548-7.4072-1.37-1.1516.4857-2.3731.8058-3.6275,1.2228-.63,3.7426.3372,7.1281,1.2711,10.4841a3.745,3.745,0,0,0,3.951,2.8721c1.7543-.031,3.51-.1535,5.2583-.3058,1.43-.1245,2.8472-.4644,4.2764-.51,2.4156-.0764,4.3821-.7032,5.3493-3.1993a2.26,2.26,0,0,1,2.7275-1.4162A2.6794,2.6794,0,0,1,208.85,77.27a17.8065,17.8065,0,0,1,.3554,3.317c.0225,1.3743-.6363,2.2713-1.9061,2.2844-7.7886.0805-15.0125,2.97-22.5249,4.4076a42.4188,42.4188,0,0,1-6.1638.72,3.5728,3.5728,0,0,1-4.0945-3.6026c.1977-.33.2962-.7474.5269-.8422,3.5965-1.4769,4.3408-4.3918,4.0207-7.8566a18.3958,18.3958,0,0,0-.328-2.8556c-1.5487-6.0612-2.09-12.277-2.9131-18.45a20.1059,20.1059,0,0,0-.4607-2.3487,2.9686,2.9686,0,0,0-2.5279-2.5312c-.3158-.044-.7307.0043-.9245-.1773a4.5265,4.5265,0,0,1-1.4047-1.6852c-.2516-.8573.4353-1.4749,1.2533-1.7484a16.7,16.7,0,0,1,2.3165-.6034c8.016-1.4493,16.0428-2.84,24.05-4.3353,3.7806-.7059,5.5463-.362,4.909,4.8684-.26,2.1342-2.006,3.1274-3.7695,1.8115-2.9135-2.1741-5.8472-2.0525-9.0885-1.1328-2.14.6074-4.4045.7625-6.5891,1.2327-2.3187.4992-2.9837,1.263-3.1289,3.5754a14.2663,14.2663,0,0,0,.8877,7.06c1.29,2.7979,2.7709,3.6169,5.7014,3,.9307-.1959,1.8136-.6093,2.737-.8526a4.2006,4.2006,0,0,0,3.3716-3.6064A7.2917,7.2917,0,0,1,193.8728,55.3928Z"/><path d="M222.149,72.91c-.4182-4.1153-.7666-7.9219-1.2-11.7187-.5441-4.7618-1.1581-9.5157-1.7422-14.2729-.0584-.4755-.0861-.9578-.1851-1.4248-.3279-1.5469-1.1019-2.6313-2.8491-2.7126a4.1279,4.1279,0,0,1-1.4-.2513,2.279,2.279,0,0,1-1.2724-2.3545,1.7617,1.7617,0,0,1,1.7714-1.86c2.5341-.33,5.0743-.6156,7.6155-.8885q9.291-.9977,18.5859-1.9579a33.3107,33.3107,0,0,1,4.7787-.2518,2.8088,2.8088,0,0,1,2.0085,1.0042,6.932,6.932,0,0,1,.5526,5.1165,3.83,3.83,0,0,1-3.1261,3.2825c-.3138-.3489-.758-.6383-.9035-1.0368-1.1423-3.129-3.5475-3.8368-6.5333-3.5409-3.0152.2987-6.0348.5537-9.05.8563a12.8172,12.8172,0,0,0-2.3526.4144c-2.5455.7538-3.3948,1.8809-3.1341,4.5732.23,2.3723.7214,4.7192,1.0884,7.0216,2.5662,1.6062,5.1545.644,7.6327.673a8.4811,8.4811,0,0,0,6.3973-2.7408c1.7084-1.737,3.6571-1.09,4.2654,1.2541.6764,2.6073,1.4782,5.2968-1.1495,7.7283-2.2208-.5462-3.9718-2.7981-6.524-2.3278-3.0962.57-6.3635.4311-9.3477,2.0656a23.2,23.2,0,0,0,.0455,7.6444c.6489,3.7862,2.7289,5.502,6.5528,5.7057a9.1315,9.1315,0,0,0,1.4369.0044c4.1149-.435,8.2279-.8877,12.6087-1.3643.5563-1.3334,1.1456-2.7456,1.721-4.1247,3.5385.2236,4.2118.7448,4.6538,3.5349a4.7875,4.7875,0,0,1-1.0782,4.4166c-4.0789.5556-8.4935,1.184-12.9158,1.7522-5.2276.6718-10.4608,1.3007-15.6945,1.9243a10.3642,10.3642,0,0,1-2.3834.06,2.755,2.755,0,0,1-2.2628-2.2018,1.9858,1.9858,0,0,1,1.05-2.4057C220.4689,74.0756,221.1118,73.62,222.149,72.91Z"/><path d="M269.4656,55.6805c-.1787,2.2649-.3108,4.4712-.5366,6.6679-.2876,2.7968.4754,5.02,3.0718,6.4564,1.2958.7169,2.37,1.6714,1.7357,3.6389a22.2807,22.2807,0,0,1-8.1709,1.9264c-1.8507.036-3.4962-.4953-3.8179-2.6924,3.2918-3.4666,3.2523-3.463,2.7637-8.7558-.6458-6.9972-1.2218-14.0008-1.8289-21.0015-.0414-.4775-.0753-.9566-.1408-1.431-.3764-2.7271-.4153-2.7648-3.1484-3.217-.4679-.0774-1.033-.002-1.3843-.2432-.4837-.3323-1.1406-.9133-1.1211-1.3614a3.2935,3.2935,0,0,1,.9341-2.0122,3.4619,3.4619,0,0,1,1.7988-.5287c5.68-.8953,11.3608-1.9072,17.1381-1.6169a49.929,49.929,0,0,1,7.5732,1.0273,8.7886,8.7886,0,0,1,6.7926,6.109c.211.6029.461,1.1949.632,1.8089,1.4974,5.3781.6348,7.7708-3.9757,11.06-.52.3708-1.0955.6694-1.587,1.0726-1.5483,1.27-1.8768,2.3557-1.0775,4.1988.8885,2.0486,1.8843,4.0533,2.9,6.0433,1.4191,2.7815,3.5547,4.4568,6.8545,4.295,1.112-.0546,2.3593-.1088,2.7754,1.2679.3553,1.1757-.8445,2.6007-2.6767,2.7829-2.8482.2832-5.7273.3156-8.5937.3255a1.9242,1.9242,0,0,1-1.8993-1.8167,4.09,4.09,0,0,1-.059-.9529c.4745-6.1671-3.4612-9.6482-7.9-12.7077C274.4209,54.5788,272.026,54.7946,269.4656,55.6805Zm7.8835-20.1286c-2.522.2694-4.6058.3811-6.6469.7378-2.5926.4531-3.614,1.7144-3.4824,4.3064.105,2.0684.4267,4.1291.7163,6.1842.3723,2.6419,1.4746,3.8043,4.1332,3.5291a88.6477,88.6477,0,0,0,12.2732-1.9823c3.5106-.874,4.8185-4.2091,3.533-7.6536A6.9525,6.9525,0,0,0,282.6,36.2388,47.7873,47.7873,0,0,0,277.3491,35.5519Z"/><path d="M346.7541,53.2787l2.7326.5156a6.0466,6.0466,0,0,1,.2224,1.8548c-.8257,4.0315-2.596,7.6568-6.0832,9.9137a20.409,20.409,0,0,1-19.6308,1.92,16.76,16.76,0,0,1-9.8264-11.0654,10.1135,10.1135,0,0,1-.2053-1.906l3.9223-1.0185c.1266-2.7719.2481-5.432.38-8.3164l4.1759.4173c1.8534-5.4845,6.2149-8.5312,10.9939-11.0206a62.43,62.43,0,0,0,5.1732,3.5864c2.4579,1.371,3.9693,3.1237,3.605,6.1052a5.536,5.536,0,0,0,.3338,1.55l3.5806.6492C347.7115,48.5522,346.38,50.8367,346.7541,53.2787Zm-28.4759,5.0018c.3956,2.96,2.3675,4.1546,4.1483,5.4724a11.8132,11.8132,0,0,0,6.0612,2.6485,7.04,7.04,0,0,0,1.8927-.14,3.3608,3.3608,0,0,0,3.1-3.1382c.2973-1.8892.52-3.7932.691-5.6984.1435-1.6007.036-3.1663-1.5481-4.3178-4.6028,1.9746-3.7087,5.9834-3.3115,9.9513C325.4035,61.7157,322.823,58.2647,318.2782,58.2805ZM343.4694,49.06c-1.343.5787-2.354.9925-3.345,1.45a13.6484,13.6484,0,0,0-1.6711.911,4.4515,4.4515,0,0,0-2.0482,3.0767,1.5929,1.5929,0,0,0,1.494,1.971,7.2775,7.2775,0,0,0,5.0082-2.46C344.0017,52.7252,344.3482,51.2365,343.4694,49.06Zm1.4621,9.8451c-2.717-1.0062-4.5915.1039-6.3463,1.3683-1.7368,1.2516-2.1106,2.2869-2.1071,4.9165A11.3792,11.3792,0,0,0,344.9315,58.9048Zm-10.8693-20.927c-1.3575,1.63-3.4757,2.1424-3.7705,4.5471l2.1183,2.267C336.785,42.2838,337.0063,41.5387,334.0622,37.9778Zm-12.67,12.6163c-.7248,1.7713-.0406,3.3667.7324,4.8777a2.2581,2.2581,0,0,0,2.4314,1.0776A1.4376,1.4376,0,0,0,326,55.0178C325.88,52.6966,324.2642,51.1674,321.3918,50.5941Zm17.3-6.2489c-2.4477.6739-3.7028,2.1116-3.6563,4.4971a2.1756,2.1756,0,0,0,.9518,1.426c.2508.1734.972-.0412,1.2916-.3082A4.5552,4.5552,0,0,0,338.6921,44.3452Zm-9.4936,6.8554c-.71-3.7678-.71-3.7678-2.5749-5.5062-.3749.91-1.0277,1.73-.962,2.4879C325.8133,49.9335,327.0144,50.856,329.1985,51.2006Z"/><path d="M182.1757,100.5716c4.93-1.2737,9.8381-2.6448,14.7954-3.8038A542.2881,542.2881,0,0,1,252.1176,86.9a386.0436,386.0436,0,0,1,46.8083-3.439,46.615,46.615,0,0,1,6.2481.27,18.0335,18.0335,0,0,1-6.6168,1.0487A292.2866,292.2866,0,0,0,267.03,87.1973q-17.5787,2.2408-35.0659,5.1852c-16.5194,2.7752-32.9884,5.85-49.479,8.7973Z"/><path d="M371.4981,26.8175l-2.026-1.6055a2.9937,2.9937,0,0,1,.4677-.5949,8.5146,8.5146,0,0,0,1.5275-1.1005,1.82,1.82,0,0,0-.574-2.8288,14.2227,14.2227,0,0,0-2.7012-.8827,49.6094,49.6094,0,0,1-5.098-1.2856c2.7566-.7436,5.6874.09,8.2474-.5863.4-1.3677-.0669-2.0106-.9333-2.16-1.8806-.3248-3.781-.5679-5.683-.7289-4.6069-.39-9.22-.7076-13.8287-1.075a19.6728,19.6728,0,0,1-2.2228-.559,16.0839,16.0839,0,0,1,2.8763-.52c6.362.3725,12.7284.7084,19.0775,1.2451,3.049.2577,4.0261,1.3995,3.7868,4.3438-.4774,5.8756-1.1419,11.7366-1.7827,17.5978a11.631,11.631,0,0,1-.7513,2.7484,2.2093,2.2093,0,0,1-2.2658,1.4438c-1.4226-.0468-2.8933-.1157-4.1461-1.5981a36.0765,36.0765,0,0,0,3.7232-.1862c.7874-.1183,1.6056-.601,1.5061-1.5484a2.1462,2.1462,0,0,0-.9346-1.4756,35.7129,35.7129,0,0,0-3.7819-1.5006c.7436-.9848,1.7228-.6281,2.467-.8677.7176-.2311,1.4191-.5116,2.3675-.858-1.6554-3.0656-5.0833-2.17-7.3983-4.27,1.6673.1171,2.9427.2294,4.2205.29C368.9,28.3141,370.2175,28.5128,371.4981,26.8175Z"/><path d="M367.2238,74.3288a8.8009,8.8009,0,0,0,2.7311-.5706,2.0989,2.0989,0,0,0-.3-3.8011,19.6717,19.6717,0,0,0-2.9913-.7729h4.8387a29.9251,29.9251,0,0,1,1.8389,14.251A3.7068,3.7068,0,0,1,369.97,84.72c-6.0546-.2909-12.11-.58-18.1608-.9308a10.3627,10.3627,0,0,1-4.58-1.2512,12.877,12.877,0,0,1,2.021-.329q7.6539-.0529,15.3082-.03c1.4326.004,2.87.1959,4.2945.1188.3958-.0214.7561-.6985,1.1894-1.1315-1.5875-1.8015-3.9214-1.0057-5.6561-2.5768,1.9962-.0628,3.7069-.0335,5.3927-.224a1.726,1.726,0,0,0,1.1861-1.1782,2.0194,2.0194,0,0,0-.9477-1.434c-.8685-.546-2.332-.0319-2.6987-1.5183Z"/><path d="M147.6713,36.5963a2.121,2.121,0,0,1,1.8139-1.2934c9.49-1.9044,18.9727-3.848,28.46-5.7653,4.1817-.8451,8.3708-1.6541,12.5565-2.48l-.0112.0031a2.0318,2.0318,0,0,1-1.7286,1.3739c-7.31,1.5555-14.5882,3.2709-21.9178,4.727-6.3926,1.27-12.84,2.2658-19.2625,3.3828Z"/><path d="M226.6775,22.47a12.7019,12.7019,0,0,1,2.124-.94c9.3926-1.7535,18.9161-2.3651,29.0218-3.4288-3.5579,1.9382-6.9612,1.73-10.1537,2.3772-3.2657.6619-6.6116.9306-9.9236,1.3622C234.2979,22.2894,230.8685,23.0688,226.6775,22.47Z"/><path d="M89.2793,49.8732c-6.29,2.19-11.7293,2.6676-17.8933,3.245,1.6154-1.9195,3.3393-1.79,4.7283-2.071C80.0717,50.248,84.04,49.1774,89.2793,49.8732Z"/><path d="M81.1293,105.8081c3.9908-1.5191,8.0566-2.0044,15.8741-2.0686-.0237.1909.0028.4861-.074.516a9.3823,9.3823,0,0,1-2.243.7581q-4.27.4806-8.56.7774C84.7077,105.89,83.2767,105.8081,81.1293,105.8081Z"/><path d="M114.2945,107.1781c-5.7129,1.8837-10.8141,2.2246-16.3225,2.5263C100.8286,107.9192,106.2723,107.0879,114.2945,107.1781Z"/><path d="M58.0816,80.7754c2.0852-1.6583,4.3341-1.0638,6.74-1.1988C62.3125,81.0975,62.3125,81.0975,58.0816,80.7754Z"/><path d="M73.6285,69.4134c2.6559-1.816,4.9778-1.64,7.3227-1.32A16.4273,16.4273,0,0,1,73.6285,69.4134Z"/><path d="M80.6577,89.4348a10.2074,10.2074,0,0,1-5.9789.9739A6.71,6.71,0,0,1,80.6577,89.4348Z"/><path d="M271.6837,17.8386c1.5909-1.3371,3.3607-1.7269,6.1388-1.3191Z"/><path d="M327.2232,83.8958c1.3879-.9767,2.9091-1.63,4.7579-.5489-.5023.2842-.7331.5238-.9709.531C329.7489,83.916,328.4858,83.8958,327.2232,83.8958Z"/><path d="M190.5022,27.0581h3.5872l-.0166.2841q-1.7883-.1413-3.5793-.2818Z"/><path d="M147.5821,36.5449l-3.1821.4026-.0417-.3759c1.0925,0,2.185,0,3.2953.0124C147.6713,36.5963,147.5821,36.5449,147.5821,36.5449Z"/><path d="M367.3184,74.2352l-2.9462.2847a2.1729,2.1729,0,0,1,2.8411-.18C367.2238,74.3288,367.3184,74.2352,367.3184,74.2352Z"/><path d="M138.7755,108.8413l-.246-.2274c.1239-.04.2759-.1436.3645-.1043.1113.0494.1707.2158.2525.3317Z"/><path d="M355.4953,114.5858c22.594-2.447,45.1826-4.88,68.7421-4.1749a20.1128,20.1128,0,0,1-7.6807,1.3745c-9.3956.3736-18.7948.68-28.1845,1.1674-6.5246.339-13.0389.897-19.552,1.4279A91.5407,91.5407,0,0,1,355.4953,114.5858Z"/><path d="M469.6318,46.3665c4.8779-1.9329,9.909-1.7034,14.9343-1.2236a7.4353,7.4353,0,0,1,2.2787,1.0675c-.2979,1.4023-1.1826,1.3569-1.9332,1.3044C479.8165,47.1589,474.7247,46.755,469.6318,46.3665Z"/><path d="M422.4723,43.5174c3.6755-.4024,7.4318-1.3642,10.96.6476C429.748,44.7479,426.0846,44.9829,422.4723,43.5174Z"/><path d="M482.7025,51.949a32.1666,32.1666,0,0,1-12.5834-.7554C474.8036,50.1164,479.2805,50.3455,482.7025,51.949Z"/><path d="M463.2313,110.3574l15.6523.9573C475.0418,112.4263,470.3651,112.15,463.2313,110.3574Z"/><path d="M412.9024,48.1028c-2.1528.62-3.9724.3014-6.0785.4307C409.6,46.8372,409.65,46.8334,412.9024,48.1028Z"/><path d="M481.9626,56.6415a8.3073,8.3073,0,0,1-6.252-.8576C477.9207,55.6067,479.592,55.34,481.9626,56.6415Z"/><path d="M449.7148,109.5313c-1.8262.5749-3.4592.8983-5.0669,0Z"/><path d="M350.2487,115.4775h-4.1222l-.0142-.1612,3.9438-.1921Z"/><path d="M457.0268,49.2894h-3.82c.1373-.3186.2255-.6958.3107-.6951,1.2333.01,2.4661.0714,3.6991.12Z"/><path d="M337.83,116.4836h-3.2585l-.0076-.1775h3.35Z"/><path d="M400.46,70.064h3.0679l.0044.2338h-3.07Z"/><path d="M410.0351,104.8529h1.3256l-.0007.1345h-1.3256Z"/><path d="M477.0775,60.8259l-1.2366-.1551c.0567-.092.1217-.2676.1685-.2629.37.0377.7375.11,1.1056.1711Z"/><path d="M62.59,20.4821a17.4318,17.4318,0,0,1,2.624-1.403c6.4977-1.878,28.6365-6.7148,36.45-6.6587-2.4162,1.6827-5.0714,1.6459-7.4742,2.3233-2.4485.69-4.9829,1.0776-7.4817,1.5877-2.6544.5419-5.3115,1.0707-7.9668,1.6079-2.4993.5057-4.981,1.1361-7.5015,1.489C68.6218,19.7949,66.0826,20.8867,62.59,20.4821Z"/><path d="M79.9969,29.678l4.2171-.2655C83.1166,30.52,81.962,30.6583,79.9969,29.678Z"/><path d="M65.07,28.77c.6266-.37,1.2323-.7834,1.8864-1.0956a14.5353,14.5353,0,0,1,1.6989-.58l-.0193.0156a1.697,1.697,0,0,1-1.57,1.2581,13.9986,13.9986,0,0,0-2.0768.52Z"/><path d="M89.1955,19.6067H87.8469l-.0256-.3629,1.4426-.1121Z"/><path d="M75.427,34.8286h1.4163l-.0093.1228c-.4741-.0339-.9483-.0677-1.4294-.1C75.3976,34.8522,75.427,34.8286,75.427,34.8286Z"/><path d="M68.6552,27.0943H70.371l-.0195.2087c-.569-.0653-1.138-.1306-1.7114-.1945C68.6359,27.11,68.6552,27.0943,68.6552,27.0943Z"/><path d="M49.8922,22.5884l.4039.2123c-.1721-.0626-.3441-.1252-.5267-.191A1.0235,1.0235,0,0,1,49.8922,22.5884Z"/><path d="M64.99,28.8882l-.5622-.411c.2137.0913.4274.1826.6418.2832A1.3836,1.3836,0,0,1,64.99,28.8882Z"/><path d="M303.0917,97.3823c-.3208.3743-.3422,1.2254-1.1973.7532l1.2734-.88Z"/><path d="M316.1854,104.71c-.0231.0927-.0222.2438-.0741.2649a.6424.6424,0,0,1-.3968.0346c-.1109-.0329-.195-.1558-.2909-.2391Q315.8044,104.74,316.1854,104.71Z"/><path d="M297.54,95.1936l-.8618-.1955c.2944.0537.5888.1074.8885.16C297.5717,95.156,297.54,95.1936,297.54,95.1936Z"/><path d="M303.1678,97.2556l.6434.2678c-.1-.0981-.1918-.2623-.3029-.2769-.13-.0171-.2766.0967-.4164.1447C303.0917,97.3823,303.1678,97.2556,303.1678,97.2556Z"/><path class="cls-1" d="M137.5418,75.7465c5.1393-1.4442,9.7212-2.7637,14.4742-3.1316,4.6251-.3579,6.7285,1.5434,7.3926,6.1454.6846,4.7439-1.285,8.31-5.8488,9.5451-4.5581,1.2334-9.2266,2.2513-14.3457,1.5744A62.6609,62.6609,0,0,1,137.5418,75.7465Z"/><path class="cls-1" d="M154.9674,60.3963c-.1762,4.1931-2.3632,6.9082-6.388,7.784q-4.19.9117-8.4215,1.6291a3.4666,3.4666,0,0,1-4.24-2.2547,13.9778,13.9778,0,0,1-1.3081-6.9712c.2182-2.363,1.3591-3.9471,3.704-4.38a93.7105,93.7105,0,0,1,11.3406-1.539C153.3174,54.445,155.1255,56.6358,154.9674,60.3963Z"/><path class="cls-1" d="M277.3491,35.5519a47.7873,47.7873,0,0,1,5.251.6869,6.9525,6.9525,0,0,1,5.2754,4.4347c1.2855,3.4445-.0224,6.78-3.533,7.6536a88.6477,88.6477,0,0,1-12.2732,1.9823c-2.6586.2752-3.7609-.8872-4.1332-3.5291-.29-2.0551-.6113-4.1158-.7163-6.1842-.1316-2.592.89-3.8533,3.4824-4.3064C272.7433,35.933,274.8271,35.8213,277.3491,35.5519Z"/><path class="cls-1" d="M318.2782,58.2805c4.5448-.0158,7.1253,3.4352,11.0336,4.7773-.3972-3.9679-1.2913-7.9767,3.3115-9.9513,1.5841,1.1515,1.6916,2.7171,1.5481,4.3178-.1707,1.9052-.3937,3.8092-.691,5.6984a3.3608,3.3608,0,0,1-3.1,3.1382,7.04,7.04,0,0,1-1.8927.14,11.8132,11.8132,0,0,1-6.0612-2.6485C320.6457,62.4351,318.6738,61.2408,318.2782,58.2805Z"/><path class="cls-1" d="M343.4694,49.06c.8788,2.1768.5323,3.6655-.5621,4.948a7.2775,7.2775,0,0,1-5.0082,2.46,1.5929,1.5929,0,0,1-1.494-1.971,4.4515,4.4515,0,0,1,2.0482-3.0767,13.6484,13.6484,0,0,1,1.6711-.911C341.1154,50.0522,342.1264,49.6384,343.4694,49.06Z"/><path class="cls-1" d="M344.9315,58.9048a11.3792,11.3792,0,0,1-8.4534,6.2848c-.0035-2.63.37-3.6649,2.1071-4.9165C340.34,59.0087,342.2145,57.8986,344.9315,58.9048Z"/><path class="cls-1" d="M334.0622,37.9778c2.9441,3.5609,2.7228,4.306-1.6522,6.8141l-2.1183-2.267C330.5865,40.12,332.7047,39.6083,334.0622,37.9778Z"/><path class="cls-1" d="M321.3918,50.5941c2.8724.5733,4.4884,2.1025,4.6082,4.4237a1.4376,1.4376,0,0,1-1.4444,1.5316,2.2581,2.2581,0,0,1-2.4314-1.0776C321.3512,53.9608,320.667,52.3654,321.3918,50.5941Z"/><path class="cls-1" d="M338.6921,44.3452a4.5552,4.5552,0,0,1-1.4129,5.6149c-.32.267-1.0408.4816-1.2916.3082a2.1756,2.1756,0,0,1-.9518-1.426C334.9893,46.4568,336.2444,45.0191,338.6921,44.3452Z"/><path class="cls-1" d="M329.1985,51.2006c-2.1841-.3446-3.3852-1.2671-3.5369-3.0183-.0657-.7579.5871-1.5782.962-2.4879C328.4881,47.4328,328.4881,47.4328,329.1985,51.2006Z"/></g></g></svg>