<svg xmlns="http://www.w3.org/2000/svg" viewBox="0 0 263.7793 158.5059"><defs><style>.cls-1{fill:#fff;}</style></defs><g id="Слой_2" data-name="Слой 2"><g id="Слой_1-2" data-name="Слой 1"><g id="craft"><path class="cls-1" d="M74.3442,63.531c-1.0279-.6919-2.114-1.3253-3.09-2.0979-3.134-2.4816-3.7041-5.415-1.8057-8.9115a8.7456,8.7456,0,0,1,4.644-3.98A5.1943,5.1943,0,0,1,81.44,52.984c.194,1.8887.0337,3.8138.0337,5.9868.8824.291,1.7375.6137,2.615.8549a23.9288,23.9288,0,0,1,7.2509,3.632A7.4848,7.4848,0,0,1,94.8325,69.93a54.7644,54.7644,0,0,1-.5976,8.5769c-.6314,3.7781-1.6848,7.484-2.48,11.2372a13.9322,13.9322,0,0,0-.3821,3.7887c.1653,2.3877,1.9434,3.4225,4.0578,2.3235a20.2692,20.2692,0,0,0,4.7808-3.1614c4.139-3.996,8.1852-8.0976,12.08-12.3309a12.0658,12.0658,0,0,0,1.9648-4.2856c1.3963-4.08,2.5-8.27,4.07-12.2782a36.0138,36.0138,0,0,1,9.4983-13.6834,15.5444,15.5444,0,0,1,14.2038-3.9714,9.3569,9.3569,0,0,1,5.0366,2.5859,2.0911,2.0911,0,0,1-.258,3.31c-1.5386,1.0941-3.1423,1.5868-4.8632.3695a17.2551,17.2551,0,0,0-1.9478-1.38c-2.0753-1.0681-3.5311-.905-5.2016.8186a16.3072,16.3072,0,0,0-2.8447,3.8247,36.2982,36.2982,0,0,0-3.7669,19.9827c.1644,1.912.4139,4.0444,2.4586,4.8829,2.277.9339,3.9422-.6554,5.514-2.0257a10.3331,10.3331,0,0,0,3.94-7.9041,17.4674,17.4674,0,0,1,.2024-2.869,7.4689,7.4689,0,0,1,7.514-6.1164,2.1922,2.1922,0,0,1,2.43,1.857c.5239,6.36,1.7459,12.7206.4639,19.1114a8.0771,8.0771,0,0,1-8.1453,6.719,2.4624,2.4624,0,0,1-2.8455-2.0011c-.3052-1.2062-.4151-2.4618-.6779-4.1105-1.573.9752-2.88,1.788-4.19,2.5969a16.3724,16.3724,0,0,1-9.0293,2.7639,12.9143,12.9143,0,0,1-9.3279-4.1568c-1.9342.323-2.6684,1.8957-3.6692,3.0537a67.5887,67.5887,0,0,1-10.2386,10.0846,55.8875,55.8875,0,0,1-5.1468,3.5115,18.1064,18.1064,0,0,1-10.0831,2.5835c-5.8426-.2264-9.844-4.6141-9.2952-10.4506a61.6332,61.6332,0,0,1,1.3815-6.56c.9363-4.5363,1.8939-9.0689,2.7515-13.62a7.2264,7.2264,0,0,0-1.3018-5.916,10.2494,10.2494,0,0,0-1.6457-1.3492c-.58,1.0086-1.0938,1.7723-1.4818,2.5953-5.7532,12.2022-12.5124,23.746-21.43,33.9726a54.4,54.4,0,0,1-18.83,13.7688c-7.5143,3.4124-15.2423,3.011-22.88.0647a15.34,15.34,0,0,1-5.4536-3.8238A31.7072,31.7072,0,0,1,.2243,92.1128a67.7345,67.7345,0,0,1,1.14-19.1077A48.281,48.281,0,0,1,8.396,56.2977,80.8521,80.8521,0,0,1,23.643,39.1229c5.0928-4.3683,11.2577-6.677,17.7211-8.0821a13.9769,13.9769,0,0,1,8.0361.6061c3.2487,1.2449,5.4618,3.4806,6.0555,6.8729,1.6106,9.2032.1757,17.84-5.4186,25.5358a13.2923,13.2923,0,0,1-7.6923,5.4031,7.14,7.14,0,0,1-2.342.1563,1.6476,1.6476,0,0,1-1.1667-2.5394c.6493-.9038,1.427-1.7166,2.1634-2.5561C45.921,58.9081,48.211,52.1559,49.34,44.9456a11.4873,11.4873,0,0,0-.286-4.2682,7.4149,7.4149,0,0,0-9.551-5.6052,22.6376,22.6376,0,0,0-6.299,3.3574A44.7857,44.7857,0,0,0,20.3469,53.7342,57.7562,57.7562,0,0,0,13.7881,85.261c.0949,1.4371.2508,2.8713.3042,4.31.2434,6.55,2.994,12.0173,7.2173,16.856a12.6935,12.6935,0,0,0,12.0612,4.4076,29.1249,29.1249,0,0,0,17.3009-8.6273A111.924,111.924,0,0,0,74.0524,65.0955,9.588,9.588,0,0,0,74.3442,63.531Zm.6895-7.2528.6494-.1187a17.1791,17.1791,0,0,0-.1257-2.09c-.03-.1806-.4913-.4211-.7286-.3953-.2151.0234-.595.4269-.5563.568A20.4785,20.4785,0,0,0,75.0337,56.2782Z"/><path class="cls-1" d="M224.6293,27.0587c1.7336-.2321,2.6524-.3432,3.5673-.48,3.7887-.5652,7.5722-1.1673,11.3669-1.6874a11.5483,11.5483,0,0,1,2.8622.0313,1.8869,1.8869,0,0,1,1.5439,2.4892c-.6784,2.0626-1.797,3.802-4.0155,4.4062a32.447,32.447,0,0,1-4.6926.8642c-3.333.3955-6.6773.6948-10.0165,1.0383a2.6433,2.6433,0,0,0-2.5687,2.39c-1.5411,8.6826-2.5744,17.4049-1.9124,26.2426a18.1071,18.1071,0,0,0,2.2375,8.2585c2.3339,3.8362,5.2555,4.65,8.9757.9781a20.2739,20.2739,0,0,0,3.06-4.82c.6882-1.2549,1.0612-2.6834,1.7549-3.9345a5.5673,5.5673,0,0,1,5.53-3.0519,1.474,1.474,0,0,1,1.3142,1.6717,7.55,7.55,0,0,1-.5809,1.8056,43.1109,43.1109,0,0,1-8.355,11.635,15.7413,15.7413,0,0,1-4.7168,3.1939c-3.9756,1.6411-7.9093,1.3174-11.19-1.6763a23.2864,23.2864,0,0,1-4.2367-5.1527,37.1643,37.1643,0,0,1-5.3968-16.7269c-.2273-3.35-.3925-6.7034-.6208-10.0529a16.8529,16.8529,0,0,0-.49-2.1709c-2.4191,1.5287-4.5243,2.9013-6.6719,4.204q-3.0739,1.8646-6.222,3.6065c-2.2377,1.2373-4.5044,2.424-6.7784,3.5937-2.11,1.0852-4.2458,2.1189-6.534,3.2566.7173,1.9638,1.5117,3.6953,1.9833,5.5107a49.3857,49.3857,0,0,1,1.2044,19.5037,20.6173,20.6173,0,0,1-3.3937,8.8861,13.3057,13.3057,0,0,1-7.585,5.5321c-4.9334,1.3615-9.1853.225-12.5994-3.62a17.5487,17.5487,0,0,1-4.1134-8.5378,60.7231,60.7231,0,0,1,.3959-26.1764,103.91,103.91,0,0,1,9.1692-24.1511A59.38,59.38,0,0,1,181.4983,15.689a17.263,17.263,0,0,1,9.46-4.2784c4.6935-.4317,7.2844,1.7434,7.5829,6.42a12.7217,12.7217,0,0,1-1.16,6.0644,18.0107,18.0107,0,0,1-4.53,6.1265,48.6186,48.6186,0,0,1-12.4936,7.9523c-.8875.4018-.9.374-3.4608-.0184a6.555,6.555,0,0,1,1.0051-2.017c1.6593-1.4975,3.4333-2.869,5.1776-4.2712a15.8,15.8,0,0,0,5.6265-9.2332,6.35,6.35,0,0,0,.154-2.8272,3.7615,3.7615,0,0,0-1.5583-2.1644c-.4678-.2649-1.5019.1911-2.1331.5716a5.9073,5.9073,0,0,0-1.6945,1.67c-5.3392,7.6242-10.3026,15.4547-12.371,24.7061a95.9731,95.9731,0,0,0-1.1016,36.222c.4914,3.1063,1.1574,6.2782,3.3583,9.2227.8442-.65,1.7651-1.04,2.18-1.7339A18.29,18.29,0,0,0,178.1755,78.03a71.3576,71.3576,0,0,0-.8334-9.0706,21.029,21.029,0,0,0-3.4863-9.34c-2.11-2.9035-1.312-5.0008,2.07-6.1562a3.3358,3.3358,0,0,1,1.8527-.3208c2.9379.965,5.3176-.5227,7.7072-1.71A84.3972,84.3972,0,0,0,202.72,40.1971c1.9483-1.6571,4.3473-3.0095,5.7223-5.0521,1.3655-2.0285,1.5827-4.7972,2.5133-7.1586,2.3427-5.945,4.6967-11.89,7.2578-17.7427a18.616,18.616,0,0,1,7.0981-8.26,10.6454,10.6454,0,0,1,6.7831-1.95c2.4568.209,3.4562,1.7381,2.4848,3.9506-.4486,1.0216-1.0927,1.9562-1.56,2.9707-2.2067,4.7865-4.43,9.5665-6.5447,14.3939C225.778,22.9387,225.39,24.6644,224.6293,27.0587Z"/></g><g id="beer"><path class="cls-1" d="M79.5042,150.6172V122.3239c-1.4368-.4026-2.8107-.6946-4.1141-1.1772a3.3428,3.3428,0,0,1-2.2364-3.34,3.5435,3.5435,0,0,1,2.5893-3.11,14.981,14.981,0,0,1,3.3222-.3307c6.5555-.0269,13.1111-.0034,19.6668-.0113a17.51,17.51,0,0,1,8.3145,1.96c6.3383,3.3331,9.3682,11.0061,4.5,17.389-.3707.486-.67,1.0263-1.126,1.7324,1.1506,1.0327,2.2136,1.95,3.2348,2.9108a11.2868,11.2868,0,0,1,3.5681,9.5287,9.7489,9.7489,0,0,1-4.6833,7.9359,16.021,16.021,0,0,1-8.6,2.6387q-12.9505.0744-25.9016.0226a7.5427,7.5427,0,0,1-2.802-.4736,3.1827,3.1827,0,0,1-2.0639-2.9831,3.0313,3.0313,0,0,1,1.9-3.0629C76.3919,151.4239,77.801,151.1186,79.5042,150.6172Zm8.1062.418c5.9612.1677,11.36.29,16.7549-.0863a8.6242,8.6242,0,0,0,3.1655-.9279,3.4083,3.4083,0,0,0,1.5129-4.87,10.0989,10.0989,0,0,0-2.5549-2.7771,11.375,11.375,0,0,0-6.7142-2.168q-4.775-.1155-9.5534-.0194a12.8548,12.8548,0,0,0-2.6369.6082A48.4949,48.4949,0,0,0,87.61,151.0352Zm-.0051-18.6823a36.74,36.74,0,0,0,12.9232-.2007,10.3824,10.3824,0,0,0,2.6108-1.1317c1.7993-.9672,3.0763-2.41,2.8873-4.5467-.2082-2.3548-1.9087-3.5917-4.0021-4.2244a12.6016,12.6016,0,0,0-3.2923-.4368c-2.5419-.0656-5.087-.0643-7.63-.02-1.07.0188-2.1377.216-3.5364.3679A50.2756,50.2756,0,0,0,87.6053,132.3529Z"/><path class="cls-1" d="M201.1023,121.9649H183.3072c-1.1834,3.407-.6105,6.6879-.438,10.0812,2.14.9972,4.1622.6144,6.4513.402a28.6267,28.6267,0,0,1,.9752-3.0587,3.7336,3.7336,0,0,1,3.8967-2.1812,3.6841,3.6841,0,0,1,3.0852,2.6742,4.9452,4.9452,0,0,1,.242,1.4092c.0174,3.52.1572,7.0481-.0413,10.5568a3.7208,3.7208,0,0,1-5.8607,3.0826,4.6064,4.6064,0,0,1-1.4243-1.834,11.8536,11.8536,0,0,1-.5668-2.3877c-1.99-1.0252-4.0341-.5356-6.3-.4563-1.3194,3.4933-.4878,6.899-.5212,10.194,4.17.9693,16.1457.951,19.9879.0069.1831-1.6369.2985-3.374.5887-5.0815a3.4254,3.4254,0,0,1,3.6172-3.1173,3.3611,3.3611,0,0,1,3.36,2.2308,6.2932,6.2932,0,0,1,.4816,1.8414c.0922,1.2746.09,2.5576.0879,3.8372-.0037,2.536-.0336,5.072-.0542,7.8225a14.5834,14.5834,0,0,1-2.4985.4853q-17.2776.0459-34.5551.0091a10.4027,10.4027,0,0,1-3.292-.4683,3.0324,3.0324,0,0,1-2.0331-2.9806,3.0016,3.0016,0,0,1,1.8512-3.09c1.3245-.5192,2.73-.8319,4.0579-1.2227.5851-3.7835.6434-23.7524.0753-28.472-1.2783-.3708-2.6509-.7018-3.9742-1.1715a3.08,3.08,0,0,1-2.0192-2.9883,3.3169,3.3169,0,0,1,2.2853-3.2985,9.91,9.91,0,0,1,2.8232-.4134q16.5573-.016,33.1148.0458a11.2419,11.2419,0,0,1,1.7551.2675,53.1954,53.1954,0,0,1,.5219,12.478,3.7274,3.7274,0,0,1-3.9808,3.3516,3.5567,3.5567,0,0,1-3.4448-3.356C201.3405,125.6078,201.2777,124.03,201.1023,121.9649Z"/><path class="cls-1" d="M127.42,150.6018c.01-9.616.0442-18.8611-.0232-28.2133-1.6264-.4618-3.01-.7612-4.3224-1.2514a3.11,3.11,0,0,1-2.1414-3.3634,3.3817,3.3817,0,0,1,2.5646-3.1037,9.1816,9.1816,0,0,1,2.3664-.2955q16.7808.0036,33.5616.064a8.7685,8.7685,0,0,1,1.6555.3881,17.2646,17.2646,0,0,1,.3988,2.6663c-.0013,3.1942.0294,6.3968-.1915,9.5795a3.3691,3.3691,0,0,1-3.3151,3.4407,3.66,3.66,0,0,1-4.0376-3.269c-.2829-1.56-.3029-3.1683-.452-4.89-2.9576-1.0865-6.0021-.4478-8.978-.558-2.8556-.1057-5.7182-.0228-8.46-.0228-1.0983,3.3033-1.1689,4.8735-.5244,10.3337,1.8561.9916,3.8885.4764,6.0668.4375a32.1466,32.1466,0,0,1,1.1263-3.1276,3.6925,3.6925,0,0,1,3.8768-2.2045,3.3242,3.3242,0,0,1,3.1,3.1376c.1406,4.1442.1269,8.3006-.0264,12.4445-.06,1.62-1.4357,2.4117-2.9354,2.74a3.5145,3.5145,0,0,1-3.6994-1.6237,35.4012,35.4012,0,0,1-1.44-3.6248h-5.84c-1.1509,3.3344-.4732,6.6532-.47,10.1955a12.6047,12.6047,0,0,0,2.6834.6326c4.9537.06,9.9085.0458,14.8627.01a15.5168,15.5168,0,0,0,2.4239-.4168c.1569-1.9162.1717-3.6626.47-5.359a3.7163,3.7163,0,0,1,7.3846.508,28.7937,28.7937,0,0,1,.1245,3.3509c-.0081,2.8583-.05,5.7164-.0807,8.7848a19.2859,19.2859,0,0,1-2.9317.4851q-16.7811.0492-33.5623.0177a14.9491,14.9491,0,0,1-2.86-.2072,3.3572,3.3572,0,0,1-2.8619-3.3362,3.1564,3.1564,0,0,1,2.3435-3.2271C124.4669,151.3113,125.7124,151.0567,127.42,150.6018Z"/><path class="cls-1" d="M254.1616,158.3273c-1.6935-2.2336-3.2294-4.4725-4.9862-6.5223-2.1777-2.541-4.4816-4.9817-6.837-7.3605a9.015,9.015,0,0,0-7.8211-2.8078c-1.241.1531-2.4931.2165-4.0269.3446-.1012,1.5777-.2524,2.9659-.2619,4.3551-.01,1.4147.12,2.83.1968,4.4116,1.7323.2722,3.2945.43,4.8134.7774,2.1234.4855,3.1033,1.8067,2.952,3.7192a3.4208,3.4208,0,0,1-3.121,3.1144,11.2483,11.2483,0,0,1-1.9086.1334c-3.9933.0116-7.9868.0272-11.98-.0089a10.8292,10.8292,0,0,1-2.8359-.3484,3.3579,3.3579,0,0,1-2.328-3.2768,3.0132,3.0132,0,0,1,2.0075-2.977c1.3275-.4978,2.7251-.8087,4.0313-1.184.5916-3.9378.63-24.0217.0548-28.4471-1.2976-.3637-2.6859-.6712-4.0135-1.1478a3.0427,3.0427,0,0,1-2.0768-2.9332,3.305,3.305,0,0,1,2.2054-3.3562,11.7544,11.7544,0,0,1,3.2959-.4388c6.3889-.0219,12.78-.0635,19.1663.081a26.512,26.512,0,0,1,6.1119,1.0176,13.6585,13.6585,0,0,1,6.7777,4.3112,11.3081,11.3081,0,0,1-.8973,16.2775c-1.1791,1.06-2.5114,1.95-4.0486,3.1289a21.5011,21.5011,0,0,0,1.2515,1.8386c2.1544,2.5636,4.45,5.0171,6.4691,7.6817,1.1329,1.4953,2.2793,2.6254,4.22,2.7228a3.0084,3.0084,0,0,1,.9252.24,3.4132,3.4132,0,0,1,2.28,3.3105,3.3211,3.3211,0,0,1-2.9147,3.2944C258.6671,158.4808,256.4379,158.3273,254.1616,158.3273Zm-23.558-24.1531c4.0594.3391,7.5934.4662,10.9791-.6339a18.6333,18.6333,0,0,0,5.5-2.7608c2.3247-1.7752,2.1895-4.6219.0063-6.6279a8.2254,8.2254,0,0,0-5.1815-2.2323c-2.0714-.12-4.1522-.17-6.2263-.1246-1.7008.0368-3.4867-.352-5.2576.6328A50.8724,50.8724,0,0,0,230.6036,134.1742Z"/></g></g></g></svg>