<svg xmlns="http://www.w3.org/2000/svg" viewBox="0 0 833.7959 149.6855"><defs><style>.cls-1{font-size:101.4324px;font-family:HeroNew-Medium, Hero New;font-weight:500;}.cls-1,.cls-3{fill:#fff;}.cls-2{fill:none;stroke:#fff;stroke-miterlimit:10;stroke-width:5px;}</style></defs><g id="Слой_2" data-name="Слой 2"><g id="Слой_1-2" data-name="Слой 1"><text class="cls-1" transform="translate(261.2188 119.7632)">Smartmenu</text><g id="S_logo_1" data-name="S logo_1"><ellipse class="cls-2" cx="119" cy="74.5" rx="116.5" ry="72"/><g id="S_logo" data-name="S logo"><path class="cls-3" d="M127.8916,63.083c-14.4609-2.3662-32.458-5.3115-32.458-9.0088,0-2.456,8.1792-6.3515,30.1269-6.3515,17.8794,0,38.9854,2.59,52.52,6.4443a2,2,0,0,0,1.0957-3.8477c-13.856-3.9453-35.4024-6.5966-53.6158-6.5966-12.7451,0-34.1269,1.3447-34.1269,10.3515,0,6.7949,11.626,8.999,35.8232,12.958,27.62,4.3633,61.9932,9.794,61.9932,24.4492,0,14.5831-31.498,24.7686-76.5977,24.7686-28.44,0-51.8432-3.917-64.2617-7.582a2,2,0,1,0-1.1328,3.8359c16.4326,4.8506,40.8794,7.7461,65.3945,7.7461,48.9615,0,80.5977-11.292,80.5977-28.7686C193.25,73.4082,158.5215,67.9219,127.8916,63.083Z"/><path class="cls-3" d="M46.84,107.6191c16.149,5.0371,40.7354,8.1661,64.1651,8.1661,42.1548,0,69.3935-9.4727,69.3935-24.1319,0-15.0146-28.4961-19.6142-58.665-24.4834-18.15-2.93-38.7212-6.25-38.7212-12.9238,0-5.3057,12.9561-11.0166,41.4028-11.0166,18.28,0,39.1963,2.47,53.2876,6.292a1.625,1.625,0,1,0,.8506-3.1367c-14.5659-3.9512-35.31-6.4053-54.1382-6.4053-21.5864,0-44.6528,3.748-44.6528,14.2666,0,8.8057,15.6606,11.9687,41.4536,16.1328,27.4981,4.4375,55.9326,9.0264,55.9326,21.2744,0,12.2949-27.1992,20.8819-66.1435,20.8819-23.1241,0-47.34-3.0723-63.1973-8.02a1.6254,1.6254,0,0,0-.9678,3.1035Z"/><path class="cls-3" d="M46.4341,102.7363c16.1235,5.2959,40.2344,8.585,62.9238,8.585,35.3491,0,58.19-7.6524,58.19-19.4961,0-12.1465-24.0821-16.0488-51.9664-20.5674-20.0444-3.248-44.99-7.291-44.99-16.8408,0-9.2324,21.6621-15.6807,52.6782-15.6807,18.9356,0,39.14,2.2949,54.0464,6.1377a1.25,1.25,0,1,0,.624-2.42c-15.0986-3.8936-35.5361-6.2178-54.67-6.2178-33.5195,0-55.1782,7.1367-55.1782,18.1807,0,10.8389,19.5171,14.84,47.09,19.31,24.5157,3.9726,49.8663,8.08,49.8663,18.0986,0,10.0068-22.9,16.9961-55.69,16.9961-22.4429,0-46.2549-3.2412-62.1435-8.46a1.25,1.25,0,0,0-.78,2.375Z"/><path class="cls-3" d="M46.0391,97.8564c16.1064,5.5518,39.7373,9,61.6713,9,28.543,0,46.9864-5.833,46.9864-14.8593,0-8.7276-17.1026-12.1133-45.2666-16.65C86.5928,71.59,58.1709,66.915,58.1709,54.5889c0-11.98,26.2988-20.3457,63.9536-20.3457,19.2783,0,39.2505,2.18,54.7959,5.98a.8747.8747,0,1,0,.416-1.6992c-15.6758-3.833-35.8-6.0312-55.2119-6.0312-39.9136,0-65.7036,8.6728-65.7036,22.0957,0,12.7724,23.8784,17.7392,52.728,22.4853,21.5323,3.4688,43.7979,7.0557,43.7979,14.9229,0,7.7187-18.6021,13.1093-45.2364,13.1093-21.7534,0-45.166-3.4121-61.101-8.9043a.8749.8749,0,1,0-.57,1.6543Z"/><path class="cls-3" d="M106.063,101.3916c-20.7349,0-44.3135-3.6709-60.0693-9.3516a.5.5,0,0,0-.3389.9414c15.8555,5.7168,39.5669,9.41,60.4082,9.41,21.7373,0,35.7827-4.0127,35.7827-10.2236,0-6.1553-14.6567-8.8487-38.57-12.7334-24.2769-4-57.5254-9.4776-57.5254-24.6739,0-14.96,30.2324-25.0107,75.23-25.0107,19.5835,0,39.3066,2.0674,55.5361,5.8213a.5.5,0,0,0,.2256-.9746C160.44,30.8262,140.6367,28.75,120.98,28.75,75.3843,28.75,44.75,39.2031,44.75,54.7607c0,16.045,33.7324,21.6026,58.3643,25.66,22.7919,3.7031,37.7314,6.52,37.7314,11.7471C140.8457,97.5986,126.5425,101.3916,106.063,101.3916Z"/></g></g></g></g></svg>