<svg xmlns="http://www.w3.org/2000/svg" viewBox="0 0 255.6959 102.7951"><defs><style>.cls-1{fill:#fff;}</style></defs><g id="Слой_2" data-name="Слой 2"><g id="Слой_1-2" data-name="Слой 1"><path d="M15.2017,84.0425c-.5506-.502-1.3286-.9062-1.5967-1.53a25.4281,25.4281,0,0,1-.5119-2.8122A3.56,3.56,0,0,0,8.9486,77.355a3.1074,3.1074,0,0,0-.446.1754c-1.7222.6356-3.3691.8854-4.9428-.4729C1.7136,75.4636-.1876,73.8882.0149,71.1528a77.2,77.2,0,0,1,1.06-10A189.35,189.35,0,0,1,11.3831,26.2455c.5988-1.4281.8785-3.0894,2.4067-4.1778.7506,1.9464-.0992,3.5744-.7067,5.12-3.1743,8.0754-4.8264,16.567-6.969,24.9246a15.8715,15.8715,0,0,0-.3863,1.87c-.0877.67.3552.9375,2.27,1.371.7606-2.9005,1.4733-5.8287,2.3094-8.7213a40.21,40.21,0,0,1,1.6626-4.4588c1.162-2.7476,3.0832-5.2671,1.8541-8.6058-.2689-.7306.3824-1.8308.6854-2.7353.8482-2.5327,1.3977-5.1954,2.9369-7.394,1.1366.1722.9585.9163.8358,1.4838-.37,1.715-.8355,3.4092-1.2451,5.1159-.2956,1.2317-.7477,2.4819.3515,3.8088,2.7082-1.353.6151-5.09,3.36-6.4944.0729,1.2352.1442,2.4444.2117,3.5866,4.0493,3.0491,9.28,2.7929,13.5162,5.5549l-2.9616,2.2881c.27.5741.3277.9991.5368,1.0953A33.7466,33.7466,0,0,0,40.8319,42.77c.942-1.2713,1.8679-2.5208,2.9664-4.0035a37.875,37.875,0,0,1,9.3068.4335c14.1466,1.7041,28.3474,2.6464,42.58,3.0224q16.5438.4371,33.1.3359c6.07-.0353,12.138-.5875,18.2054-.932a20.4521,20.4521,0,0,0,2.45-.5221,21.17,21.17,0,0,0-6.8188-.7865c-6.7165.1258-13.4346.1682-20.1525.2113-1.1022.0071-2.2055-.1443-3.23-.2168-.3882-.9585.0235-1.3848.723-1.4817,2.0512-.2844,4.106-.61,6.17-.7235,8.3031-.4555,16.6106-.8285,24.9153-1.2549,1.2612-.0648,2.5164-.25,3.7551-.3777.0173-1.1156-.72-1.1063-1.3108-1.1241-1.7573-.0529-3.5207.0312-5.274-.0709a33.0193,33.0193,0,0,1-3.7935-.7417,14.4514,14.4514,0,0,1,6.3227-1.3888c3.5178-.0976,7.0368-.1542,10.5557-.212,1.2965-.0213,2.4865-.0929,3.4421-1.2523,1.0142-1.23,2.5928-1.09,4.0189-1.1387,4.3165-.1482,8.6364-.2056,12.951-.3915a211.8427,211.8427,0,0,0,38.9-5.3988A39.66,39.66,0,0,0,232.1726,20.23c.4115-.2466.826-.49,1.251-.7115,3.1483-1.6439,5.06-1.3116,6.8911,1.6844,3.5032,5.7332,6.9151,11.5539,8.8767,18.0342,2.6876,8.8787,5.1812,17.8223,6.2648,27.0687a53.5688,53.5688,0,0,1,.1645,8.1335,7.022,7.022,0,0,1-1.0608,3.1114c-.5812.9939-1.7774,1.87-2.8246,1.3259-4.0691-2.1137-7.4186.0411-10.9119,1.5171-.585.2472-1.1532.5336-2,.9283-.2894,1.237-.5558,2.625-.9418,3.9789-1.0725,3.7618-3.7875,5.1074-7.3778,3.6394-1.7715-.7243-3.4619-1.6547-5.2517-2.3238a6.7054,6.7054,0,0,0-3.2436-.56c-2.9694.4987-5.8928,1.27-8.5467,1.8687a6.3791,6.3791,0,0,0-.6867,1.19c-.3323,1.3883-.2619,3.1053-1.5944,3.8727a27.7336,27.7336,0,0,1-5.3118,2.1079,3.3937,3.3937,0,0,1-1.8444-.26c-.9131-.2848-1.795-.6724-2.6835-1.0326a32.0328,32.0328,0,0,0-21.4242-.9273c-.2042,1.0773-.4657,2.2973-.661,3.5278a2.8446,2.8446,0,0,1-2.5267,2.506c-3.0605.5716-6.0383.6945-8.6511-1.5045-1.0976-.9238-2.3272-1.6934-3.5147-2.507a6.4872,6.4872,0,0,0-4.085-1.076c-6.0671.2395-12.1376.3948-18.2064.5985-1.5664.0525-3.1309.1681-4.7865.26-.3041,1.383-.508,2.4626-.7811,3.5243a5.9467,5.9467,0,0,1-7.3268,4.3993c-3.0116-.7421-5.7844-1.9231-7.2814-4.9547-.2809-.5689-.71-1.0626-1.0411-1.6091a3.469,3.469,0,0,0-3.2053-1.7125q-4.5586-.0432-9.1158-.205c-2.8688-.1045-5.7346-.2858-8.6425-.4355-1.794,1.7189-3.4636,3.434-5.2586,5.006-1.7906,1.5684-6.767,1.4414-8.5008-.1708a3.3071,3.3071,0,0,1-.89-1.6387c-.2671-1.2226-.3683-2.4813-.551-3.8219a12.9041,12.9041,0,0,0-1.9214-.5273c-4.7687-.52-9.547-.9545-14.3092-1.5259a3.5393,3.5393,0,0,0-3.77,1.42,10.1382,10.1382,0,0,1-1.2618,1.4408c-2.75,2.6934-5.9718,2.7578-9.3221,1.4873a2.7952,2.7952,0,0,1-1.4541-1.7056,34.1235,34.1235,0,0,1-.5581-4.4434c-3.24-1.5708-6.7992-1.591-10.1956-2.236a2.8817,2.8817,0,0,0-1.763.6078,20.7862,20.7862,0,0,0-2.2635,1.7631c-3.6792,3.1168-4.834,3.1526-9.3563.152-.06-1.1655-.0835-2.4378-.1987-3.7018-.194-2.1309-1.6133-3.0635-3.6755-2.4208-2.28.71-4.528,1.5293-6.825,2.1769a2.3377,2.3377,0,0,1-2.9879-1.6774c.8644-.1021,1.7286-.2025,2.5362-.2964-.15-2.5041-.2592-4.7077-.4213-6.9075-.1087-1.4762-.2518-1.56-2.4847-1.9467C13.4658,77.9079,14.86,80.9465,15.2017,84.0425ZM42.3965,49.0761c-1.097.7611-1.097.7611-.7962,2.0459.2838-.7.56-1.3809.8331-2.065V47.4493l-.0369,0Zm42.6283,1.686c.7437,8.3668,1.4175,15.9461,2.0805,23.4048,3.4568.8781,3.4568.8781,6.5218.3629a8.1869,8.1869,0,0,0,.6457-1.647c.8119-4.7176,1.653-9.4327,2.3148-14.1724a18.6321,18.6321,0,0,0-.1583-4.76,2.3535,2.3535,0,0,0-2.19-2.1894C91.4109,51.4428,88.58,51.146,85.0248,50.7621ZM28.9941,47.8242c-.478,1.9986-.9186,3.6875-1.2707,5.3948a2.9865,2.9865,0,0,0-.0063,1.8715c1.4618,2.4772.7633,4.9409.2167,7.4446-.067.307.2758.7035.4341,1.0709,1.2928-.5962.9986-1.6857,1.1891-2.5651.6062-2.7978,1.15-5.61,1.8172-8.3929.1479-.6161.3817-1.6024,1.6627-1.0554-.3319,2.1945-.63,4.39-1.0031,6.5732-.3957,2.3161-1.0858,4.6125-.51,6.8945,2.6727.6731,3.2414.5417,3.5337-1.0479a61.9238,61.9238,0,0,1,3.61-12.3862A50.37,50.37,0,0,0,40.3978,44.91c-2.7082-.8257-5.118-1.5742-7.5386-2.2861a2.4379,2.4379,0,0,0-1.408-.1328,2.8846,2.8846,0,0,0-1.3636,1.0937,1.35,1.35,0,0,0,.2274,1.2772c.6876.64,1.5463,1.0926,2.2831,1.6864.1355.1091.0194.5305.0194.957ZM58.7462,71.0889c4.4851-17.08,4.73-18.3626,4.2877-22.7133-2.1756-.6105-4.3858-1.3423-6.7257-.8734-1.8637,5.0169-3.0182,16.8483-2.2431,22.6563A5.1855,5.1855,0,0,0,58.7462,71.0889ZM19.1486,61.1668c1.0983-3.7573,1.93-6.9614,2.9789-10.0923,1.089-3.249,2.3892-6.4271,3.6876-9.8773L21.5268,39.51A37.8538,37.8538,0,0,0,15.74,59.5154ZM45.0115,45.92c-1.21,2.5828-1.5149,5.4358-2.0134,8.223-.3617,2.0226.84,3.6389,1.7668,5.2819a1.5005,1.5005,0,0,0,2.1068.0014,7.8625,7.8625,0,0,0,1.1674-2.5136c.626-3.106,1.119-6.2388,1.6566-9.3624.2656-1.5439.5738-3.0834.7566-4.6373a1.9534,1.9534,0,0,0-1.322-2.2511,2.0341,2.0341,0,0,0-2.7572,1.08c-.7283,1.2791-.6022,1.5867,1.4754,3.4441Zm23.8842,8.4777c0,1.476-.3251,2.7.0668,3.6163a31.4537,31.4537,0,0,0,3.1854,5.6936c.79,1.1234,2.2685,1.0225,3.52.7536a2.3279,2.3279,0,0,0,1.759-2.5036c.0255-1.8895-.0655-3.7859-.219-5.67a2.0718,2.0718,0,0,0-1.7918-1.9418A14.4257,14.4257,0,0,0,68.8957,54.3977ZM127.9084,67.205c1.5183-1.22,2.79-2.1472,3.9477-3.2,1.1552-1.0509,2.5728-1.9123,3.0337-3.5259-.4845-2.5482-2.1587-3.3468-4.5028-3.3055-2.5543.045-4.2052-.926-4.5365-3.7607-.1414-1.2114-1.1058-1.3519-2.1927-.2344.7838,2.1738,1.6693,4.3658,2.3592,6.6178C126.7046,62.04,126.1463,64.5877,127.9084,67.205ZM83.2124,90.5822c.0927-.2792.2256-.4628.1806-.5749-1.7222-4.288-9.8194-6.3377-13.622-4.9707-1.6824.6047-2.1214,1.5312-1.9664,4.4153C72.9318,89.6582,78.0129,90.9707,83.2124,90.5822Zm29.7406-32.713a7.4037,7.4037,0,0,0-6.1-.6151c-.7355,4.09,1.3082,7.1623,3.1144,10.2523A2.3467,2.3467,0,0,0,112,68.2852c.61-.1267,1.2-.9126,1.5515-1.5464a3.3161,3.3161,0,0,0,.2481-1.8416C113.56,62.5431,113.24,60.1972,112.953,57.8692Zm95.7189-18.9415c1.1828.3389,1.4994.54,1.77.4908,4.8719-.89,9.7882-1.6075,14.5882-2.7943a69.7157,69.7157,0,0,0,9.4142-3.4712c1.1415-.4657,2.3395-1.1049,2.52-2.6522-1.5259-.8584-2.8628.0361-4.0378.667-4.5679,2.4527-9.5038,3.7065-14.5008,4.8252q-3.74.8373-7.4551,1.7852A15.6659,15.6659,0,0,0,208.6719,38.9277ZM92.0766,98.0589c.3095-3.79,1.2866-6.98.1412-10.2329H87.1051c-.173,3.2491-1.0685,6.2743.1443,9.4207Zm43.646-9.62a6.3817,6.3817,0,0,0-1.6284.7059c-1.2244,1.025-2.2889,2.2521-3.5614,3.2057a5.6431,5.6431,0,0,0-2.2207,5.4645c.0935,1.1057-.0806,2.3,1.4743,2.8907C134.6981,98.2515,136.8848,94.3476,135.7226,88.439ZM209.5921,71.95c-.5929.2226-.8032.2333-.8646.3345-1.2241,2.0174-2.342,4.1058-3.6653,6.0549a9.8723,9.8723,0,0,0-1.6975,7.1886c.0887.6361.1125,1.257,1.3632,1.0721,1.3309-2.4215,2.7067-5.0722,4.2236-7.6394A7.89,7.89,0,0,0,209.5921,71.95Zm-31.5247,8.5991a63.4814,63.4814,0,0,0-8.0726,9.0927,5.3755,5.3755,0,0,0,.2988,5.2926c2.4435-3.2495,4.81-6.4429,7.2313-9.5951A4.1627,4.1627,0,0,0,178.0674,80.5487Zm-8.1691,4.7043c1.753-.7433,2.4452-2.2285,3.4057-3.3919a36.7515,36.7515,0,0,0,3.7-4.9023,4.021,4.021,0,0,0-.4543-4.3479c-.5273.161-.9165.1572-1.0682.3451-1.5857,1.9645-3.066,4.0177-4.7106,5.93C169.1361,80.7875,169.1547,82.7909,169.8983,85.253Zm40.5561-3.3277c-.363.082-.8185.0525-.919.2273-1.8081,3.1437-3.5909,6.3026-5.3221,9.4892-.1886.347-.0255.8852-.0255,1.37a2.8929,2.8929,0,0,0,3.8884-.7353C210.57,89.2428,212.0049,85.92,210.4544,81.9253ZM219.3936,31.51c2.1854,1.5914,2.2247,1.74,6.7.56,3.19-.8413,6.9271-.8911,8.9015-4.4719-.5082-.2163-.8333-.4958-1.0686-.4338q-6.1839,1.6293-12.3436,3.35A15.8972,15.8972,0,0,0,219.3936,31.51ZM135.7955,71.9854c-.1581-.02-.3593-.113-.4678-.0489-2.65,1.5659-4.4143,4.0441-6.2852,6.3645-.7791.9663-.7048,2.3473.4175,3.6563,2.0594-1.0693,3.2561-2.9986,4.8766-4.4272A4.5108,4.5108,0,0,0,135.7955,71.9854ZM53.8283,87.0033a11.6616,11.6616,0,0,0,.1976,5.9794c1.3509.9326,2.6655,1.7252,4.3314,1.1911V87.64A4.5183,4.5183,0,0,0,53.8283,87.0033Zm118.3-27.2565c-4.7741,2.219-5.5429,4.1013-3.6144,9.2828,1.7953-.8818,2.7277-2.5543,3.845-3.9881C174.0991,62.8092,174.0528,62.7731,172.1285,59.7468Zm-36.3938,19.745a40.5314,40.5314,0,0,0-6.088,5.741c-1.1823,1.2928-1.2678,3.02-.3644,5.2538,2.1388-1.809,3.7064-3.5581,5.3878-5.1809C136.1858,83.843,136.7185,82.1729,135.7347,79.4918ZM177.1232,96.951c1.4322-3.7292,1.4745-4.3719.4878-7.4157-3.11,2.8815-4.3814,4.589-5.7252,7.6882C174.154,98.0984,174.1564,98.1114,177.1232,96.951Zm-7.36-19.9911A71.7318,71.7318,0,0,0,175.4,69.1466c.7031-1.1517.4236-1.7646-1.2259-3.1294-1.5108,1.8086-3.04,3.6111-4.5368,5.4407C168.3852,72.9884,168.4877,74.5847,169.7636,76.96Zm-76.565,3.9716c-2.3259.0718-4.1375-.5641-5.9771.5325-.189,1.75-.6649,3.4414.469,5.0268,1.7772.3171,3.4694.7112,5.15-.7271C92.9362,84.4725,93.04,83.0757,93.1986,80.9315Zm59.6847,10.43c2.8527.8785,5.2219.38,6.9411-2.2283a2.2877,2.2877,0,0,0-.6033-3.289,6.29,6.29,0,0,0-1.5516-.7453C154.4565,87.6445,154.196,87.9876,152.8833,91.3611Zm50.9331-35.49c-2.8852,3.459-2.8417,6.783-1.0934,10.7618a21.9265,21.9265,0,0,0,3.6356-7.253Zm-74.8627,18.246c2.51-2.691,4.7172-4.8455,6.26-7.5588.3054-.537-.0106-1.4274-.0495-2.3884-2.1657.7493-3.301,2.3708-4.874,3.3321C127.99,68.9073,127.6751,70.83,128.9537,74.1168Zm74.9168,1.9343c1.5821-3.0985,2.9848-5.7254,4.269-8.409a3.5586,3.5586,0,0,0-.8536-4.4656c-1.4954,2.8805-2.8939,5.5041-4.2225,8.1627C202.379,72.7088,202.5874,74.0646,203.8705,76.0511ZM33.1492,89.5491a18.9409,18.9409,0,0,0-.0862-7.0368c-.2115-1.2673-1.17-1.7868-2.706-1.1231-.1076.8365-.2453,1.7522-.3385,2.6725a26.4592,26.4592,0,0,0-.2058,2.8573C29.8257,88.554,30.3346,88.938,33.1492,89.5491ZM85.5186,45.7465c-.3559,1.1676.0663,1.8368.9616,1.92,2.5125.2324,5.0363.3623,7.5584.4475.3476.0118,1.0453-.5455,1.0077-.6895-.1376-.5267-.4489-1.35-.8171-1.42A21.19,21.19,0,0,0,85.5186,45.7465Zm100.103,3.8641c-3.5621.2329-5.1058,1.9755-6.423,3.9983a5.7374,5.7374,0,0,0-.7015,5.781c2.1246-2.7435,4.0236-5.1741,5.8921-7.6277A23.6187,23.6187,0,0,0,185.6216,49.6106Zm-81.6838,41.557c4.0554,2.2016,7.149,1.409,8.0887-2.2166C109.1954,89.3731,106.3651,89.3132,103.9378,91.1676Zm-27.32-41.7308a38.0914,38.0914,0,0,0-4.6858-.4061,2.7383,2.7383,0,0,0-1.8779,1.0521c-.3535.505-.206,1.3612-.29,2.1677l6.6961.496C76.51,51.6908,76.5521,50.8131,76.6176,49.4368ZM53.95,43.1263C51.4657,45.19,51.66,48.2606,50.9229,50.94c-.3055,1.11-.7633,2.3963.26,3.531C52.7136,52.3393,53.1325,50.603,53.95,43.1263ZM93.6475,76.5992a9.7871,9.7871,0,0,0-5.6262-.4136c-.4019.0829-.78.8684-.9271,1.3977a1.4448,1.4448,0,0,0,.3739,1.2356c1.2606,1.0513,5.1625.8414,6.0553-.37C93.8147,78.0533,93.6169,77.2975,93.6475,76.5992Zm117.7732-27.476h9.7479c-1.1363-2.2643-3.0582-2.0282-4.6885-2.1139C214.6121,46.9111,212.6185,46.9079,211.4207,49.1232ZM3.3693,69.6294c-1.07,3.55-.9382,3.8258,2.5627,5.3491C6.5107,70.5223,6.4224,70.3381,3.3693,69.6294Zm249.0458,3.18c.9349-1.84,1.8815-3.681,1.47-5.7749a6.3979,6.3979,0,0,0-1.0689-1.7484C251.0784,67.8925,251.318,70.2964,252.4151,72.8091ZM121.1407,89.68c-1.2283-.4584-1.9974-1.0484-2.6152-.9186a5.4691,5.4691,0,0,0-3.7844,3.3222C118.1919,92.5327,118.1919,92.5327,121.1407,89.68ZM233.9738,70.91c-2.1364,3.3421-2.1829,4.9348-.34,7.5327C234.8377,76.0148,235.7143,73.6391,233.9738,70.91ZM58.791,79.415c-.7156-.7756-1.1681-1.6645-1.8633-1.94-1.69-.67-2.976-.3553-3.2325.6058a2.1462,2.1462,0,0,0,.2089,1.7309,3.394,3.394,0,0,0,3.3987.963C57.7824,80.6484,58.1348,80.038,58.791,79.415ZM251.0052,62.3183c1.6467-2.8524,1.9311-5.207-.0014-7.6992C249.0543,57.0689,249.2552,59.3849,251.0052,62.3183ZM44.7633,82.49c2.193.5958,4.2649,2.029,6.8793,1.0863-.77-2.44-2.4753-2.97-4.48-2.8841C46.1291,80.7368,44.8671,80.6279,44.7633,82.49ZM248.8349,44.8531c-1.4186,2.174-2.13,3.8924-1.7865,5.8294.1473.8317.3527,1.9466,1.84,1.8981C250.1167,50.264,250.1679,47.8956,248.8349,44.8531ZM71.01,46.4338c1.7083.2688,2.9272.5334,4.1595.6348,1.361.1121,1.5928-.4,1.2943-2.535C72.3464,43.6317,72.3464,43.6317,71.01,46.4338ZM57.975,85.51c.0638-1.1488.1178-2.1242.1892-3.411l-4.206-.2531c-.3335,2.7438-.3465,2.7919.9929,3.1533C55.8322,85.2368,56.7572,85.3112,57.975,85.51ZM170.088,42.1479c-3.258-1.485-3.5-1.4811-7.1563.1139C165.7025,43.7044,166.2945,43.695,170.088,42.1479ZM123.1927,95.529a8.9349,8.9349,0,0,0,1.8959-1.3681,2.0426,2.0426,0,0,0-.5413-2.8758,1.431,1.431,0,0,0-2.06.2833A14.2261,14.2261,0,0,0,121.328,93.08Zm-80.17-10.0621c2.7858.5874,5.2954,1.69,8.6016,1.1014a7.9715,7.9715,0,0,0-4.2629-1.8114c-1.2158-.2086-2.4307-.4445-3.6561-.5473C43.5433,84.196,43.3213,84.8978,43.0228,85.4669Zm15.838-9.3334c-.4848-1.5785-.5089-2.6326-.9284-2.8251a8.86,8.86,0,0,0-3.1582-.5805,1.2441,1.2441,0,0,0-.9017.8407c-.0124.5329.1937,1.4183.5377,1.5482A34.9194,34.9194,0,0,0,58.8608,76.1335ZM231.5621,65.9278c2.1875-2.0018,1.1623-3.9085.0035-6.0593C229.0708,62.0055,231.2791,63.9792,231.5621,65.9278ZM112.1079,55.3187c-.7283-2.7718-1.2452-3.2223-3.249-3.0261-1.4407.141-1.8057,1.0434-1.3217,2.631ZM240.2417,42.4935c-3.3253-2.2238-3.8293-2.19-6.1707,0ZM27.9681,36.1742a28.8538,28.8538,0,0,0-3.6294-.754,2.8815,2.8815,0,0,0-.5626,1.4513A5.1885,5.1885,0,0,0,26.18,38.0058C26.6252,38.0344,27.1346,37.07,27.9681,36.1742Zm4.9962,39.741c.5212-2.6909.46-3.0773-.7875-3.3685a1.8369,1.8369,0,0,0-1.5992.4756C29.9138,74.0521,30.7268,75.0544,32.9643,75.9152Zm1.5237-6.6785a16.67,16.67,0,0,0-2.3518-1.4643.9733.9733,0,0,0-1.4054.7723,1.9788,1.9788,0,0,0,.7142,1.5132,2.7654,2.7654,0,0,0,1.7783.2619C33.5714,70.2751,33.8638,69.7954,34.488,69.2367Zm122.9544-11.492c-2.22-2.6446-2.8134-2.8445-5.2841-1.95A7.9271,7.9271,0,0,0,157.4424,57.7447Zm71.0049-5.5679c-.4645,1.15-1.0437,1.94-1.0216,2.7134.0218.7632.6517,1.5091,1.2389,2.727C230.0185,55.5358,229.7513,54.091,228.4473,52.1768Zm-62.3256,8.1508c1.72-.6952,2.9215-1.3351,3.1265-2.9784C166.628,56.4752,166.5919,56.5062,166.1217,60.3276Zm68.6242,22.4478c-.9042,1.5045-1.7425,2.4653-1.51,3.8546C235.7219,86.107,235.8112,85.9186,234.7459,82.7754ZM15.2929,62.6789c.5268,2.0916,1.3573,2.7925,2.7624,2.5228a.895.895,0,0,0,.5061-.6962c-.0382-1.19-1.0555-1.3954-1.9083-1.7166A6.4794,6.4794,0,0,0,15.2929,62.6789Zm-10.78,2.799c-.4872.22-.8464.2747-1,.482-.144.1944-.1984.7007-.0711.8087a10.1676,10.1676,0,0,0,1.8235,1.2356c.1585.0835.6048-.1407.7529-.3442.1469-.2019.22-.6869.09-.82A18.5586,18.5586,0,0,0,4.5131,65.4779Zm13.0927,6.7567c-.4178-.4111-.7463-.93-1.2132-1.139a3.6108,3.6108,0,0,0-1.6367-.1256,1.2213,1.2213,0,0,0-.203.7557,17.9026,17.9026,0,0,0,2.2349,1.2651C16.88,73.0343,17.18,72.6377,17.6058,72.2346ZM246.2929,42.199c-2.17,1.0315-2.2068,1.0449-1.5588,2.8456.1077.2994.7.4244,1.07.6314A3.0652,3.0652,0,0,0,246.2929,42.199Zm-96.37,48.0015a3.55,3.55,0,0,0,2.7688-3.2917c-.7635.4331-1.2536.5506-1.457.858A27.2787,27.2787,0,0,0,149.9229,90.2005ZM15,67.7354c.1905,1.22,1.1324,1.4248,2.02,1.629a.7251.7251,0,0,0,.7027-1.1676C16.9551,67.3368,16.0756,66.8832,15,67.7354ZM7.2094,59.7168a1.56,1.56,0,0,0-1.3427-1.71.9331.9331,0,0,0-1.2052.9208c.1029.9461.7919,1.2349,1.5617,1.2681C6.5656,60.2107,6.9235,59.8652,7.2094,59.7168Zm72.9112-1.6881a13.94,13.94,0,0,0,.6583-2.0341c.03-.2054-.2513-.5365-.4746-.68-.48-.3084-1.0229.286-.9336,1.1136A7.4112,7.4112,0,0,0,80.1206,58.0287Zm120.0657-.9524a8.09,8.09,0,0,0,.7643-1.8323c.0214-.1639-.6082-.4137-.94-.6243-.2251.3586-.6007.7058-.6289,1.0792C199.3581,56.0111,199.7412,56.354,200.1863,57.0763ZM33.3116,78.3511a16.5636,16.5636,0,0,0-2.1914-.9448,1.9508,1.9508,0,0,0-.5416.9234,3.0462,3.0462,0,0,0,1.3149.8653C32.1469,79.262,32.53,78.838,33.3116,78.3511ZM120.6976,54.82l-.6858-1.3114c-.32.2-.8758.37-.9067.6078a1.4943,1.4943,0,0,0,.4758,1.1086C119.699,55.3348,120.228,55.0014,120.6976,54.82ZM57.4753,43.5753a7.7157,7.7157,0,0,0-.8842,1.8057c-.04.2458.441.5764.686.8685a5.3356,5.3356,0,0,0,.8812-1.29C58.2393,44.7141,57.861,44.317,57.4753,43.5753Zm4.9317.3862-.8909-.8106c-.2394.3458-.666.6937-.6621,1.0367.0034.3023.4876.5991.7593.8983Zm18.0558,6.6541-.9673-.0631a19.586,19.586,0,0,0-.11,2.1239c.0067.1567.4405.4107.677.41.24-.0006.69-.27.6842-.4057A18.967,18.967,0,0,0,80.4628,50.6156Zm144.9855-1.1668-.6655.4287q.3838.4482.7678.8965.31-.471.62-.9417Q225.81,49.64,225.4483,49.4488ZM116.2107,60.5394a1.5728,1.5728,0,0,0,.3429-.098c-.01-.4161-.0407-.8318-.0668-1.2476-.092.0246-.2632.0458-.2644.0741C116.2052,59.6831,116.2107,60.0993,116.2107,60.5394ZM110.777,47.8123l-1.1-.94a6.178,6.178,0,0,0-.6787,1.0824c-.0334.0836.4353.5341.614.5008A4.5124,4.5124,0,0,0,110.777,47.8123Zm14.1288.3149c-.0137-.1183.0024-.3251-.0457-.3412a8.3026,8.3026,0,0,0-1.6148-.4547c-.2211-.0266-.4946.2651-.7161.4465a.3851.3851,0,0,0,.04.3306,8.1256,8.1256,0,0,0,1.6091.4613C124.4,48.5967,124.6625,48.2855,124.9058,48.1272ZM6.1955,63.5181c-.1526-.2267-.2894-.629-.461-.6446a4.6173,4.6173,0,0,0-1.2111.1927,4.6163,4.6163,0,0,0,.9494.7648C5.6323,63.9043,5.9494,63.6347,6.1955,63.5181Zm21.8728,5.0882c.1533-.2509.4326-.5056.425-.7514-.0079-.2488-.2994-.4886-.4666-.7324-.1588.2548-.4443.5117-.44.7639C27.59,68.1289,27.894,68.3666,28.0683,68.6063ZM15.9153,39.0231l-.2524-.3544a4.5307,4.5307,0,0,0-.3416.74c-.0238.0862.1536.2281.239.3446Q15.7384,39.3889,15.9153,39.0231ZM28.1292,72.2056c-.1132.0564-.3159.1022-.3239.171a7.4964,7.4964,0,0,0-.0118.9012c.1948-.0716.56-.155.556-.2128A4.1861,4.1861,0,0,0,28.1292,72.2056ZM104.1071,58.238c-.0719-.3045-.1339-.5665-.1959-.8284a3.6029,3.6029,0,0,0-.5564.4792c-.0486.0606.0523.36.12.3732A2.482,2.482,0,0,0,104.1071,58.238ZM28.3113,80.9307c-.1142-.2636-.1726-.6821-.3538-.7447-.2222-.0765-.5469.1448-.8274.2373.1458.2551.2367.6025.4565.7328C27.7321,81.2423,28.0619,81.0172,28.3113,80.9307ZM80.4059,46.3025q-.1932-.4006-.3864-.8014c-.1623.2439-.4389.4806-.4551.7338-.0164.26.221.5371.3473.8067Q80.1589,46.6727,80.4059,46.3025Zm19.6168,8.2621c.0743-.2984.1172-.4706.16-.6427-.0947.0369-.2655.067-.27.1121A2.1362,2.1362,0,0,0,100.0227,54.5646Zm-71.69,22.7273-.32-.7466c-.1085.1021-.3238.23-.3064.3014a4.7675,4.7675,0,0,0,.3175.7693C28.1261,77.5082,28.2286,77.4,28.3326,77.2919Zm-9.69-37.264.0748-.3848-.477.104a1.193,1.193,0,0,0,.1177.3487C18.3785,40.1253,18.5435,40.0534,18.6424,40.0279Z"/><path d="M100.8216,27.0657l3.3758-2.6137a15.3438,15.3438,0,0,0-8.0637.8368c-3.83,1.6068-7.813,1.6577-11.7609,1.6567a165.57,165.57,0,0,1-26.712-2.3261c-3.4648-.567-6.9445-1.1163-10.44-1.4087a120.0525,120.0525,0,0,1-20.2233-3.8275,16.955,16.955,0,0,1-5.0454-2.656,2.8134,2.8134,0,0,1,.0315-4.83A27.4918,27.4918,0,0,1,28,9.0465C33.6169,7.1324,39.48,6.2522,45.3257,5.397Q63.3553,2.76,81.5526,1.7018C96.227.8537,110.93.3575,125.6273.081c17.5849-.3309,35.162.389,52.7115,1.4917,14.3582.9021,28.666,2.3839,42.7166,5.64a75.8542,75.8542,0,0,1,9.57,3.037c1.9428.7326,3.9721,1.86,3.8516,4.3548-.1051,2.1775-1.9709,3.1385-3.71,4.0165a46.2658,46.2658,0,0,1-11.3835,3.63,248.1447,248.1447,0,0,1-27.9849,3.9332Q172.5314,27.9962,153.579,28.04c-13.2626.0459-26.5264-.2846-39.79-.4315-2.55-.0283-5.1034.0973-7.6517.0266C104.5705,27.5918,103.01,27.31,100.8216,27.0657ZM34.0254,10.4081c1.91-.1344,3.823-.24,5.73-.4107a9.9144,9.9144,0,0,0,6.6161-3.0539C41.798,7.8184,38.2144,8.48,34.65,9.233c-.2686.0567-.4007.76-.61,1.1641-.3018-.0685-.6019-.1479-.9065-.2009a2.69,2.69,0,0,0-.464-.0031,4.2957,4.2957,0,0,0,.4418.1093C33.4148,10.346,33.7205,10.3738,34.0254,10.4081ZM198.4777,16.653c3.7576.6163,6.5945-1.2076,9.7513-3.4908-4.7272-.0327-6.6712.73-9.6678,3.5942-.4288.0132-.8594.0086-1.285.0524-.1047.0107-.1929.1791-.2886.2751.2309.1492.5772.4766.6718.4153A4.6973,4.6973,0,0,0,198.4777,16.653Zm-68.4058-3.9015c-7.0805-.33-7.1511-.0017-20.6675,6.054-3.8847,1.74-3.8368,1.8473-5.148,3.6489a13.3625,13.3625,0,0,0,7.4858-1.0413c5.5366-2.4447,11.0915-4.8474,16.6259-7.2967C129.0285,13.8242,130.0248,13.8568,130.0719,12.7515Zm-22.0045,12.783c4.0266.18,6.7274-.1931,9.33-1.3688q6.7385-3.0435,13.447-6.1535a7.7751,7.7751,0,0,0,1.6132-.9649.9022.9022,0,0,0,.1652-.8575,2.4866,2.4866,0,0,0-.9155-.93,1.2351,1.2351,0,0,0-.9208.0343c-4.5943,1.7838-9.3107,3.3273-13.7063,5.5144-1.8351.9132-3.6552,1.7555-5.565,2.48C110.2657,23.7629,108.723,23.9316,108.0674,25.5345Zm13.1415.5283a11.6028,11.6028,0,0,0,3.3841-.1982c6.9488-2.6677,13.5052-6.1658,20.53-9.6023-3.177-.7788-3.2109-.8642-5.3014-.0336-5.0276,1.9976-10.0139,4.0987-15.0305,6.1244A5.6949,5.6949,0,0,0,121.2089,26.0628Zm-11.1758-14.531c-8.7049-.6436-15.5032,3.62-22.71,6.4568-.2891.1138-.3615.7784-.5447,1.2095,3.6061.7513,4.5155.761,7.0005-.27q7.0807-2.9378,14.1158-5.9858A16.3019,16.3019,0,0,0,110.0331,11.5318Zm70.1814,6.0743c-7.6187-.4034-13.5123,2.4377-19.37,5.3706-.418.2093-.6683.7533-1.1658,1.3418C167.1866,24.8513,172.66,23.0938,180.2145,17.6061Zm-21.0081-2.3614c-5.2153-.5509-11.752,1.5494-16.788,5.1381C149.1285,21.4358,154.2233,18.498,159.2064,15.2447ZM76.509,10.31c-7.214-.1433-13.15,1.6716-17.66,5.4427a51.73,51.73,0,0,0,5.4993.0312c1.0715-.1049,2.6212-.4063,3.0341-1.1394.9667-1.7163,2.3535-1.7607,3.93-1.9289A7.736,7.736,0,0,0,76.509,10.31Zm15.533,2.914a12.9266,12.9266,0,0,0-6.63.8247c-2.9523,1.201-5.9437,2.3057-8.91,3.4737-.5375.2116-1.0328.5305-1.9124.9907C80.14,19.1876,86.5194,17.2405,92.042,13.224ZM76.2351,4.5967a9.8154,9.8154,0,0,0-2.4195.0244,167.6533,167.6533,0,0,0-17.3066,6.81c.8688.4965,1.3646,1.0093,1.8616,1.0106a6.0867,6.0867,0,0,0,2.2854-.5625q6.8373-2.8739,13.6373-5.836A13.1748,13.1748,0,0,0,76.2351,4.5967Zm98.4381,9.5573c-6.1675-.9777-10.607.99-14.7134,4.07A22.9023,22.9023,0,0,0,174.6732,14.154Zm-15.4244,6.7515a20.8414,20.8414,0,0,0-14.67,4.1162C150.6309,26.4626,155.0087,23.8844,159.2488,20.9055Zm-14.74,1.5183c-4.8316-.4524-8.6917-.1648-12.2679,1.9315-.6054.3548-.9825.71-.4513,1.5061C136.0392,26.159,140.2128,25.9968,144.5087,22.4238ZM85.52,24.8511c4.9047-.1237,9.862-.2491,14.1942-4.0426C91.98,21.276,89.0247,22.048,85.52,24.8511ZM78.2719,14.08c-1.4156-.7741-2.7243-.3606-4.0724.1768-3.5259,1.4056-7.0787,2.7439-10.6082,4.1408a19.6294,19.6294,0,0,0-1.9572,1.0316,7.9391,7.9391,0,0,0,4.1829.2C67.7427,19.2444,76.2631,15.3591,78.2719,14.08Zm83.1627-4.9076c-5.2124.0048-9.0437,1.6606-13.0783,4.0376C152.7714,13.7331,156.9906,12.4453,161.4346,9.1726Zm-15.1528,1.7462c-5.0306-.53-8.6314.9486-12.3942,3.4793C139.12,14.8293,140.9337,14.3273,146.2818,10.9188ZM57.228,18.238c-9.5869.5678-9.622.575-12.6209,2.7514C49.1924,21.1643,53.2729,21.2545,57.228,18.238ZM93.4992,11.27c3.73.0995,7.3039-.2356,10.6523-3.0075C99.7,7.1982,96.5588,9.15,93.4992,11.27Zm81.835-3.5492c-3.7929.0209-7.0955,1.3553-10.7066,3.9A16.1714,16.1714,0,0,0,175.3342,7.7205Zm-122.5423.83c4.0518,1.1685,7.0047-1.0836,10.0875-2.9517C59.1284,5.24,55.9258,6.802,52.7919,8.5509Zm-14.876,6.6206A12.1755,12.1755,0,0,0,27.51,17.6439C31.7348,17.5547,34.941,17.1387,37.9159,15.1715ZM198.1319,21.25c4.85.42,6.6851-.2742,8.4217-2.919C202.5809,18.5175,202.5809,18.5175,198.1319,21.25Zm-88.2343-5.6824c-3.4233-.3655-5.9289.9339-8.75,2.7135C105.3772,18.7805,105.3772,18.7805,109.8976,15.5678Zm83.9947,4.25c-3.1009-.4643-5.4738.82-8.2108,2.4145C190.0487,23.1124,190.9374,22.8342,193.8923,19.8182ZM76.1062,8.5065a15.6837,15.6837,0,0,0,8.013-1.0552c-1.0146-.5563-1.4809-1.0025-1.99-1.0581A7.5154,7.5154,0,0,0,76.1062,8.5065ZM53.9543,14.284c-4.0206-.79-5.1478-.5233-9.1033,2.0465C48.2778,17.2537,50.992,16.1182,53.9543,14.284Zm129.4439,4.813c3.988.1713,6.4107-.9025,8.6468-3.6837C188.4946,15.7456,185.9506,17.4574,183.3982,19.097ZM33.4826,12.3491c-4.4194-.7113-7.6785-.2349-10.1828,1.6661C26.9861,13.865,30.2133,14.2854,33.4826,12.3491Zm55.65-3.0334c-2.9723-.465-5.2906.5028-7.7879,1.9745C84.5614,12.5362,85.4968,12.2862,89.1324,9.3157Zm-37.8217,1.801c-5.3522-.719-5.8974-.6189-9.2816,1.499C45.0792,13.1712,47.6291,12.3655,51.3107,11.1167ZM217.34,17.71c-3.5046-.5808-5.5331.4465-7.7667,2.6225A9.522,9.522,0,0,0,217.34,17.71ZM121.5057,6.44c-2.279-.3678-4.5941-.7146-6.9593,1.3125C117.2987,8.1063,119.5251,8.2563,121.5057,6.44Zm-6.9206,6.2386c4.0006-.2428,4.0532-.2622,7.3323-2.4024C118.7819,9.6688,116.79,11.59,114.5851,12.6786ZM74.96,24.2227a6.2053,6.2053,0,0,0,6.2934-.5112A8.4607,8.4607,0,0,0,74.96,24.2227Zm111.2982-9.6879c-4.2275-1.0105-4.2275-1.0105-6.236.9827Zm-56.79-3.8655c2.31.2992,3.76.359,5.7688-.8207A5.9662,5.9662,0,0,0,129.4675,10.6693Zm51.3143,10.9094a6.944,6.944,0,0,0-6.0859,1.7509C177.1743,23.7389,178.9567,23.7391,180.7818,21.5787ZM211.4973,14.7a24.2259,24.2259,0,0,0,2.866.1068c.7232-.0882,1.599-.0673,1.7276-1.1144a.6163.6163,0,0,0-.0971-.412c-.6091-.793-1.3748-.512-2.066-.2A24.2574,24.2574,0,0,0,211.4973,14.7ZM69.3649,20.8063q-.0117.2676-.0234.5351c1.028,0,2.0569.0246,3.0834-.0161.28-.0111.87.104.7132-.519ZM131.1028,5.6427c2.0193.6965,3.07-.1364,4.41-1.043C133.7233,4.0341,132.729,5.0529,131.1028,5.6427ZM58.6268,22.3135q-.1554-.3021-.3105-.6043a4.7043,4.7043,0,0,0-1.3731.0307c-.37.1178-.6553.4989-.978.7637.3582.1976.753.6025,1.0664.5471A6.496,6.496,0,0,0,58.6268,22.3135ZM196.4954,8.4361c.383.1988.6386.4385.8973.4417a7.7879,7.7879,0,0,0,1.4184-.2479c-.3983-.21-.6519-.4523-.9058-.4529A7.7342,7.7342,0,0,0,196.4954,8.4361ZM219.9389,11.56h.4267c-.0888-.135-.1515-.3144-.2765-.3879-.0717-.0421-.2443.0876-.3716.14Zm2.55,6.6422c-.0172-.1085-.0183-.305-.054-.3115-.2818-.0514-.57-.0666-.8564-.0929q.03.2853.06.5707Q222.0643,18.2856,222.4894,18.202ZM93.3261,6.403l-.4067.1408a3.4976,3.4976,0,0,0,.5476.3213c.0414.0162.163-.1731.2478-.2678Z"/><path d="M121.0582,31.38q15.7388-1.1652,31.4788-2.3114a12.6146,12.6146,0,0,1,2.3661.3808c-.7905.635-1.1895,1.218-1.674,1.301a67.1242,67.1242,0,0,1-8.043,1.1284c-7.4889.36-14.9866.54-22.4818.7547a6.6878,6.6878,0,0,1-1.6842-.3964Q121.039,31.8084,121.0582,31.38Z"/><path d="M23.9466,29.0611c3.0434-.3153,8.778,1.7721,12.2155,4.4508-3.15.9982-5.5542-.808-8.1-1.6455C26.5128,31.3567,24.6932,31.0156,23.9466,29.0611Z"/><path d="M37.7,29.0127a18.3534,18.3534,0,0,1-12.5616-4.4155C30.0814,25.0723,33.513,26.6212,37.7,29.0127Z"/><path d="M135.0593,34.2686c-1.9653,1.4563-1.9647,1.4733-4.6687.9055.6934-.4807,1.1037-.994,1.5523-1.03A23.5648,23.5648,0,0,1,135.0593,34.2686Z"/><path d="M121.8965,35.5986l-3.1893.2839C119.8744,34.4476,119.8744,34.4476,121.8965,35.5986Z"/><path d="M109.3886,38.7331c1.1714,0,1.9312-.0425,2.68.0286a.7937.7937,0,0,1,.5045.5962.9145.9145,0,0,1-.4615.6981C111.1651,40.4177,110.2824,40.38,109.3886,38.7331Z"/><path class="cls-1" d="M85.0248,50.7621c3.555.3839,6.3861.6807,9.2149.9989a2.3535,2.3535,0,0,1,2.19,2.1894,18.6321,18.6321,0,0,1,.1583,4.76c-.6618,4.74-1.5029,9.4548-2.3148,14.1724a8.1869,8.1869,0,0,1-.6457,1.647c-3.065.5152-3.065.5152-6.5218-.3629C86.4423,66.7082,85.7685,59.1289,85.0248,50.7621Z"/><path class="cls-1" d="M28.9941,47.8242l3.6234-.3193c0-.4265.1161-.8479-.0194-.957-.7368-.5938-1.5955-1.0464-2.2831-1.6864a1.35,1.35,0,0,1-.2274-1.2772,2.8846,2.8846,0,0,1,1.3636-1.0937,2.4379,2.4379,0,0,1,1.408.1328c2.4206.7119,4.83,1.46,7.5386,2.2861a50.37,50.37,0,0,1-1.7307,6.7167,61.9238,61.9238,0,0,0-3.61,12.3862c-.2923,1.59-.861,1.721-3.5337,1.0479-.5758-2.282.1143-4.5784.51-6.8945.373-2.183.6712-4.3787,1.0031-6.5732-1.281-.547-1.5148.4393-1.6627,1.0554-.6674,2.7828-1.211,5.5951-1.8172,8.3929-.1905.8794.1037,1.9689-1.1891,2.5651-.1583-.3674-.5011-.7639-.4341-1.0709.5466-2.5037,1.2451-4.9674-.2167-7.4446a2.9865,2.9865,0,0,1,.0063-1.8715C28.0755,51.5117,28.5161,49.8228,28.9941,47.8242Z"/><path class="cls-1" d="M58.7462,71.0889a5.1855,5.1855,0,0,1-4.6811-.93c-.7751-5.808.3794-17.6394,2.2431-22.6563,2.34-.4689,4.55.2629,6.7257.8734C63.4758,52.7263,63.2313,54.0093,58.7462,71.0889Z"/><path class="cls-1" d="M19.1486,61.1668,15.74,59.5154A37.8538,37.8538,0,0,1,21.5268,39.51l4.2883,1.687c-1.2984,3.45-2.5986,6.6283-3.6876,9.8773C21.0782,54.2054,20.2469,57.41,19.1486,61.1668Z"/><path class="cls-1" d="M45.0115,45.92l2.837-.7344c-2.0776-1.8574-2.2037-2.165-1.4754-3.4441a2.0341,2.0341,0,0,1,2.7572-1.08,1.9534,1.9534,0,0,1,1.322,2.2511c-.1828,1.5539-.491,3.0934-.7566,4.6373-.5376,3.1236-1.0306,6.2564-1.6566,9.3624a7.8625,7.8625,0,0,1-1.1674,2.5136,1.5005,1.5005,0,0,1-2.1068-.0014c-.9266-1.643-2.1285-3.2593-1.7668-5.2819C43.4966,51.3558,43.8015,48.5028,45.0115,45.92Z"/><path class="cls-1" d="M68.8957,54.3977a14.4257,14.4257,0,0,1,6.52-.0521,2.0718,2.0718,0,0,1,1.7918,1.9418c.1535,1.8843.2445,3.7807.219,5.67a2.3279,2.3279,0,0,1-1.759,2.5036c-1.2511.2689-2.7291.37-3.52-.7536a31.4537,31.4537,0,0,1-3.1854-5.6936C68.5706,57.0972,68.8957,55.8737,68.8957,54.3977Z"/><path class="cls-1" d="M127.9084,67.205c-1.7621-2.6173-1.2038-5.165-1.8914-7.4087-.69-2.252-1.5754-4.444-2.3592-6.6178,1.0869-1.1175,2.0513-.977,2.1927.2344.3313,2.8347,1.9822,3.8057,4.5365,3.7607,2.3441-.0413,4.0183.7573,4.5028,3.3055-.4609,1.6136-1.8785,2.475-3.0337,3.5259C130.6986,65.0578,129.4267,65.9846,127.9084,67.205Z"/><path class="cls-1" d="M83.2124,90.5822c-5.1995.3885-10.2806-.924-15.4078-1.13-.155-2.8841.284-3.8106,1.9664-4.4153,3.8026-1.367,11.9.6827,13.622,4.9707C83.438,90.1194,83.3051,90.303,83.2124,90.5822Z"/><path class="cls-1" d="M112.953,57.8692c.2874,2.328.6074,4.6739.8463,7.028a3.3161,3.3161,0,0,1-.2481,1.8416c-.3515.6338-.9414,1.42-1.5515,1.5464a2.3467,2.3467,0,0,1-2.0327-.7788c-1.8062-3.09-3.85-6.1621-3.1144-10.2523A7.4037,7.4037,0,0,1,112.953,57.8692Z"/><path class="cls-1" d="M208.6719,38.9277a15.6659,15.6659,0,0,1,2.2993-1.15q3.7128-.9505,7.4551-1.7852c4.997-1.1187,9.9329-2.3725,14.5008-4.8252,1.175-.6309,2.5119-1.5254,4.0378-.667-.1809,1.5473-1.3789,2.1865-2.52,2.6522a69.7157,69.7157,0,0,1-9.4142,3.4712c-4.8,1.1868-9.7163,1.9045-14.5882,2.7943C210.1713,39.4679,209.8547,39.2666,208.6719,38.9277Z"/><path class="cls-1" d="M92.0766,98.0589l-4.8272-.8122c-1.2128-3.1464-.3173-6.1716-.1443-9.4207h5.1127C93.3632,91.0788,92.3861,94.2692,92.0766,98.0589Z"/><path class="cls-1" d="M135.7226,88.439c1.1622,5.9086-1.0245,9.8125-5.9362,12.2668-1.5549-.5906-1.3808-1.785-1.4743-2.8907a5.6431,5.6431,0,0,1,2.2207-5.4645c1.2725-.9536,2.337-2.1807,3.5614-3.2057A6.3817,6.3817,0,0,1,135.7226,88.439Z"/><path class="cls-1" d="M209.5921,71.95a7.89,7.89,0,0,1-.6406,7.0107c-1.5169,2.5672-2.8927,5.2179-4.2236,7.6394-1.2507.1849-1.2745-.436-1.3632-1.0721a9.8723,9.8723,0,0,1,1.6975-7.1886c1.3233-1.9491,2.4412-4.0375,3.6653-6.0549C208.7889,72.1829,208.9992,72.1722,209.5921,71.95Z"/><path class="cls-1" d="M178.0674,80.5487a4.1627,4.1627,0,0,1-.5425,4.79c-2.4208,3.1522-4.7878,6.3456-7.2313,9.5951a5.3755,5.3755,0,0,1-.2988-5.2926A63.4814,63.4814,0,0,1,178.0674,80.5487Z"/><path class="cls-1" d="M169.8983,85.253c-.7436-2.4621-.7622-4.4655.8728-6.3669,1.6446-1.9124,3.1249-3.9656,4.7106-5.93.1517-.1879.5409-.1841,1.0682-.3451a4.021,4.021,0,0,1,.4543,4.3479,36.7515,36.7515,0,0,1-3.7,4.9023C172.3435,83.0245,171.6513,84.51,169.8983,85.253Z"/><path class="cls-1" d="M210.4544,81.9253c1.55,3.9949.1157,7.3175-2.3782,10.3513a2.8929,2.8929,0,0,1-3.8884.7353c0-.4849-.1631-1.0231.0255-1.37,1.7312-3.1866,3.514-6.3455,5.3221-9.4892C209.6359,81.9778,210.0914,82.0073,210.4544,81.9253Z"/><path class="cls-1" d="M219.3936,31.51a15.8972,15.8972,0,0,1,2.1892-.9961q6.1564-1.73,12.3436-3.35c.2353-.062.56.2175,1.0686.4338-1.9744,3.5808-5.7118,3.6306-8.9015,4.4719C221.6183,33.25,221.579,33.1009,219.3936,31.51Z"/><path class="cls-1" d="M135.7967,71.9857a4.5124,4.5124,0,0,1-1.46,5.5444c-1.62,1.4286-2.8172,3.3579-4.8766,4.4272-1.1223-1.309-1.1966-2.69-.4175-3.6563,1.8709-2.32,3.6353-4.7986,6.2852-6.3645C135.4362,71.8724,135.6374,71.9655,135.7967,71.9857Z"/><path class="cls-1" d="M53.8283,87.0033a4.5183,4.5183,0,0,1,4.529.6371v6.5334c-1.6659.5341-2.98-.2585-4.3314-1.1911A11.6616,11.6616,0,0,1,53.8283,87.0033Z"/><path class="cls-1" d="M172.1285,59.7468c1.9243,3.0263,1.9706,3.0624.2306,5.2947-1.1173,1.4338-2.05,3.1063-3.845,3.9881C166.5856,63.8481,167.3544,61.9658,172.1285,59.7468Z"/><path class="cls-1" d="M135.7347,79.4918c.9838,2.6811.4511,4.3512-1.0646,5.8139-1.6814,1.6228-3.249,3.3719-5.3878,5.1809-.9034-2.2333-.8179-3.961.3644-5.2538A40.5314,40.5314,0,0,1,135.7347,79.4918Z"/><path class="cls-1" d="M177.1232,96.951c-2.9668,1.16-2.9692,1.1474-5.2374.2725,1.3438-3.0992,2.6153-4.8067,5.7252-7.6882C178.5977,92.5791,178.5554,93.2218,177.1232,96.951Z"/><path class="cls-1" d="M169.7636,76.96c-1.2759-2.3752-1.3784-3.9715-.1263-5.502,1.4964-1.83,3.026-3.6321,4.5368-5.4407,1.6495,1.3648,1.929,1.9777,1.2259,3.1294A71.7318,71.7318,0,0,1,169.7636,76.96Z"/><path class="cls-1" d="M93.1986,80.9315c-.1589,2.1442-.2624,3.541-.3581,4.8322-1.6806,1.4383-3.3728,1.0442-5.15.7271-1.1339-1.5854-.658-3.277-.469-5.0268C89.0611,80.3674,90.8727,81.0033,93.1986,80.9315Z"/><path class="cls-1" d="M152.8833,91.3611c1.3127-3.3735,1.5732-3.7166,4.7862-6.2626a6.29,6.29,0,0,1,1.5516.7453,2.2877,2.2877,0,0,1,.6033,3.289C158.1052,91.7414,155.736,92.24,152.8833,91.3611Z"/><path class="cls-1" d="M203.8164,55.8708l2.5422,3.5088a21.9265,21.9265,0,0,1-3.6356,7.253C200.9747,62.6538,200.9312,59.33,203.8164,55.8708Z"/><path class="cls-1" d="M128.9537,74.1168c-1.2786-3.2867-.9634-5.2095,1.3365-6.6151,1.573-.9613,2.7083-2.5828,4.874-3.3321.0389.961.3549,1.8514.0495,2.3884C133.6709,69.2713,131.4637,71.4258,128.9537,74.1168Z"/><path class="cls-1" d="M203.8705,76.0511c-1.2831-1.9865-1.4915-3.3423-.8071-4.7119,1.3286-2.6586,2.7271-5.2822,4.2225-8.1627a3.5586,3.5586,0,0,1,.8536,4.4656C206.8553,70.3257,205.4526,72.9526,203.8705,76.0511Z"/><path class="cls-1" d="M33.1492,89.5491c-2.8146-.6111-3.3235-.9951-3.3365-2.63a26.4592,26.4592,0,0,1,.2058-2.8573c.0932-.92.2309-1.836.3385-2.6725,1.5356-.6637,2.4945-.1442,2.706,1.1231A18.9409,18.9409,0,0,1,33.1492,89.5491Z"/><path class="cls-1" d="M85.5186,45.7465a21.19,21.19,0,0,1,8.7106.2574c.3682.07.6795.8935.8171,1.42.0376.144-.66.7013-1.0077.6895-2.5221-.0852-5.0459-.2151-7.5584-.4475C85.5849,47.5833,85.1627,46.9141,85.5186,45.7465Z"/><path class="cls-1" d="M185.6216,49.6106a23.6187,23.6187,0,0,1-1.2324,2.1516c-1.8685,2.4536-3.7675,4.8842-5.8921,7.6277a5.7374,5.7374,0,0,1,.7015-5.781C180.5158,51.5861,182.06,49.8435,185.6216,49.6106Z"/><path class="cls-1" d="M15.2017,84.0425c-.3421-3.096-1.7359-6.1346-.5424-9.3221,2.2329.3865,2.376.4705,2.4847,1.9467.1621,2.2.2715,4.4034.4213,6.9075-.8076.0939-1.6718.1943-2.5362.2964Z"/><path class="cls-1" d="M103.9378,91.1676c2.4273-1.8544,5.2576-1.7945,8.0887-2.2166C111.0868,92.5766,107.9932,93.3692,103.9378,91.1676Z"/><path class="cls-1" d="M76.6176,49.4368c-.0655,1.3763-.1074,2.254-.1575,3.31l-6.6961-.496c.0839-.8065-.0636-1.6627.29-2.1677a2.7383,2.7383,0,0,1,1.8779-1.0521A38.0914,38.0914,0,0,1,76.6176,49.4368Z"/><path class="cls-1" d="M53.95,43.1263c-.8179,7.4767-1.2368,9.213-2.7673,11.3443-1.0235-1.1347-.5657-2.4207-.26-3.531C51.66,48.2606,51.4657,45.19,53.95,43.1263Z"/><path class="cls-1" d="M93.6475,76.5992c-.0306.6983.1672,1.4541-.1241,1.8494-.8928,1.2117-4.7947,1.4216-6.0553.37a1.4448,1.4448,0,0,1-.3739-1.2356c.1475-.5293.5252-1.3148.9271-1.3977A9.7871,9.7871,0,0,1,93.6475,76.5992Z"/><path class="cls-1" d="M211.4207,49.1232c1.1978-2.2153,3.1914-2.2121,5.0594-2.1139,1.63.0857,3.5522-.15,4.6885,2.1139Z"/><path class="cls-1" d="M3.3693,69.6294c3.0531.7087,3.1414.8929,2.5627,5.3491C2.4311,73.4552,2.2989,73.18,3.3693,69.6294Z"/><path class="cls-1" d="M252.4151,72.8091c-1.0971-2.5127-1.3367-4.9166.4012-7.5233a6.3979,6.3979,0,0,1,1.0689,1.7484C254.2966,69.1281,253.35,70.9687,252.4151,72.8091Z"/><path class="cls-1" d="M121.1407,89.68c-2.9488,2.8527-2.9488,2.8527-6.4,2.4036a5.4691,5.4691,0,0,1,3.7844-3.3222C119.1433,88.6316,119.9124,89.2216,121.1407,89.68Z"/><path class="cls-1" d="M233.9738,70.91c1.74,2.7292.8639,5.1049-.34,7.5327C231.7909,75.8447,231.8374,74.252,233.9738,70.91Z"/><path class="cls-1" d="M58.791,79.415c-.6562.623-1.0086,1.2334-1.4882,1.3595a3.394,3.394,0,0,1-3.3987-.963,2.1462,2.1462,0,0,1-.2089-1.7309c.2565-.9611,1.5422-1.2759,3.2325-.6058C57.6229,77.7505,58.0754,78.6394,58.791,79.415Z"/><path class="cls-1" d="M251.0052,62.3183c-1.75-2.9334-1.9509-5.2494-.0014-7.6992C252.9363,57.1113,252.6519,59.4659,251.0052,62.3183Z"/><path class="cls-1" d="M44.7633,82.49c.1038-1.8624,1.3658-1.7535,2.3993-1.7978,2.0047-.086,3.71.444,4.48,2.8841C49.0282,84.5193,46.9563,83.0861,44.7633,82.49Z"/><path class="cls-1" d="M248.8349,44.8531c1.333,3.0425,1.2818,5.4109.0538,7.7275-1.4876.0485-1.693-1.0664-1.84-1.8981C246.7054,48.7455,247.4163,47.0271,248.8349,44.8531Z"/><path class="cls-1" d="M71.01,46.4338c1.3368-2.8021,1.3368-2.8021,5.4538-1.9.2985,2.1355.0667,2.6471-1.2943,2.535C73.9368,46.9672,72.7179,46.7026,71.01,46.4338Z"/><path class="cls-1" d="M57.975,85.51c-1.2178-.1986-2.1428-.273-3.0239-.5108-1.3394-.3614-1.3264-.4095-.9929-3.1533l4.206.2531C58.0928,83.3856,58.0388,84.361,57.975,85.51Z"/><path class="cls-1" d="M170.088,42.1479c-3.7935,1.5471-4.3855,1.5565-7.1563.1139C166.5882,40.6668,166.83,40.6629,170.088,42.1479Z"/><path class="cls-1" d="M123.1927,95.529,121.328,93.08a14.2261,14.2261,0,0,1,1.1589-1.5112,1.431,1.431,0,0,1,2.06-.2833,2.0426,2.0426,0,0,1,.5413,2.8758A8.9349,8.9349,0,0,1,123.1927,95.529Z"/><path class="cls-1" d="M43.0228,85.4669c.2985-.5691.5205-1.2709.6826-1.2573,1.2254.1028,2.44.3387,3.6561.5473a7.9715,7.9715,0,0,1,4.2629,1.8114C48.3182,87.1566,45.8086,86.0543,43.0228,85.4669Z"/><path class="cls-1" d="M58.8608,76.1335A34.9194,34.9194,0,0,1,54.41,75.1168c-.344-.13-.55-1.0153-.5377-1.5482a1.2441,1.2441,0,0,1,.9017-.8407,8.86,8.86,0,0,1,3.1582.5805C58.3519,73.5009,58.376,74.555,58.8608,76.1335Z"/><path class="cls-1" d="M231.5621,65.9278c-.283-1.9486-2.4913-3.9223.0035-6.0593C232.7244,62.0193,233.75,63.926,231.5621,65.9278Z"/><path class="cls-1" d="M112.1079,55.3187l-4.5707-.3951c-.484-1.5876-.119-2.49,1.3217-2.631C110.8627,52.0964,111.38,52.5469,112.1079,55.3187Z"/><path class="cls-1" d="M240.2417,42.4935H234.071C236.4124,40.3032,236.9164,40.27,240.2417,42.4935Z"/><path class="cls-1" d="M27.9681,36.1742c-.8335.8955-1.3429,1.86-1.7885,1.8316a5.1885,5.1885,0,0,1-2.4035-1.1343,2.8815,2.8815,0,0,1,.5626-1.4513A28.8538,28.8538,0,0,1,27.9681,36.1742Z"/><path class="cls-1" d="M32.9643,75.9152c-2.2375-.8608-3.0505-1.8631-2.3867-2.8929a1.8369,1.8369,0,0,1,1.5992-.4756C33.4244,72.8379,33.4855,73.2243,32.9643,75.9152Z"/><path class="cls-1" d="M34.488,69.2367c-.6242.5587-.9166,1.0384-1.2647,1.0831a2.7654,2.7654,0,0,1-1.7783-.2619,1.9788,1.9788,0,0,1-.7142-1.5132.9733.9733,0,0,1,1.4054-.7723A16.67,16.67,0,0,1,34.488,69.2367Z"/><path class="cls-1" d="M157.4424,57.7447a7.9271,7.9271,0,0,1-5.2841-1.95C154.629,54.9,155.2222,55.1,157.4424,57.7447Z"/><path class="cls-1" d="M228.4473,52.1768c1.304,1.9142,1.5712,3.359.2173,5.44-.5872-1.2179-1.2171-1.9638-1.2389-2.727C227.4036,54.1172,227.9828,53.3271,228.4473,52.1768Z"/><path class="cls-1" d="M166.1217,60.3276c.47-3.8214.5063-3.8524,3.1265-2.9784C169.0432,58.9925,167.8421,59.6324,166.1217,60.3276Z"/><path class="cls-1" d="M234.7459,82.7754c1.0653,3.1432.976,3.3316-1.51,3.8546C233.0034,85.2407,233.8417,84.28,234.7459,82.7754Z"/><path class="cls-1" d="M15.2929,62.6789a6.4794,6.4794,0,0,1,1.36.11c.8528.3212,1.87.527,1.9083,1.7166a.895.895,0,0,1-.5061.6962C16.65,65.4714,15.82,64.7705,15.2929,62.6789Z"/><path class="cls-1" d="M4.5131,65.4779A18.5586,18.5586,0,0,1,6.1087,66.84c.1293.1334.0565.6184-.09.82-.1481.2035-.5944.4277-.7529.3442a10.1676,10.1676,0,0,1-1.8235-1.2356c-.1273-.108-.0729-.6143.0711-.8087C3.6667,65.7526,4.0259,65.6976,4.5131,65.4779Z"/><path class="cls-1" d="M17.6058,72.2346c-.426.4031-.7261.8-.818.7562a17.9026,17.9026,0,0,1-2.2349-1.2651,1.2213,1.2213,0,0,1,.203-.7557,3.6108,3.6108,0,0,1,1.6367.1256C16.86,71.305,17.188,71.8235,17.6058,72.2346Z"/><path class="cls-1" d="M246.2929,42.199a3.0652,3.0652,0,0,1-.4885,3.477c-.3706-.207-.9626-.332-1.07-.6314C244.0861,43.2439,244.1233,43.2305,246.2929,42.199Z"/><path class="cls-1" d="M149.9229,90.2005a27.2787,27.2787,0,0,1,1.3118-2.4337c.2034-.3074.6935-.4249,1.457-.858A3.55,3.55,0,0,1,149.9229,90.2005Z"/><path class="cls-1" d="M15,67.7354c1.0757-.8522,1.9552-.3986,2.7223.4614a.7251.7251,0,0,1-.7027,1.1676C16.1323,69.16,15.19,68.9553,15,67.7354Z"/><path class="cls-1" d="M7.2094,59.7168c-.2859.1484-.6438.4939-.9862.4791-.77-.0332-1.4588-.322-1.5617-1.2681a.9331.9331,0,0,1,1.2052-.9208A1.56,1.56,0,0,1,7.2094,59.7168Z"/><path class="cls-1" d="M80.1206,58.0287a7.4112,7.4112,0,0,1-.75-1.6005c-.0893-.8276.4534-1.422.9336-1.1136.2233.1435.5041.4746.4746.68A13.94,13.94,0,0,1,80.1206,58.0287Z"/><path class="cls-1" d="M200.1863,57.0763c-.4451-.7223-.8282-1.0652-.8047-1.3774.0282-.3734.4038-.7206.6289-1.0791.3319.2105.9615.46.94.6242A8.09,8.09,0,0,1,200.1863,57.0763Z"/><path class="cls-1" d="M33.3116,78.3511c-.7817.4869-1.1647.9109-1.4181.8439a3.0462,3.0462,0,0,1-1.3149-.8653,1.9508,1.9508,0,0,1,.5416-.9234A16.5636,16.5636,0,0,1,33.3116,78.3511Z"/><path class="cls-1" d="M120.6976,54.82c-.47.1812-.9986.5146-1.1167.405a1.4943,1.4943,0,0,1-.4758-1.1086c.0309-.2378.5862-.4075.9067-.6078Z"/><path class="cls-1" d="M57.4753,43.5753c.3857.7417.764,1.1388.683,1.3839a5.3356,5.3356,0,0,1-.8812,1.29c-.245-.2921-.726-.6227-.686-.8685A7.7157,7.7157,0,0,1,57.4753,43.5753Z"/><path class="cls-1" d="M62.407,43.9615l-.7937,1.1244c-.2717-.2992-.7559-.596-.7593-.8983-.0039-.343.4227-.6909.6622-1.0367Z"/><path class="cls-1" d="M80.4628,50.6156a18.967,18.967,0,0,1,.2843,2.0652c.0058.1359-.444.4051-.6842.4057-.2365.0006-.67-.2534-.677-.41a19.586,19.586,0,0,1,.11-2.1239Z"/><path class="cls-1" d="M225.4489,49.4485q.3615.1915.722.3838-.31.4707-.62.9417-.3837-.4482-.7678-.8965Z"/><path class="cls-1" d="M116.2107,60.5394c0-.44-.0055-.8563.0117-1.2715.0012-.0283.1724-.0495.2644-.074.0261.4157.0566.8314.0668,1.2475A1.5728,1.5728,0,0,1,116.2107,60.5394Z"/><path class="cls-1" d="M110.777,47.8123a4.5124,4.5124,0,0,1-1.1647.6429c-.1787.0333-.6474-.4172-.614-.5008a6.178,6.178,0,0,1,.6787-1.0824Z"/><path class="cls-1" d="M124.9062,48.1276c-.2437.1579-.5066.4691-.7282.4421a8.1256,8.1256,0,0,1-1.6091-.4613.3851.3851,0,0,1-.04-.3306c.2215-.1814.495-.4731.7161-.4465a8.3026,8.3026,0,0,1,1.6148.4547C124.9082,47.8021,124.8921,48.0089,124.9062,48.1276Z"/><path class="cls-1" d="M6.1952,63.5194c-.2458.1153-.5629.3849-.7224.3116a4.6163,4.6163,0,0,1-.9494-.7648,4.6173,4.6173,0,0,1,1.2111-.1927C5.9061,62.8891,6.0429,63.2914,6.1952,63.5194Z"/><path class="cls-1" d="M42.4369,49.06,41.6,51.122c-.3008-1.2848-.3008-1.2848.7962-2.0459Z"/><path class="cls-1" d="M28.0671,68.6064c-.1731-.24-.4767-.4775-.4806-.72-.0041-.2522.2814-.5091.44-.7639.1672.2438.4587.4836.4666.7324C28.5009,68.1007,28.2216,68.3554,28.0671,68.6064Z"/><path class="cls-1" d="M15.9159,39.0235q-.1772.3654-.3556.73c-.0854-.1165-.2628-.2584-.239-.3446a4.5307,4.5307,0,0,1,.3416-.74Q15.7891,38.8459,15.9159,39.0235Z"/><path class="cls-1" d="M28.13,72.2054a4.2282,4.2282,0,0,1,.22.86c.004.0578-.3612.1412-.5559.2128a7.4758,7.4758,0,0,1,.0117-.9012C27.8133,72.3078,28.016,72.262,28.13,72.2054Z"/><path class="cls-1" d="M42.3965,49.0761V47.449l.0369,0q0,.8038.0019,1.6091Z"/><path class="cls-1" d="M104.1071,58.238a2.482,2.482,0,0,1-.6322.024c-.0678-.0136-.1687-.3126-.12-.3732a3.6029,3.6029,0,0,1,.5564-.4792C103.9732,57.6715,104.0352,57.9335,104.1071,58.238Z"/><path class="cls-1" d="M28.3113,80.9307c-.2494.0865-.5792.3116-.7247.2254-.22-.13-.3107-.4777-.4565-.7328.2805-.0925.6052-.3138.8274-.2373C28.1387,80.2486,28.1971,80.6671,28.3113,80.9307Z"/><path class="cls-1" d="M80.4059,46.3031q-.2471.37-.4942.7385c-.1263-.27-.3637-.5462-.3473-.8067.0162-.2532.2928-.49.4552-.7337Q80.2128,45.9019,80.4059,46.3031Z"/><path class="cls-1" d="M100.0227,54.5646a2.1362,2.1362,0,0,1-.1095-.5306c.0041-.0451.1749-.0752.27-.1121C100.14,54.094,100.097,54.2662,100.0227,54.5646Z"/><path class="cls-1" d="M28.3318,77.2922q-.1548.1623-.3081.3238a4.7675,4.7675,0,0,1-.3175-.7693c-.0174-.0715.1979-.1993.3064-.3014Q28.1725,76.9185,28.3318,77.2922Z"/><path class="cls-1" d="M18.6424,40.0279c-.0989.0255-.2639.0974-.2845.0679a1.1926,1.1926,0,0,1-.1177-.3488l.477-.1039Z"/><path class="cls-1" d="M130.0719,12.7515c-.0471,1.1053-1.0434,1.0727-1.7038,1.3649-5.5344,2.4493-11.0893,4.852-16.6259,7.2967a13.3625,13.3625,0,0,1-7.4858,1.0413c1.3112-1.8016,1.2633-1.9085,5.148-3.6489C122.9208,12.75,122.9914,12.4219,130.0719,12.7515Z"/><path class="cls-1" d="M108.0674,25.5345c.6556-1.6029,2.1983-1.7716,3.4481-2.2457,1.91-.7243,3.73-1.5666,5.565-2.48,4.3956-2.1871,9.112-3.7306,13.7063-5.5144a1.2351,1.2351,0,0,1,.9208-.0343,2.4866,2.4866,0,0,1,.9155.93.9022.9022,0,0,1-.1652.8575,7.7751,7.7751,0,0,1-1.6132.9649q-6.7147,3.096-13.447,6.1535C114.7948,25.3414,112.094,25.715,108.0674,25.5345Z"/><path class="cls-1" d="M121.2089,26.0628a5.6949,5.6949,0,0,1,3.5818-3.71c5.0166-2.0257,10.0029-4.1268,15.0305-6.1244,2.09-.8306,2.1244-.7452,5.3014.0336-7.0244,3.4365-13.5808,6.9346-20.53,9.6023A11.6028,11.6028,0,0,1,121.2089,26.0628Z"/><path class="cls-1" d="M110.0331,11.5318a16.3019,16.3019,0,0,1-2.1382,1.41q-7.0392,3.0365-14.1158,5.9858c-2.485,1.031-3.3944,1.0213-7.0005.27.1832-.4311.2556-1.0957.5447-1.2095C94.53,15.152,101.3282,10.8882,110.0331,11.5318Z"/><path class="cls-1" d="M180.2145,17.6061c-7.555,5.4877-13.0279,7.2452-20.536,6.7124.4975-.5885.7478-1.1325,1.1658-1.3418C166.7022,20.0438,172.5958,17.2027,180.2145,17.6061Z"/><path class="cls-1" d="M159.2064,15.2447c-4.9831,3.2533-10.0779,6.1911-16.788,5.1381C147.4544,16.7941,153.9911,14.6938,159.2064,15.2447Z"/><path class="cls-1" d="M76.509,10.31a7.736,7.736,0,0,1-5.1969,2.4056c-1.5765.1682-2.9633.2126-3.93,1.9289-.4129.7331-1.9626,1.0345-3.0341,1.1394a51.73,51.73,0,0,1-5.4993-.0312C63.3592,11.9816,69.295,10.1667,76.509,10.31Z"/><path class="cls-1" d="M92.042,13.224C86.5194,17.2405,80.14,19.1876,74.59,18.5131c.88-.46,1.3749-.7791,1.9124-.9907,2.966-1.168,5.9574-2.2727,8.91-3.4737A12.9266,12.9266,0,0,1,92.042,13.224Z"/><path class="cls-1" d="M76.2351,4.5967a13.1748,13.1748,0,0,1-1.9418,1.4465Q67.494,9.0059,60.656,11.8792a6.0867,6.0867,0,0,1-2.2854.5625c-.497-.0013-.9928-.5141-1.8616-1.0106a167.6533,167.6533,0,0,1,17.3066-6.81A9.8154,9.8154,0,0,1,76.2351,4.5967Z"/><path class="cls-1" d="M174.6732,14.154a22.9023,22.9023,0,0,1-14.7134,4.07C164.0662,15.1444,168.5057,13.1763,174.6732,14.154Z"/><path class="cls-1" d="M159.2488,20.9055c-4.24,2.9789-8.6179,5.5571-14.67,4.1162A20.8414,20.8414,0,0,1,159.2488,20.9055Z"/><path class="cls-1" d="M144.5087,22.4238c-4.2959,3.573-8.47,3.7352-12.7192,3.4376-.5312-.7956-.1541-1.1513.4513-1.5061C135.817,22.259,139.6771,21.9714,144.5087,22.4238Z"/><path class="cls-1" d="M85.52,24.8511c3.5045-2.8031,6.46-3.5751,14.1942-4.0426C95.3822,24.602,90.4249,24.7274,85.52,24.8511Z"/><path class="cls-1" d="M78.2719,14.08c-2.0088,1.2789-10.5292,5.1642-12.4549,5.5487a7.9391,7.9391,0,0,1-4.1829-.2,19.6294,19.6294,0,0,1,1.9572-1.0316c3.53-1.3969,7.0823-2.7352,10.6082-4.1408C75.5476,13.72,76.8563,13.3061,78.2719,14.08Z"/><path class="cls-1" d="M161.4346,9.1726c-4.444,3.2727-8.6632,4.5605-13.0783,4.0376C152.3909,10.8332,156.2222,9.1774,161.4346,9.1726Z"/><path class="cls-1" d="M146.2818,10.9188c-5.3481,3.4085-7.1621,3.9105-12.3942,3.4793C137.65,11.8674,141.2512,10.389,146.2818,10.9188Z"/><path class="cls-1" d="M57.228,18.238c-3.9551,3.0165-8.0356,2.9263-12.6209,2.7514C47.606,18.813,47.6411,18.8058,57.228,18.238Z"/><path class="cls-1" d="M93.4992,11.27C96.5588,9.15,99.7,7.1982,104.1515,8.2622,100.8031,11.0341,97.2291,11.3692,93.4992,11.27Z"/><path class="cls-1" d="M175.3342,7.7205a16.1714,16.1714,0,0,1-10.7066,3.9C168.2387,9.0758,171.5413,7.7414,175.3342,7.7205Z"/><path class="cls-1" d="M52.7919,8.5509C55.9258,6.802,59.1284,5.24,62.8794,5.5992,59.7966,7.4673,56.8437,9.7194,52.7919,8.5509Z"/><path class="cls-1" d="M37.9159,15.1715c-2.9749,1.9672-6.1811,2.3832-10.4061,2.4724A12.1755,12.1755,0,0,1,37.9159,15.1715Z"/><path class="cls-1" d="M198.5621,16.7577c2.9957-2.8655,4.94-3.6282,9.6669-3.5955-3.1568,2.2832-5.9937,4.1071-9.7513,3.4908Z"/><path class="cls-1" d="M198.1319,21.25c4.449-2.7327,4.449-2.7327,8.4217-2.919C204.817,20.976,202.9817,21.6705,198.1319,21.25Z"/><path class="cls-1" d="M34.054,10.3965c.1954-.403.3275-1.1068.5961-1.1635,3.5643-.7527,7.1479-1.4146,11.7216-2.29a9.9144,9.9144,0,0,1-6.6161,3.0539c-1.9072.17-3.82.2763-5.73.4107Z"/><path class="cls-1" d="M109.8976,15.5678c-4.52,3.2127-4.52,3.2127-8.75,2.7135C103.9687,16.5017,106.4743,15.2023,109.8976,15.5678Z"/><path class="cls-1" d="M193.8923,19.8182c-2.9549,3.016-3.8436,3.2942-8.2108,2.4145C188.4185,20.6383,190.7914,19.3539,193.8923,19.8182Z"/><path class="cls-1" d="M76.1062,8.5065a7.5154,7.5154,0,0,1,6.023-2.1133c.5091.0556.9754.5018,1.99,1.0581A15.6837,15.6837,0,0,1,76.1062,8.5065Z"/><path class="cls-1" d="M53.9543,14.284c-2.9623,1.8342-5.6765,2.97-9.1033,2.0465C48.8065,13.7607,49.9337,13.4941,53.9543,14.284Z"/><path class="cls-1" d="M183.3982,19.097c2.5524-1.64,5.0964-3.3514,8.6468-3.6837C189.8089,18.1945,187.3862,19.2683,183.3982,19.097Z"/><path class="cls-1" d="M33.4826,12.3491C30.2133,14.2854,26.9861,13.865,23.3,14.0152,25.8041,12.1142,29.0632,11.6378,33.4826,12.3491Z"/><path class="cls-1" d="M89.1324,9.3157c-3.6356,2.97-4.571,3.22-7.7879,1.9745C83.8418,9.8185,86.16,8.8507,89.1324,9.3157Z"/><path class="cls-1" d="M51.3107,11.1167c-3.6816,1.2488-6.2315,2.0545-9.2816,1.499C45.4133,10.4978,45.9585,10.3977,51.3107,11.1167Z"/><path class="cls-1" d="M217.34,17.71a9.522,9.522,0,0,1-7.7667,2.6225C211.8072,18.1564,213.8357,17.1291,217.34,17.71Z"/><path class="cls-1" d="M121.5057,6.44c-1.9806,1.8163-4.207,1.6663-6.9593,1.3125C116.9116,5.7254,119.2267,6.0722,121.5057,6.44Z"/><path class="cls-1" d="M114.5851,12.6786c2.2045-1.0882,4.1968-3.01,7.3323-2.4024C118.6383,12.4164,118.5857,12.4358,114.5851,12.6786Z"/><path class="cls-1" d="M74.96,24.2227a8.4607,8.4607,0,0,1,6.2934-.5112A6.2053,6.2053,0,0,1,74.96,24.2227Z"/><path class="cls-1" d="M186.2579,14.5348l-6.236.9827C182.03,13.5243,182.03,13.5243,186.2579,14.5348Z"/><path class="cls-1" d="M129.4675,10.6693a5.9662,5.9662,0,0,1,5.7688-.8207C133.2272,11.0283,131.7779,10.9685,129.4675,10.6693Z"/><path class="cls-1" d="M180.7818,21.5787c-1.8251,2.16-3.6075,2.16-6.0859,1.7509A6.944,6.944,0,0,1,180.7818,21.5787Z"/><path class="cls-1" d="M211.4973,14.7a24.2574,24.2574,0,0,1,2.43-1.6191c.6912-.3125,1.4569-.5935,2.066.2a.6163.6163,0,0,1,.0971.412c-.1286,1.0471-1.0044,1.0262-1.7276,1.1144A24.2259,24.2259,0,0,1,211.4973,14.7Z"/><path class="cls-1" d="M69.3649,20.8063h3.7732c.1566.623-.433.5079-.7132.519-1.0265.0407-2.0554.0161-3.0834.0161Q69.3531,21.0738,69.3649,20.8063Z"/><path class="cls-1" d="M131.1028,5.6427c1.6262-.59,2.62-1.6086,4.41-1.043C134.173,5.5063,133.1221,6.3392,131.1028,5.6427Z"/><path class="cls-1" d="M58.6268,22.3135a6.496,6.496,0,0,1-1.5952.7372c-.3134.0554-.7082-.3495-1.0664-.5471.3227-.2648.6084-.6459.978-.7637a4.7043,4.7043,0,0,1,1.3731-.0307Q58.4714,22.0113,58.6268,22.3135Z"/><path class="cls-1" d="M196.4954,8.4361a7.7342,7.7342,0,0,1,1.41-.2591c.2539.0006.5075.2431.9058.4529a7.7879,7.7879,0,0,1-1.4184.2479C197.134,8.8746,196.8784,8.6349,196.4954,8.4361Z"/><path class="cls-1" d="M219.9389,11.56l-.2214-.2479c.1273-.0524.3-.1821.3716-.14.125.0735.1877.2529.2765.3879Z"/><path class="cls-1" d="M222.49,18.2025q-.4254.0834-.8508.1658-.03-.2853-.06-.5707c.2864.0263.5747.0415.8565.0929C222.4711,17.897,222.4722,18.0935,222.49,18.2025Z"/><path class="cls-1" d="M34.0254,10.4081c-.3049-.0343-.6106-.0621-.9142-.1057a4.2957,4.2957,0,0,1-.4418-.1093,2.69,2.69,0,0,1,.464.0031c.3046.053.6047.1324.9135.2006C34.054,10.3965,34.0254,10.4081,34.0254,10.4081Z"/><path class="cls-1" d="M93.3261,6.403l.3887.1943c-.0848.0947-.2064.284-.2478.2678a3.4976,3.4976,0,0,1-.5476-.3213Z"/><path class="cls-1" d="M198.4777,16.653a4.6973,4.6973,0,0,1-.8183.8462c-.0946.0613-.4409-.2661-.6718-.4153.0957-.096.1839-.2644.2886-.2751.4256-.0438.8562-.0392,1.2854-.0518Z"/></g></g></svg>