<svg width="158" height="32" viewBox="0 0 158 32" fill="none" xmlns="http://www.w3.org/2000/svg">
<circle cx="58" cy="16" r="14" fill="#46678D"/>
<path d="M64.9233 18.3341C64.7079 18.0418 64.6596 17.7459 64.7774 17.4461C65.0711 16.6463 69.3494 11.5661 67.5671 11.5661C66.3424 11.5824 64.8696 11.5661 63.6954 11.5661C63.4775 11.6192 63.3364 11.7336 63.2482 11.9663C62.5616 13.5495 61.7214 15.4815 60.4901 16.7231C60.3281 16.8538 60.2271 16.8482 60.0425 16.7999C59.1788 15.8905 60.0998 12.7751 59.5745 11.5441C59.471 11.3031 59.2444 11.1942 59.0125 11.133C57.8399 10.8535 55.1617 11.0198 54.7247 11.5824C54.5998 11.7432 54.5824 11.831 54.6725 11.8454C55.0889 11.9111 55.3836 12.0682 55.5571 12.3167C55.8844 13.0374 56.1256 16.8764 55.1617 16.8764C54.1978 16.8764 52.6435 13.1088 52.2165 12.0644C52.1029 11.7499 51.8137 11.5696 51.5089 11.5164L48.6573 11.5382C48.1561 11.5382 47.8759 11.7854 48.0536 12.2836C49.5388 15.9703 52.789 23.1164 57.7739 22.9375C58.2733 22.9375 59.1324 23.1292 59.5224 22.6963C60.0584 21.9852 59.4047 20.7188 60.3237 20.2359C60.5555 20.1126 60.7958 20.2159 60.9949 20.3676C62.0172 21.146 62.5599 22.5122 63.8206 22.927C64.0422 23 64.2365 23.0183 64.4032 22.9818L67.0674 22.938C67.562 22.938 68.0492 22.7179 67.9469 22.1266C67.5585 20.8585 66.0108 19.555 64.9233 18.3341Z" fill="white"/>
<rect x="86" y="2" width="28" height="28" rx="6" fill="url(#paint0_radial)"/>
<rect x="86" y="2" width="28" height="28" rx="6" fill="url(#paint1_radial)"/>
<rect x="86" y="2" width="28" height="28" rx="6" fill="url(#paint2_radial)"/>
<path d="M107 10.5C107 11.3284 106.328 12 105.5 12C104.672 12 104 11.3284 104 10.5C104 9.67157 104.672 9 105.5 9C106.328 9 107 9.67157 107 10.5Z" fill="white"/>
<path fill-rule="evenodd" clip-rule="evenodd" d="M100 21C102.761 21 105 18.7614 105 16C105 13.2386 102.761 11 100 11C97.2386 11 95 13.2386 95 16C95 18.7614 97.2386 21 100 21ZM100 19C101.657 19 103 17.6569 103 16C103 14.3431 101.657 13 100 13C98.3431 13 97 14.3431 97 16C97 17.6569 98.3431 19 100 19Z" fill="white"/>
<path fill-rule="evenodd" clip-rule="evenodd" d="M90 15.6C90 12.2397 90 10.5595 90.654 9.27606C91.2292 8.14708 92.1471 7.2292 93.2761 6.65396C94.5595 6 96.2397 6 99.6 6H100.4C103.76 6 105.44 6 106.724 6.65396C107.853 7.2292 108.771 8.14708 109.346 9.27606C110 10.5595 110 12.2397 110 15.6V16.4C110 19.7603 110 21.4405 109.346 22.7239C108.771 23.8529 107.853 24.7708 106.724 25.346C105.44 26 103.76 26 100.4 26H99.6C96.2397 26 94.5595 26 93.2761 25.346C92.1471 24.7708 91.2292 23.8529 90.654 22.7239C90 21.4405 90 19.7603 90 16.4V15.6ZM99.6 8H100.4C102.113 8 103.278 8.00156 104.178 8.0751C105.055 8.14674 105.503 8.27659 105.816 8.43597C106.569 8.81947 107.181 9.43139 107.564 10.184C107.723 10.4968 107.853 10.9452 107.925 11.8221C107.998 12.7223 108 13.8868 108 15.6V16.4C108 18.1132 107.998 19.2777 107.925 20.1779C107.853 21.0548 107.723 21.5032 107.564 21.816C107.181 22.5686 106.569 23.1805 105.816 23.564C105.503 23.7234 105.055 23.8533 104.178 23.9249C103.278 23.9984 102.113 24 100.4 24H99.6C97.8868 24 96.7223 23.9984 95.8221 23.9249C94.9452 23.8533 94.4968 23.7234 94.184 23.564C93.4314 23.1805 92.8195 22.5686 92.436 21.816C92.2766 21.5032 92.1467 21.0548 92.0751 20.1779C92.0016 19.2777 92 18.1132 92 16.4V15.6C92 13.8868 92.0016 12.7223 92.0751 11.8221C92.1467 10.9452 92.2766 10.4968 92.436 10.184C92.8195 9.43139 93.4314 8.81947 94.184 8.43597C94.4968 8.27659 94.9452 8.14674 95.8221 8.0751C96.7223 8.00156 97.8868 8 99.6 8Z" fill="white"/>
<circle cx="16" cy="16" r="14" fill="url(#paint3_linear)"/>
<path d="M21.2137 20.2816L21.8356 16.3301H17.9452V13.767C17.9452 12.6857 18.4877 11.6311 20.2302 11.6311H22V8.26699C22 8.26699 20.3945 8 18.8603 8C15.6548 8 13.5617 9.89294 13.5617 13.3184V16.3301H10V20.2816H13.5617V29.8345C14.2767 29.944 15.0082 30 15.7534 30C16.4986 30 17.2302 29.944 17.9452 29.8345V20.2816H21.2137Z" fill="white"/>
<circle cx="142" cy="16" r="14" fill="url(#paint4_linear)"/>
<path d="M148.987 10.2088C149.111 9.40332 148.345 8.76755 147.629 9.082L133.365 15.3448C132.851 15.5703 132.889 16.3483 133.421 16.5179L136.363 17.4547C136.925 17.6335 137.533 17.541 138.023 17.2023L144.655 12.6203C144.855 12.4821 145.073 12.7665 144.902 12.9426L140.128 17.8646C139.665 18.3421 139.757 19.1512 140.314 19.5005L145.659 22.8523C146.258 23.2282 147.03 22.8506 147.142 22.1261L148.987 10.2088Z" fill="white"/>
<defs>
<radialGradient id="paint0_radial" cx="0" cy="0" r="1" gradientUnits="userSpaceOnUse" gradientTransform="translate(96 23) rotate(-55.3758) scale(25.5196)">
<stop stop-color="#B13589"/>
<stop offset="0.79309" stop-color="#C62F94"/>
<stop offset="1" stop-color="#8A3AC8"/>
</radialGradient>
<radialGradient id="paint1_radial" cx="0" cy="0" r="1" gradientUnits="userSpaceOnUse" gradientTransform="translate(95 31) rotate(-65.1363) scale(22.5942)">
<stop stop-color="#E0E8B7"/>
<stop offset="0.444662" stop-color="#FB8A2E"/>
<stop offset="0.71474" stop-color="#E2425C"/>
<stop offset="1" stop-color="#E2425C" stop-opacity="0"/>
</radialGradient>
<radialGradient id="paint2_radial" cx="0" cy="0" r="1" gradientUnits="userSpaceOnUse" gradientTransform="translate(84.5 3) rotate(-8.1301) scale(38.8909 8.31836)">
<stop offset="0.156701" stop-color="#406ADC"/>
<stop offset="0.467799" stop-color="#6A45BE"/>
<stop offset="1" stop-color="#6A45BE" stop-opacity="0"/>
</radialGradient>
<linearGradient id="paint3_linear" x1="16" y1="2" x2="16" y2="29.917" gradientUnits="userSpaceOnUse">
<stop stop-color="#18ACFE"/>
<stop offset="1" stop-color="#0163E0"/>
</linearGradient>
<linearGradient id="paint4_linear" x1="142" y1="2" x2="142" y2="30" gradientUnits="userSpaceOnUse">
<stop stop-color="#37BBFE"/>
<stop offset="1" stop-color="#007DBB"/>
</linearGradient>
</defs>
</svg>
